<?xml version="1.0" encoding="UTF-8"?>
<svg xmlns="http://www.w3.org/2000/svg" xmlns:xlink="http://www.w3.org/1999/xlink" viewBox="0 0 1511 947.12">
  <defs>
    <linearGradient id="uuid-2cf8656c-56e8-4e7e-a62c-88fc031cade4" x1="1132.85" y1="411.58" x2="1097.47" y2="461.36" gradientUnits="userSpaceOnUse">
      <stop offset="0" stop-color="#56b8d6"/>
      <stop offset=".2" stop-color="#5a71d7"/>
      <stop offset=".98" stop-color="#1637a2"/>
    </linearGradient>
    <linearGradient id="uuid-88608e88-cdca-4e95-81a5-fc4036786d50" x1="1114.54" y1="381.34" x2="1113.49" y2="425.45" xlink:href="#uuid-2cf8656c-56e8-4e7e-a62c-88fc031cade4"/>
    <linearGradient id="uuid-633d238c-41e5-4cdc-9a4f-20b5e996a628" x1="1061.39" y1="277.54" x2="1014.96" y2="342.89" gradientUnits="userSpaceOnUse">
      <stop offset="0" stop-color="#56b8d6"/>
      <stop offset=".77" stop-color="#5a71d7"/>
    </linearGradient>
    <linearGradient id="uuid-42e047cf-f4cb-4abc-8061-475a5d141e9b" x1="1132.57" y1="562.65" x2="1158.48" y2="448.45" xlink:href="#uuid-633d238c-41e5-4cdc-9a4f-20b5e996a628"/>
    <linearGradient id="uuid-2a98002f-2359-4041-a34b-7daf0a4f19ec" x1="2274.95" y1="73.37" x2="2265.68" y2="74.11" gradientTransform="translate(-1118.48 686.99) rotate(-13.81)" gradientUnits="userSpaceOnUse">
      <stop offset="0" stop-color="#fc5653"/>
      <stop offset="1" stop-color="#fc0053"/>
    </linearGradient>
    <linearGradient id="uuid-de1a3177-fec7-44f0-9e05-555bfe484b4d" x1="1138.41" y1="304.84" x2="1056.33" y2="420.37" xlink:href="#uuid-633d238c-41e5-4cdc-9a4f-20b5e996a628"/>
    <linearGradient id="uuid-fff1f82a-f712-414a-be4d-1e64cd7d9c82" x1="1077.85" y1="550.24" x2="1103.76" y2="436.03" xlink:href="#uuid-633d238c-41e5-4cdc-9a4f-20b5e996a628"/>
    <linearGradient id="uuid-103393fa-1a4c-46a2-a727-ceb368356976" x1="932.91" y1="50.14" x2="867.74" y2="114.2" gradientUnits="userSpaceOnUse">
      <stop offset="0" stop-color="#f86c13"/>
      <stop offset="1" stop-color="#ef248d"/>
    </linearGradient>
  </defs>
  <g isolation="isolate">
    <g id="uuid-256f26f9-42b9-4a20-b1c9-cd161d105b75" data-name="Layer 1">
      <g>
        <path d="m1055.13,440.18s81.87,16.02,116.06-1.77c0,0-13.05-17.44-41.78-22.9-28.73-5.46-74.28,24.67-74.28,24.67Z" fill="url(#uuid-2cf8656c-56e8-4e7e-a62c-88fc031cade4)"/>
        <path d="m1055.13,440.18s81.87,16.02,116.06-1.77c0,0-13.05-17.44-41.78-22.9-28.73-5.46-74.28,24.67-74.28,24.67Z" fill="url(#uuid-88608e88-cdca-4e95-81a5-fc4036786d50)" mix-blend-mode="multiply"/>
        <path d="m1049.85,265.88s-2.94.97-7.19,2.04c-7.81,1.66-16.3,3.72-23.85,7.74-7.61,4.05-13.72,7.51-19.32,11.55-2.14,4.66-3.49,8.74-3.68,9.87-.53,3.17,24.15,49.52,31.15,63.62,7,14.1,29.35,12.16,35.5-11.1,6.14-23.26-2.99-76.05-12.61-83.71Z" fill="url(#uuid-633d238c-41e5-4cdc-9a4f-20b5e996a628)"/>
        <path d="m1049.85,265.88s-2.94.97-7.19,2.04c-7.81,1.66-16.3,3.72-23.85,7.74-7.61,4.05-13.72,7.51-19.32,11.55-2.14,4.66-3.49,8.74-3.68,9.87-.53,3.17,24.15,49.52,31.15,63.62,7,14.1,29.35,12.16,35.5-11.1,6.14-23.26-2.99-76.05-12.61-83.71Z" fill="#5a71b3" mix-blend-mode="multiply" opacity=".85"/>
        <path d="m1049.85,265.88s-2.94.97-7.19,2.04c-7.81,1.66-16.3,3.72-23.85,7.74-5.66,3.01-10.48,5.69-14.89,8.53,1.18,1.2,2.39,2.37,3.62,3.5,4.66-3.91,9.75-7.25,14.93-9.61,9.57-4.36,20.15-5.65,30.17-8.73-.92-1.54-1.85-2.73-2.79-3.48Z" fill="#100142"/>
        <path d="m1415.27,332.06c2.29-2.91-13.04-5.9-15.86-5.99-2.82-.09-15.77-1.76-15.77-1.76,18.77-.79,24.06-4.36,23.53-7.01-.53-2.64-14.94-.4-17.98.13-3.04.53-13.04,2.38-16.57,2.91-3.53.53-13.04,5.82-18.33,7.67-5.29,1.85-49.17-8.99-72.7-11.54-23.53-2.56-35.69-.35-46.62-2.47-10.93-2.11-69.79-27.14-82.48-27.85-12.69-.7-37.61-1.09-37.61-1.09h0c-.36-1.08-.63-1.73-.63-1.73,0,0-29.61-16.13-29.08-53.4l-33.97-22.6-1.98,9.45s6.28,34.09.63,48.58c-.02.03-1.5,2.35-3.94,5.39-.45.28-.93.53-1.45.7,0,0,.08.29.22.77-4.75,5.58-12.23,12.57-20.14,12.88-13.22.53-58.16-39.43-64.15-49.66-5.99-10.22-37.36-64.2-39.48-73.01-1.17-4.88-3.2-11.24-2.47-15.69.59-3.58,3.88-5.82,3.88-5.82,7.1-9.11,10.22-17.09,12.51-24.85,3-10.16-2.64-4.05-9.69,5.46-7.05,9.52-14.8,11.63-22.56,15.16-7.75,3.53-24.67-7.4-38.07-5.29-13.39,2.11,3.98,11.46,13.39,14.98,11.81,4.41,16.37,5.27,19.56,12.43,2.24,5.02,5.02,12.21,9.52,25.91,4.28,13.04,31.19,77.99,37.54,87.5,6.34,9.52,76.14,66.09,84.6,73.49,8.46,7.4,32.78,65.21,35.3,73.67,2.52,8.46,0,35.25,0,35.25,0,0,90.01,16.39,92.12,1.59,2.11-14.8-3.7-39.65-7.55-44.94-3.85-5.29,2.6-71.59.15-78.52-3.17-8.99,7.67-6.34,7.67-6.34,24.85,11.63,67.41,12.43,69.79,12.43s2.11-.26,20.09,2.91c17.98,3.17,98.08.7,100.9,2.91,2.82,2.2,12.6,13.22,15.24,13.31,2.64.09,10.75,4.58,12.07,1.67,1.32-2.91-2.11-4.41-6.08-6.96-3.97-2.56-5.55-6.79-5.82-8.2-.26-1.41,11.81-1.85,14.28-1.85s5.42-1.01,12.36.18c6.94,1.19,15.07,3.57,17.05,1.19,1.98-2.38-8.46-5.02-10.24-5.55-1.78-.53-11.37-2.11-11.37-2.11,2.31.13,12.16.99,12.16.99,13.22,4.23,18.04,1.98,16.65.33-1.39-1.65-14.87-5.22-15.99-5.55-1.12-.33-12.51-1.72-12.51-1.72,0,0,11.72.79,13.48,1.32,1.76.53,14.1,3.26,16.39.35Z" fill="#f5aa8d"/>
        <path d="m1148.81,366.86c.75-16.06,1.43-31.01.34-34.1-3.17-8.99,7.67-6.34,7.67-6.34,24.85,11.63,67.41,12.43,69.79,12.43.87,0,1.39-.03,2.57.08-3.06-1.54-6.12-3.14-9.21-4.77-12.99-6.84-28.23-1.36-41.86-6.98-13.43-5.54-42.62-22.19-44.01,5.33-.33,6.6-6.71,9.18-11.54,7.76v26.61h26.28Z" fill="#ca5645"/>
        <path d="m1063.07,299.57c-1.2-2.86-2.51-5.55-3.88-8.18-2.33-2.62-4.61-5.22-6.87-7.6-3.21-3.36-6.17-6.72-8.85-10.23-3.7,4.11-8.67,8.55-14.13,10.48,4.25,8.44,8.7,24.66,4.81,33.69-2.35,5.46-5.55,9.13-11.63,8.42-5.28-.62-19.79-12-20.7-12.38-24.24-10.1-30.61-23.47-43.93-32.31-3.03-2.01-6.01-3.38-8.97-4.38,16.87,16.75,72.7,62.05,80.21,68.63,4.83,4.22,14.81,24.84,22.97,43.36h27.79v-50.47c-6.77-12.55-11.3-25.9-16.81-39.03Z" fill="#ca5645"/>
        <path d="m912.52,141.62c4.02-2.59,8.44-3.83,12.87-4.97,4.97-7.37,7.51-14.06,9.44-20.58,3-10.16-2.64-4.05-9.69,5.46-7.05,9.52-14.8,11.63-22.56,15.16-7.75,3.53-24.67-7.4-38.07-5.29-13.39,2.11,3.98,11.46,13.39,14.98,8.49,3.17,13.21,4.53,16.39,7.69,5.82-4.49,12.05-8.48,18.23-12.46Z" fill="#ca5645"/>
        <path d="m1070.95,455.75c.21-1.58.9-3.17,2.25-4.63,24.34-26.36,53.46-17.08,83.39-9.95-1.21-12.77-4.88-26.17-7.59-29.89-.71-.98-1.07-4.06-1.2-8.46h-89.81c3.31,7.94,5.73,14.19,6.43,16.57,2.52,8.46,0,35.25,0,35.25,0,0,2.46.45,6.53,1.12Z" fill="#ca5645"/>
        <path d="m1089.95,458.62c24.73,3.38,59.33,6.64,65.59-.44-22.71-5.71-46.33-15.14-65.59.44Z" fill="#ca5645"/>
        <path d="m1080.1,525.64s4.78,105.14,2.53,106.63c-2.25,1.49-29.15,16.56-42.29,48.75-13.14,32.19-48.71,82.61-54.08,87.66,0,0-5.2,22.02,9.36,26.93,0,0,116.07-128.2,138.19-145.36,20.44-15.86,14.32-149.45,14.32-149.45l-68.04,24.84Z" fill="#f5aa8d"/>
        <path d="m1025.52,729c8.84-16.61,17.97-34.36,34.94-44.1,10.56-6.06,40.2-24.1,43.8-37.19,1.7-6.18,6.87-17.76,10.21-23.34,8.22-13.71,18.66-13.29,31.46-13.38,4.75-34.05,2.22-110.19,2.22-110.19l-68.04,24.84s4.78,105.14,2.53,106.63c-2.25,1.49-29.15,16.56-42.29,48.75-13.14,32.19-48.71,82.61-54.08,87.66,0,0,.2,5.07,1.9,10.95,14.14-15.6,27.41-31.96,37.36-50.64Z" fill="#ca5645"/>
        <path d="m1163.07,563.49s-27.14-2.83-50.05-8.05l15.58-110.56s23.55.94,32.01,4.46c0,0,6.7,33.19,4.93,54.84-1.76,21.65-2.47,59.31-2.47,59.31Z" fill="url(#uuid-42e047cf-f4cb-4abc-8061-475a5d141e9b)"/>
        <path d="m1114.78,550.75l.33-2.36h-1.1l-.99,7.05c22.91,5.22,50.05,8.05,50.05,8.05,0,0,.04-1.86.11-4.87-6.14-.69-28.79-3.4-48.4-7.87Z" fill="#100142"/>
        <path d="m1139.6,534.25c.24-1.9.72-3.68,1.3-5.4,2.55-7.57,1.81-15.72-1.49-22.99-1.81-3.98-2.9-8.1-2.82-12.22.28-13.72-2.53-25.59-9.81-35.82l-13.75,97.62c11.88,1.83,13.92,3.7,36.91,6.44-7.1-7.05-11.53-18.07-10.33-27.62Z" fill="#5a71b3" mix-blend-mode="multiply" opacity=".55"/>
        <path d="m1082.37,254.48c3.48,2.76,6.93,4.8,10.4,6.29-4.44-7.98-7.78-18.16-7.6-30.84l-16.58-4.22c1.8,10.86,4.29,21.25,13.78,28.78Z" fill="#ca5645"/>
        <path d="m1059.45,276.49c1.45-16.53,5.61-29.89.65-46.69-.8-2.7-6.71-14.96-8.03-17.12l-2.84,4.1s9.25,50.16-4.76,54.66c0,0,4.44,16.56,15.35,29.59-.98-8.08-1.08-16.3-.36-24.53Z" fill="#ca5645"/>
        <path d="m1083.15,148.01s19,7.77,20.76,31.43c.11,1.44-.62,4.3.1,5.55,2.67,4.65,8.75,14.3,10.53,17.1,2.23,3.5-6.6,5.03-7.87,6.3-1.27,1.27,3.51,16.6.33,22.01-3.18,5.41-24.97,7.93-42.94,0-10.61-4.68-6.39-17.73-19.61-24.08-6.29-3.02-22.37-15.68-7.43-28.08,14.95-12.4,21.63-35.94,46.12-30.22Z" fill="#f5aa8d"/>
        <path d="m1055.03,510.15s-8.95,110.23-11.63,110.5c-27.73,2.82-29.08,8.46-53.4,33.31-24.32,24.85-85.65,53.93-92.53,56.57,0,0-7.93,21.68,3.7,31.72,0,0,142.75-72.43,170.25-77.72,27.49-5.29,48.11-149.1,48.11-149.1l-64.5-5.29Z" fill="#f5aa8d"/>
        <path d="m1095.88,192.89c.38,1.82-1.02,3.65-3.13,4.1-2.11.44-4.13-.67-4.51-2.49-.38-1.82,1.02-3.65,3.13-4.1,2.11-.44,4.13.67,4.52,2.49Z" fill="#100142"/>
        <path d="m1082.7,186.85c-.32.08-.67-.03-.89-.31-.31-.4-.26-1.01.13-1.35.21-.19,5.27-4.64,11.99-3.97.49.05.85.52.79,1.04-.05.53-.49.92-.99.87-5.98-.59-10.62,3.49-10.66,3.53-.11.1-.24.16-.37.2Z" fill="#100142"/>
        <path d="m1107.27,215.89c-2.04-.1-4.15-.14-7.06-1.58-.73-.36-1.62-.06-1.98.67-.36.73-.06,1.62.67,1.98,3.76,1.87,6.24,2.5,8.86,2.44-.28-1.01-.2-2.55-.48-3.51Z" fill="url(#uuid-2a98002f-2359-4041-a34b-7daf0a4f19ec)"/>
        <path d="m1113.19,153.44c-1.41-10.93-25.17-30.49-39.55-26.08-14.38,4.41-22.67,29.96-33.06,29.96s-11.63-3.52-16.92.18c-5.29,3.7-14.45,20.1-1.59,36.05,12.87,15.94,16.64,17.16,18.15,19.64,4.23,6.96,7.17,7.34,9.62,8.08,1.74-2.9,3.61-7.33,1.61-12.09-1.63-3.89-14.41-17.82-.53-21.41,15.5-4.01,9.91,13.48,10.71,15.86.1.31,6.57.27,8.93-1.27-.36-1.65-.71-3.23-.87-4.41-.53-3.97,2.73-17.36-5.51-25.47,0,0,14.5-8.87,25.92-6.52,11.42,2.35,13.37,9.87,13.37,9.87,0,0,11.11-11.46,9.7-22.38Z" fill="#100142"/>
        <path d="m1049.85,191.66s4.69-1.26,7.43,1.28c1.8,1.67,3.54,6.48.1,10.2-1.43,1.54-6.24,1.68-4.59-4.37.88-3.24.22-4.74-2.94-7.11Z" fill="#ca5645"/>
        <path d="m1102.25,273.64s9.71,25.37-5.27,26.25c-14.98.88-47.13-34.56-47.13-34.56l-13.88,4s27.25,85.65-9.01,91.24c0,0,16.61,33.08,25.07,44.01s4.77,30.31,3.09,35.6c0,0,32.86-17.27,68.46-13.39,35.6,3.88,47.59,11.62,47.59,11.62,0,0,7.04-35.59-8.82-68.73-12.64-26.4-13.37-35.6-13.37-35.6,0,0-20.44-10.67-29.71-48.95,0,0-15.54-10-17.03-11.49Z" fill="url(#uuid-de1a3177-fec7-44f0-9e05-555bfe484b4d)"/>
        <path d="m1150.6,340.88c-1.44-4.77-1.61-6.8-1.61-6.8,0,0-20.44-10.67-29.71-48.95,0,0,.67.47-3.07-1.99,10,42.42,27.13,54.01,34.38,57.73Z" fill="#100142"/>
        <path d="m1098.01,427.33c-7-7.44-16.73-13.75-23.62-21.91-7.4-8.76-9.59-22.48-3.93-32.78,11.87-21.6-13.58-24.93-15.31-44.85-1.1-12.65,3.17-25.7-4.71-36.89-4.93-6.99-8.19-14.89-12.62-22.1l-1.85.53s.66,2.09,1.65,5.64c.28,1.01.58,2.13.9,3.35,5.82,22.13,17.43,77.78-11.56,82.25,0,0,16.61,33.08,25.07,44.01,8.46,10.93,4.77,30.31,3.09,35.6,0,0,20.1-9.55,42.89-12.85Z" fill="#5a71b3" mix-blend-mode="multiply" opacity=".55"/>
        <g>
          <path d="m1026.96,360.57s1.03,2.05,2.7,5.28c30.99-7.56,20.12-64.41,13.73-89.37-.49-1.92-1.54-5.16-3.36-6.51-1.62-1.21-4.06-.64-4.06-.64,0,0-10.93,2.52-10.15,5.27.18.65,11.15-2.03,12.03,1.2,5.47,20.05,19.28,80.13-10.88,84.77Z" fill="#100142"/>
          <path d="m1127.4,421.65c-35.48-3.86-67.94,11.04-71.67,14.98-.13,1.48-.33,2.7-.6,3.54,0,0,32.86-17.27,68.46-13.39,35.6,3.88,47.59,11.62,47.59,11.62,0,0,.47-2.44.9-6.58-5.24-2.41-18.57-7.33-44.68-10.17Z" fill="#100142"/>
        </g>
        <path d="m1065.37,440.18s-16.86,35.25-18.62,52.52c-1.76,17.27-2.11,49.35-13.75,58.86,0,0,29.26,9.52,45.82,11.28,16.57,1.76,34.54-.7,40.71,0,0,0,14.48-96.55,18.51-114.91,0,0-37.49-14.45-72.68-7.75Z" fill="url(#uuid-fff1f82a-f712-414a-be4d-1e64cd7d9c82)"/>
        <path d="m1080.51,557.46c-14.2-1.51-36.96-8.85-43.39-10.88-.94,1.35-2.97,4.04-4.12,4.99,0,0,29.26,9.52,45.82,11.28,16.57,1.76,34.54-.7,40.71,0,0,0,.53-2.82.93-5.44-6.76-.46-23.99,1.75-39.95.06Z" fill="#100142"/>
        <path d="m1064.8,556.28c-.78-6.8-.44-14.02,2.96-20.21,3.13-5.7,14.34-17.18,11.56-24.38-5.59-14.49-10.93-25.63-5.62-41.14,3.35-9.79,19.6-20.9,20.66-31.79-9.28-.64-19.22-.45-29,1.41,0,0-16.86,35.25-18.62,52.52-1.76,17.27-2.11,49.35-13.75,58.86,0,0,17.2,5.59,32.69,8.99-.38-1.4-.72-2.81-.89-4.28Z" fill="#5a71b3" mix-blend-mode="multiply" opacity=".55"/>
        <path d="m902.29,708.42s-23.68-2.12-32.49,2.82c-8.81,4.93-20.09,81.42-10.57,90.59,9.52,9.16,26.08-8.94,28.55-19.63,2.47-10.69,8.61-37.75,14.51-40.46,0,0-6.46-20.8,0-33.32Z" fill="#100142"/>
        <path d="m988.29,765.32s-22,3.29-28.93,9.71c-6.93,6.43,1.52,78.25,12.19,84.49,10.67,6.24,19.89-13.65,19.78-23.91-.11-10.26-.48-36.23,4.29-39.99,0,0-10.45-17.49-7.34-30.3Z" fill="#100142"/>
        <path d="m1096.98,299.89c-14.98.88-47.13-34.56-47.13-34.56l-4.08,1.17c11.5,13.99,37.82,39.69,54.08,39.38,12.99-.25,9.89-18.59,7.14-28.84-2.36-1.6-4.26-2.94-4.74-3.41,0,0,9.71,25.37-5.27,26.25Z" fill="#100142"/>
        <g>
          <g>
            <path d="m939.89,104.96c5.71-21.9-5.97-45.88-26.91-54.47-12.46-5.11-31.86-10.45-53.93,3.7-30.15,19.33-25.39,63.06,1.29,78.43,37.88,21.82,73.17-3.18,79.55-27.66Z" fill="url(#uuid-103393fa-1a4c-46a2-a727-ceb368356976)"/>
            <path d="m941.31,94.9c.03-1,.02-2-.02-2.99-4.5,2.25-11.62,5.29-20.81,7.49-7.34,1.76-18.01,2.45-28.33,1.31-.82-12.88,6.93-21.25,16.91-26,8.82-4.2,19.21-5.63,25.73-4.99-.47-.8-.95-1.58-1.46-2.35-6.73.07-21.04,1.23-31.49,9.07-8.18,6.14-11.67,15.25-11.08,24.12-6.46-.82-12.72-2.39-17.86-4.88.05-.37.1-.72.16-1.1,4.08-24.92,23.49-39.07,38.68-44.58-1.14-.45-2.33-.89-3.56-1.32-5.67,2.53-12.09,6.46-16.62,10.27-11.1,9.34-17.77,22.22-20.03,36.02-.22-.12-.45-.24-.67-.36-3.29-1.87-6.17-3.7-8.69-5.47,2.03-2.53,3.82-5.45,5.21-8.83,4.98-12.09,5.21-23.75,4.45-32.36-.52.18-1.04.37-1.57.57.68,9.37.42,27.36-9.57,39.55-7.48-5.49-13.48-12.41-16.93-17.49-.38.7-.74,1.42-1.08,2.14,3.15,3.99,8.99,10.7,16.8,16.76-6.67,7.27-14.29,9.92-20.53,10.67.18,1.13.39,2.26.65,3.38,5.74-1.68,14.59-5.34,21.35-12.93,3.15,2.33,6.6,4.53,10.3,6.39-1.13,8.57-.59,17.45,1.64,26.02,1.1,4.22,5.01,12.96,7.03,17.05,1.23.23,2.45.42,3.66.57-5.56-6.94-13.61-21.1-10.94-42.95,2.7,1.28,5.52,2.37,8.46,3.2,3.09.87,6.44,1.52,9.93,1.98,1.44,9.83,7.92,19.01,18.63,23.03,3.84,1.44,8.41,2.54,13.85,3.13.57-.46,1.13-.93,1.68-1.41-12.6-1.02-29.01-6.01-32.65-24.57,17.28,1.94,37.65-1.01,48.79-8.11Z" fill="#752200"/>
          </g>
          <path d="m925.34,108.57c-7.39,1.93-14.89,2.04-22.47,1.4-7.44-.63-17.92-1.39-24.5-5.07-11.75-6.57-22.83-20.97-24.61-43.8-4.01,3.69-7.08,7.93-9.26,12.48h0c-9.55,19.89-2.16,45.57,16.98,56.37,6.38,3.6,12.69,5.84,18.78,6.97h0c.59.11,1.17.21,1.75.29.01,0,.02,0,.03,0,.58.09,1.15.16,1.73.23h0c27.06,3.19,49.25-15.32,54.09-33.53.12-.47.24-.93.34-1.4-3.99,2.58-8.2,4.82-12.88,6.04Z" fill="#aa3b1d" mix-blend-mode="multiply" opacity=".32"/>
        </g>
      </g>
    </g>
  </g>
</svg>