<?xml version="1.0" encoding="UTF-8"?>
<svg id="uuid-96052fce-8e59-485d-9544-144b3912f6a7" data-name="BACKGROUND" xmlns="http://www.w3.org/2000/svg" viewBox="0 0 1621.61 558.12">
  <g id="uuid-952c3129-345a-4808-8296-db4d5ca18492" data-name="g3293">
    <path id="uuid-cdb1dd2c-4794-47ad-822c-ae6ba402c9d3" data-name="path2987" d="m834.71,8.12l89.05,487.52h399.16L1411.97,8.12h-577.26Z" fill="#5f45b1" fill-rule="evenodd"/>
    <path id="uuid-373f55a9-6782-4cab-a3e3-63a1f7de9ea8" data-name="rect3015" d="m840.59,40.3l83.17,455.34h399.16l83.17-455.34h-565.5Z" fill="#6652b8"/>
    <path id="uuid-f58ce90c-23c4-4a5a-a0e2-84038ebfb071" data-name="rect3017" d="m847.12,76.04l76.65,419.61h399.16l76.65-419.61h-552.45Z" fill="#6c5ebe"/>
    <path id="uuid-e6110042-1234-4ead-89a0-2f78dd8aa495" data-name="rect3019" d="m853.64,111.78l70.12,383.87h399.16l70.12-383.87h-539.39Z" fill="#716ac4"/>
    <path id="uuid-8ff60cb7-6a6c-4fb0-b097-f73136ab6f22" data-name="rect3027" d="m860.17,147.51l63.59,348.13h399.16l63.59-348.13h-526.34Z" fill="#7774c9"/>
    <path id="uuid-e39bf667-6989-4ea7-a94b-6f76bb053eb0" data-name="rect3029" d="m866.7,183.25l57.06,312.39h399.16l57.06-312.39h-513.28Z" fill="#7c7ece"/>
    <path id="uuid-3634e448-30b9-45a9-9ab1-8dfb14f8fb7c" data-name="rect3031" d="m873.23,218.99l50.53,276.66h399.16l50.53-276.66h-500.23Z" fill="#8086d2"/>
    <path id="uuid-0a8c4176-7a56-47dc-8850-405fcce49634" data-name="rect3033" d="m879.75,254.73l44.01,240.92h399.16l44.01-240.92h-487.17Z" fill="#848ed7"/>
    <path id="uuid-3d5bb9ca-9d3b-44dd-b8f2-64aa65657fcf" data-name="path2996" d="m937.81,8.12l55.58,424.83h259.89l55.58-424.83h-371.05Z" fill="#6652b8" fill-rule="evenodd"/>
    <path id="uuid-db0c32bd-3c91-4955-8324-23d0f8186fa7" data-name="path3076" d="m942.02,40.3l51.37,392.66h259.89l51.37-392.66h-362.63Z" fill="#716ac4" fill-rule="evenodd"/>
    <path id="uuid-544f874d-aeb8-4c2d-8136-6ad76d7421e3" data-name="path3081" d="m946.7,76.04l46.7,356.92h259.89l46.7-356.92h-353.28Z" fill="#7c7ece"/>
    <path id="uuid-9f3cf52b-5787-41d4-a604-624621f848b3" data-name="path3086" d="m951.37,111.78l42.02,321.18h259.89l42.02-321.18h-343.93Z" fill="#848ed7" fill-rule="evenodd"/>
    <path id="uuid-572ecc07-b121-43d7-9eb3-badba63d7436" data-name="path3091" d="m956.05,147.51l37.35,285.44h259.89l37.35-285.44h-334.58Z" fill="#8b9bde" fill-rule="evenodd"/>
    <path id="uuid-16003e49-e91e-4637-8e1b-6d34dbbeee76" data-name="path3096" d="m960.73,183.25l32.67,249.71h259.89l32.67-249.71h-325.23Z" fill="#91a5e4" fill-rule="evenodd"/>
    <path id="uuid-3a60bc6e-d10c-4928-8332-7306c267ce54" data-name="path3101" d="m965.4,218.99l27.99,213.97h259.89l27.99-213.97h-315.87Z" fill="#95aee8" fill-rule="evenodd"/>
    <path id="uuid-e029f93b-01cc-42d9-9eb0-c39e2b2f964a" data-name="path3106" d="m970.08,254.73l23.32,178.23h259.89l23.32-178.23h-306.52Z" fill="#99b6ec" fill-rule="evenodd"/>
  </g>
</svg>