<?xml version="1.0" encoding="UTF-8"?>
<svg id="uuid-faf4fd6d-7c3f-447f-811f-30e6bea761e9" data-name="OBJECTS" xmlns="http://www.w3.org/2000/svg" xmlns:xlink="http://www.w3.org/1999/xlink" viewBox="0 0 1621.61 558.12">
  <defs>
    <linearGradient id="uuid-0d55fa28-9dfd-46d7-93f7-e08103800357" data-name="未命名漸層 7" x1="987" y1="187.07" x2="1257.03" y2="187.07" gradientUnits="userSpaceOnUse">
      <stop offset="0" stop-color="#fff"/>
      <stop offset="1" stop-color="#d2e7fd"/>
    </linearGradient>
  </defs>
  <g>
    <path d="m1257.03,187.07c0,10.63-1.23,20.97-3.56,30.9-.19.82-1.88,2.17-2.08,2.99-.19.75,1.09.97.89,1.71v.02c-9.2,33.73-31.16,62.21-60.35,79.89-.72.44-3.7.02-4.42.45-.77.45.71,1.75-.07,2.18h-.02c-19.37,10.76-41.66,16.87-65.39,16.87s-47.76-6.61-67.64-18.14c-.82-.48-1.89-3.79-2.7-4.29-.66-.4-1.07,2.01-1.72,1.59-5.75-3.64-11.18-7.68-16.3-12.12-17.94-15.52-31.73-35.71-39.53-58.68-.21-.64,1.1-3.84.9-4.49-.24-.76-2,1.04-2.22.26v-.02c-3.76-12.39-5.78-25.52-5.78-39.13,0-14.73,2.35-28.9,6.72-42.16.2-.62,3.48.27,3.69-.34.19-.55-2.69-2.6-2.5-3.15,10.15-28.3,29.49-52.2,54.41-68.12.68-.44-.14,4.86.55,4.43,1.02-.63,3.54-6.97,4.57-7.57,19.87-11.51,42.97-18.1,67.57-18.1,7.16,0,14.21.55,21.08,1.65,1.18.17-1.82,2.25-.66,2.46,1.05.19,6.26-1.49,7.31-1.27,28.33,5.91,53.41,20.73,72.16,41.37,12.47,13.68,22.13,29.91,28.15,47.83.22.65-1.89,1.25-1.69,1.9.21.68,2.74,1.4,2.94,2.08,3.73,12.34,5.73,25.43,5.73,38.98Z" fill="url(#uuid-0d55fa28-9dfd-46d7-93f7-e08103800357)"/>
    <path d="m1191.89,301.5c-1.49.92-2.97,1.8-4.5,2.63h-.02c-26.28-7.11-50.53-18.27-71.37-32.67-16.98-11.71-31.71-25.56-43.44-41.09-.73-.99-1.47-1.98-2.2-2.99-2.22-3.08-4.33-6.24-6.32-9.46-7.16-11.57-12.76-24-16.8-36.91-.4-1.25-.77-2.5-1.12-3.75-3.31-11.42-5.38-23.17-6.24-35.02-.11-1.27-.18-2.52-.24-3.78-1.18-22.46,2.02-45.13,9.66-66.25,1.69-1.1,3.4-2.13,5.12-3.14-8.54,21.57-12.23,44.97-11.16,68.18.06,1.27.13,2.55.22,3.82.77,11.49,2.72,22.9,5.82,33.99.35,1.25.72,2.48,1.08,3.71h.02c3.97,13.04,9.57,25.58,16.76,37.22,1.87,3.03,3.86,5.99,5.93,8.91.72.99,1.45,1.98,2.18,2.96,11.92,15.85,27.01,29.93,44.49,41.74,21.06,14.25,45.59,25.17,72.12,31.91Z" fill="#8093db"/>
    <path d="m1149.71,53.83c-6.28,2.39-12.28,5.49-17.83,9.29-13.02,8.92-23.5,21.43-33.62,33.51-10.47,12.49-21.3,25.41-35.07,34.65-6.11,4.11-12.78,7.38-19.72,9.8-1.19.42-2.39.81-3.6,1.18-8.46,2.55-17.33,3.86-26.18,3.86-6.72,0-13.44-.75-20-2.28.39-1.17.77-2.33,1.19-3.49,14.74,3.34,30.33,2.64,44.75-1.87,1.21-.37,2.42-.77,3.62-1.21,6.3-2.28,12.32-5.29,17.9-9.03,13.33-8.94,23.98-21.67,34.28-33.95,10.3-12.28,20.93-24.97,34.37-34.19,4.19-2.86,8.63-5.38,13.26-7.45,2.24.33,4.44.73,6.65,1.19Z" fill="#8093db"/>
    <path d="m1251.27,147.01c-10.8-2-21.74-3.87-32.76-5.16-7.12-.84-14.27-1.45-21.41-1.67-21.15-.66-44.23,1.85-70.62,7.69-24.88,5.53-43.96,12.17-60.01,20.91-5.56,3.01-10.91,6.39-16.08,9.99h-.02c-1.07.73-2.09,1.47-3.14,2.24-9.75,7-18.88,14.73-27.51,22.33-8.94,7.9-18.12,16.31-25.65,26.02-.46-1.4-.92-2.79-1.32-4.22v-.02c7.4-9.11,16.08-17.06,24.55-24.53,9-7.93,18.56-16.03,28.81-23.32,1.05-.75,2.11-1.49,3.18-2.2,4.98-3.42,10.1-6.61,15.42-9.51,16.38-8.91,35.75-15.66,60.98-21.26,26.68-5.91,50.07-8.46,71.52-7.79,7.38.22,14.74.84,22.09,1.73,10.34,1.23,20.6,2.96,30.72,4.79.44,1.32.86,2.64,1.25,3.98Z" fill="#8093db"/>
    <path d="m1253.44,216.89c-.37,1.58-.77,3.14-1.19,4.7v.02c-16.05,7.71-34.13,11.26-51.91,9.75-8.8-.73-17.46-2.64-25.94-4.94-4.5-1.19-8.96-2.52-13.37-3.82-4.77-1.41-9.71-2.86-14.56-4.15-14.03-3.71-34.8-7.86-53.23-1.29-6.5,2.33-12.58,5.99-17.96,10.69-.94.81-1.84,1.65-2.72,2.52-8.52,8.37-15.04,19.44-18.36,31.88-2.22,8.3-2.97,16.93-2.37,25.47.35,5.12,1.19,10.19,2.52,15.15-1.49-.86-2.97-1.76-4.43-2.7-.9-4.06-1.49-8.19-1.76-12.32-.61-8.91.18-17.9,2.5-26.55,3.53-13.26,10.54-25.05,19.7-33.91.9-.86,1.8-1.69,2.74-2.48,5.67-4.92,12.06-8.74,18.91-11.18,19.39-6.92,40.91-2.64,55.4,1.19,4.9,1.29,9.86,2.75,14.65,4.17,4.94,1.47,9.95,2.96,15,4.26,7.77,2.04,15.66,3.71,23.59,4.37,18.18,1.52,36.65-2.39,52.79-10.82Z" fill="#8093db"/>
  </g>
  <g opacity=".27">
    <path d="m1257,185.99c0,10.63-1.23,20.97-3.56,30.9-.37,1.58-.77,3.14-1.19,4.7v.02c-9.2,33.73-31.16,62.21-60.35,79.89-1.49.92-2.97,1.8-4.5,2.63h-.02c-19.37,10.76-41.66,16.87-65.39,16.87s-47.76-6.61-67.64-18.14c-1.49-.86-2.97-1.76-4.43-2.7-5.75-3.64-11.18-7.68-16.3-12.12,4.48-1.21,9.92-.15,14.27-.2h.28c1.23-.02,2.44-.06,3.67-.13,5.95-.22,11.88-.81,17.76-1.73,16.08-2.5,31.77-7.42,46.42-14.52.37-.17.73-.35,1.1-.53.88-.44,1.78-.88,2.66-1.34,20.75-10.7,39.18-25.6,54.63-43.17.9-1.01,1.8-2.04,2.66-3.08,6.06-7.18,11.64-14.76,16.69-22.68,11.42-17.92,20.09-38.05,24.77-58.81.28-1.21.53-2.41.79-3.62,2.88-14.23,3.89-28.74,2.57-43.04,12.47,13.68,22.13,29.91,28.15,47.83.44,1.32.86,2.64,1.25,3.98,3.73,12.34,5.73,25.43,5.73,38.98Z" fill="#b4ddfd"/>
  </g>
</svg>