<?xml version="1.0" encoding="UTF-8"?>
<svg id="uuid-bfa32774-b188-4a30-9849-ecb8103f5560" data-name="Layer 1" xmlns="http://www.w3.org/2000/svg" viewBox="0 0 1516.33 947.12">
  <path d="m4.8,159.95h29.52c14.52,0,23.16,6.48,23.16,20.88,0,10.2-4.32,14.4-10.44,16.56,6.12,2.16,12.48,7.2,12.48,19.08,0,16.92-8.76,24.36-26.52,24.36H4.8v-80.88Zm25.08,30.84c3.36,0,4.2-1.92,4.2-7.56s-.72-7.56-4.32-7.56h-2.04v15.12h2.16Zm-2.16,34.32h1.68c3.96,0,5.16-1.8,5.16-9.72,0-8.88-1.32-9.96-5.4-9.96h-1.44v19.68Z" fill="#f4f6fb"/>
  <path d="m116.88,222.7c0,6.96.36,14.64.48,18.12h-21c-.6-1.68-.84-3.96-.96-5.4-4.32,5.16-9.48,6.48-14.4,6.48-9.72,0-16.92-6.84-16.92-21,0-15.12,9.84-20.88,24.48-20.88h5.4v-5.52c0-3.48-.72-4.56-2.88-4.56s-2.88,1.32-2.88,6.6h-21.72c.24-14.64,7.68-21.12,25.56-21.12,16.56,0,24.84,5.52,24.84,20.4v26.88Zm-22.92-10.32h-1.92c-4.08,0-4.92,3.12-4.92,6.72,0,4.2,1.44,5.52,3.36,5.52,2.52,0,3.48-2.16,3.48-6.84v-5.4Z" fill="#f4f6fb"/>
  <path d="m144,220.3c.24,4.08.96,6.48,3.72,6.48,2.28,0,3-1.68,3-3.84,0-2.88-1.56-3.96-7.8-6.24-13.8-5.04-18.84-9.6-18.84-21.24s6.48-20.04,23.28-20.04c21.36,0,23.76,12.12,23.76,19.68h-19.56c0-4.32-.96-5.76-3.12-5.76-2.04,0-2.88,1.2-2.88,3.36,0,2.52,1.08,3.96,8.4,6.6,13.44,4.92,18.96,10.68,18.96,20.88,0,13.2-6.6,21.72-25.08,21.72-20.88,0-24.36-11.76-24.72-21.6h20.88Z" fill="#f4f6fb"/>
  <path d="m202.31,202.66c2.88-9.36,6.12-19.92,8.16-26.28h24.6c-3.96,8.88-8.4,17.04-12.24,24.24,0,0,12.84,40.2,12.84,40.2h-25.8s-3.36-22.56-3.36-22.56c-1.44,2.76-3.36,6.12-4.2,7.56v15h-23.04v-84.24h23.04v46.08Z" fill="#f4f6fb"/>
  <path d="m259.92,213.34c0,10.56.96,12.96,3.24,12.96,2.4,0,3-2.04,3.12-6.24h22.44c-.84,8.28-3.72,21.84-26.16,21.84s-26.04-14.16-26.04-33.72c0-24,10.08-32.76,26.64-32.76,18.96,0,25.8,10.92,25.8,30.24v7.68h-29.04Zm6-12.48c0-8.16-.12-10.44-2.88-10.44-2.52,0-3.12,2.28-3.12,10.44h6Z" fill="#f4f6fb"/>
  <path d="m292.43,176.39h6.6v-14.04h22.8v14.04h7.44v17.76h-7.44v25.68c0,3.12,1.08,4.32,4.32,4.32.6,0,1.32,0,2.16-.12v16.32c-3.96,1.2-9.36,1.32-12.24,1.32-14.28,0-17.52-5.76-17.52-17.52v-30h-6.12v-17.76Z" fill="#f4f6fb"/>
  <path d="m335.51,156.59h23.4v25.2c2.28-3.48,6.48-6.36,12.84-6.36,11.28,0,17.28,6.96,17.28,30.96,0,27.72-6.24,35.52-18.6,35.52-6.96,0-10.08-3.12-11.76-6.24,0,1.32-.24,3.24-.48,5.16h-22.8c.12-6.24.12-11.88.12-15.36v-68.88Zm29.64,51.36c0-13.2-.36-15.48-3-15.48s-3.24,1.68-3.24,15.6c0,15,.12,16.8,3,16.8s3.24-2.4,3.24-16.92Z" fill="#f4f6fb"/>
  <path d="m446.87,222.7c0,6.96.36,14.64.48,18.12h-21c-.6-1.68-.84-3.96-.96-5.4-4.32,5.16-9.48,6.48-14.4,6.48-9.72,0-16.92-6.84-16.92-21,0-15.12,9.84-20.88,24.48-20.88h5.4v-5.52c0-3.48-.72-4.56-2.88-4.56s-2.88,1.32-2.88,6.6h-21.72c.24-14.64,7.68-21.12,25.56-21.12,16.56,0,24.84,5.52,24.84,20.4v26.88Zm-22.92-10.32h-1.92c-4.08,0-4.92,3.12-4.92,6.72,0,4.2,1.44,5.52,3.36,5.52,2.52,0,3.48-2.16,3.48-6.84v-5.4Z" fill="#f4f6fb"/>
  <path d="m455.15,240.82v-84.24h23.4v84.24h-23.4Z" fill="#f4f6fb"/>
  <path d="m486.71,240.82v-84.24h23.4v84.24h-23.4Z" fill="#f4f6fb"/>
  <path d="m60.6,378.82h-16.8c-.24-1.44-.6-4.08-.6-6.24-2.88,5.76-9,7.92-15.6,7.92-15,0-24.12-7.92-24.12-41.76,0-36,12.48-42.48,30.24-42.48,23.52,0,26.52,16.08,26.64,25.2h-24.24c-.12-5.04-.36-8.04-3.24-8.04-3.36,0-3.96,3.24-3.96,25.68,0,21.12.96,24.12,3.84,24.12,3.24,0,3.84-3.96,3.84-8.88v-6.12h-3.84v-16.8h27.84v47.4Z" fill="#f4f6fb"/>
  <path d="m119.52,360.7c0,6.96.36,14.64.48,18.12h-21c-.6-1.68-.84-3.96-.96-5.4-4.32,5.16-9.48,6.48-14.4,6.48-9.72,0-16.92-6.84-16.92-21,0-15.12,9.84-20.88,24.48-20.88h5.4v-5.52c0-3.48-.72-4.56-2.88-4.56s-2.88,1.32-2.88,6.6h-21.72c.24-14.64,7.68-21.12,25.56-21.12,16.56,0,24.84,5.52,24.84,20.4v26.88Zm-22.92-10.32h-1.92c-4.08,0-4.92,3.12-4.92,6.72,0,4.2,1.44,5.52,3.36,5.52,2.52,0,3.48-2.16,3.48-6.84v-5.4Z" fill="#f4f6fb"/>
  <path d="m127.8,335.38c0-12-.12-18.24-.24-21h22.08c.24.96.6,3.96.6,5.4,3.48-3.84,7.2-6.36,13.32-6.36,8.04,0,11.16,3.72,12.72,6.6,2.76-3.24,7.56-6.6,15.24-6.6,11.28,0,15.84,8.52,15.84,19.32v46.08h-22.8v-44.16c0-2.28-.48-4.2-2.52-4.2s-3,1.56-3,5.16v43.2h-22.92v-44.28c0-3.24-1.32-4.08-2.64-4.08-1.8,0-2.76,1.56-2.76,5.28v43.08h-22.92v-43.44Z" fill="#f4f6fb"/>
  <path d="m237.96,351.34c0,10.56.96,12.96,3.24,12.96,2.4,0,3-2.04,3.12-6.24h22.44c-.84,8.28-3.72,21.84-26.16,21.84s-26.04-14.16-26.04-33.72c0-24,10.08-32.76,26.64-32.76,18.96,0,25.8,10.92,25.8,30.24v7.68h-29.04Zm6-12.48c0-8.16-.12-10.44-2.88-10.44-2.52,0-3.12,2.28-3.12,10.44h6Z" fill="#f4f6fb"/>
  <path d="m293.39,358.3c.24,4.08.96,6.48,3.72,6.48,2.28,0,3-1.68,3-3.84,0-2.88-1.56-3.96-7.8-6.24-13.8-5.04-18.84-9.6-18.84-21.24s6.48-20.04,23.28-20.04c21.36,0,23.76,12.12,23.76,19.68h-19.56c0-4.32-.96-5.76-3.12-5.76-2.04,0-2.88,1.2-2.88,3.36,0,2.52,1.08,3.96,8.4,6.6,13.44,4.92,18.96,10.68,18.96,20.88,0,13.2-6.6,21.72-25.08,21.72-20.88,0-24.36-11.76-24.72-21.6h20.88Z" fill="#f4f6fb"/>
</svg>