<?xml version="1.0" encoding="UTF-8"?>
<svg id="uuid-9dd1d7a0-85cb-43d4-88f5-4708cb4be7e2" data-name="Layer 1" xmlns="http://www.w3.org/2000/svg" viewBox="0 0 1511 828.54">
  <polygon points="1061.56 37.8 1046.93 33.64 1035.2 43.33 1034.64 28.13 1021.79 19.97 1036.08 14.74 1039.87 0 1049.26 11.97 1064.45 11.02 1055.96 23.65 1061.56 37.8" fill="#fff"/>
  <polygon points="1457.72 307.88 1452.37 297.03 1440.4 295.29 1449.06 286.85 1447.02 274.93 1457.72 280.56 1468.43 274.93 1466.38 286.85 1475.04 295.29 1463.07 297.03 1457.72 307.88" fill="#fff"/>
  <polygon points="1336.28 40.95 1330.77 41.03 1327.71 45.63 1325.93 40.41 1320.61 38.92 1325.03 35.61 1324.8 30.1 1329.31 33.27 1334.49 31.35 1332.86 36.62 1336.28 40.95" fill="#fff"/>
  <polygon points="839.07 289.09 828.66 284.64 819.09 290.7 820.1 279.43 811.39 272.2 822.42 269.68 826.6 259.16 832.41 268.87 843.71 269.59 836.26 278.12 839.07 289.09" fill="#fff"/>
  <polygon points="681.4 228.72 675.22 228.54 671.57 233.52 669.84 227.59 663.97 225.66 669.07 222.18 669.1 216 673.99 219.78 679.87 217.9 677.79 223.71 681.4 228.72" fill="#fff"/>
  <polygon points="753.6 147.29 747.05 140.73 737.93 142.42 742.14 134.16 737.72 126.01 746.88 127.46 753.26 120.74 754.71 129.9 763.08 133.89 754.82 138.1 753.6 147.29" fill="#fff"/>
  <polygon points="1250.5 383.11 1244.54 382.61 1240.74 387.24 1239.37 381.41 1233.8 379.23 1238.92 376.13 1239.27 370.15 1243.8 374.07 1249.6 372.55 1247.27 378.07 1250.5 383.11" fill="#fff"/>
  <polygon points="1001.82 365.54 999.47 360.79 994.23 360.03 998.03 356.34 997.13 351.12 1001.82 353.58 1006.5 351.12 1005.61 356.34 1009.4 360.03 1004.16 360.79 1001.82 365.54" fill="#fff"/>
</svg>