<?xml version="1.0" encoding="UTF-8"?>
<svg id="uuid-7eba13e3-3145-4bff-bff7-27b1e1092234" data-name="OBJECTS" xmlns="http://www.w3.org/2000/svg" xmlns:xlink="http://www.w3.org/1999/xlink" viewBox="0 0 1620 674.67">
  <defs>
    <linearGradient id="uuid-a0f32356-bf87-4fb3-8788-ad9b831ffd22" data-name="Новый образец градиента копия" x1="791.1" y1="547.59" x2="881.39" y2="589.49" gradientUnits="userSpaceOnUse">
      <stop offset="0" stop-color="#fdd807"/>
      <stop offset="1" stop-color="#fe9504"/>
    </linearGradient>
    <linearGradient id="uuid-35c96d59-6d7a-4c1b-8b7a-3b5a1367d593" x1="789.32" y1="540.46" x2="857.72" y2="572.2" gradientUnits="userSpaceOnUse">
      <stop offset="0" stop-color="#050061"/>
      <stop offset=".21" stop-color="#04005a"/>
      <stop offset=".49" stop-color="#030048"/>
      <stop offset=".82" stop-color="#01002b"/>
      <stop offset="1" stop-color="#000019"/>
    </linearGradient>
    <linearGradient id="uuid-59c0a306-3b96-4168-aa8c-a9578e93986e" data-name="Новый образец градиента копия" x1="918.01" y1="548.08" x2="1007.07" y2="591.6" xlink:href="#uuid-a0f32356-bf87-4fb3-8788-ad9b831ffd22"/>
    <linearGradient id="uuid-d78b4226-a72e-4176-abef-e6c3ebd9f587" x1="906.51" y1="535.45" x2="989.25" y2="579.87" xlink:href="#uuid-35c96d59-6d7a-4c1b-8b7a-3b5a1367d593"/>
    <linearGradient id="uuid-6c6bc919-19bd-4959-874b-3106e91871cf" x1="807.41" y1="364.7" x2="939.78" y2="364.7" xlink:href="#uuid-35c96d59-6d7a-4c1b-8b7a-3b5a1367d593"/>
    <linearGradient id="uuid-32315e00-18aa-4a17-935a-e6419fab0719" x1="861.87" y1="369.77" x2="875.35" y2="369.77" xlink:href="#uuid-35c96d59-6d7a-4c1b-8b7a-3b5a1367d593"/>
    <linearGradient id="uuid-1fb7fdbb-9441-4c67-b13f-51d6a26744ef" x1="807.41" y1="365.66" x2="845.48" y2="365.66" xlink:href="#uuid-35c96d59-6d7a-4c1b-8b7a-3b5a1367d593"/>
    <linearGradient id="uuid-32f32040-26b9-4c27-bb5b-fbe5571b86f8" x1="938.84" y1="303.62" x2="1001.1" y2="303.62" gradientUnits="userSpaceOnUse">
      <stop offset="0" stop-color="#da6c23"/>
      <stop offset="1" stop-color="#cd2988"/>
    </linearGradient>
    <linearGradient id="uuid-a35c1060-57eb-4def-a5c3-9255dc8a3ef6" x1="800.73" y1="251.3" x2="921.6" y2="251.3" gradientUnits="userSpaceOnUse">
      <stop offset="0" stop-color="#7cb6d3"/>
      <stop offset=".77" stop-color="#6170d2"/>
    </linearGradient>
    <linearGradient id="uuid-e242b0e2-52f2-49be-a6ff-a435b20d7076" data-name="Новый образец градиента копия" x1="846.16" y1="164.66" x2="1018.32" y2="164.66" xlink:href="#uuid-a0f32356-bf87-4fb3-8788-ad9b831ffd22"/>
    <linearGradient id="uuid-86f95362-f5cf-4e17-8734-70c6f9683c41" data-name="Новый образец градиента копия 2" x1="899.75" y1="162.87" x2="938.38" y2="162.87" gradientUnits="userSpaceOnUse">
      <stop offset="0" stop-color="#554eda"/>
      <stop offset="1" stop-color="#261fa3"/>
    </linearGradient>
    <linearGradient id="uuid-4b49430d-9571-4f69-b681-a204811fafcd" data-name="Новый образец градиента копия 4" x1="898.97" y1="146.74" x2="914.96" y2="146.74" gradientUnits="userSpaceOnUse">
      <stop offset="0" stop-color="#b52302"/>
      <stop offset="1" stop-color="#7f0502"/>
    </linearGradient>
    <linearGradient id="uuid-cf61414a-63c0-4928-93fa-3aa42fccfde0" data-name="Новый образец градиента копия 4" x1="1156.66" y1="616.94" x2="1214.16" y2="635.13" xlink:href="#uuid-4b49430d-9571-4f69-b681-a204811fafcd"/>
    <linearGradient id="uuid-e3088f62-43be-421f-8eb4-cfa8f3df9a7a" data-name="Новый образец градиента" x1="1146.45" y1="548.93" x2="1240.14" y2="578.58" gradientUnits="userSpaceOnUse">
      <stop offset="0" stop-color="#ff8285"/>
      <stop offset="1" stop-color="#fe2534"/>
    </linearGradient>
    <linearGradient id="uuid-a8142bda-fef6-4112-9cbc-01d7e11b8327" data-name="Новый образец градиента копия 4" x1="1216.94" y1="627.58" x2="1275.76" y2="646.2" xlink:href="#uuid-4b49430d-9571-4f69-b681-a204811fafcd"/>
    <linearGradient id="uuid-44ff6fb9-68d3-4479-8cec-2f7135426846" data-name="Новый образец градиента копия" x1="1220.02" y1="630.35" x2="1242.59" y2="637.5" xlink:href="#uuid-a0f32356-bf87-4fb3-8788-ad9b831ffd22"/>
    <linearGradient id="uuid-0cecaf18-bbee-4061-8828-1d7231ce117e" x1="1098.41" y1="468.62" x2="1364.56" y2="552.84" xlink:href="#uuid-35c96d59-6d7a-4c1b-8b7a-3b5a1367d593"/>
    <linearGradient id="uuid-d33e5aa2-cb24-458e-9283-562698a2378f" x1="1077.77" y1="355.03" x2="1266.35" y2="446.22" xlink:href="#uuid-a35c1060-57eb-4def-a5c3-9255dc8a3ef6"/>
    <linearGradient id="uuid-a95d7fcf-2b9b-42ad-959f-49dc6702fcbc" data-name="Новый образец градиента" x1="1136.2" y1="299.36" x2="1174.05" y2="299.36" xlink:href="#uuid-e3088f62-43be-421f-8eb4-cfa8f3df9a7a"/>
    <linearGradient id="uuid-84598805-5c4c-4795-abe3-c4127aec0e56" data-name="Новый образец градиента копия 2" x1="1132.96" y1="271.82" x2="1168.59" y2="271.82" xlink:href="#uuid-86f95362-f5cf-4e17-8734-70c6f9683c41"/>
    <linearGradient id="uuid-6b0ee7f1-d55a-4ef0-a136-fc8db3d5d849" x1="1284.63" y1="378.49" x2="1346.89" y2="378.49" xlink:href="#uuid-32f32040-26b9-4c27-bb5b-fbe5571b86f8"/>
    <linearGradient id="uuid-c411159b-6b62-4b36-844c-86181ad35510" x1="1425.51" y1="90.81" x2="1472.93" y2="90.81" gradientTransform="translate(646.62 1282.98) rotate(-60)" xlink:href="#uuid-32f32040-26b9-4c27-bb5b-fbe5571b86f8"/>
    <linearGradient id="uuid-e45e60f8-9f79-49bc-b779-ec00378842aa" x1="1359.97" y1="425.49" x2="1492.12" y2="425.49" xlink:href="#uuid-35c96d59-6d7a-4c1b-8b7a-3b5a1367d593"/>
    <linearGradient id="uuid-695b7b15-91f2-4fe8-a81b-cbea92372d56" x1="1365.53" y1="302.81" x2="1537.34" y2="302.81" xlink:href="#uuid-a35c1060-57eb-4def-a5c3-9255dc8a3ef6"/>
    <linearGradient id="uuid-713e0503-cf9c-4275-b96f-72919bb9d65a" data-name="Новый образец градиента копия 4" x1="1438.76" y1="208.85" x2="1474.8" y2="208.85" xlink:href="#uuid-4b49430d-9571-4f69-b681-a204811fafcd"/>
    <linearGradient id="uuid-d71bacf1-e086-454b-98e3-0050c033bc1a" x1="1454.57" y1="180.73" x2="1492.45" y2="180.73" xlink:href="#uuid-35c96d59-6d7a-4c1b-8b7a-3b5a1367d593"/>
    <linearGradient id="uuid-70a69a28-dce0-43c4-b33c-a32595b72c33" x1="1454.57" y1="188.99" x2="1492.45" y2="188.99" xlink:href="#uuid-35c96d59-6d7a-4c1b-8b7a-3b5a1367d593"/>
    <linearGradient id="uuid-8caedf5b-df7e-4598-ab2f-c0ea9d104639" data-name="Новый образец градиента копия 2" x1="1450.06" y1="189.7" x2="1481.15" y2="189.7" xlink:href="#uuid-86f95362-f5cf-4e17-8734-70c6f9683c41"/>
    <linearGradient id="uuid-bc1447de-d2bf-4933-bb52-6b92c2331e68" data-name="Новый образец градиента" x1="1363.05" y1="577.19" x2="1395.89" y2="577.19" xlink:href="#uuid-e3088f62-43be-421f-8eb4-cfa8f3df9a7a"/>
    <linearGradient id="uuid-7acdf0b5-5dea-417b-b7ac-59120a09c687" data-name="Новый образец градиента" x1="1485.73" y1="593.95" x2="1524.76" y2="593.95" xlink:href="#uuid-e3088f62-43be-421f-8eb4-cfa8f3df9a7a"/>
    <linearGradient id="uuid-900272a0-fa60-43a4-ab78-6fbafd011169" data-name="Новый образец градиента копия" x1="1508.81" y1="647.37" x2="1542.34" y2="647.37" xlink:href="#uuid-a0f32356-bf87-4fb3-8788-ad9b831ffd22"/>
    <linearGradient id="uuid-7960c6ef-eb1c-44a3-9e96-ba513233bf0b" data-name="Новый образец градиента копия 2" x1="1508.2" y1="639.06" x2="1537.45" y2="639.06" xlink:href="#uuid-86f95362-f5cf-4e17-8734-70c6f9683c41"/>
    <linearGradient id="uuid-ff187437-047e-415a-a63c-fc445c40a7c7" data-name="Новый образец градиента копия" x1="1512.06" y1="643.2" x2="1517.27" y2="643.2" xlink:href="#uuid-a0f32356-bf87-4fb3-8788-ad9b831ffd22"/>
    <linearGradient id="uuid-c362f39c-bade-4311-8f25-af4d840c2959" data-name="Новый образец градиента копия" x1="1512.06" y1="638.55" x2="1516.87" y2="638.55" xlink:href="#uuid-a0f32356-bf87-4fb3-8788-ad9b831ffd22"/>
    <linearGradient id="uuid-b5be81ea-e71c-42a2-a65b-68dddc212310" data-name="Новый образец градиента копия" x1="1511.66" y1="633.72" x2="1516.87" y2="633.72" xlink:href="#uuid-a0f32356-bf87-4fb3-8788-ad9b831ffd22"/>
    <linearGradient id="uuid-4a98a4f0-b11b-4967-b67e-88e7fa8ea2ae" data-name="Новый образец градиента копия" x1="1356.19" y1="616.93" x2="1409.61" y2="616.93" xlink:href="#uuid-a0f32356-bf87-4fb3-8788-ad9b831ffd22"/>
    <linearGradient id="uuid-481ba582-3a44-468d-961d-f500579bdaa2" data-name="Новый образец градиента копия 2" x1="1354.72" y1="609.12" x2="1406.08" y2="609.12" xlink:href="#uuid-86f95362-f5cf-4e17-8734-70c6f9683c41"/>
    <linearGradient id="uuid-06b3e50b-c9ae-405f-8bc9-327a772b5064" data-name="Новый образец градиента копия" x1="1366.6" y1="620.57" x2="1372.71" y2="620.57" xlink:href="#uuid-a0f32356-bf87-4fb3-8788-ad9b831ffd22"/>
    <linearGradient id="uuid-87b78402-0f2d-400f-81e5-91065bf6541b" data-name="Новый образец градиента копия" x1="1369.03" y1="618.03" x2="1374.64" y2="618.03" xlink:href="#uuid-a0f32356-bf87-4fb3-8788-ad9b831ffd22"/>
    <linearGradient id="uuid-8ab17203-efd9-445b-9cae-7792dc86796b" data-name="Новый образец градиента копия" x1="1371.05" y1="615.58" x2="1377.54" y2="615.58" xlink:href="#uuid-a0f32356-bf87-4fb3-8788-ad9b831ffd22"/>
  </defs>
  <g>
    <g>
      <g>
        <path d="m874.68,421.33c-2.7-7.86-11.43-7.73-17.86-5.15-1.52.61-2.96,1.3-4.3,2.08-.18.07-.36.14-.55.21-2.47.96-5.06,1.47-7.5,2.48-4.82,1.98-3.66,7.23-3.66,11.49,0,3.7-1.65,7.75-2.59,11.29-.98,3.71-2.75,6.4-4.82,9.57-4.05,6.2-7.42,12.91-10.87,19.46-3.38,6.42-7.66,12.25-11.51,18.37-4.06,6.46-7.75,13.16-10.81,20.16-2.67,6.13-5.01,12.75-6.45,19.28-1.04,4.75-1.51,10.01.48,14.56.15.35.45.43.72.35,1.57,3.46,4.38,6.96,7.87,6.44,2.74-.4,4.62-2.72,5.95-4.99,2.37-4.02,3.82-8.4,6.44-12.34,2.7-4.05,6.03-7.65,8.71-11.74,3.19-4.86,6.29-9.72,9.77-14.38,6.98-9.3,13.2-18.99,19.63-28.67,6.47-9.74,12.18-19.84,17.46-30.29,4.28-8.49,7.08-18.9,3.89-28.19Z" fill="#e1a78c"/>
        <path d="m865.84,445.1c-2.08,4.46-6.97,5.94-10.58,2.2-.66-.69-1.71.36-1.04,1.04,4.24,4.38,10.41,2.83,12.9-2.49.4-.85-.87-1.6-1.28-.75Z" fill="#e1a78c"/>
        <path d="m832.63,487.44c10.96-12.79,26.95-29.07,26.19-47.05-.34-7.9-2.88-15.27-5.15-22.74-.38.2-.78.4-1.15.61-.18.07-.36.14-.55.21-2.47.96-5.06,1.47-7.5,2.48-4.82,1.98-3.66,7.23-3.66,11.49,0,3.7-1.65,7.75-2.59,11.29-.98,3.71-2.75,6.4-4.82,9.57-4.05,6.2-7.42,12.91-10.87,19.46-3.38,6.42-7.66,12.25-11.51,18.37-4.06,6.46-7.75,13.16-10.81,20.16-2.52,5.77-4.72,11.98-6.17,18.13,1.65-3.06,3.54-6,5.68-8.77,9.42-12.2,22.85-21.46,32.92-33.21Z" fill="#fff" opacity=".1"/>
        <path d="m804.81,501.81c-1.65,3.1-3.2,6.26-4.61,9.48-2.67,6.13-5.01,12.75-6.45,19.28-1.04,4.75-1.51,10.01.48,14.56.15.35.45.43.72.35,1.57,3.46,4.38,6.96,7.87,6.44,2.74-.4,4.62-2.72,5.95-4.99,2.37-4.02,3.82-8.4,6.44-12.34,2.7-4.05,6.03-7.65,8.71-11.74,3.19-4.86,6.29-9.72,9.77-14.38.77-1.02,1.52-2.05,2.27-3.07-10.43.36-21.24-1.17-31.17-3.6Z" fill="#e1a78c"/>
      </g>
      <path d="m843.87,555.22c-.98-1.79-3.93-1.96-5.66-2.14-9.08-.92-17.98-2.56-26.95-4.08-3.71-.63-7.61-.69-11.37-.64-2.45.02-6.5.24-8.24,2.3-.75.89-1.28,1.81-1.65,2.76-.34.04-.65.26-.66.69,0,.51.02.99.07,1.46-.16.92-.25,1.88-.27,2.89-.05,1.68-.66,4.81.98,6.02,2.57,1.9,7.02,1.31,10.01,1.26,4.35-.08,8.69-.15,13.03-.4.07,0,.12-.03.17-.05,4.45.22,8.88.3,13.32.09,3.79-.18,7.5-.58,11.23-1.27,2.15-.39,4.7-.84,5.92-2.91.93-1.59.95-4.37.08-5.98Z" fill="url(#uuid-a0f32356-bf87-4fb3-8788-ad9b831ffd22)"/>
      <path d="m841.2,549.61c-2.9-2.05-6.26-2.91-9.63-3.84-5.23-1.44-8.72-4.03-12.43-7.88-4.16-4.33-9.03-6.35-13.19-.77-1.04,1.4-2.29,4.88-4.49,4.5-2.61-.45-3.95-3.94-5.59-5.72-1.55-1.68-3.42-.76-4.76.63-6.69,6.89-3.57,19.01-.62,21.94,1.99,1.98,5.84,1.8,8.38,1.84,5.01.09,10.01.2,15.02.21,5,.01,10-.08,15-.17,3.85-.07,7.79.28,11.58-.57,5.45-1.22,4.57-7.45.74-10.16Z" fill="url(#uuid-35c96d59-6d7a-4c1b-8b7a-3b5a1367d593)"/>
      <path d="m823.79,544.79c-1.83,1.36-2.3,3.88-2.33,6.04-.01.95,1.46.95,1.47,0,.02-1.54.25-3.77,1.6-4.77.75-.56.02-1.84-.74-1.27Z" fill="#fe9504"/>
      <path d="m826.72,546.53c-1.08,1.73-1.31,3.75-.81,5.72.24.92,1.65.53,1.42-.39-.41-1.6-.22-3.18.66-4.59.51-.81-.77-1.55-1.27-.74Z" fill="#fe9504"/>
      <path d="m830.64,547.75c-.91,1.67-1.31,3.39-1.33,5.28,0,.95,1.47.95,1.47,0,.01-1.64.33-3.09,1.12-4.54.46-.83-.81-1.58-1.27-.75Z" fill="#fe9504"/>
      <path d="m793.03,551.42c2.43-4.42,6.92-1.62,10.59-1.91,5.17-.41,10.06-4.51,12.42-8.95.77-1.45,1.17-2.91,1.28-4.38-3.71-3.04-7.8-3.84-11.35.93-1.04,1.4-2.29,4.88-4.49,4.5-2.61-.45-3.95-3.94-5.59-5.72-1.55-1.68-3.42-.76-4.76.63-6.69,6.89-3.57,19.01-.62,21.94.58.58,1.32.97,2.14,1.24-.51-3.3-.55-6.53.4-8.27Z" fill="#fff" opacity=".1"/>
    </g>
    <g>
      <g>
        <path d="m939.78,401.75c-1.91-2.3-4.01-4.42-6.18-6.45-1.79-1.68-3.33-3.73-5.28-5.22-3.36-2.57-6.95-2.7-10.94-1.95-3.53.66-7.69,2.52-9.93,5.63-2.24,3.11-4.96,7.43-4.58,11.54.06.67.77.85,1.15.57.77,2.07,2.09,3.92,3.29,5.71,2.83,4.23,5.1,8.8,7.31,13.42,5.25,11,6.95,22.97,7.57,35.13.58,11.49.27,23-.51,34.47-.37,5.35-.44,10.71-.75,16.07-.32,5.73-1.43,11.37-1.69,17.11-.27,5.94-.66,14.27,5.43,17.06,6.37,2.92,10.77-8.4,13.11-12.54,5.39-9.52,6.66-20.62,11-30.59,4.37-10.05,7.66-20.85,9.41-31.77,3.85-23.93-3.3-50.01-18.43-68.19Z" fill="#e1a78c"/>
        <path d="m950.68,438.04c-.42,3.58-4.71,8.29-7.63,3.93-.52-.79-1.8-.05-1.28.75,3.81,5.69,9.78.42,10.38-4.68.11-.94-1.37-.93-1.47,0Z" fill="#e1a78c"/>
        <path d="m937.59,490.28c2.14-12.37,1.53-24.44.24-36.84-1.68-16.1-5.76-29.98-14.99-43.29-4.07-5.87-10.87-10.27-16.42-14.89-1.96,2.92-3.87,6.56-3.55,10.05.06.67.77.85,1.15.57.77,2.07,2.09,3.92,3.29,5.71,2.83,4.23,5.1,8.8,7.31,13.42,5.25,11,6.95,22.97,7.57,35.13.58,11.49.27,23-.51,34.47-.37,5.35-.44,10.71-.75,16.07-.32,5.73-1.43,11.37-1.69,17.11-.18,3.96-.4,8.97,1.26,12.7,1.64-5.1,3.6-10.14,5.52-15.12,4.48-11.62,9.41-22.74,11.56-35.1Z" fill="#fff" opacity=".1"/>
        <path d="m921.24,503.95c-.09,2.25-.18,4.49-.3,6.74-.32,5.73-1.43,11.37-1.69,17.11-.27,5.94-.66,14.27,5.43,17.06,6.37,2.92,10.77-8.4,13.11-12.54,5.39-9.52,6.66-20.62,11-30.59.26-.6.5-1.21.75-1.81-9.64,2.31-20.2,4.35-28.31,4.04Z" fill="#e1a78c"/>
      </g>
      <path d="m968.49,555.22c-.98-1.79-3.93-1.96-5.67-2.14-9.08-.92-17.96-2.56-26.95-4.08-3.71-.63-7.61-.69-11.36-.64-2.45.02-6.49.24-8.24,2.3-.75.89-1.28,1.81-1.66,2.76-.33.04-.64.26-.65.69,0,.51.02.99.07,1.46-.16.92-.24,1.88-.27,2.89-.05,1.68-.66,4.81.98,6.02,2.56,1.9,7.02,1.31,10.01,1.26,4.35-.08,8.69-.15,13.03-.4.07,0,.11-.03.17-.05,4.44.22,8.87.3,13.32.09,3.79-.18,7.5-.58,11.23-1.27,2.15-.39,4.7-.84,5.91-2.91.93-1.59.96-4.37.08-5.98Z" fill="url(#uuid-59c0a306-3b96-4168-aa8c-a9578e93986e)"/>
      <path d="m965.82,549.61c-2.9-2.05-6.26-2.91-9.64-3.84-5.23-1.44-8.72-4.03-12.43-7.88-4.16-4.33-9.04-6.35-13.19-.77-1.04,1.4-2.29,4.88-4.49,4.5-2.61-.45-3.94-3.94-5.59-5.72-1.54-1.68-3.42-.76-4.77.63-6.69,6.89-3.58,19.01-.62,21.94,2,1.98,5.85,1.8,8.39,1.84,5.01.09,10.01.2,15.01.21,5.01.01,10-.08,15-.17,3.85-.07,7.79.28,11.58-.57,5.45-1.22,4.57-7.45.74-10.16Z" fill="url(#uuid-d78b4226-a72e-4176-abef-e6c3ebd9f587)"/>
      <path d="m948.95,545.3c-1.6,2.48-1.12,4.96-.84,7.73.09.93,1.57.94,1.47,0-.25-2.47-.8-4.76.63-6.99.52-.8-.75-1.54-1.27-.74Z" fill="#fe9504"/>
      <path d="m953.54,552.76c-.71-.81-1.74-5.16-.33-5.64.9-.3.52-1.73-.39-1.41-2.78.95-1.82,6.4-.32,8.1.63.72,1.66-.34,1.04-1.04Z" fill="#fe9504"/>
      <path d="m955.45,547.36c-1.47,1.33-1.12,3.94-.36,5.55.4.86,1.67.12,1.28-.74-.48-1.02-.81-2.92.13-3.77.7-.64-.34-1.68-1.04-1.04Z" fill="#fe9504"/>
      <path d="m925.75,550.5c4.52-1.09,9.78-.83,13.29-4.43,1.85-1.89,3.36-5.15,4.27-8.63-4.06-4.02-8.74-5.71-12.75-.33-1.04,1.4-2.29,4.88-4.49,4.5-2.61-.45-3.94-3.94-5.59-5.72-1.54-1.68-3.42-.76-4.77.63-6.69,6.89-3.58,19.01-.62,21.94.18.17.38.33.58.48.08-.89.23-1.69.5-2.33,1.6-3.98,5.85-5.2,9.57-6.1Z" fill="#fff" opacity=".1"/>
    </g>
    <g>
      <path d="m938.76,386.15c-1.37-4.61-3.64-8.76-6.25-12.79-11.35-17.59-23.54-34.29-40.28-47.16-4.14-3.19-8.62-5.66-13.01-8.47-4.77-3.06-8.72-6.98-12.7-10.98-2.97-2.99-5.82-6.03-9.29-8.45-3.87-2.7-8.64-4.33-13.18-5.42-8.5-2.03-17.78-.63-25.9,2.32-5.49,1.99-8.68,8.33-6.03,13.9,0,0,0,0,.01.02-.99,3.46-2.46,6.84-3.1,10.37-.98,5.43-1.04,11.05-1.45,16.55-.78,10.65.95,21.47,2.91,31.91,3.99,21.26,9.7,43.48,22.48,61.3,2.04,2.84,4.38,5.74,7.42,7.55,2.77,1.65,6.6-.08,9.09-1.55,4.12-2.43,7.84-5.14,12.59-6.23,3.4-.78,6.86-.88,10.15-2.12,7.37-2.76,6.78-11.58,5.78-18.03-.77-4.89-2.44-9.98-2.67-14.92-.08-1.57-.42-3.16-.59-4.73-.36-3.22,2.62-.38,3.81.73,2.6,2.43,4.83,5.49,6.93,8.36,2.5,3.4,4.6,7.49,8.17,9.89,6.24,4.2,16.18-2.12,22.25-3.84,4.59-1.3,9.38-1.96,13.79-3.85,3.3-1.41,6.82-2.2,9.04-5.25,1.86-2.56.83-6.39.03-9.09Z" fill="url(#uuid-6c6bc919-19bd-4959-874b-3106e91871cf)"/>
      <path d="m870.44,369.63c-2.34-5.74-4.36-11.4-7.2-16.91-.44-.84-1.71-.1-1.28.75,2.78,5.38,4.84,10.93,7.06,16.56,2.13,5.4,4.66,10.54,4.86,16.46.03.94,1.51.95,1.47,0-.2-6.01-2.68-11.36-4.91-16.85Z" fill="url(#uuid-32315e00-18aa-4a17-935a-e6419fab0719)"/>
      <path d="m835.72,400.74c-6.81-15.84-19.37-29.16-23.73-46.1-4.14-16.08,1.44-34.78,6.12-50.22,1.15-3.78,2.61-7.22,4.23-10.56-1.41.4-2.82.84-4.18,1.34-5.49,1.99-8.68,8.33-6.03,13.9,0,0,0,0,.01.02-.99,3.46-2.46,6.84-3.1,10.37-.98,5.43-1.04,11.05-1.45,16.55-.78,10.65.95,21.47,2.91,31.91,3.99,21.26,9.7,43.48,22.48,61.3,2.04,2.84,4.38,5.74,7.42,7.55,1.51.9,3.33.79,5.07.28-.29-3.52-1.01-6.99-1.52-9.43-1.87-9.09-4.57-18.37-8.24-26.9Z" fill="url(#uuid-1fb7fdbb-9441-4c67-b13f-51d6a26744ef)" opacity=".1"/>
    </g>
    <g>
      <path d="m959.82,283.43c-4.61-2.26-8.61-7.18-11.4-11.36-3.29-4.94-5.97-10.28-8.16-15.79-3.79-9.6-5.2-19.8-11.37-28.38-3.05-4.25-5.96-8.56-10.32-11.34-.02-.13-.07-.25-.18-.37-5.99-6.43-9.13,2.85-10.42,7.77-1.14,4.36-2.19,8.67-2.54,13.17-.35,4.38,2.66,7.24,3.36,11.43,4.87,29.08,29.09,40.76,37.67,43.9,3.5,1.28,7.8,2.6,11.57,1.95,2.65-.46,6.3,0,8.77-1.17,6.09-2.89-5.01-8.84-6.99-9.81Z" fill="#e1a78c"/>
      <path d="m959.82,283.43c-4.61-2.26-8.61-7.18-11.4-11.36-3.29-4.94-5.97-10.28-8.16-15.79-3.79-9.6-5.2-19.8-11.37-28.38-.18-.25-.36-.5-.54-.74-3.46,14.05-.57,28.83,7.59,41.15,7.3,11.02,16.78,18.09,28.89,23.37.87.38,1.72.8,2.56,1.23,4.7-2.99-5.67-8.55-7.57-9.48Z" fill="#fff" opacity=".1"/>
    </g>
    <g>
      <path d="m1001.1,303.61c0,6.43-1.95,12.4-5.29,17.36-.03.05-.07.11-.11.16h0c-.5.75-1.04,1.47-1.61,2.17-.55.67-1.12,1.33-1.73,1.95-3.81,3.94-8.65,6.88-14.08,8.38-.14.04-.3.08-.45.11-.53.15-1.06.27-1.59.37-.4.09-.8.16-1.21.23-1.65.27-3.34.41-5.07.41-2.9,0-5.7-.4-8.35-1.14-.69-.2-1.37-.41-2.04-.64-.43-.15-.85-.32-1.27-.48-1.24-.5-2.45-1.08-3.61-1.74-7.29-4.11-12.76-11.08-14.88-19.38-.06-.28-.14-.54-.19-.82-.12-.51-.22-1.03-.31-1.54-.08-.44-.15-.9-.21-1.35-.17-1.32-.26-2.66-.26-4.03,0-5.61,1.49-10.88,4.09-15.42.42-.74.87-1.46,1.36-2.16.17-.27.36-.53.55-.79.15-.2.29-.4.45-.59,3.91-5.1,9.39-8.96,15.7-10.85.37-.11.75-.22,1.13-.32.53-.15,1.06-.26,1.61-.38.15-.03.31-.06.47-.09,1.87-.35,3.8-.53,5.78-.53,6.13,0,11.85,1.77,16.67,4.83.05.03.11.07.16.1.52.33,1.02.69,1.52,1.05.27.2.55.41.83.63,4.45,3.48,7.94,8.15,9.97,13.55.35.92.66,1.85.91,2.81.07.23.13.45.18.68.09.36.17.74.25,1.11.42,2.06.65,4.19.65,6.37Z" fill="url(#uuid-32f32040-26b9-4c27-bb5b-fbe5571b86f8)"/>
      <path d="m960,289.42c14.26-9.26,27.6-4.88,39.09,3.2-2.03-5.38-5.51-10.05-9.95-13.52-.28-.22-.56-.43-.83-.63-.5-.36-1-.72-1.52-1.05-.05-.03-.11-.06-.16-.1-4.82-3.06-10.53-4.83-16.67-4.83-1.98,0-3.91.19-5.78.53-.15.03-.32.06-.47.09-.55.12-1.08.23-1.61.38-.38.1-.75.21-1.13.32-6.31,1.89-11.79,5.74-15.7,10.85-.16.19-.3.39-.45.59-.19.26-.38.52-.55.79-.5.7-.94,1.42-1.36,2.16-2.6,4.55-4.09,9.81-4.09,15.42,0,1.37.09,2.71.26,4.03.06.45.13.91.21,1.35.07.4.15.81.24,1.21,4.41-8.53,12.51-15.63,20.46-20.79Z" fill="#fff" opacity=".4"/>
      <path d="m991.75,308.01c2.93,3.79,4.04,8.31,4.05,12.96-.03.05-.07.11-.11.16h0c-.5.75-1.04,1.47-1.61,2.17.12-2.45-.09-4.92-.74-7.43-1.69-6.52-6.63-10.72-9.7-16.56-.77-1.45-1.52-2.83-2.1-4.2-2.67.12-5.33.37-7.98.76.48,1.65.89,3.33,1.21,5.06,1.96,10.86,2.97,21.81,3.06,32.8-.53.15-1.06.27-1.59.37-.04-10.47-.9-20.93-2.76-31.24-.41-2.32-.98-4.55-1.64-6.72-1.59.26-3.18.57-4.75.91-1.29.29-2.61.64-3.95,1.03.6,1.42,1.09,2.9,1.49,4.43,1.97,7.64-3.76,15.8-4.09,23.41-.09,2.23.25,4.99,1.07,7.69-.69-.2-1.37-.41-2.04-.64-1.11-4.54-.79-9.33.47-13.93,1.19-4.34,3.3-8.99,3.2-13.56-.06-2.29-.61-4.7-1.54-6.96-7.66,2.46-15.72,6.59-22.09,12.01-.12-.51-.22-1.03-.31-1.54,1.99-1.57,4.08-3,6.2-4.33,4.81-2.99,10.07-5.69,15.54-7.57-.77-1.54-1.73-2.96-2.85-4.17-2.8-3.02-6.56-4.94-10.47-6.16-1.17-.35-2.31-.59-3.45-.74.17-.27.36-.53.55-.79.15-.2.29-.4.45-.59,3.71.53,7.28,1.68,10.53,4.01,2.95,2.13,5.11,4.85,6.66,7.96,1.88-.58,3.77-1.08,5.68-1.44,1.06-.2,2.14-.39,3.21-.56-1.31-3.99-2.95-7.85-4.76-11.83-1.39-3.09-2.83-6.27-4.5-9.31.53-.15,1.06-.26,1.61-.38,1.57,2.9,2.94,5.91,4.29,8.87,1.88,4.11,3.71,8.17,5.08,12.41,2.63-.36,5.27-.64,7.88-.77-.73-2.3-.82-4.64.5-7.37,1.46-2.99,3.28-6.01,5.31-8.83.52.33,1.02.69,1.52,1.05-.64.95-1.29,1.91-1.95,2.87-1.69,2.39-3.76,5.13-4.28,8.08-.24,1.32-.09,2.72.32,4.15,5.99-.18,11.91.35,17.62,1.89.07.23.13.45.18.68.09.36.17.74.25,1.11-5.66-1.65-11.57-2.29-17.52-2.17,1.94,4.82,6.36,9.75,8.84,12.93Z" fill="#652709"/>
    </g>
    <path d="m922.64,152.29c-4.05.16-7.49,4.09-10.03,6.78-1.91,2.01-3.71,5.38-4.45,8.54-.4-.05-.84.17-.84.7.01,4.6-.23,8.33,2.11,12.94-3.43,7.83-7.73,10.38-7.65,11.33.21,2.02,2.48,4.31,3.19,6.2,1.09,2.9,2.11,5.56,3.78,8.19,1.93,3.03,5.11,1.87,6.32-1.04,1.46-3.5,7.3-13.57,8.15-15.68,7.02-2.54,10.81-15.11,12.05-20.79,1.99-9.17-2.5-17.56-12.64-17.16Z" fill="#e1a78c"/>
    <path d="m904.6,191.65c-7.98-6.01-13.77-1.33-16.99.2-4.7,2.25-9.25,5.68-13.39,8.85-3.59,2.75-6.21,6.42-9.53,9.44-3.18,2.89-81.98,90.11-60.14,100.03,4.1,1.86,9.36.19,13.8.07,6.03-.18,11.98-.87,18.03-.88,5.85,0,11.31-.33,17.16.59,5.27.83,10.23,3.73,15.54,3.95,2.91.12,5.26-.79,6.84-3.23,2.85-4.37,1.32-8.49.75-13.16-.62-5.05,1.36-11.27,3.09-15.96,1.03-2.79,2.85-5.06,4.56-7.44,1.69-2.36,3.15-4.86,5.12-7.02,3.04-3.33,7.16-5.63,10.48-8.69,3.79-3.51,6.79-8.28,9.95-12.36,8.8-11.33,23.67-36.18-5.27-54.41Z" fill="url(#uuid-a35c1060-57eb-4def-a5c3-9255dc8a3ef6)"/>
    <path d="m931.91,146.02c-2.78-2.44-7.52-2.23-10.89-1.95-5.59.48-9.14-3.9-13.47-6.81-7.6-5.12-16.65-7.53-25.78-7.11-3.95.18-8.26.73-11.9,2.3-4.54,1.97-8.01,5.44-11.28,9.07-6.09,6.76-7.26,13.64-5.77,22.5.61,3.61,1.03,7.04.42,10.67-.43,2.55-2.11,4.75-3.54,6.85-2.19,3.21-3.98,6.85-3.44,10.84.39,2.85,3.72,5.26,6.21,6.09,3.54,1.18,7.08.81,10.62-.16,11.24-3.09,15.35-13.35,16.96-23.96.82-5.48,1.09-11,1.55-16.52.34-3.97,1.82-6.97,5.31-9.06,3.53-2.12,8.27-3.25,12.13-1.46,6.75,3.13,2.76,11.79,2.56,17.21-.14,4.02.93,8.49,3.1,11.86,1.21,1.88,7.86,13.26,9.42-6.9.26-3.42,4.86-4.37,8.09-5.1,3.97-.91,8.7.53,12.25-1.8,5.25-3.44.92-13.52-2.55-16.57Z" fill="url(#uuid-e242b0e2-52f2-49be-a6ff-a435b20d7076)"/>
    <path d="m938.28,157.79c-.4-3.03-3.22-3.57-5.83-3.3-2.04.21-4.02.9-6.02,1.32-3.25.68-6.73.32-10.02.84-5.65.89-10.59,2.62-14.97,6.36-2.41,2.06-2.23,6.32.43,7.98.3.18.58.14.78-.02,3.19,1.41,8.88-2.06,11.57-2.81,3.72-1.04,7.55-1.61,11.41-1.78,2.84-.12,5.78.21,8.58-.33,3.71-.72,4.45-5.22,4.06-8.25Z" fill="url(#uuid-86f95362-f5cf-4e17-8734-70c6f9683c41)"/>
    <path d="m914.42,139.47c-1.09-1.79-3.96-.71-5.39-.21-3.94,1.38-7.67,5.47-8.96,9.75-.15.27-.28.55-.4.83-.44,1.09-1.53,4.43.37,5.04,2.02.64,3.69-1.19,4.95-2.55,2.54-2.75,5.1-5.7,8.02-8.08,1.65-1.34,2.62-2.79,1.41-4.77Z" fill="url(#uuid-4b49430d-9571-4f69-b681-a204811fafcd)"/>
    <path d="m896.33,223.09c-9.34-.85-16.58,3.13-22.8,9.79-3.42,3.67-6.39,7.73-9.71,11.48-3.69,4.19-7.51,8.21-10.93,12.64-1.05,1.35-2.04,2.74-2.99,4.16-3.21,3.72-7.08,7.39-5.71,12.54,1.59,6,10.66,10.98,16.54,9.95,3.47-.61,6.05-2.85,8.16-5.59,3.54-4.61,7.88-8.39,12.24-12.21,6.16-5.42,12.93-9.92,19.23-15.16,5.35-4.45,9.91-10.33,9.79-17.61-.11-6.37-8.6-9.51-13.81-9.99Z" fill="#fff" opacity=".7"/>
    <path d="m861.56,186.35c5.25-13.87-5.39-32.56,5.62-44.54,4.44-4.83,10.23-4.99,15.64-3.01,7.53,2.75,14.51,2.39,20.13-4.22-6.54-3.27-13.85-4.77-21.19-4.43-3.95.18-8.26.73-11.9,2.3-4.54,1.97-8.01,5.44-11.28,9.07-6.09,6.76-7.26,13.64-5.77,22.5.61,3.61,1.03,7.04.42,10.67-.43,2.55-2.11,4.75-3.54,6.85-2.19,3.21-3.98,6.85-3.44,10.84.34,2.46,2.87,4.6,5.16,5.67,4.7-3.04,8.84-8.27,10.14-11.7Z" fill="#fff" opacity=".4"/>
    <path d="m931.91,146.02c-2.78-2.44-7.52-2.23-10.89-1.95-1.02.09-1.97.01-2.87-.19-.61,1.85-1.05,3.82-.52,4.97,1.39,3,6.93,2.34,9.68,2.34,4.68,0,6.89,1.28,9.4,4.17-.64-3.72-2.86-7.64-4.81-9.35Z" fill="#fff" opacity=".4"/>
    <path d="m909.03,139.25c-3.94,1.38-7.67,5.47-8.96,9.75-.15.27-.28.55-.4.83-.28.71-.85,2.37-.67,3.62.3-.94.59-1.74.83-2.18,1.68-3.23,4.01-6.62,7.02-8.64,1.81-1.21,4.42-2.42,6.82-3.87-1.33-.7-3.46.09-4.64.5Z" fill="#fff" opacity=".1"/>
    <path d="m835.94,261c11.12-9.44,24.82-18.82,27.13-34.43.8-5.46.3-9.71-1.03-13.61-10.11,11.04-45.3,51.41-57.28,76.81,7.79-11.96,20.15-19.4,31.18-28.76Z" fill="#fff" opacity=".1"/>
    <g>
      <path d="m968.32,303c-2.37-1.42-5.24-1.27-7.92-1.18-3.13.1-5.92,2.07-8.91,2.57,2.26-2.03,5.29-3.88,7.89-4.92,2.53-1.02,5.14-2.14,6.99-4.22.33-.37.26-.88-.15-1.16-4.67-3.15-11.77,1.49-15.94,3.69-2.16,1.14-4.11,2.57-6.4,3.49-3.28,1.31-6.03-.63-8.78-2.21-4.59-2.64-9.42-4.85-14.35-6.8-8.89-3.51-17.24-4.8-26.72-4.23-1.88.12-3.75.08-5.58-.42-3.42-.94-2.13-5.21-2.13-7.79,0-6.24,1.52-12.16,2.83-18.23,1.06-4.92,3.32-9.62,5.11-14.31,2.07-5.41,3.85-11,5.46-16.56,1.51-5.23,2.28-10.57,3.33-15.9.89-4.48,1.22-9,.12-13.46-.94-3.82-3.66-7.21-6.39-9.93-2.77-2.76-5.77-3.3-9.46-2.66-9.34,1.63-16.65,8.94-21.25,16.83-3.88,6.65-6.14,14.79-8.25,22.14-2.4,8.33-3.49,16.99-4.02,25.62-.51,8.36.27,16.78,1.82,24.99.18.94,1.2,7.45,1.89,9.44,3.01,16.22,10.44,18.64,15.6,19.69,6.12,2.48,13.41,2.99,19.46,2.62,5.9-.36,11.9.56,17.82.57,5.88.01,11.37,2.17,17.2,2.73,2.22.21,4.39.43,6.54,1.04,2.7.76,4.75,2.75,6.99,4.3,2.6,1.8,4.99,3.57,7.33,5.7,1.49,1.37,3.17,2.42,5.11,2.99.48.14.91-.24.93-.71.21-3.54-3.28-7.49-4.82-10.46-.09-.16-1.54-2.89-.64-2.97,1.84-.18,3.5.71,5.1,1.5,3.1,1.54,6.08,2.9,9.59,3.21.59.06.87-.65.64-1.11-1.21-2.32-3.5-3.53-5.73-4.73-2.68-1.43-6.48-2.25-8.86-4.19,5.55-2.78,12.91-.84,18.53-3.71.5-.26.46-1,0-1.28Z" fill="#e1a78c"/>
      <path d="m870.63,297.82c-.23,1.35-.73,3.06-2.16,3.57-1.35.47-3.41-1.23-3.09-2.62.22-.93-1.2-1.32-1.42-.39-.51,2.17,1.62,4.38,3.74,4.53,2.63.17,3.97-2.46,4.35-4.69.16-.93-1.27-1.33-1.42-.39Z" fill="#fe2534" opacity=".7"/>
      <path d="m874.32,211.47c1.12-5.45,3.66-14.29,7.88-21.18-6.91,2.92-12.42,8.93-16.14,15.31-3.88,6.65-6.14,14.79-8.25,22.14-2.4,8.33-3.49,16.99-4.02,25.62-.51,8.36.27,16.78,1.82,24.99.1.55.5,3.05.96,5.41,8.16-9.93,12.65-22.81,13.72-35.63,1.02-12.17,1.54-24.61,4.03-36.67Z" fill="#fff" opacity=".1"/>
    </g>
    <path d="m922.93,378.13c-1.82-18.42-15.55-32.28-30.81-40.85-4.51-2.53-8.7-5.25-12.98-8.12-2.43-1.63-7.23-5.33-10.32-4.95-3.7.46-3.39,2.15-1.76,3.95,1.85,4.72,13.68,14.12,16.36,16.29,3.6,2.92,7.96,4.87,11.38,8,3.81,3.49,5.68,9.12,7.9,13.74,3.01,6.28,6.53,17.76,13.84,20.52,6.3,2.38,6.87-3.68,6.39-8.59Z" fill="#fff" opacity=".1"/>
  </g>
  <g>
    <g>
      <g>
        <path d="m1174.33,627.44c-.61-3.66-1.45-7.24-1.58-10.97-.13-3.73.13-7.45-.15-11.18-.22-2.93-.51-9.04-4.2-9.96-4.12-1.03-7.56,1.74-9.82,4.96-2.32,3.31-1.89,5.94-.54,8.68-.07.19-.05.41.09.64,1.99,3.17,3.1,5.9,3.26,9.68.15,3.41-1.49,6.79-1.98,10.15-.73,4.97.85,10.54,4.3,14.2,2.26,2.38,6.51,3.07,8.49-.04,3.03-4.75,3.05-10.76,2.14-16.15Z" fill="url(#uuid-cf61414a-63c0-4928-93fa-3aa42fccfde0)"/>
        <path d="m1159.66,584.03c-1.63-5.91-1.88-12.1-2.55-18.18-.68-6-1.83-11.91-2.88-17.85-2.05-11.68-6.63-21.51-12.91-31.44-3.98-6.31-8.32-13.6-16.59-14.01-4.28-.21-9.33,1.71-13.01,3.74-3.06,1.68-4.01,5.15-5.78,7.93-1.21.76-2.25,1.67-2.97,3.01-.14.13-.22.31-.21.57.52,8.24,7.5,14.79,12.75,20.45,8.61,9.27,6.86,22.53,8.78,34.19.96,5.86,1.74,11.72,3.49,17.42,1.57,5.11,4.74,10.01,7.72,14.4,2.55,3.76,5.27,7.06,9.17,9.46,4.03,2.5,7.62,5.4,11.93,7.48,2.45,1.18,5.6,2.24,8.02.59,2.61-1.77,3.17-5.43,3.41-8.31.36-4.22,0-8.42-1.43-12.4-2.09-5.81-5.28-11.02-6.94-17.04Z" fill="#e1a78c"/>
        <path d="m1139.68,560.18c-4.68-10.86-10.3-22.41-17.44-31.13-4.77-5.83-10.74-10.17-16.81-14.48-.99.69-1.84,1.51-2.47,2.66-.14.13-.22.31-.21.57.52,8.24,7.5,14.79,12.75,20.45,8.61,9.27,6.86,22.53,8.78,34.19.96,5.86,1.74,11.72,3.49,17.42,1.57,5.11,4.74,10.01,7.72,14.4,2.55,3.76,5.27,7.06,9.17,9.46.61.38,1.22.77,1.81,1.17.17-3,.38-6.02.62-9.1,1.23-15.69-1.34-31.5-7.42-45.6Z" fill="#fff" opacity=".2"/>
        <path d="m1166.6,601.07c-1.02-2.85-2.31-5.55-3.56-8.28-.77,2.78-1.85,5.59-3.37,8.52-2.92,5.66-6.63,10.88-10.4,15.45,2.35,1.59,4.7,3.17,7.32,4.43,2.45,1.18,5.6,2.24,8.02.59,2.61-1.77,3.17-5.43,3.41-8.31.36-4.22,0-8.42-1.43-12.4Z" fill="#fff" opacity=".7"/>
      </g>
      <g>
        <path d="m1337.43,350.21c-6.45-6.44-18.42-7.84-27.05-7.99-10.89-.2-22.17,4.05-31.98,8.35-10.51,4.61-19.66,11.23-29.69,16.62-12.11,6.49-23.09-1.66-28.71-12.31-5.08-9.61-7.98-20.14-12.76-29.85-3.51-7.15-10.21-13.05-18.5-12.64-7.94.39-11.24,7.08-12.17,14.09-.48,3.62-1.65,8.05-.83,11.75.01,1.26.08,2.53.15,3.8.25,4.57.73,8.97,2.13,13.37,3.08,9.69,9.77,18.08,16.55,25.44,3.47,3.77,7.22,7.28,10.68,11.06,3.58,3.9,7.06,5.41,12.29,6.01,40.52,4.58,67.52-34.16,72.5-36,5.6-2.08,11.65-.79,17.39-1.92,1.57-.31,5.31-1.37,4.62-3.57-1.2-3.83,4.26-2.46,5.95-2.33,3.56.28,7.08.65,10.54,1.6,5.44,1.49,8.62,6.2,11.27,10.85,1.66,2.89,3.09,6.53,5.98,8.42.4.26,1.12.03,1.19-.48,1.17-8.13-3.87-18.58-9.54-24.25Z" fill="#e1a78c"/>
        <path d="m1221.71,380.23c12.11,9.9,28.42.41,37.78-8.16,9.62-8.81,18.18-17.55,27.71-25.09-3.02,1.12-5.97,2.35-8.79,3.59-10.51,4.61-19.66,11.23-29.69,16.62-12.11,6.49-23.09-1.66-28.71-12.31-5.08-9.61-7.98-20.14-12.76-29.85-1.9-3.87-4.74-7.36-8.26-9.7,4.38,8.9,3.72,20.78,5.98,29.97,2.6,10.56,8,27.77,16.75,34.92Z" fill="#fff" opacity=".2"/>
        <path d="m1337.43,350.21c-6.45-6.44-18.42-7.84-27.05-7.99-7.75-.14-15.71,1.98-23.19,4.76-9.53,7.53-18.09,16.28-27.71,25.09-9.36,8.57-25.67,18.06-37.78,8.16-8.75-7.15-14.14-24.36-16.75-34.92-2.26-9.19-1.6-21.08-5.98-29.97-2.98-1.98-6.44-3.13-10.24-2.94-7.94.39-11.24,7.08-12.17,14.09-.48,3.62-1.65,8.05-.83,11.75.01,1.26.08,2.53.15,3.8.25,4.57.73,8.97,2.13,13.37,3.08,9.69,9.77,18.08,16.55,25.44,3.47,3.77,7.22,7.28,10.68,11.06,3.58,3.9,7.06,5.41,12.29,6.01,40.52,4.58,67.52-34.16,72.5-36,5.6-2.08,11.65-.79,17.39-1.92,1.57-.31,5.31-1.37,4.62-3.57-1.2-3.83,4.26-2.46,5.95-2.33,3.56.28,7.08.65,10.54,1.6,5.44,1.49,8.62,6.2,11.27,10.85,1.66,2.89,3.09,6.53,5.98,8.42.4.26,1.12.03,1.19-.48,1.17-8.13-3.87-18.58-9.54-24.25Z" fill="#e1a78c"/>
      </g>
      <g>
        <path d="m1225.09,606.21c-.73-12.1-.32-24.21-1.32-36.31-.97-11.57-3.03-23.04-6.73-34.06-3.27-9.72-8.09-18.91-12.81-27.98-2.13-4.1-4.84-7.98-7.44-11.8-1.92-2.84-4.35-5.19-7.59-6.38-6.33-2.33-15.25,1.08-20.62,4.43-5.9,3.69-8.88,10.46-9.6,17.19-.42-.02-.85.23-.82.77.4,8.78,6.86,16.82,12.2,23.35,3.3,4.06,6.89,7.85,9.55,12.4,3.49,5.99,3.21,13.2,3.51,19.9.52,11.47,2.86,23.39,6.21,34.37,3.5,11.47,9.48,21.66,15.44,31.98,1.38,2.39,3.36,8.23,6.95,8.28,3.54.06,6.28-3.49,8.3-5.99,6.78-8.37,5.37-20.17,4.76-30.15Z" fill="url(#uuid-e3088f62-43be-421f-8eb4-cfa8f3df9a7a)"/>
        <path d="m1220.21,596.38c1.45-1,2.92-1.9,4.43-2.74-.16-7.92-.21-15.84-.87-23.75-.97-11.57-3.03-23.04-6.73-34.06-3.27-9.72-8.09-18.91-12.81-27.98-2.13-4.1-4.84-7.98-7.44-11.8-1.92-2.84-4.35-5.19-7.59-6.38-6.33-2.33-15.25,1.08-20.62,4.43-5.9,3.69-8.88,10.46-9.6,17.19-.42-.02-.85.23-.82.77.4,8.78,6.86,16.82,12.2,23.35,3.3,4.06,6.89,7.85,9.55,12.4,3.49,5.99,3.21,13.2,3.51,19.9.52,11.47,2.86,23.39,6.21,34.37,2.48,8.14,6.2,15.62,10.28,22.96,2.12-3.97,4.12-7.32,4.81-8.44,4.64-7.46,8.03-15.04,15.48-20.22Z" fill="#e1a78c"/>
        <path d="m1224.64,593.64c-1.5.83-2.98,1.73-4.43,2.74-7.45,5.19-10.84,12.77-15.48,20.22-.69,1.12-2.7,4.46-4.81,8.44,1.68,3.01,3.42,6.01,5.15,9.02,1.38,2.39,3.36,8.23,6.95,8.28,3.54.06,6.28-3.49,8.3-5.99,6.78-8.37,5.37-20.17,4.76-30.15-.26-4.18-.37-8.38-.45-12.56Z" fill="#fff" opacity=".7"/>
        <path d="m1243.01,603.35c-.38-4.6-6.43-2.55-9.07-1.34-6.56,3.02-11.49,8.28-15.13,14.41-3.83,6.46-9.32,28.2-9.72,31.06-.41,2.92.45,6.14,1.41,8.85,1.1,3.1,4.42,7.32,7.96,4.2,4.57-4.04,5.31-11.87,6.55-17.43,1.78-7.94,4.61-15.7,7.08-23.45,1.33-4.17,3.79-7.55,6.84-10.63,1.36-1.37,4.28-3.36,4.08-5.68Z" fill="url(#uuid-a8142bda-fef6-4112-9cbc-01d7e11b8327)"/>
        <path d="m1243.57,600.29c-3.4-.18-6.81,3.17-9.13,5.25-3,2.68-5.84,5.56-8.12,8.88-5.24,7.58-3.72,16.73-6.53,25.03-1.57,4.66-4.98,8.73-6.58,13.25-.21.07-.38.24-.42.54-.17,1.26-.85,2.67-.85,3.92,0,1.59.73,3.31,1.18,4.82.77,2.6,2.31,4.44,4.8,5.44,5.86,2.37,12.37-3.41,15-8.02,1.79-3.14,2.37-6.95,3.03-10.44.83-4.33,2.25-8.25,3.72-12.38,1.58-4.44,4.76-7.64,6.5-11.94,1.69-4.18,3.52-8.42,4.13-12.92.66-4.86-.99-11.13-6.73-11.43Z" fill="url(#uuid-44ff6fb9-68d3-4479-8cec-2f7135426846)"/>
        <path d="m1205.4,538.7c-.08,3.14-1.1,6.17-4.39,7.14-2.57.76-6.04,1.44-7.59-1.39-.5-.91-1.9-.09-1.4.82,1.82,3.3,5.68,3.17,8.91,2.29,4.28-1.16,5.99-4.62,6.09-8.86.03-1.04-1.59-1.04-1.62,0Z" fill="#fe2534"/>
        <path d="m1198.91,563.43c-1.82-15.06-7.04-29.02-15.94-41.25-5.04-6.92-11.53-12.46-17.82-18.17-.84-.76-1.98-1.63-3.23-2.56-1.61,3.02-2.56,6.44-2.93,9.85-.42-.02-.85.23-.82.77.4,8.78,6.86,16.82,12.2,23.35,3.3,4.06,6.89,7.85,9.55,12.4,3.49,5.99,3.21,13.2,3.51,19.9.52,11.47,2.86,23.39,6.21,34.37,1.09,3.58,2.42,7.03,3.92,10.4,2.77-16.04,7.28-33.05,5.35-49.05Z" fill="#fff" opacity=".2"/>
      </g>
      <path d="m1189.03,470.84c-4.48-10.34-9.87-20.52-16.82-29.4-2.56-3.26-5.13-7.02-8.5-9.51-3.14-2.32-7.59-2.7-11.34-2.92-6.09-.36-12.21-.17-18.3-.04-6.33.14-12.67-.03-18.97.68-8.18.93-15.6,4.14-22.13,9.12-4.08,3.11-9.53,7.3-9.96,12.8-.06.81.92.98,1.38.51-.2,2.07-.1,4.2-.1,5.86,0,1.28,1.14,3.14,1.63,4.31.93,2.21,1.73,4.38,2.22,6.73,1.13,5.36,1.61,10.16,0,15.49-3.81,12.61-2.84,30.61,7.1,40.16,5.2,5,10.64.68,15.84-1.59,4.53-1.98,8.9-4.27,13.46-6.18,4.06-1.7,8.88-3.58,13.36-3.18,1.49.14,2.46-1.45,2.89-2.64.84-2.31-1.21-5.55-1.84-7.67-1.27-4.23-2.7-8.64-4.35-12.74-1.37-3.39-2.92-6.96-2.86-10.67,2.67,1.03,4.66,5.7,5.78,7.84,1.74,3.3,3.2,6.76,4.48,10.26,2.55,6.97,4.4,17.71,10.87,22.35,10.07,7.24,15.55-9.23,22.6-12.82,4.93-2.52,9.42-5.6,14.54-7.75,3.29-1.37,5.61-3.09,6.84-6.5,2.76-7.63-5.01-16.09-7.79-22.5Z" fill="url(#uuid-0cecaf18-bbee-4061-8828-1d7231ce117e)"/>
      <path d="m1178.44,309c-7.99-.6-11.66,7.38-15.63,12.97-2.88,4.07-7.13,9.01-12.68,8.13-4.43-.7-5.31-6.62-5.61-10.18-.32-3.78,1-8.16.17-11.82-1.06-4.7-4.7-8-8.96-9.68-16.39-6.44-19.05,6.12-19.05,6.12,0,1.04,1.61,1.04,1.61,0,0-1.82.02-3.62.55-5.33,6.45,4.1,5.17,15.36,3.78,21.73-1.07,4.88-3.03,9.05-6.4,12.77-3.55,3.9-8.22,6.49-11.79,10.37-3.13,3.4-19.34,8.12-17.45,27.61,1.16,11.97-2.08,20.85.81,31.89,1.73,6.61-1.02,11.87-3.91,17.62-2.48,4.97-4.88,9.94-6.05,15.41-1.51,6.98-1,17.46,7.72,18.47,4.13.47,8.41-2.91,11.74-4.82,5.59-3.19,11.65-5.34,17.86-6.92,5.43-1.37,10.65-3.43,16.05-4.91,5.88-1.6,12.23-1.58,18.14-.29,5.43,1.19,13.43,4.32,17.71-.92,2.01-2.46,1.99-6.46,1.51-9.39-1.08-6.44-3.13-11.99-1.89-18.61,1.04-5.57,3.51-10.63,4.99-16.05,1.76-6.4,3.75-12.78,6.41-18.87,2.15-4.9,4.66-9.57,5.86-14.82,1.08-4.69,1.1-9.67.59-14.43-.54-4.97-2.83-9.53-3.38-14.52-.63-5.67,2.97-9.29,5.97-13.53,4.68-6.61-3.75-7.64-8.67-8.01Z" fill="url(#uuid-d33e5aa2-cb24-458e-9283-562698a2378f)"/>
      <path d="m1173.25,309.55c-1.9-3.19-4.99-5.52-7.57-8.14-2.16-2.21-3.62-4.39-3.49-7.61.11-2.65,1.3-5.27,1.74-7.88,1.31-7.85-1.11-16.06-7.47-20.99-2.11-1.64-5.92-2.84-8.56-2.06-2.02.59-3.38,1.4-4.66,2.44-1.12.74-2.11,1.67-3.03,2.76-.02.02-4,5.03-4,17.14,0,3.74.58,8.96,2.47,12.23.68,1.16,1.53,2.09,2.45,3.07,2.14,2.27.82,5.49.21,8.15-1,4.31-1.69,8.83-1.7,13.26-.01,4.92,1.44,11.66,6.8,13.4,8.01,2.6,13.37-2.04,18.12-8,3.07-3.86,12.22-11.88,8.69-17.78Z" fill="url(#uuid-a95d7fcf-2b9b-42ad-959f-49dc6702fcbc)"/>
      <path d="m1172.42,345.3c-2.15-2.09-6.54-1.83-9.28-1.77-11.4.26-22.71-.62-34.05-1.73-6.01-.58-11.83.27-15.54,5.18-.83,1.08-1.42,2.32-1.91,3.62-.03.07-.05.15-.08.22-.69,1.87-1.18,3.84-1.77,5.64-1.28,3.86-2.99,7.54-3.82,11.54,0,.03,0,.06,0,.09-1.42,2.71-3.01,5.35-4.4,8-2.3,4.39-4.24,8.93-5.15,13.78-.38,2.04-.69,4.83,1.55,5.95,2.84,1.43,7.97-1.5,10.63-2.28,6.06-1.76,12.45-3.06,18.78-3.29,5.52-.2,11.55.32,16.91,1.52,4.3.97,9.13,3.42,13.63,2.69,6.4-1.04,8.87-9.07,10.44-14.13,1.24-4,1.7-8.08,2.17-12.22.63-5.45,1.73-10.81,2.91-16.17.52-2.39.89-4.79-1.01-6.65Z" fill="#fff" opacity=".7"/>
      <path d="m1180.39,354.59c-4.15,3.44-10.59,3.71-15.74,3.91-6.48.24-13.19.13-19.54,1.69-6.33,1.55-12.13,4.72-18.01,7.46-17.5,8.17-35.91,16.3-55.31,18.37-.39.04-.78.08-1.17.12-.62.06-1.26.11-1.88.16-.54.04-1.1.07-1.63.11-.04,0-.09,0-.11,0-.26,0-.52.03-.77.03-.49.03-.97.04-1.46.06-.22,0-.43,0-.65.01-.54.01-1.07.02-1.61.02s-1.05,0-1.57-.02c-7.2-.13-18.58-1.42-22.1-9.11-.04-.11-.11-.27-.19-.47-.16-.38-.3-.77-.41-1.16,0,0,0,0,0-.02-.12-.41-.21-.83-.28-1.26-.05-.04-.1-.08-.15-.14-.5-1.77-.94-3.78-.73-4.74,3.12-14.19,14.45-27.6,27.46-33.5,5.13-2.33,10.98-4.28,15.16-8.22,4.01-3.78,7.41-8.22,11.34-12.09,5.94-5.85,12.47-10.9,20.15-14.21,5.1-2.2,12.16-4.9,17.64-2.36.29.13.56.3.84.46h0c5.53,3.3,6.83,11.78,5.21,17.56-2.61,9.24-10.97,17.23-18.2,23.12-4.62,3.75-10.05,5.42-14.92,8.66-3.54,2.35-7.82,4.93-9.87,8.82,6.98-2.88,13.16-7.75,20.5-9.68,7.58-1.99,16.95-1.14,24.61.16,4.05.68,7.89,1.29,11.95.39,2.84-.63,5.94-.87,8.83-1.29,4.43-.64,9.08-.79,13.49.14,2.77.57,7.82.39,9.55,3.16.8,1.29.83,2.84-.43,3.88Z" fill="#e1a78c"/>
      <path d="m1129.67,299.69c-4.66,13.31-26.68,24.61-37.83,30.14-13.97,6.93-27.5,17.12-37.76,28.59-5.61,6.27-10.99,19.84-.28,24.63,5.35,2.39,12.78-.41,18,2.97-.39.04-.78.08-1.17.12-.62.06-1.26.11-1.88.16-.54.04-1.1.07-1.63.11-.04,0-.09,0-.11,0-.26,0-.52.03-.77.03-.49.03-.97.04-1.46.06-.22,0-.43,0-.65.01-.54.01-1.07.02-1.61.02s-1.05,0-1.57-.02c-7.2-.13-18.58-1.42-22.1-9.11-.04-.11-.11-.27-.19-.47-.12-.31-.25-.7-.41-1.16,0,0,0,0,0-.02-.14-.43-.28-.91-.43-1.4-.5-1.77-.94-3.78-.73-4.74,3.12-14.19,14.45-27.6,27.46-33.5,5.13-2.33,10.98-4.28,15.16-8.22,4.01-3.78,7.41-8.22,11.34-12.09,5.94-5.85,12.47-10.9,20.15-14.21,5.1-2.2,12.16-4.9,17.64-2.36.29.13.56.3.84.46Z" fill="#fff" opacity=".12"/>
      <path d="m1103.27,421.72c.98-9.64-4.73-22.04-10.77-29.17-1.71-2.02-3.63-4.28-5.63-6.74-.39,5.87-.74,11.47.91,17.76,1.73,6.61-1.02,11.87-3.91,17.62-2.48,4.97-4.88,9.94-6.05,15.41-1.5,6.95-1,17.37,7.61,18.45.77-1.56,1.58-3.09,2.46-4.62,4.91-8.54,14.37-18.86,15.38-28.71Z" fill="#fff" opacity=".4"/>
      <path d="m1173.25,309.55c-1.9-3.19-4.99-5.52-7.57-8.14-2.16-2.21-3.62-4.39-3.49-7.61.11-2.65,1.3-5.27,1.74-7.88,1.31-7.85-1.11-16.06-7.47-20.99-2.11-1.64-5.92-2.84-8.56-2.06-2.02.59-3.38,1.4-4.66,2.44-1.12.74-2.11,1.67-3.03,2.76-.02.02-4,5.03-4,17.14,0,3.74.58,8.96,2.47,12.23.68,1.16,1.53,2.09,2.45,3.07,2.14,2.27.82,5.49.21,8.15-1,4.31-1.69,8.83-1.7,13.26-.01,4.92,1.44,11.66,6.8,13.4,8.01,2.6,13.37-2.04,18.12-8,3.07-3.86,12.22-11.88,8.69-17.78Z" fill="#e1a78c"/>
      <path d="m1153.76,297.78c6.68-8.71-1.47-22.4-1.92-33.67-2.04-.91-2.04-1.79-3.94-1.23-2.02.59-3.38,1.4-4.66,2.44-1.12.74-2.11,1.67-3.03,2.76-.02.02-4,5.03-4,17.14,0,3.74.58,8.96,2.47,12.23.68,1.16,1.53,2.09,2.45,3.07,1.02,1.09,4.55,7.79,12.63-2.74Z" fill="#e1a78c"/>
      <path d="m1167.29,257.37c-.34-1.45-1.26-4.81-2.82-5.62-1.09-.57-2.35.12-2.93.95-.33.43-.63.89-.89,1.37-.74,1.24-.37.11-.71-.7-.22-.52-.62-1.33-1.2-1.63-.98-.51-2.23-.22-2.79.69-.46.74-.78,1.48-1.09,2.28,0-.03-.91-1.97-1.12-2.42-1.59-3.3-3.5.33-4.56,2.81-.53-1.44-1.24-3.03-2.69-3.03-2.06,0-2.75,2.7-3.11,4.97-.68-1.3-1.59-2.53-2.86-2.13-2.55.8-2.14,3.42-2.33,5.62-.49-1.02-1.08-1.99-2.2-2.26-1.62-.4-2.27,1.26-2.53,2.29-.38,1.51-.42,3.14-.31,4.75-.3,2.56-.14,5.16-.14,7.74,0,2.19,1.69,9.2,3.2,7.28,11.02-13.92,26.53-16.37,21.97,8.05-.24,1.32,1.78,7.15,4.48,2.53,1.59-2.74,8.85-15.5,4.64-33.56Z" fill="url(#uuid-84598805-5c4c-4795-abe3-c4127aec0e56)"/>
      <path d="m1156.9,254.71c.72-1.09,1.19-2.12,1.49-3.12-.91-.3-1.95.01-2.45.82-.46.74-.78,1.48-1.09,2.28,0-.03-.91-1.97-1.12-2.42-1.59-3.3-3.5.33-4.56,2.81-.53-1.44-1.24-3.03-2.69-3.03-2.06,0-2.75,2.7-3.11,4.97-.68-1.3-1.59-2.53-2.86-2.13-2.55.8-2.14,3.42-2.33,5.62-.49-1.02-1.08-1.99-2.2-2.26-1.62-.4-2.27,1.26-2.53,2.29-.38,1.51-.42,3.14-.31,4.75-.24,2.01-.19,4.04-.16,6.06,3.64-3.31,8.35-5.62,13.39-7.88,4.04-1.8,8.07-5.1,10.53-8.8Z" fill="#61a6c3" opacity=".2"/>
      <path d="m1102.59,501.15c-.3-19.65-7.38-32.24-18.32-44.44,0,.43.01.84.01,1.22,0,1.28,1.14,3.14,1.63,4.31.93,2.21,1.73,4.38,2.22,6.73,1.13,5.36,1.61,10.16,0,15.49-3.81,12.61-2.84,30.61,7.1,40.16,1.96,1.88,3.95,2.44,5.95,2.29.29-8.55,1.54-17.07,1.41-25.76Z" fill="#fff" opacity=".15"/>
      <g>
        <path d="m1346.89,378.49c0,6.43-1.95,12.4-5.29,17.36-.03.05-.07.11-.11.16h0c-.5.75-1.04,1.47-1.61,2.17-.55.67-1.12,1.33-1.73,1.95-3.81,3.94-8.65,6.88-14.08,8.38-.14.04-.3.08-.45.11-.53.15-1.06.27-1.59.37-.4.09-.8.16-1.21.23-1.65.27-3.34.41-5.07.41-2.9,0-5.7-.4-8.35-1.14-.69-.2-1.37-.41-2.04-.64-.43-.15-.85-.32-1.27-.48-1.24-.5-2.45-1.08-3.61-1.74-7.29-4.11-12.76-11.08-14.88-19.38-.06-.28-.14-.54-.19-.82-.12-.51-.22-1.03-.31-1.54-.08-.44-.15-.9-.21-1.35-.17-1.32-.26-2.66-.26-4.03,0-5.61,1.49-10.88,4.09-15.42.42-.74.87-1.46,1.36-2.16.17-.27.36-.53.55-.79.15-.2.29-.4.45-.59,3.91-5.1,9.39-8.96,15.7-10.85.37-.11.75-.22,1.13-.32.53-.15,1.06-.26,1.61-.38.15-.03.31-.06.47-.09,1.87-.35,3.8-.53,5.78-.53,6.13,0,11.85,1.77,16.67,4.83.05.03.11.07.16.1.52.33,1.02.69,1.52,1.05.27.2.55.41.83.63,4.45,3.48,7.94,8.15,9.97,13.55.35.92.66,1.85.91,2.81.07.23.13.45.18.68.09.36.17.74.25,1.11.42,2.06.65,4.19.65,6.37Z" fill="url(#uuid-6b0ee7f1-d55a-4ef0-a136-fc8db3d5d849)"/>
        <path d="m1305.8,364.29c14.26-9.26,27.6-4.88,39.09,3.2-2.03-5.38-5.51-10.05-9.95-13.52-.28-.22-.56-.43-.83-.63-.5-.36-1-.72-1.52-1.05-.05-.03-.11-.06-.16-.1-4.82-3.06-10.53-4.83-16.67-4.83-1.98,0-3.91.19-5.78.53-.15.03-.32.06-.47.09-.55.12-1.08.23-1.61.38-.38.1-.75.21-1.13.32-6.31,1.89-11.79,5.74-15.7,10.85-.16.19-.3.39-.45.59-.19.26-.38.52-.55.79-.5.7-.94,1.42-1.36,2.16-2.6,4.55-4.09,9.81-4.09,15.42,0,1.37.09,2.71.26,4.03.06.45.13.91.21,1.35.07.4.15.81.24,1.21,4.41-8.53,12.51-15.63,20.46-20.79Z" fill="#fff" opacity=".4"/>
        <path d="m1337.55,382.88c2.93,3.79,4.04,8.31,4.05,12.96-.03.05-.07.11-.11.16h0c-.5.75-1.04,1.47-1.61,2.17.12-2.45-.09-4.92-.74-7.43-1.69-6.52-6.63-10.72-9.7-16.56-.77-1.45-1.52-2.83-2.1-4.2-2.67.12-5.33.37-7.98.76.48,1.65.89,3.33,1.21,5.06,1.96,10.86,2.97,21.81,3.06,32.8-.53.15-1.06.27-1.59.37-.04-10.47-.9-20.93-2.76-31.24-.41-2.32-.98-4.55-1.64-6.72-1.59.26-3.18.57-4.75.91-1.29.29-2.61.64-3.95,1.03.6,1.42,1.09,2.9,1.49,4.43,1.97,7.64-3.76,15.8-4.09,23.41-.09,2.23.25,4.99,1.07,7.69-.69-.2-1.37-.41-2.04-.64-1.11-4.54-.79-9.33.47-13.93,1.19-4.34,3.3-8.99,3.2-13.56-.06-2.29-.61-4.7-1.54-6.96-7.66,2.46-15.72,6.59-22.09,12.01-.12-.51-.22-1.03-.31-1.54,1.99-1.57,4.08-3,6.2-4.33,4.81-2.99,10.07-5.69,15.54-7.57-.77-1.54-1.73-2.96-2.85-4.17-2.8-3.02-6.56-4.94-10.47-6.16-1.17-.35-2.31-.59-3.45-.74.17-.27.36-.53.55-.79.15-.2.29-.4.45-.59,3.71.53,7.28,1.68,10.53,4.01,2.95,2.13,5.11,4.85,6.66,7.96,1.88-.58,3.77-1.08,5.68-1.44,1.06-.2,2.14-.39,3.21-.56-1.31-3.99-2.95-7.85-4.76-11.83-1.39-3.09-2.83-6.27-4.5-9.31.53-.15,1.06-.26,1.61-.38,1.57,2.9,2.94,5.91,4.29,8.87,1.88,4.11,3.71,8.17,5.08,12.41,2.63-.36,5.27-.64,7.88-.77-.73-2.3-.82-4.64.5-7.37,1.46-2.99,3.28-6.01,5.31-8.83.52.33,1.02.69,1.52,1.05-.64.95-1.29,1.91-1.95,2.87-1.69,2.39-3.76,5.13-4.28,8.08-.24,1.32-.09,2.72.32,4.15,5.99-.18,11.91.35,17.62,1.89.07.23.13.45.18.68.09.36.17.74.25,1.11-5.66-1.65-11.57-2.29-17.52-2.17,1.94,4.82,6.36,9.75,8.84,12.93Z" fill="#652709"/>
      </g>
    </g>
    <path d="m1155.03,454.29c-1.66-.94-3.73-1.9-5.76-2.14-.76-.3-1.55-.51-2.39-.58-1.6-.13-2.45,1.01-2.82,2.37-.9,1.24-.61,2.75.14,4.18,1.03,4.46,3.13,8.98,5.16,12.99,1.9,3.76,3.45,8.69,7.14,11.12.19.13.38.15.55.11.11.22.23.45.36.67,2.37,4.26,5.59,7.85,10.72,8.15,3.98.23,5.81-3.77,6.21-7.05.74-6.01-3.87-12.7-6.98-17.4-3.29-4.98-7.06-9.46-12.32-12.43Z" fill="#fff" opacity=".1"/>
  </g>
  <g>
    <g>
      <g>
        <path d="m1544.12,387.93c-.75-3.05-2.68-6.03-4.11-8.8-.54-1.04-1.08-2.08-1.61-3.11.93.55,1.92.64,2.88-.12,2.98-2.39-1.84-9.41-2.78-11.97-.66-1.8-.94-3.72-1.12-5.61-.16-1.73.27-3.84-.15-5.51-.54-2.16-.95-4.29-1.01-6.53-.07-2.31.64-4.46.4-6.77-.43-4.12.12-8.36.11-12.49,0-4.73-.45-9.36-.83-14.06-1.34-16.72-6.62-33.64-15.21-48.08-8.8-14.77-22.61-25.08-37.9-32.44-8.92-4.29-22.46-8.05-29.49,1.6-5.15,7.06-4.12,14.98.41,21.13.85,4.02,6.94,6.36,10.13,7.8,6.36,2.87,13.15,4.56,19.6,7.2,8.52,3.48,15.82,8.98,21.73,16.03,5.76,6.86,10.87,14.72,13.7,23.23,2.88,8.66,4.75,17.42,4.79,26.56.03,4.62-.06,9.2-1.01,13.74-.98,4.74-2.8,9.24-4.29,13.84-.54,1.65-2.71,9.57.24,10.03,4.39.69,2.61-7.18,5.52-6.63,1.82.34,3.15,5.28,3.71,6.67.85,2.1,1.97,4.06,3.14,5.99,1.71,2.81,3.81,5.36,5.7,8.04,1.43,2.02,2.96,4.22,5.27,5.26,3.09,1.39,2.54-3.5,2.18-4.98Z" fill="#e1a78c"/>
        <path d="m1521.31,274.04c-.42-.98-1.84-.14-1.43.83,1.26,2.93,1.31,5.6-1.86,7.15-.96.47-.12,1.9.83,1.43,4.03-1.98,4.06-5.68,2.45-9.41Z" fill="#e1a78c"/>
        <path d="m1520.7,264.86c-8.8-14.77-22.61-25.08-37.9-32.44-8.92-4.29-22.46-8.05-29.49,1.6-.89,1.23-1.59,2.48-2.12,3.74,12.85-.4,25.8.53,37.04,7.45,11.05,6.79,19.59,16.63,28.02,26.37,10.26,11.86,12.63,25.86,17.89,40.07.6,1.62,1.29,3.18,2.05,4.7-.09-1.13-.19-2.26-.28-3.39-1.34-16.72-6.62-33.64-15.21-48.08Z" fill="#fff" opacity=".1"/>
      </g>
      <g>
        <g>
          <path d="m1453.36,49.88c4.84.72,9.12,2.86,12.48,5.93.04.02.07.06.1.09h0c.51.46.99.95,1.45,1.46.44.49.87.99,1.27,1.52,2.54,3.31,4.21,7.28,4.73,11.55.02.11.03.23.04.35.05.41.08.83.1,1.24.02.31.03.63.03.94.02,1.27-.06,2.56-.26,3.87-.32,2.18-.94,4.25-1.79,6.17-.22.5-.46.98-.71,1.47-.16.3-.34.6-.51.9-.52.88-1.08,1.72-1.71,2.52-3.91,5.03-9.78,8.37-16.27,9.04-.22.02-.43.05-.64.06-.4.03-.8.05-1.2.06-.35.01-.69.01-1.04,0-1.01-.02-2.04-.1-3.06-.26-4.23-.63-8.03-2.34-11.16-4.8-.51-.4-1-.82-1.47-1.27-.18-.16-.36-.33-.53-.5-.14-.13-.27-.27-.39-.41-3.41-3.52-5.69-8.07-6.41-13.03-.04-.29-.08-.58-.11-.88-.05-.41-.09-.83-.11-1.25,0-.12,0-.25-.01-.37-.05-1.44.02-2.92.24-4.41.69-4.62,2.66-8.73,5.5-12.01.03-.04.06-.08.09-.11.31-.35.63-.7.96-1.03.18-.19.38-.37.57-.55,3.12-2.97,7.03-5.07,11.32-6,.73-.16,1.47-.29,2.22-.37.18-.02.35-.04.53-.06.28-.02.57-.04.86-.07,1.6-.09,3.23-.02,4.88.22Z" fill="url(#uuid-c411159b-6b62-4b36-844c-86181ad35510)"/>
          <path d="m1438.84,66.05c7.51-10.54,18.18-11.17,28.58-8.66-2.94-3.25-6.71-5.57-10.84-6.79-.25-.08-.5-.15-.76-.22-.45-.12-.91-.23-1.37-.32-.05-.01-.1-.02-.14-.03-4.26-.82-8.81-.47-13.15,1.24-1.39.55-2.72,1.23-3.94,1.99-.1.07-.21.13-.31.19-.36.23-.7.47-1.03.72-.24.18-.48.35-.71.54-3.94,3.11-6.74,7.36-8.08,12.07-.06.18-.11.36-.16.54-.06.24-.13.47-.17.71-.15.64-.28,1.27-.37,1.91-.57,3.95-.15,8.09,1.42,12.07.38.97.82,1.89,1.31,2.78.17.3.34.6.52.9.16.27.34.53.51.79.74-7.27,4.49-14.57,8.67-20.45Z" fill="#e1a78c" opacity=".4"/>
          <path d="m1466.53,70.34c3.14,1.87,5.19,4.76,6.49,8.05,0,.04-.02.09-.03.14h0c-.14.67-.33,1.33-.54,1.99-.6-1.76-1.43-3.46-2.6-5.05-3.02-4.15-7.7-5.74-11.51-9.01-.95-.81-1.87-1.58-2.66-2.39-1.86.82-3.67,1.75-5.45,2.77.81,1.03,1.57,2.11,2.28,3.25,4.43,7.15,8.2,14.62,11.34,22.38-.33.25-.67.48-1.02.71-2.96-7.4-6.49-14.58-10.69-21.36-.94-1.53-1.96-2.95-3.04-4.3-1.06.63-2.09,1.29-3.11,1.98-.83.57-1.67,1.18-2.51,1.83.82.83,1.58,1.75,2.29,2.72,3.53,4.87,1.75,12.24,3.65,17.72.56,1.61,1.57,3.47,2.91,5.15-.54.06-1.08.1-1.62.12-2.05-2.91-3.17-6.39-3.56-10-.37-3.4-.18-7.29-1.53-10.49-.67-1.61-1.74-3.16-3.03-4.5-4.74,3.88-9.29,9.06-12.29,14.68-.23-.33-.45-.67-.65-1.01.97-1.67,2.06-3.27,3.19-4.8,2.57-3.46,5.54-6.85,8.88-9.71-.98-.87-2.06-1.61-3.18-2.15-2.83-1.35-6.03-1.67-9.14-1.44-.92.07-1.8.23-2.64.44.04-.24.11-.47.17-.71.05-.18.1-.36.16-.54,2.77-.66,5.62-.85,8.57-.1,2.69.68,4.98,2.01,6.95,3.78,1.17-.94,2.37-1.82,3.62-2.61.7-.44,1.41-.88,2.12-1.29-2.04-2.47-4.29-4.74-6.68-7.05-1.85-1.8-3.75-3.65-5.79-5.33.33-.25.67-.49,1.03-.72,1.93,1.61,3.74,3.36,5.52,5.08,2.48,2.39,4.91,4.75,7.07,7.37,1.75-.99,3.55-1.92,5.37-2.75-1.16-1.42-1.88-3.06-1.7-5.36.2-2.53.64-5.17,1.29-7.74.46.09.92.2,1.37.32-.19.86-.37,1.72-.58,2.58-.53,2.16-1.22,4.68-.77,6.92.2,1,.7,1.95,1.39,2.85,4.19-1.8,8.53-3.08,13.01-3.59.11.15.21.29.32.43.16.23.32.47.49.71-4.47.41-8.84,1.62-13.02,3.37,2.72,2.87,7.23,5.13,9.87,6.69Z" fill="#652709"/>
        </g>
        <g>
          <path d="m1474.63,69.81c-.21-3.27-.65-6.7-2.05-9.7-.81-1.75-2.74-6.21-5.22-6.21-1.77,0-1.5,2.39-1.36,3.51.5,3.92,2.88,7.86,2.47,11.83-.17,1.67-1.86,9.91-4.5,6.45-1.07-1.4-1.58-3.19-2.94-4.37-.97-.83-2.11-.55-3.06.12-1.92,1.35-1.45,4.42-1.16,6.38,1.28,8.82-2.21,15.18-9.24,20.35-6.61,4.87-24.79,22.93-33.39,36.38-20.49,32.04-6.65,79.22-4.57,85.91.83,2.67,3.55,17.01,8.12,14.51,2.4-1.32,4.42-3.99,6.28-5.93,2.93-3.06,5.62-6.34,8.06-9.81,2.02-2.87,3.09-1.62,3.36-5.19.3-4.01-.4-11.77-1.38-15.62-11.28-44.21,29.49-88.05,31.35-91.98,1.85-3.88,4.15-7.64,5.74-11.63,3.17-7.98,4.06-16.48,3.5-25Z" fill="#e1a78c"/>
          <path d="m1421.24,143.72c-.77,1.44-3.2,3.99-5.04,3.56-1.08-.25-.64-2.58-.51-3.25.22-1.09.61-2.87,1.64-3.49.91-.55.08-1.98-.83-1.43-1.47.9-2.04,2.91-2.39,4.48-.36,1.58-.46,3.51.75,4.76,2.33,2.43,6.77-1.85,7.81-3.79.5-.94-.92-1.77-1.43-.84Z" fill="#e1a78c"/>
          <path d="m1416.09,195.92c-3.26-11.72-1.98-24.3,3.16-35.42,4.95-10.7,11.41-20.4,16.36-31.4,2.31-5.13,3.93-9.69,4.51-15.35.26-2.53-.16-5.67-.52-8.63-8.22,7.82-19.28,19.81-25.43,29.44-20.49,32.04-6.65,79.22-4.57,85.91.83,2.67,3.55,17.01,8.12,14.51,1.18-.65,2.26-1.62,3.28-2.68,1.6-11.24-1.5-24.13-4.92-36.38Z" fill="#fff" opacity=".1"/>
          <path d="m1474.63,69.81c-.21-3.27-.65-6.7-2.05-9.7-.81-1.75-2.74-6.21-5.22-6.21-1.77,0-1.5,2.39-1.36,3.51.5,3.92,2.88,7.86,2.47,11.83-.17,1.67-1.86,9.91-4.5,6.45-1.07-1.4-1.58-3.19-2.94-4.37-.97-.83-2.11-.55-3.06.12-1.92,1.35-1.45,4.42-1.16,6.38,1.28,8.82-2.21,15.18-9.24,20.35-1.88,1.38-4.69,3.84-7.96,6.94.36,2.96.78,6.1.52,8.63-.58,5.66-2.19,10.22-4.51,15.35-4.96,11-11.41,20.7-16.36,31.4-5.14,11.12-6.42,23.7-3.16,35.42,3.41,12.25,6.51,25.14,4.92,36.38,1.06-1.09,2.04-2.26,2.99-3.25,2.93-3.06,5.62-6.34,8.06-9.81,2.02-2.87,3.09-1.62,3.36-5.19.3-4.01-.4-11.77-1.38-15.62-11.28-44.21,29.49-88.05,31.35-91.98,1.85-3.88,4.15-7.64,5.74-11.63,3.17-7.98,4.06-16.48,3.5-25Z" fill="#e1a78c"/>
        </g>
      </g>
      <path d="m1382.77,456.04c-4.98-.83-8.82.39-12.91,2.31-.12-.32-.48-.58-.88-.36-2.75,1.57-4.55,4.08-6.39,6.59-2.52,3.44-4.94,6.75-6.74,10.63-3.5,7.56-4.75,16.66-4.74,24.93,0,9.13,2.43,18.49,4.56,27.32,2.26,9.37,5.11,18.59,8.39,27.66,3.15,8.74,6.81,17.3,10.55,25.8,3.19,7.26,3.36,15.83,8.08,22.43,2.12,2.96,6.44,5.59,9.17,1.76,4.68-6.56,4.35-15.15,3.56-22.76-.77-7.39-1.92-14.73-3.3-22.03-1.5-7.91-3.08-16.06-5.58-23.73-2.42-7.42-3.69-15.18-3.75-22.98-.07-8.21,3.13-15.52,7.17-22.5,3.33-5.77,6.69-11.51,9.95-17.33,2.17-3.87,3.81-8.17.6-11.93-3.92-4.6-12.27-4.92-17.73-5.82Z" fill="#e1a78c"/>
      <path d="m1524.69,622.99c-.77-9.34-1.18-18.51-2.79-27.77-1.71-9.86-4.4-19.46-6.58-29.22-2.16-9.64-4.18-19.34-5.99-29.05-1.71-9.12-4.73-17.35-8.4-25.83-3.98-9.17-7.99-18.34-11.45-27.73-1.62-4.4-2.83-8.97-4.61-13.31-1.76-4.32-4.05-8.53-5.53-12.95-1.89-5.67-4.28-10.98-10.76-11.93-6.22-.91-11.68,4.65-12.99,10.26-.92,3.91-1.28,8.3-1.43,12.31-.03.79,1.2.79,1.23,0,0-.16.02-.34.02-.5,1.73,7.87,2.1,15.96,4.24,23.79,2.58,9.44,5.76,18.75,8.5,28.15,5.28,18.11,10.83,36.03,18.96,53.09,4.25,8.91,8.67,17.73,12.9,26.65,3.68,7.77,7.65,15.31,12.08,22.69,2.08,3.45,4.51,7.82,8.13,9.87,4.88,2.76,4.66-6.32,4.48-8.54Z" fill="#e1a78c"/>
      <path d="m1490.58,438.53c-2.74-17.1-5.38-34.26-14.08-49.53-3.04-5.34-5.04-12.74-10.29-16.43-2.85-2-5.9-2.82-9.36-2.33-5.25.73-10.52.99-15.78,1.62-4,.48-7.96,1.47-11.9,2.3-4.99,1.05-9.41,1.43-14.44.83-5.27-.63-5.99,2.28-5.98,5.93-6.83,16.49-23.85,27.74-33.4,42.75-5.14,8.08-1.58,14.82-9.16,27.25-1.69,2.77-3.08,5.58-4.78,8.35-1.18,1.92-2.09,4.24-.83,6.31,2.72,4.47,12.15,2.15,16.32,2.51,9.95.87,19.45,5.9,28.8,9.06,2.49.85,5.37,1.89,7.76.38,2.19-1.38,3.45-4.39,4.39-6.66,1.41-3.39,2.54-6.71,3.48-10.26,1.12-4.21,1.42-8.65,2.26-12.93.34-1.79.71-3.54,1.51-5.19,1.47-3.03,3.6-1.52,4.7.55,1.52,2.84,2.08,6.49,2.76,9.58,1.81,8.32,2.08,17.38,6.23,25,3.88,7.14,9.46.79,13.56-2.18,3.58-2.59,7.26-5.05,11.21-7.07,4.62-2.37,9.26-3.12,14.4-3.25,6.36-.17,11.67-2.15,13.48-8.69,1.58-5.73.07-12.15-.85-17.87Z" fill="url(#uuid-e45e60f8-9f79-49bc-b779-ec00378842aa)"/>
      <path d="m1471.4,363.07c-9.64-17.21-9.44-37.08-9.32-56.18.06-10.05.5-20.09.52-30.13.02-9.42.09-18.76,3.21-27.77,2.18-6.29,9.28-12.26,7.37-19.55-1.59-6.03-7.41-5.53-14.03-10.45-2.44-1.81-20.9-7.93-23.66-6.65-25.13,11.64-29.77,30.55-31.32,34.47-3.45,8.71-6.4,17.63-8.29,26.8-12.6,61.36,3.04,102.55,5.01,111.81.92,4.38,4.37,7.01,8.61,7.75,4.85.85,10.05-.41,14.71-1.67,6.49-1.74,13-3.69,19.37-5.82,8.63-2.88,16.96-6.82,25.7-9.3,6.85-1.94,4.73-8.65,2.12-13.32Z" fill="url(#uuid-695b7b15-91f2-4fe8-a81b-cbea92372d56)"/>
      <path d="m1367.6,489.68c-.75,1.79-2.76,5.6-5.19,4.4-1.32-.65-4.52-3.69-3.46-5.36.57-.91-.86-1.74-1.43-.84-1.71,2.72,1.94,6.37,4.05,7.63,3.36,2,6.34-2.38,7.46-4.99.41-.97-1.01-1.81-1.43-.84Z" fill="#7f0502"/>
      <path d="m1478.73,495.14c0,1.62.24,4.43-1.25,5.52-1.06.78-4.1.5-3.93-1.2.1-1.06-1.55-1.05-1.66,0-.26,2.77,3.43,3.71,5.54,3.04,2.99-.96,2.96-4.79,2.96-7.36,0-1.07-1.65-1.07-1.65,0Z" fill="#7f0502"/>
      <path d="m1404.08,345.73c2.2-14.18,17.34-24.67,16.05-39.08-1.34-14.9-13.58-22.65-10.56-38.76,1.76-9.36,5.83-17.57,3.38-27.4-.64-2.58-1.63-4.76-2.86-6.62-3.8,6.06-5.2,11.12-5.91,12.93-3.45,8.71-6.4,17.63-8.29,26.8-12.6,61.36,3.04,102.55,5.01,111.81.92,4.38,4.37,7.01,8.61,7.75,3.65.64,7.49.09,11.15-.76-3.12-5.02-7.7-10.12-9.93-15.31-4.3-9.97-8.35-20.46-6.65-31.38Z" fill="#fff" opacity=".2"/>
      <path d="m1400.87,428.92c4.94-9.64,10.24-23.89,4.71-34.46-.68-1.3-1.49-2.52-2.39-3.65-8.16,11.56-20.31,21.04-27.83,32.86-5.14,8.08-1.58,14.82-9.16,27.25-1.69,2.77-3.08,5.58-4.78,8.35-1.18,1.92-2.09,4.24-.83,6.31,2.53,4.17,10.87,2.44,15.37,2.48,1.41-5.88,3.68-11.73,7.54-16.91,5.8-7.8,12.86-13.42,17.38-22.21Z" fill="#fff" opacity=".4"/>
      <path d="m1371.89,457.46c-.67.27-1.35.56-2.03.89-.12-.32-.48-.58-.88-.36-2.75,1.57-4.55,4.08-6.39,6.59-2.52,3.44-4.94,6.75-6.74,10.63-3.5,7.56-4.75,16.66-4.74,24.93,0,9.13,2.43,18.49,4.56,27.32,2.26,9.37,5.11,18.59,8.39,27.66,3.15,8.74,6.81,17.3,10.55,25.8,3.19,7.26,3.36,15.83,8.08,22.43,2.12,2.96,6.44,5.59,9.17,1.76,2.37-3.32,3.46-7.17,3.85-11.14-5.28-24.04-17.95-47.29-26.91-70.01-8.64-21.91-4.96-45.03,3.09-66.49Z" fill="#fff" opacity=".1"/>
      <path d="m1459.06,449.05c-1.7,1.84-2.94,4.12-3.48,6.43-.92,3.91-1.28,8.3-1.43,12.31-.03.79,1.2.79,1.23,0,0-.16.02-.34.02-.5,1.73,7.87,2.1,15.96,4.24,23.79,2.58,9.44,5.76,18.75,8.5,28.15,5.28,18.11,10.83,36.03,18.96,53.09,4.25,8.91,8.67,17.73,12.9,26.65,3.16,6.68,6.56,13.18,10.26,19.56-.71-26.06-8.08-56-17.87-79.23-10.22-24.27-39.09-60.47-33.32-90.24Z" fill="#fff" opacity=".1"/>
      <g>
        <path d="m1467.9,182.12c-2.63-1.5-10.91-1.45-11.1-1.34-16.81,9.71-13.05,23.89-11.19,26.25,1.35,1.71,3.37,3.2,3.51,5.58.12,2.09-1.52,4.28-2.6,5.94-2.57,3.91-8.59,8.74-7.66,14.05.83,4.75,11.47,4.92,14.67,3.78,5.73-2.04,7.3-9.08,9.62-13.94,1.95-4.06,3.66-8.04,6.05-11.86,2.41-3.85,4.83-6.35,5.46-11.04.76-5.62-1.48-14.4-6.76-17.42Z" fill="url(#uuid-713e0503-cf9c-4275-b96f-72919bb9d65a)"/>
        <path d="m1454.93,216.13c.68-3.32-1.42-6.95-.84-10.7,1.02-6.55,6.29-12.31,8.02-18.89.34-1.28.59-3.55.81-6.14-1.99-.34-5.93.27-6.12.38-16.81,9.71-13.05,23.89-11.19,26.25,1.35,1.71,3.37,3.2,3.51,5.58.12,2.09-1.52,4.28-2.6,5.94-2.57,3.91-8.59,8.74-7.66,14.05.22,1.29,1.18,2.22,2.49,2.9,1.33-2.14,2.85-4.22,4.56-6.24,3.18-3.77,8.02-8.19,9.03-13.12Z" fill="#e1a78c"/>
        <path d="m1467.9,182.12c-1.28-.73-3.1-1.4-4.98-1.72-.22,2.59-.48,4.86-.81,6.14-1.73,6.58-6.99,12.35-8.02,18.89-.58,3.74,1.52,7.38.84,10.7-1.01,4.94-5.84,9.35-9.03,13.12-1.71,2.02-3.23,4.11-4.56,6.24,3.56,1.84,9.84,1.7,12.19.87,5.73-2.04,7.3-9.08,9.62-13.94,1.95-4.06,3.66-8.04,6.05-11.86,2.41-3.85,4.83-6.35,5.46-11.04.76-5.62-1.48-14.4-6.76-17.42Z" fill="#e1a78c"/>
        <path d="m1487.92,186.28c2.05-.69,4.53-1.38,4.53-4s-3.51-2.71-5.3-2.56c-.6,0-1.19.05-1.77.13.11-.01-6.32.13-4.7-.96,1.77-1.19,4.04-2.07,5.94-3.03,1.82-.92,3.64-2.09,2.88-4.31-.71-2.11-4.34-1.77-5.91-1.6-1.92.21-3.74.77-5.57,1.31-2.63.77,1.62-2.32,1.91-2.56.96-.81,1.98-1.55,2.95-2.37,1.3-1.1,3.16-2.76,2.07-4.63-1.44-2.46-8.31.62-9.86,1.24-7.63,3.08-19.31,9.76-20.48,18.98,0,.02,0,.03,0,.05-.13,1,.09,1.97,1.15,2.59,1.7,1,4.38,1.06,6.28,1.76,3.05,1.14,3.91,4.04,5.29,6.73,1.72,3.37,3.8,5.89,7.41,7.16,3.08,1.09,6.55.29,7.84-2.76,1.29-3.04,4.67-2.31,6.59-4.23.31-.31.92-1.42.69-1.97-.59-1.42-.62-1.44-1.86-2.37-.41-.2-.83-.39-1.24-.57-1.96-.57.21-1.73,1.18-2.05Z" fill="url(#uuid-d71bacf1-e086-454b-98e3-0050c033bc1a)"/>
        <path d="m1474.39,181.59c-3.58-2.79-3.75-6.11-9.48-3.15-3.11,1.61-5.5,3.98-7.1,6.91,1.41.35,2.99.54,4.22,1,3.05,1.14,3.91,4.04,5.29,6.73,1.72,3.37,3.8,5.89,7.41,7.16,3.08,1.09,6.55.29,7.84-2.76,1.29-3.04,4.67-2.31,6.59-4.23.31-.31.92-1.42.69-1.97-.59-1.42-.62-1.44-1.86-2.37-.41-.2-.83-.39-1.24-.57-1.96-.57.21-1.73,1.18-2.05,2.05-.69,4.53-1.38,4.53-4,0-1.21-.71-1.88-1.66-2.23-.91.13-1.87.33-2.91.62-4.21,1.15-9.36,4.14-13.49.93Z" fill="url(#uuid-70a69a28-dce0-43c4-b33c-a32595b72c33)"/>
        <path d="m1487.15,179.72c-.6,0-1.19.05-1.77.13.11-.01-6.32.13-4.7-.96,1.77-1.19,4.04-2.07,5.94-3.03,1.82-.92,3.64-2.09,2.88-4.31-.71-2.11-4.34-1.77-5.91-1.6-1.92.21-3.74.77-5.57,1.31-2.63.77,1.62-2.32,1.91-2.56.96-.81,1.98-1.55,2.95-2.37,1.3-1.1,3.16-2.76,2.07-4.63-1.44-2.46-8.31.62-9.86,1.24-7.63,3.08-19.31,9.76-20.48,18.98,0,.02,0,.03,0,.05-.13,1,.09,1.97,1.15,2.59.59.34,1.31.58,2.06.76,1.6-2.92,3.99-5.3,7.1-6.91,5.73-2.96,5.9.36,9.48,3.15,4.13,3.21,9.27.22,13.49-.93,1.04-.28,2.01-.48,2.91-.62-1.16-.44-2.66-.41-3.64-.32Z" fill="#fff" opacity=".1"/>
        <path d="m1466.38,181.34c-3.27-2.57-6.7-5.06-10.98-5.33-1.77-.11-2.77.99-3.38,2.41-1.31,1.56-2.31,3.78-1.85,5.48.91,3.32,6.05,5.14,8.92,6.09,6.1,2.01,11.36,6.99,14.86,12.15,1.62,2.39,4.52,1.01,6.02-.69,5.55-6.35-10.02-17.29-13.58-20.1Z" fill="url(#uuid-8caedf5b-df7e-4598-ab2f-c0ea9d104639)"/>
      </g>
      <path d="m1457.63,387.72c-5.39-1.34-12.35,2.02-15.58,6.27-4.79,6.29,2.04,13.75,2.95,19.99.15,1.05,1.74.6,1.59-.44-.22-1.49-.71-2.94-1.29-4.37,2.39,3.89,1.93,9.74,2.64,14.14,1.18,7.36,3.41,14.63,8.94,19.85,3.54,3.34,8.4,5.84,12.58,2.29,2.29-1.93,3.11-6.25,3.69-8.96.89-4.18,1.51-8.42,1.57-12.7.19-12.77-2.12-32.37-17.09-36.07Z" fill="#fff" opacity=".1"/>
      <path d="m1392.12,560.33c-.81-4.29-1.65-8.65-2.65-12.97-8.85,3.66-18.2,5.99-26.42,4.92.34.95.67,1.9,1.01,2.85,3.15,8.74,6.81,17.3,10.55,25.8,3.19,7.26,3.36,15.83,8.08,22.43,2.12,2.96,6.44,5.59,9.17,1.76,4.68-6.56,4.35-15.15,3.56-22.76-.77-7.39-1.92-14.73-3.3-22.03Z" fill="url(#uuid-bc1447de-d2bf-4933-bb52-6b92c2331e68)"/>
      <path d="m1521.89,595.22c-1.71-9.86-4.4-19.46-6.58-29.22-.76-3.37-1.49-6.76-2.21-10.15-.79.76-1.64,1.5-2.56,2.2-6.5,4.99-15.67,9.64-24.82,11.31.45.98.91,1.97,1.37,2.95,4.25,8.91,8.67,17.73,12.9,26.65,3.68,7.77,7.65,15.31,12.08,22.69,2.08,3.45,4.51,7.82,8.13,9.87,4.88,2.76,4.66-6.32,4.48-8.54-.77-9.34-1.18-18.51-2.79-27.77Z" fill="url(#uuid-7acdf0b5-5dea-417b-b7ac-59120a09c687)"/>
      <g>
        <path d="m1536.7,620.4c-5.09-1.77-7.72,4.01-9.53,7.72-3.48,7.07-6.83,14.16-10.27,21.26-1.56,3.21-2.89,6.53-4.1,9.88-.91,2.51-2.18,5.06-2.85,7.69-2.78,2.01.15,5.66,2.27,6.87,5.15,2.94,7.93-2.47,9.7-6.32,3.42-7.48,5.35-15.37,10.22-22.14,3.51-4.88,9.61-9.68,10.19-16.01.27-3.01-2.77-7.96-5.62-8.96Z" fill="url(#uuid-900272a0-fa60-43a4-ab78-6fbafd011169)"/>
        <path d="m1532.92,615.6c-1.33-1.33-3.59-3.4-5.22-4.16-1.57-.73-2.54-2.59-3.96-3.44-.1-.14-.25-.24-.47-.25h-.03c-.12-.05-.23-.08-.36-.11-.87-.21-1.64-.12-2.2.19-.99.18-1.84.64-2.58,1.77-.99,1.5.24,4.71.52,6.25.26,1.4.79,5.85-2.02,5.46-.85-.12-1.66-1.45-2.17-2.05-.9-1.04-2-1.54-3.19-.67-1.96,1.42-2.54,4.25-2.58,6.47-.08,4.5-.42,8.82.06,13.3.89,8.16-.47,16.01-.51,24.15,0,1.43-.19,9.19,3.15,7.95,1.92-.72,3.04-2.39,3.79-4.21.82-2,2.3-3.78,3.5-5.57,1.27-1.91,2.16-4.16,3.1-6.23,1.64-3.6,3.19-7.23,5.21-10.64,2.34-3.95,5.63-7.3,8.53-10.82,3.93-4.76,1.41-13.41-2.57-17.4Z" fill="url(#uuid-7960c6ef-eb1c-44a3-9e96-ba513233bf0b)"/>
        <path d="m1516.48,642.57c-1.22-.03-2.4-.37-3.63-.4-1.06-.03-1.06,1.63,0,1.65,1.22.03,2.41.37,3.63.4,1.06.02,1.06-1.63,0-1.65Z" fill="url(#uuid-ff187437-047e-415a-a63c-fc445c40a7c7)"/>
        <path d="m1515.85,637.36c-.98.33-1.94.75-3,.77-1.06.02-1.06,1.67,0,1.65,1.22-.03,2.3-.45,3.44-.84,1-.34.57-1.94-.44-1.59Z" fill="url(#uuid-c362f39c-bade-4311-8f25-af4d840c2959)"/>
        <path d="m1516.07,633.3c-1.14-.03-2.32-.42-3.4-.78-1.02-.33-1.45,1.26-.44,1.6,1.23.4,2.54.8,3.84.83,1.07.03,1.07-1.63,0-1.65Z" fill="url(#uuid-b5be81ea-e71c-42a2-a65b-68dddc212310)"/>
        <path d="m1515.97,639.35c1.53-6.32,1.86-12.41.73-18.04-.04,0-.07,0-.11,0-.85-.12-1.66-1.45-2.17-2.05-.9-1.04-2-1.54-3.19-.67-1.96,1.42-2.54,4.25-2.58,6.47-.08,4.5-.42,8.82.06,13.3.89,8.16-.47,16.01-.51,24.15,0,1.41-.18,8.88,2.96,8.01-.34-10.47,2.49-21.54,4.8-31.18Z" fill="#fff" opacity=".1"/>
      </g>
      <g>
        <path d="m1407.23,603c-.25-2.7-2.44-4.6-5.56-4.9-2.06-.2-4.79,1.83-6.39,2.83-2.63,1.66-5.08,3.55-7.47,5.54-6.21,5.18-11.62,11.36-18.81,15.25-3.52,1.9-7.87,1.93-10.46,4.6-.34-.37-1-.47-1.33.09-2.1,3.52-.87,7.67,3.16,8.79,6.46,1.79,12.12-.75,17.83-3.62,1.52-.76,3.04-1.59,4.54-2.48,6.42-3.11,11.96-7.94,17.8-12.14,3.29-2.36,7.57-4.11,8.9-8.23.46-1.42-.04-2.66-.91-3.77-.27-.69-.73-1.35-1.3-1.95Z" fill="url(#uuid-4a98a4f0-b11b-4967-b67e-88e7fa8ea2ae)"/>
        <path d="m1401.28,593.41c-2.81-1.88-4.67-4.1-6.83-6.6-.18-.2-.52-.23-.74-.09-2.56,1.58-3.03,5.02-3.52,7.73-.34,1.86-.57,3.52-1.59,5.15-2.43,1.37-4,1.21-4.7-.49-.21-.45-.44-.88-.69-1.3-.26-.47-.78-1.04-1.24-1.31-2.27-1.33-4.45,1.61-5.28,3.26-.6,1.2-.97,2.51-1.3,3.81-.28,1.13-.62,2.18-1.02,3.21-3.01,3.15-5.57,6.78-9.19,9.36-3.84,2.73-8.62,5.98-10.27,10.61-.93,2.61,1.59,4.05,3.71,4.53,4.4.99,9.05-.49,13.09-2.11,5.6-2.24,10.75-5.61,15.68-9.03,4.71-3.27,10.39-5.49,14.49-9.54,2.88-2.85,5.36-7.99,3.64-12.04-.89-2.1-2.33-3.87-4.24-5.14Z" fill="url(#uuid-481ba582-3a44-468d-961d-f500579bdaa2)"/>
        <path d="m1372.56,621.23c-1.1-1.52-3.44-2.91-5.37-2.4-1.03.28-.59,1.87.44,1.6,1.16-.3,2.84.73,3.5,1.63.62.86,2.05.03,1.43-.83Z" fill="url(#uuid-06b3e50b-c9ae-405f-8bc9-327a772b5064)"/>
        <path d="m1374.27,618.51c-1.45-1.01-2.54-2.44-4.45-2.53-1.06-.05-1.06,1.61,0,1.65,1.43.06,2.51,1.54,3.61,2.31.87.61,1.71-.83.83-1.43Z" fill="url(#uuid-87b78402-0f2d-400f-81e5-91065bf6541b)"/>
        <path d="m1377.39,616.79c-1.2-1.72-3.36-3.53-5.55-3.63-1.07-.05-1.06,1.6,0,1.65,1.55.07,3.27,1.61,4.12,2.82.61.87,2.04.04,1.43-.84Z" fill="url(#uuid-8ab17203-efd9-445b-9cae-7792dc86796b)"/>
        <path d="m1386.89,600.36c-1.47.43-2.47.02-2.99-1.24-.21-.45-.44-.88-.69-1.3-.26-.47-.78-1.04-1.24-1.31-2.27-1.33-4.45,1.61-5.28,3.26-.6,1.2-.97,2.51-1.3,3.81-.28,1.13-.62,2.18-1.02,3.21-3.01,3.15-5.57,6.78-9.19,9.36-3.84,2.73-8.62,5.98-10.27,10.61-.44,1.23-.11,2.2.59,2.93,6.43-5.15,14.44-8.87,21.16-13.67,5.16-3.69,8.81-9.48,10.22-15.65Z" fill="#fff" opacity=".1"/>
      </g>
    </g>
    <path d="m1456.87,259.23c-1.61-2.78-4.61-3.9-7.65-4.71-4.63-1.23-8.99-1.11-13.25-3.55-3.77-2.15-6.88-5.44-11.47-5.68-3.06-.16-5.67,2.45-6.56,5.02-.92,2.62-9.63,46.11-6.22,55.57,2.69,7.48,13.41,4.53,19.06,2.78,3.97-1.23,10.11-2.34,13.82.24,1.69,1.18,3.54,3.22,5.77,2.21,3.38-1.54,3-8.91,3.09-11.71.19-5.99-.33-11.97-.39-17.95-.04-3.64,1.26-7.2,2.19-10.69.78-2.97,3.37-8.53,1.62-11.54Z" fill="#fff" opacity=".4"/>
  </g>
</svg>