<?xml version="1.0" encoding="UTF-8"?>
<svg id="uuid-62c3b09a-2308-40cb-b962-f59caf12818a" data-name="OBJECTS" xmlns="http://www.w3.org/2000/svg" viewBox="0 0 1699.74 720.41">
  <path d="m1009.6,196.7c3.44-4.16,7.28-9.52,5.89-15.23-1.11-4.53-6.01-3.88-9.42-2.64-11.35,4.14-20.55,12.98-29.86,20.33-4.41,3.48-8.68,7.14-13.24,10.42-4.66,3.35-9.73,5.66-14.87,8.14-3.34,1.61-6.92,3.21-10.69,3.22-4.39.03-7.54-3.91-9.8-7.17-4.34-6.25-8.41-12.47-16.51-13.72-4.34-.67-8.45.49-12.76.56-5.63.09-11.25,1.4-16.65,2.88-11.67,3.18-22.86,7.92-34.49,11.29-5.58,1.61-11.21,3.07-16.79,4.66-5.74,1.63-11.08,3.75-17.12,3.6-3.08-.08-3.87-1.07-2.96-3.91.54-1.7,1.48-3.29,2.35-4.85,1.39-2.49,2.43-5.12,3.85-7.61,4.08-7.16,9.57-16,3.86-23.99-3.88-5.43-11.68-3.8-17.07-2.19-10.38,3.11-18.92,10.04-27.48,16.46-7.63,5.72-15.15,11.58-22.72,17.38-6.89,5.27-13.99,10.65-19.34,17.56-.54.69-.57,1.48-.31,2.15-18.43,13.23-36.97,26.44-53.24,42.31-9.85,9.6-19.62,19.79-27.9,30.78-5.57,7.38-15.42,21.05-5.74,28.9,9.97,8.08,24.62-2.05,32.84-8,6.15-4.45,11.91-9.42,17.63-14.4,4.15-3.61,8.22-7.65,12.92-10.55,2.36-1.46,4.43-3.99,6.62-5.73,3.49-2.78,7.18-5.3,10.94-7.69,7.18-4.58,15.01-8.82,23.41-10.6,2.19-.47,11.53-1.51,10.42,2.74-1.27,4.89-6.16,9.31-9.52,12.82-8.09,8.43-17.45,15.48-25.66,23.76-16.19,16.33-28.03,35.89-37.74,56.59-2.74,5.83-5.04,11.94-6.46,18.23-1.03,4.55-2,10.63.98,14.69,3.46,4.7,10.05,2.89,14.55,1.06,10.08-4.1,18.67-11.89,27.27-18.36,9.57-7.21,20.26-12.9,30.34-19.37,10.79-6.92,21.97-13.3,32.36-20.82,20.71-14.98,41.1-30.41,62.28-44.73,39.76-26.89,84.31-46.33,122.74-75.19,7.41-5.57,14.26-11.68,21.12-17.87,5.58-5.04,11.19-10.08,15.99-15.88Z" fill="#e9eefe"/>
  <path d="m1270.23,261.11c7.4-8.19,14.59-16.83,20.63-26.1,2.69-4.13,9.05-14.51,1.83-17.8-5.21-2.38-12.2.64-17.51,1.34-6.35.84-12.66,1.95-18.99,2.9-13.92,2.09-29.41,4.46-43.2.51-5.51-1.58-10.41-4.9-12.36-10.48-2.26-6.43-.67-14.27.81-20.69,3.03-13.2,9.54-25.83,10.42-39.48.9-13.84-9.39-21.06-21.75-23.94-19.99-4.65-40.85-1.34-59.24,7.25-.25.11-.49.24-.73.35-.28-.08-.6-.11-.95-.06-9.61,1.38-18.14,6.72-25.79,12.44-8.31,6.21-15.8,13.47-23.14,20.78-8.22,8.17-14.77,17.33-20.82,27.18-4.74,7.71-10.14,15.14-14.08,23.3-3.78,7.83-6.8,24.78,6.96,22.87,12.06-1.68,23.65-10.17,33.68-16.52,8.34-5.29,16.72-10.21,25.68-14.39,3.26-1.52,10.24-5.42,13.98-3.67,4.32,2.01-6.09,16.72-7.5,18.53-6.42,8.29-14.78,15-22.83,21.63-8.24,6.79-16.14,13.88-23.8,21.32-16.84,16.37-31.42,34.94-44.26,54.57-13.5,20.63-22.53,44.41-27.69,68.44-1.57,7.36-3.73,14.63-4.86,22.09-.75,5.04-1.46,11.18,1.3,15.77,2.79,4.64,8.73,3.71,12.92,1.84,9.53-4.24,18.39-11,26.86-17.02,18.16-12.9,35.18-27.33,52.31-41.54,17.67-14.66,35.52-29.13,54.76-41.71,9.5-6.2,19.37-11.84,29.57-16.79,1-.48,8.04-4.82,9-3.36,1.06,1.6.08,5.49-.03,7.27-.35,5.73.52,12.03,5.01,16.08,3.8,3.42,9.12,2.73,13.47.91,11.57-4.84,20.72-15.49,29.05-24.5,6.08-6.57,10.85-14.27,16.52-21.22,7.9-9.68,16.42-18.84,24.79-28.1Z" fill="#e9eefe"/>
  <path d="m1511.32,239.44c5.02-3.47,9.79-7.33,14.28-11.45,4.16-3.82,8.87-8.32,10.97-13.7,1.57-4.04.34-8.24-4-9.78-6.5-2.31-14.7.33-21.08,1.91-3.5.87-6.97,1.83-10.51,2.55-4.43.91-9.23.21-13.62-.56-9.9-1.75-18.99-6.47-26.73-12.79-7.62-6.21-13.81-14.04-19.13-22.25-6.29-9.73-11.8-20.19-13.24-31.83-2.62-21.04,8.6-41.58,15.37-60.81,4.69-13.34,10.02-26.66,11.86-40.78.81-6.21,1-12.67-1.56-18.51-2.74-6.22-8.91-7.69-15.12-7.93-19.84-.77-38.03,10.83-56.61,15.94-10.65,2.93-21.54,9.41-30.31,16-.91.68-1.79,1.39-2.66,2.11-3.24,1.11-5.74,4.27-7.76,7.42-4.69,5.19-8.66,11.01-11.87,17.31-.38.74-.28,1.46.06,2.02-.77,1.2-1.55,2.4-2.35,3.6-6.5,9.68-12.91,19.46-17.09,30.41-1.8,4.74-2.75,9.79-3.65,14.76-.56,3.11-.79,6.28-.14,9.39,2.44,11.57,18.11,3.96,24.28.97,5.7-2.75,11.19-5.9,16.99-8.44,3.03-1.34,6.39-2.44,9.68-2.73,4.29-.37,5.06,2.61,4.44,6.23-.75,4.35-2.63,8.75-4.02,12.93-1.88,5.64-4.06,11.17-6.19,16.71-4.18,10.9-7.58,21.86-10.3,33.21-2.77,11.56-5.19,23.75-10.65,34.41-4.46,8.69-9.68,17.24-12.22,26.75-.27,1,.32,2.36,1.44,2.54,7.03,1.14,14.03-2.57,19.96-5.92,7.4-4.18,14.23-9.34,20.98-14.47,2.74-2.08,6.06-2.94,9.18-4.37,4.45-2.04,8.74-4.41,13.16-6.51,5.3-2.52,17.31-7.42,17.36,2.67.04,7.08-4.49,14.43-7.75,20.44-4.27,7.86-8.14,15.82-11.49,24.13-4.74,11.76-8.43,23.92-11.4,36.24-2.73,11.29-6.44,22.1-7.78,33.72-.98,8.54-1.65,19.25,4.19,26.31,3.4,4.11,8.84,3.35,13.09,1.25,11.97-5.9,19.35-19.42,28-29.03,18.26-20.29,36.52-40.59,54.79-60.88,8.09-8.99,18.43-16.45,28.01-23.74,6.95-5.29,13.96-10.49,21.14-15.45Z" fill="#e9eefe"/>
  <path d="m1698.03,257.98c-3.12-6.63-12.76-5.68-18.34-3.65-7.37,2.69-13.81,7.99-19.45,13.31-7.3,6.9-12.68,14.23-17.53,23.02-4.84,8.74-9.39,17.19-16.63,24.19-3.03,2.94-6.17,5.82-9.58,8.3-3.17,2.31-5.97,3.14-9.04.06-4.56-4.57-1.89-14.29-.5-19.61,4.94-18.92,18.01-34.03,26.68-51.24,3.96-7.85,7.28-16.81,6.67-25.73-.28-4-1.71-7.93-5.68-9.47-3.7-1.43-8.25.7-11.47,2.39-5.14,2.69-9.75,6.45-14.16,10.18-7.9,6.68-15.04,14.14-22.27,21.51-3.32,3.39-5.83,7.72-9.12,11.23-1.89,2.02-3.81,4.01-6.01,5.71-.77.59-1.53,1.18-2.3,1.77-.36.27-.73.53-1.11.78-.03.01-.04.02-.07.03-3.45-5.03-2.79-10.74-2.72-16.54.07-4.97.1-11.67-4.09-15.17-4.96-4.14-11.41-.63-14.76,3.65-4.93,6.3-7.24,14.65-9.28,22.25-2.89,10.74-7.27,20.86-11.41,31.19-4.96,12.41-9.18,25.08-14.56,37.34-5.42,12.33-12.29,23.94-17.74,36.23-5.28,11.91-10.49,23.86-15.24,36-2.32,5.92-3.88,12.52-6.7,18.18-2.16,4.33-4.14,8.73-5.39,13.41-2.28,8.57-.08,16.94,5.76,22.97-.24,1.15-.48,2.29-.71,3.44-2.36,11.94-2.72,22.75,1.69,34.26,2.23,5.81,7.1,10.01,13.57,8.93,7.07-1.18,13.11-6.14,18.38-10.68,7.32-6.31,13.42-13.6,19.76-20.86,8.29-9.5,16.85-18.76,26.09-27.33,2.58-2.4,5.21-4.47,7.29-7.3,1.64-2.23,3.39-4.37,5.15-6.5,4.69-5.67,9.67-11.12,14.97-16.23,3.97-3.82,20.61-19.78,24.1-7.44,1.27,4.5-.38,9.82-1.7,14.11-1.97,6.4-4.77,12.54-7.67,18.56-5.67,11.72-12.3,22.94-18.33,34.47-1.45,2.77-3.01,7.39-4.24,9.27-2.95,4.46-5.64,15.72.44,18.75,5.38,2.69,10.86-3.8,13.66-7.48,2.05-2.69,3.88-5.53,5.57-8.45,2.07-3.6,4.45-6.83,6.82-10.25,13.34-19.21,22.35-41.05,31.39-62.5,4.81-11.42,9.62-22.86,15.14-33.96,5.47-10.98,11.86-21.48,18.23-31.95,10.29-16.91,19.82-34.12,28.19-52.07,3.37-7.23,6.43-14.68,8.43-22.42,1.56-6.01,2.58-12.89-.16-18.71Z" fill="#e9eefe"/>
  <path d="m786.13,408.67c-10.14-2.29-20.93,7.93-28.02,13.71-5.1,4.17-9.88,8.74-14.31,13.62-4.17,4.59-7.58,9.72-11.93,14.18-6.29,6.44-13.07,12.31-18.76,19.18-.28.28-.57.55-.85.82-5.02,4.79-10.09,9.54-14.81,14.63-4.78,5.16-8.61,11-13.1,16.39-4.41,5.28-8.96,10.44-13.19,15.87-4.01,5.16-6.89,10.86-10.54,16.2-5.45,7.97-14.99,16.54-12.88,27.2.19.98,1.12,1.41,1.98,1.52,6.71.87,12.75-3.73,17.48-7.9,6.19-5.46,11.3-12.14,16.21-18.72,1.8-2.41,3.55-4.86,5.35-7.28,1.77-2.37,3.13-4.73,5.31-6.82,2.41-2.29,4.94-3.32,7.05-5.92.37-.45.97-1.28,1.56-1.66.07.04.18.1.37.23.93.66,1.81,1.17,2.88,1.59,3.17,1.28,7.63.71,10.79-.3,7.07-2.26,11.82-9.04,15.84-14.84,5.68-8.18,11.9-15.74,18.61-23.12,8.33-9.17,17.2-17.88,26.35-26.25,4.27-3.9,8.45-7.88,12.19-12.32,3.02-3.59,4.27-7.96,4.96-12.56,1.04-6.98-.62-15.66-8.54-17.45Z" fill="#e9eefe"/>
  <path d="m1333.34,435.94c-5.02-6.44-13.8-8.97-21.59-9.53-9.76-.71-18.49,4.02-25.94,9.85-5.01,3.93-9.42,8.66-13.34,13.73-11.22,9.87-20.46,22.57-25.95,35.94-1.85,4.52-5.42,10.53-3.17,15.51,1.52,3.36,6.2,2.67,9.01,1.96,4.94-1.24,9.6-3.62,14.3-5.55,3.36-1.37,8.47-4.04,12.2-2.84,5.56,1.8-10.55,32.38-11.93,37.02-1.35,4.55-2.16,10.96,3.1,13.18,4.51,1.9,10.6-2.28,13.95-4.78,6.48-4.83,11.3-11.73,15.84-18.31,6.9-10.03,12.15-21.11,17.99-31.76,2.77-5.06,5.1-10.32,7.97-15.33,3.16-5.49,6.57-10.81,9.47-16.44,2.18-4.25,3.21-7.75,2.58-12.55-.51-3.81-2.15-7.12-4.49-10.12Z" fill="#e9eefe"/>
  <path d="m1041.18,466.73c-7.01.34-13.52,4.55-18.87,9.79-6.52,4.7-12.06,14.01-14.98,18.64-3.53,5.59-17.8,25.94-5.62,30.01,5.24,1.75,11.31-1.08,15.83-3.56,5.19-2.85,9.72-7.09,14.18-10.94,5.99-5.18,11.67-10.77,16.79-16.79,3.79-4.45,8.52-10.06,9.19-16.11.98-8.97-9.64-11.35-16.51-11.04Z" fill="#e9eefe"/>
  <path d="m86.15,53.66c-3.28-1.38-7.62.81-10.73,1.79-2.12.67-4.26,1.23-6.5,1.14-4.07-.17-2.66-4.16-1.59-6.65,2.16-4.98,6.15-12.02.69-16.34-4.26-3.37-10.05.83-13.39,3.52-5.16,4.15-9.86,8.83-14.1,13.92-1.8,1.05-3.51,2.26-5.09,3.5-6.44,5.04-11.87,11.26-16.52,17.98-4.17,6.03-13.68,21.89-3.81,27.27,4.09,2.23,9.51,1.29,13.82.41,6.24-1.26,12.26-3.61,18.1-6.09,10.96-4.65,21.59-10.94,31.43-17.62,4.3-2.92,8.97-6.82,9.82-12.25.54-3.4,2.06-8.81-2.13-10.57Z" fill="#e9eefe"/>
  <path d="m274.53,263.11c-4.86-3.87-10.55-3.13-16.2-2.04-10.52,2.04-18.68,10.92-25.61,19.66-6.77,5.14-14.01,9.6-21.86,12.91-6.82,2.87-14.09,4.52-21.49,4.6-7.55.07-14.6.12-21.96,2.16-12.39,3.44-19.91,11.76-26.05,22.58-5.81,10.25-10.68,21.93-12.73,33.58-.16.9.08,1.86.95,2.33,5.69,3.1,12.5.13,17.77-2.49,7.84-3.9,14.93-9.29,21.98-14.45,7.3-5.35,14.68-10.23,23.21-13.46,3.57-1.35,11.76-5.22,14.53-.78,1.92,3.05,2.82,6.22,5.38,8.94.5.53,1.32.73,2.01.53,13.78-3.88,23.97-17.43,34.02-26.79,6.55-6.1,13.45-11.79,20.41-17.41,3.08-2.48,5.98-4.59,8.12-7.95,1.73-2.7,2.62-5.8,2.99-8.95.58-4.91-1.65-9.93-5.46-12.97Z" fill="#e9eefe"/>
  <path d="m1018.83,537.7c-19.26-12.17-43.53,1.15-63.59,3.42-11.65,1.32-21.35-2.33-30.37-9.45-3.62-2.86-6.96-6.07-10.68-8.79-4.17-3.07-9.06-5.08-14-6.5-21.82-6.29-43.38,4.99-64.22,10.07-11.6,2.83-22.33,2.57-34,.64-8.92-1.48-18.05-2.93-27.04-1.22-15.68,2.97-23.32,20.11-22.83,34.73.15,4.61,1.27,8.95,3.19,12.77.03.37.05.73.1,1.1.85,8.23,4.59,16.29,11.2,21.42,8.16,6.35,19.55,8.78,29.66,8.97,11.05.2,22.01-2.78,32.42-6.19,11.08-3.64,21.82-8.42,32.87-12.04,11.39-3.72,21.93.42,29.57,8.91,5.52,6.13,10.54,11.96,18.68,14.56,9.24,2.95,19.73-.74,28.47-3.66,11.91-3.99,23.67-8.07,35.32-12.78,9.08-3.68,18.42-6.83,26.67-12.19,6.34-4.11,12.26-9,17.36-14.58,8.03-8.79,13.44-21.46,1.22-29.17Z" fill="#dbe2fe"/>
  <path d="m1274.98,580.36c-7.44-3.66-16.06-4.18-23.86-1.39-3.82,1.36-7.24,3.68-10.71,5.71-5.98,3.5-13.09,3.32-19.7,2-11.93-2.39-21.75-10.56-32.24-16.24-9.68-5.24-20.63-7.02-31.47-8.13-11.77-1.2-24.09-1.09-35.83.52-11.39,1.56-23.15,1.71-34.09,5.62-16.2,5.81-24.25,25.21-28.72,40.49-2.8,9.52-5.33,20.33-2.44,30.12,1.83,6.19,6.18,10.01,11.49,12.28,3.72,3.48,8.93,5.64,13.65,6.57,9.14,1.8,18.69-.01,27.68-1.75,10.42-2.02,21.03-4.48,31.68-2.75,11.41,1.84,19.21,10.09,27.1,17.79,7.21,7.05,14.77,12.76,24.39,16.08,10.77,3.73,22.32,5.25,33.65,5.97,16.32,1.05,32.59-.7,48.05-6.17,13.32-4.71,26.38-12.62,33.59-25.14,7.89-13.71,4.65-29.44-.97-43.3-6.12-15.11-16.17-30.91-31.24-38.31Z" fill="#dbe2fe"/>
  <path d="m1624.39,615.34c-19.5-10.07-41.66-11.04-62.88-14.75-24.29-4.24-48.46-14.43-65.07-33.22-5.86-6.63-12.52-11.97-20.81-15.21-9.34-3.66-19.94-3.19-29.75-2.28-22.22,2.05-45.33,8.61-65.09,19.02-12.27,6.47-23.39,14.79-33.84,23.9-4.69,3.15-9.19,7.2-12.89,11.86-2.96,2.86-5.88,5.73-8.77,8.62-.75.76.41,1.93,1.17,1.17,1.05-1.04,2.1-2.09,3.15-3.13-3.49,6.34-5.32,13.4-4.3,20.61,1.3,9.18,8.9,15.77,16.53,20.09,8.54,4.85,18.42,5.04,27.8,3.08,21.33-4.47,41.59-19.35,64.32-15.57,9.7,1.62,14.82,12.65,17.58,20.91,1.2,3.6,2.04,7.31,2.68,11.04.34,1.99,1.87,4.29,2.71,6.13,1.2,2.63,2.52,5.21,3.94,7.74,4.76,8.55,11.29,15.08,19.86,19.76,9.54,5.21,20.03,8.57,30.58,10.95,10.73,2.42,21.73,3.58,32.7,4.14,9.33.48,18.31.31,27.45-1.65,33.45-7.18,68.72-32.54,76.07-67.54,3.5-16.65-9.7-28.73-23.12-35.67Z" fill="#dbe2fe"/>
  <path d="m1288.89,27.6c-4.79-.79-9.83-.38-14.65-.27-7.44.18-14.88.7-22.29,1.38-14.65,1.36-29.33,2.96-44.02,3.74-7.3.39-14.86.85-22.05-.63-3.52-.73-7.7-1.35-10.44,1.52-2.04,2.14-1.71,5.73-1.24,8.87.03,2.41.42,4.67,2.5,6.61,2.86,2.64,8.6,1.66,11.94,1.16,4.6-.69,9.13-1.73,13.65-2.81.2.24.4.49.58.74,2.72,3.8,4.84,7.99,6.81,12.22,4.56,9.75,7.6,20.12,9.6,30.67,1.84,9.68,2.78,19.46,4.09,29.21,1.26,9.32,1.82,18.87,3.73,28.08.15.71.88.8,1.36.49,2.59,1.96,5.66,1.94,8.82,1.62,4.86-.5,9.62-.82,14.39-1.97,2.03-.49,4.01-1.67,5.84-2.6,2.43-1.24,4.72-2.84,7.77-2.12-.45-.11,4.1,1.62,4.47,1.73.79.24,1.56.39,2.3.48.28.59,1.24.74,1.61.09,3.85,0,7.25-1.6,11.42-1.97.42.66,1.69.51,1.69-.48.03-17.29,1.57-34.46,2.08-51.72.46-15.97-.08-32.54,2.85-48.37,2.58-.36,4.8-1.28,6.15-3.19,4.66-6.57-3.48-11.58-8.98-12.49Zm-14.54,14.15c2.75.2,7.36,1.28,11.87,1.62-.36.99-.75,1.97-1.24,2.9-1.53,2.9-4.14,5.63-6.03,8.32-2.54,3.6-5.17,7.08-7.91,10.47-.19-1.07-.38-2.14-.58-3.21-.9-4.91-1.86-9.77-3.05-14.62-.14-.58-.27-1.17-.4-1.76.77-1.36,1.53-2.72,2.29-4.07,1.68.11,3.36.23,5.05.35Zm12.77,46.37c-.11,5.34-.33,10.66-.6,15.98-4.28.93-7.57,4.04-11.1,6.45-.03.02-.06.04-.09.06-.05-6.63-.42-13.25-.9-19.89,1.92-1.98,3.75-4.01,5.67-6.01,1.34-1.38,2.92-2.47,4.18-3.91,1.13-1.28,1.77-2.47,3.01-3.37-.05,3.58-.09,7.15-.17,10.69Zm-14.07,38.2c-2.72,1.52-5.41,3.13-8.09,4.28-1.23.53-2.43,1.31-3.59,2.15,0-3.5-.03-6.99-.1-10.48,3.73-1.93,7.36-4.16,10.64-6.73.52-.41,1.06-.84,1.61-1.29-.01.66-.02,1.32-.03,1.98-.08,3.36-.32,6.73-.43,10.09Zm-51.75-34.7c5.14-2.42,9.05-6.59,13.66-9.82.69-.48,1.36-.98,2.03-1.48.56,2.83,1.07,5.67,1.56,8.51.38,2.19.73,4.39,1.06,6.6-4.94,4.02-10.27,7.82-16.32,9.15-.03,0-.04.02-.07.03-.56-4.33-1.16-8.66-1.92-12.98Zm-8.02-27.72c.14-.03.28-.09.42-.2,4.97-4.35,9.56-8.81,13.65-13.69,1.61,3.5,3.26,6.98,4.51,10.55.38,1.09.73,2.19,1.08,3.29-4.5,5-9.59,9.27-15.37,12.13-1.25-4.07-2.69-8.09-4.28-12.08Zm15.28-15.38c1.73-2.14,3.35-4.38,4.88-6.72,3.67-.44,7.33-.73,10.98-.88.59,1.47,1.13,2.98,1.61,4.54-3.4,5.75-7.26,11.6-11.71,16.81-1.52-4.67-3.75-9.18-5.77-13.74Zm17.77-7.67c.79-.02,1.59-.04,2.39-.05-.49.87-.99,1.75-1.5,2.64-.27-.87-.57-1.74-.88-2.59Zm-9.91,21.1c3.74-4.6,7.14-9.33,10.27-14.27,1.18,4.24,2.06,8.6,2.9,12.62.39,1.86.79,3.72,1.2,5.57-.71.8-1.44,1.58-2.19,2.34-3.25,3.3-6.87,6.22-10.57,9.03-.91-4.48-1.91-8.95-3.21-13.38.54-.63,1.06-1.27,1.59-1.91Zm12.37,8.65c.86-.81,1.69-1.65,2.51-2.51,1.1,4.85,2.22,9.69,3.21,14.57-2.91,2.69-5.91,5.3-8.97,7.83-1.37,1.13-2.78,2.33-4.21,3.53-.15-.76-.28-1.52-.44-2.27-.87-4.16-1.63-8.32-2.44-12.46,3.6-2.71,7.07-5.62,10.34-8.68Zm6.58,16.49c.96,5.27,1.89,10.49,2.61,15.76-4.6,3.74-9.33,7.45-14.11,10.9-.52-5.96-1.16-11.91-2.19-17.8.47-.37.94-.75,1.41-1.12,4.07-3.23,8.01-6.61,11.83-10.11.16.79.31,1.58.46,2.37Zm3.82,27.56c.13,2.16.21,4.33.27,6.49-4.69,2.5-9.72,4.33-14.36,6.93-.27-2.85-.53-5.7-.75-8.55-.09-1.22-.19-2.44-.3-3.65,4.32-3.23,8.51-6.64,12.79-9.91.48-.36.94-.73,1.41-1.1.41,3.24.74,6.5.93,9.79Zm-35.41-8.31c6.15-1.35,11.25-5.11,16.12-8.98.87,5.86,1.61,11.74,2.25,17.63-4.9,3.6-10.18,8.04-16.49,8-.08-.6-.16-1.2-.25-1.79-.74-4.94-1.34-9.9-1.97-14.86.11.01.21.02.33,0Zm2.13,18.48c5.3-.06,9.85-3.03,14.08-5.99.81-.57,1.6-1.16,2.39-1.74.42,3.95.8,7.91,1.15,11.87-5.16,2.94-10.46,6.05-16.38,6.92-.42-3.68-.78-7.38-1.24-11.05Zm19.38,5.34c3.92-2.07,7.86-4.06,11.93-5.91.76-.35,1.52-.71,2.28-1.08.07,3.64.08,7.29.07,10.93-.79.6-1.59,1.18-2.37,1.68-3.44,2.2-7.02,3.51-11.04,3.66-.28-3.09-.57-6.18-.87-9.28Zm28.26-18.3c-4.08,2.86-7.98,5.78-12.33,8.3-.05-1.84-.11-3.67-.2-5.51-.19-3.74-.58-7.44-1.07-11.12,4.41-3.49,8.68-7.13,12.73-11.04.03-.03.06-.06.09-.08.51,6.47.79,12.96.79,19.45Zm-12.54-11.47c-.44.36-.9.73-1.34,1.09-.72-4.97-1.62-9.9-2.53-14.88-.21-1.12-.41-2.24-.62-3.36,1.93-1.8,3.84-3.63,5.7-5.51,2.67-2.69,5.21-5.47,7.65-8.33,1.05,6.38,1.98,12.77,2.58,19.23.05.56.1,1.13.15,1.69-3.6,3.62-7.73,6.89-11.58,10.06Zm1.04-25.09c-1.92,2.01-3.91,3.95-5.93,5.85-.95-4.98-1.97-9.95-3.14-14.88,4.89-5.54,8.97-11.94,12.72-18.43.9,3.64,1.71,7.29,2.37,10.98.48,2.73.95,5.46,1.41,8.18-2.37,2.84-4.83,5.61-7.42,8.3Zm4.43-32.58c-.1-.5-.19-1-.3-1.5.37.02.74.04,1.1.07-.27.48-.54.95-.81,1.43Zm-2.25-1.6c.27,1.38.53,2.75.83,4.09-3.77,6.56-7.81,13.06-12.63,18.8-.34-1.4-.69-2.79-1.06-4.18-1.22-4.55-2.15-9.4-3.46-14.08,1-1.63,1.96-3.28,2.91-4.96,4.46-.02,8.93.11,13.41.33Zm-33.18,1.01c-1.05,1.55-2.15,3.04-3.29,4.5-.54-1.27-1.04-2.55-1.51-3.83,1.32-.18,2.63-.36,3.93-.55.29-.04.58-.08.86-.12Zm-24.24,8.29c-.63-1.31-1.59-2.51-2.49-3.7,1.39-.33,2.77-.67,4.16-.99,5.22-1.22,10.6-1.95,15.96-2.68.63,1.72,1.35,3.42,2.1,5.11-4.15,5.05-8.83,9.63-13.91,14.08-1.7-4.08-3.93-7.84-5.82-11.82Zm11.31,27.36c6.07-2.92,10.94-7.32,15.33-12.28,1.26,4.23,2.29,8.52,3.18,12.84-.85.63-1.7,1.27-2.55,1.9-4.33,3.19-8.25,7.1-13.08,9.52-.75-4.06-1.73-8.05-2.87-11.98Zm11.57,69.44c-.28-.22-.59-.25-.87-.17-.62-3.1-1.07-6.23-1.45-9.38,4.89-.74,9.24-2.82,13.58-5.17.93-.5,1.86-1,2.79-1.49.25,2.89.48,5.78.71,8.66-.45.37-.41,1.18.11,1.49.16,2.16.32,4.31.48,6.47-.62.09-1.25.16-1.89.22-3.96.33-10.09,2-13.45-.63Zm17.14.12c-.15-2.02-.31-4.04-.49-6.06,4.97-.23,9.11-2.22,13.23-4.87-.01,2.05-.02,4.1-.03,6.16-.01,0-.03.01-.05.02-4.24,2.2-8.2,3.89-12.68,4.75Zm14.55-5.49c0-2.22.01-4.43.02-6.64.01-.01.04-.03.05-.04,2.9-1.98,5.72-3.47,8.92-4.93.89-.41,1.78-.88,2.67-1.38,0,.26-.02.52-.02.77,0,2.19-.1,4.37-.28,6.56-.22,2.61.07,5.19-.4,7.75-.67-.09-1.35-.23-2.04-.45-3.48-1.1-5.8-2.49-8.91-1.64Zm12.8,2.17c.55-3.1.26-6.35.52-9.49.19-2.26.28-4.55.33-6.84,2.97-1.75,5.98-3.49,9.38-3.85,1.16-.12,1.17-1.95,0-1.83-3.22.33-6.3,1.66-9.33,3.24.04-1.89.07-3.78.15-5.66.09-2.28.13-4.55.14-6.82,3.39-2.77,7.16-5.69,11.08-6.74-.61,12-1.37,23.98-1.45,36.01-3.79.38-7.2,1.9-10.83,1.98Zm13.18-68.73c-1.63.77-2.61,2-3.72,3.43-2.29,2.97-5.44,5.23-7.86,8.14-.48.58-.98,1.15-1.49,1.72-.6-7.06-1.61-14.09-2.8-21.07,2.42-2.92,4.74-5.93,6.98-9.02,2.47-3.43,5.1-6.76,7.5-10.22,1.02-1.48,1.64-3.12,2.19-4.78.58.01,1.15,0,1.71-.02-1.88,10.42-2.31,21.17-2.5,31.83Z" fill="#dbe2fe"/>
  <g>
    <path d="m525.99,134.64c-5.31-.26-10.78-3.05-13.77-6.34-.14-.15-2.21-2.14-2.39-1.74-.48,1.09-1.22,2.01-1.96,3.05-2.6,3.73-4.03,7.83-6.08,11.69-.23.44-.77.53-1,.23-.57-.7-.48-1.65-.44-2.59.09-2.07-.1-4.09-.19-6.12-.14-3.16.97-6.49,1.27-9.72-4.83-.58-9.21-1.31-13.19-3.29-2.37-1.18-6.53-2.15-7.55-4.58-.12-.29.13-.72.56-.76,4.16-.47,8.44-.39,12.34,0,1.58.16,3.24.24,4.94-.17,2.3-.55,2.06-3.43,2.1-4.75.05-1.68.55-3.42.92-5.15.42-1.96.4-3.62.4-5.5-.01-2.79.16-5.83,2.1-8.64.19-.27.67-.39.86-.19.68.74.87,1.64,1.04,2.65.27,1.72.85,3.27,1.6,4.77.77,1.56,1.51,2.95,2.17,4.6.67,1.64,1.5,3.2,2.33,4.75.1.18.72,1.86,1.26,1.54.79-.46,1.53-1.18,2.22-1.76,1.05-.88,2.07-1.75,3.2-2.55,2.31-1.65,5.23-3.76,7.98-4.28.45-.09.56.34.36.66-2.57,4.17-6.67,7.63-9.44,11.73-1.49,2.2-3.46,4.59-3.27,6.93.15,1.88,2.2,3.32,3.46,4.52,1.91,1.83,3.77,3.63,5.8,5.36,1.45,1.25,3.43,2.89,3.1,5.1-.05.32-.41.56-.75.54Z" fill="#dbe2fe"/>
    <g>
      <path d="m444.18,121.51c3.09-.95,6.21-2.03,9.39-2.68,3.38-.68,6.84-1.02,10.23-1.67,2.63-.5,5.58-.95,8.25-.33,1.41.33,2.85.6,4.29.79.87.12,1.56.63,2.29,1.09.35.03.65.15.81.47.51.38.13,1.32-.5,1.01-.26-.13-.54-.25-.81-.37-.97.05-3.93-.1-4.18-.12-2.81-.25-5.77-.11-8.58.07-5.25.33-10.21,1.67-15.1,3.58-4.64,1.82-9.09,4.1-13.62,6.2-2.14,1-4.3,1.94-6.42,2.98-1.82.89-3.77,2.42-5.74,2.88-.19.04-.43-.05-.54-.21-1.67-2.35,1.08-6.35,3.16-7.52,5.17-2.92,11.44-4.42,17.07-6.16Z" fill="#dbe2fe"/>
      <path d="m444.69,138.32c6.39-2.25,12.72-4.87,19.05-7.29,3.09-1.18,6.18-2.31,9.33-3.32,2.37-.76,4.87-1.07,7.32-1.59.51-.29,1.02-.61,1.5-.94.52-.36,1.12.24.91.68.2.3.12.82-.35.95-.59.16-1.19.32-1.78.47-4.46,2.45-9.82,3.63-14.48,5.5-6.13,2.46-11.93,5.52-17.81,8.51-6.4,3.26-12.8,6.57-18.7,10.7-1.85,1.3-3.63,2.86-5.58,4-.73.42-1.67.04-1.88-.8-.41-1.63-.06-3.47-.11-5.15-.07-2.04,2.63-2.97,4.08-3.62,6.15-2.78,12.11-5.85,18.48-8.09Z" fill="#dbe2fe"/>
      <path d="m454.8,156.4c7.61-8.18,15.08-17.03,24.06-23.8.22-.24.46-.48.68-.73.22-.26.49-.22.69-.04.43.09.73.63.29.95-.28.2-.54.41-.81.61-3.67,4.03-8.22,7.09-11.72,11.34-3.79,4.61-6.78,9.87-9.68,15.07-2.84,5.08-5.74,9.91-9.45,14.42-1.99,2.41-3.29,1.13-5.22-.91-1.95-2.06-.27-3.88,1.35-5.48,3.55-3.52,6.4-7.76,9.81-11.43Z" fill="#dbe2fe"/>
    </g>
  </g>
  <g>
    <path d="m758.69,70.53c5.56.62,11.86,4.17,15.72,8.15.17.18,2.78,2.6,2.87,2.15.24-1.23.79-2.24,1.29-3.39,1.81-4.14,2.31-8.79,3.52-13.11.13-.48.65-.57.97-.21.75.84.89,1.94,1.07,3.02.4,2.38,1.06,4.72,1.63,7.06.89,3.65.54,7.43.98,11.13,5.12.96,9.81,2.07,14.41,4.6,2.72,1.5,7.24,2.88,8.87,5.75.2.34.03.81-.4.84-4.18.29-8.63-.06-12.75-.76-1.66-.28-3.39-.47-5.06-.1-2.25.5-1.31,3.83-1.04,5.35.34,1.93.24,3.91.27,5.88.03,2.23.43,4.15.88,6.31.67,3.22,1.21,6.71-.13,9.83-.13.3-.6.41-.84.17-.87-.89-1.29-1.95-1.69-3.12-.69-1.99-1.65-3.81-2.78-5.6-1.17-1.84-2.26-3.5-3.34-5.44-1.07-1.93-2.3-3.78-3.53-5.62-.15-.22-1.18-2.18-1.67-1.85-.71.49-1.3,1.26-1.87,1.9-.87.95-1.73,1.9-2.69,2.75-2,1.76-4.52,4.01-7.23,4.45-.45.07-.65-.42-.54-.77,1.66-4.66,5.08-8.39,6.97-12.95,1.02-2.44,2.49-5.08,1.74-7.79-.6-2.18-3.05-3.96-4.64-5.42-2.41-2.23-4.75-4.41-7.25-6.53-1.79-1.52-4.23-3.54-4.41-6.07-.02-.37.29-.61.63-.57Z" fill="#dbe2fe"/>
    <g>
      <path d="m727.08,96.41c2.77-1.23,5.55-2.58,8.43-3.53,3.06-1.01,6.24-1.71,9.32-2.68,2.4-.76,5.09-1.5,7.63-1.22,1.34.15,2.71.24,4.07.26.82.01,1.53.41,2.25.75.32,0,.62.07.8.35.52.3.27,1.21-.35.99-.26-.09-.53-.18-.8-.26-.9.15-3.66.34-3.89.35-2.64.08-5.37.53-7.97,1.01-4.84.89-9.3,2.68-13.63,5-4.11,2.21-8,4.81-11.97,7.27-1.88,1.16-3.78,2.28-5.64,3.48-1.6,1.03-3.23,2.67-5.02,3.31-.17.06-.4,0-.53-.13-1.82-2,.3-6.02,2.1-7.34,4.48-3.28,10.14-5.37,15.18-7.6Z" fill="#dbe2fe"/>
      <path d="m729.4,111.97c5.69-2.8,11.28-5.93,16.9-8.88,2.74-1.44,5.49-2.83,8.3-4.12,2.12-.97,4.41-1.53,6.63-2.28.44-.33.88-.67,1.29-1.04.45-.39,1.06.09.92.53.21.25.19.75-.22.92-.54.22-1.07.43-1.61.63-3.87,2.77-8.73,4.46-12.85,6.71-5.42,2.96-10.48,6.44-15.6,9.88-5.59,3.74-11.18,7.51-16.19,12-1.58,1.41-3.06,3.06-4.74,4.33-.64.47-1.56.22-1.84-.53-.55-1.47-.43-3.22-.67-4.77-.28-1.89,2.12-3.05,3.4-3.82,5.4-3.26,10.6-6.78,16.27-9.56Z" fill="#dbe2fe"/>
      <path d="m740.8,127.66c6.17-8.44,12.13-17.49,19.72-24.77.18-.25.37-.5.54-.76.18-.26.44-.25.64-.11.41.04.75.51.38.86-.23.21-.46.44-.69.66-2.97,4.15-6.85,7.49-9.64,11.83-3.01,4.7-5.21,9.92-7.33,15.07-2.08,5.04-4.24,9.85-7.19,14.44-1.58,2.47-2.93,1.41-4.94-.26-2.05-1.7-.68-3.57.65-5.24,2.91-3.66,5.09-7.91,7.85-11.7Z" fill="#dbe2fe"/>
    </g>
  </g>
  <g>
    <path d="m1081.85,41.44c1.16,4.85-1,10.13-.27,15.08.5,3.43,5.71-.15,7.38-1.11,2.49-1.43,5.31-3.15,8.25-3.09.38,0,.62.51.46.83-2.81,5.55-9.5,7.97-12.24,13.57-1.34,2.74,2.31,2.74,3.94,2.73,1.61,0,3.16.7,4.76.99,4.52.83,9.13,1.17,13.65,2.02.65.13.67,1.1-.01,1.18-5,.58-10.02.75-15.02,1.26-2.8.29-5.54.82-8.29.96,3.87,5.33,7.92,10.52,12.1,15.61.46.55-.31,1.18-.85.83-1.96-1.28-3.85-2.63-5.7-4.07-1.73-1.36-3.28-3.15-5.18-4.27-1.41-.84-2.65-1.97-4.27-2.38-.39-.1-1.41,5.01-1.49,5.31-1.1,4.5-3.01,8.75-4.33,13.18-1.32,4.46-2.25,9.05-4.5,13.17-.23.42-.91.51-1.1,0-1.61-4.35-.94-9.93-1.2-14.49-.36-6.02-.88-11.92-1.61-17.92-.37-3-.55-6.1-1.42-9.01-.78-2.66-3.7-4.22-5.84-5.67-4.57-3.1-9.3-5.83-13.96-8.78-.44-.28-.19-1.02.3-1.06,4.93-.4,10.49.83,15.29,1.83,2.6.55,5.26,1.05,7.89,1.38.87.11,1.71.38,2.57.55,1.3.25,2.46-2.26,2.85-3.08,1.28-2.71,1.95-5.91,2.88-8.77.7-2.16,1.52-6.5,4.13-7.24.4-.11.72.08.82.48Z" fill="#dbe2fe"/>
    <g>
      <path d="m1010.81,53.42c-6.18-2.31-12.58-4.08-18.93-5.86-3.08-.86-6.13-1.84-9.23-2.68-1.83-.5-4.1-.68-5.74-1.71-.17-.11-.3-.3-.3-.52.07-1.47.21-3.62,1.66-4.36,1.76-.9,5.68.92,7.46,1.31,7.86,1.74,15.59,4.15,23.14,6.94,7.04,2.6,13.89,5.71,20.53,9.21,3.37,1.77,6.68,3.66,9.88,5.74,2.38,1.54,5.29,3.41,6.9,5.79.23.34.05.66-.24.8-.13.28-.46.46-.8.24-5.19-3.31-10.65-6.04-16.51-7.98-6.05-2.01-11.86-4.7-17.83-6.93Z" fill="#dbe2fe"/>
      <path d="m1029.88,72.47c-5.71-2.25-11.99-3.49-17.92-5.04-6.47-1.71-13.04-3.38-19.69-4.27-3.24-.43-6.53-.6-9.79-.79-2.54-.15-4.88.9-7.31.83-.25,0-.52-.17-.57-.44-.21-1.12-1.56-4.87-.3-5.85,1.69-1.32,4.87-.33,6.82-.19,7.64.57,15.16,1.63,22.64,3.34,7.88,1.81,15.58,4.34,23.13,7.23,3.33,1.28,6.63,2.6,9.88,4.09,2.12.97,4.57,1.82,6.6,3.12.08.03.16.07.25.15,0,0,0,0,0,.01.31.21.61.43.9.67.24.2.24.45.12.65.07.12.14.24.21.37.19.4-.04.89-.52.9-2.04.04-4.19-.91-6.14-1.49-2.86-.85-5.53-2.21-8.29-3.3Z" fill="#dbe2fe"/>
      <path d="m960.25,80.01c2.78-.92,5.88-1.13,8.74-1.76,4.89-1.1,9.8-1.37,14.72-1.37.4-.06.81-.11,1.21-.13,2.72-.15,5.43-.19,8.15-.31,2.88-.13,5.75-.42,8.63-.59,2.73-.16,5.37.37,8.08.51,2.82.14,5.64-.19,8.46-.05,2.59.13,5.22.69,7.76,1.15,4.56.83,9.04,2.02,13.47,3.38,1.33.22,2.63.51,3.87.93.57.2.5.94.08,1.13-.12.18-.34.29-.62.24-5.72-.93-11.47-1.79-17.24-2.52-2.48-.17-4.97-.3-7.45-.37-8.66-.27-17.33.24-25.94,1.1-8.24.82-16.42,1.53-24.27,4.37-1.75.63-3.42,1.49-5.13,2.22-.46.2-1.73.98-2.44.78-1.79-.49-1.59-3.88-1.76-5.3-.2-1.62-.05-2.83,1.68-3.4Z" fill="#dbe2fe"/>
    </g>
  </g>
  <g>
    <g>
      <path d="m520.09,515.71c7.7,1.39,15.29,3.48,22.83,5.53,3.66.99,7.37,1.85,11.02,2.87,2.17.61,4.58,1.8,6.89,1.74.24,0,.5-.13.61-.34.83-1.54,1.98-3.81.95-5.45-1.25-1.98-6.35-2.51-8.4-3.19-9.06-3.01-18.39-5.24-27.78-6.98-8.74-1.63-17.61-2.62-26.5-3.09-4.5-.24-9.03-.33-13.54-.16-3.36.13-7.46.26-10.54,1.71-.44.2-.46.64-.24.96-.03.37.19.75.67.73,7.29-.21,14.52.32,21.65,1.9,7.38,1.63,14.93,2.41,22.37,3.77Z" fill="#dbe2fe"/>
      <path d="m489.1,523.53c7.18,1.18,14.33,3.73,21.3,5.74,7.63,2.19,15.34,4.47,22.65,7.6,3.56,1.53,7.01,3.35,10.45,5.15,2.68,1.39,4.43,3.87,6.94,5.29.26.14.64.14.85-.1.89-1.01,4.54-4.01,3.85-5.78-.92-2.38-4.75-3.3-6.84-4.34-8.12-4.07-16.42-7.55-25.07-10.35-9.12-2.95-18.5-5.05-27.94-6.67-4.17-.72-8.33-1.38-12.54-1.84-2.75-.3-5.76-.93-8.61-.83-.1-.02-.2-.03-.34,0,0,0,0,0-.01,0-.45.03-.89.07-1.32.14-.36.06-.52.32-.52.59-.14.07-.29.16-.44.25-.44.3-.5.93-.01,1.23,2.06,1.28,4.82,1.62,7.16,2.21,3.42.87,6.97,1.11,10.45,1.68Z" fill="#dbe2fe"/>
      <path d="m555.42,573.48c-2.27-2.62-5.29-4.71-7.83-7.1-4.31-4.09-9.14-7.34-14.15-10.33-.37-.3-.75-.6-1.16-.87-2.68-1.79-5.41-3.49-8.11-5.27-2.85-1.88-5.6-3.91-8.43-5.85-2.68-1.82-5.7-2.88-8.54-4.39-2.95-1.57-5.62-3.62-8.59-5.19-2.71-1.44-5.73-2.47-8.6-3.54-5.15-1.92-10.44-3.44-15.77-4.74-1.48-.58-2.99-1.08-4.5-1.4-.69-.15-1.07.65-.76,1.1.02.25.18.51.48.63,6.39,2.53,12.76,5.15,19.09,7.9,2.64,1.34,5.24,2.72,7.81,4.14,8.98,4.98,17.5,10.77,25.74,16.88,7.9,5.84,15.79,11.53,22.07,19.19,1.4,1.7,2.57,3.6,3.87,5.38.35.48,1.17,2.05,2.01,2.28,2.12.59,3.98-2.99,5.01-4.33,1.18-1.52,1.76-2.85.36-4.48Z" fill="#dbe2fe"/>
    </g>
    <g>
      <path d="m337.45,540.53c9.31,9.29,20.76,15.09,32.77,17.42.12.02.26.05.38.07h.01c1.8.36,3.63.61,5.45.8,1.76.17,3.54.29,5.32.31,11.2.18,22.46-2.57,32.48-8.28.27-.15.54-.3.8-.48.98-.55,1.92-1.15,2.84-1.77.7-.45,1.39-.92,2.07-1.42,2.78-1.99,5.42-4.24,7.92-6.75,4.19-4.19,7.66-8.82,10.42-13.74.72-1.28,1.39-2.56,2.02-3.88.4-.84.77-1.68,1.13-2.53,1.07-2.53,1.98-5.11,2.69-7.74,4.58-16.48,2.39-34.47-6.56-49.55-.3-.49-.58-.98-.9-1.46-.56-.91-1.17-1.8-1.79-2.68-.53-.76-1.08-1.52-1.65-2.25-1.66-2.15-3.48-4.22-5.45-6.19-8.13-8.11-17.9-13.56-28.23-16.37-1.69-.46-3.38-.84-5.1-1.14-.63-.14-1.27-.24-1.93-.34-.5-.08-.99-.15-1.51-.2-13.03-1.72-26.52.65-38.37,7.04-.7.38-1.39.76-2.08,1.17-.98.56-1.93,1.16-2.88,1.78-.27.17-.54.37-.81.55-3.2,2.21-6.27,4.74-9.11,7.59-8.86,8.88-14.56,19.72-17.1,31.11-.02.11-.06.24-.08.36-.27,1.23-.49,2.48-.67,3.72-.11.69-.2,1.39-.28,2.1-1.4,11.47.33,23.28,5.21,34.01.82,1.82,1.73,3.62,2.75,5.37.23.42.48.83.72,1.24.4.65.82,1.31,1.24,1.96,2.35,3.59,5.12,7,8.28,10.16Z" fill="#dbe2fe"/>
      <path d="m357.3,533.35c1.25,9.73,6.19,17.87,12.91,24.6.12.02.26.05.38.07h.01c1.8.36,3.63.61,5.45.8-3.71-3.35-6.99-7.23-9.69-11.79-7.01-11.88-5.93-25.09-9.94-37.97-.99-3.21-1.9-6.29-3.04-9.11,4.01-3.69,8.24-7.18,12.64-10.46,1.69,3.09,3.53,6.11,5.58,9.07,12.9,18.53,27.29,35.81,43.05,51.81.98-.55,1.92-1.15,2.84-1.77-15.09-15.18-29-31.55-41.24-49.14-2.76-3.95-5.16-7.98-7.36-12.09,2.66-1.92,5.4-3.77,8.18-5.55,2.28-1.44,4.7-2.86,7.19-4.23,1.18,2.91,2.62,5.78,4.27,8.56,8.22,13.89,28.3,17.38,39.8,27.89,3.38,3.09,6.87,7.57,9.58,12.65.72-1.28,1.39-2.56,2.02-3.88-4.97-8.15-12.37-14.61-20.85-19.43-7.99-4.54-17.79-8.21-24.24-14.96-3.23-3.39-5.92-7.67-7.85-12.28,14.63-7.53,32.26-13.23,49.3-14.62-.56-.91-1.17-1.8-1.79-2.68-5.15.61-10.24,1.58-15.22,2.73-11.27,2.63-22.8,6.35-33.41,11.55-1.1-3.34-1.79-6.78-1.92-10.14-.32-8.41,2.33-16.63,6.2-24.06,1.16-2.2,2.47-4.19,3.91-6.05-.63-.14-1.27-.24-1.93-.34-.5-.08-.99-.15-1.51-.2-4.59,6.13-8.08,12.94-9.4,21.03-1.19,7.34-.36,14.41,1.89,21.14-3.55,1.87-7,3.9-10.28,6.13-1.84,1.26-3.66,2.54-5.45,3.85-3.89-7.67-7.1-15.62-10.26-23.98-2.46-6.48-4.98-13.16-6.95-19.96-.98.56-1.93,1.16-2.88,1.78,1.92,6.46,4.29,12.79,6.63,19.03,3.24,8.65,6.47,17.16,10.62,25.28-4.32,3.27-8.54,6.7-12.5,10.3-2.27-4.38-5.53-7.9-11.39-9.92-6.45-2.2-13.43-3.94-20.45-5.08-.27,1.23-.49,2.48-.67,3.72,2.3.45,4.63.91,6.99,1.32,5.9,1.02,12.85,1.97,17.88,5.48,2.24,1.56,4.05,3.81,5.54,6.46-8.92,8.4-16.7,17.74-22.72,28.22.23.42.48.83.72,1.24.4.65.82,1.31,1.24,1.96,5.78-10.57,13.4-20.05,22.17-28.49,4.19,9.76,4.92,23.28,5.96,31.47Z" fill="#fff" opacity=".7"/>
    </g>
  </g>
</svg>