<?xml version="1.0" encoding="UTF-8"?>
<svg xmlns="http://www.w3.org/2000/svg" xmlns:xlink="http://www.w3.org/1999/xlink" viewBox="0 0 1511 916.48">
  <defs>
    <linearGradient id="uuid-31fc1329-09f0-4cc6-9b1f-a28d555e551a" x1="682.99" y1="762.65" x2="1495.94" y2="-30.14" gradientUnits="userSpaceOnUse">
      <stop offset="0" stop-color="#a0d7b8"/>
      <stop offset="1" stop-color="#00c1e8"/>
    </linearGradient>
    <linearGradient id="uuid-573fba80-680b-4623-99a4-27594877c380" x1="1156.55" y1="587.1" x2="1156.55" y2="947.65" gradientUnits="userSpaceOnUse">
      <stop offset="0" stop-color="#ef248d"/>
      <stop offset="1" stop-color="#893f94"/>
    </linearGradient>
    <linearGradient id="uuid-fb536fa9-f25f-46d3-813d-d49db61778f9" x1="1366.09" y1="836.06" x2="1484.11" y2="836.06" gradientTransform="translate(1930.06 -737.13) rotate(77.4)" gradientUnits="userSpaceOnUse">
      <stop offset="0" stop-color="#a0d7b8"/>
      <stop offset="1" stop-color="#00c1ca"/>
    </linearGradient>
    <linearGradient id="uuid-863eae10-d0dc-4d2a-9806-6486d466b774" x1="589.37" y1="249.61" x2="584.75" y2="249.98" gradientTransform="translate(1993.38 570.91) rotate(-142.99) scale(1 -1)" gradientUnits="userSpaceOnUse">
      <stop offset="0" stop-color="#fc5653"/>
      <stop offset="1" stop-color="#fc0053"/>
    </linearGradient>
    <linearGradient id="uuid-8ca63e61-1e81-47b5-b169-0633198ea909" x1="601.07" y1="402.29" x2="574.38" y2="439.87" gradientTransform="translate(2052.94 259.45) rotate(-165.96) scale(1 -1)" gradientUnits="userSpaceOnUse">
      <stop offset="0" stop-color="#56b8d6"/>
      <stop offset=".77" stop-color="#5a71d7"/>
    </linearGradient>
    <linearGradient id="uuid-29ed9078-65da-4e98-9046-5ae9e4069c76" x1="619.11" y1="330.77" x2="565.14" y2="407.04" gradientTransform="translate(2052.94 259.45) rotate(-165.96) scale(1 -1)" xlink:href="#uuid-573fba80-680b-4623-99a4-27594877c380"/>
    <linearGradient id="uuid-f18437a9-d2fa-41c5-8b16-4bef242cb969" x1="568.04" y1="369.13" x2="592.27" y2="359.99" gradientTransform="translate(2052.94 259.45) rotate(-165.96) scale(1 -1)" xlink:href="#uuid-573fba80-680b-4623-99a4-27594877c380"/>
    <linearGradient id="uuid-ec1b4116-c90f-4ab9-873d-9679299ee8b0" x1="605.1" y1="376.19" x2="613.51" y2="375.7" gradientTransform="translate(2052.94 259.45) rotate(-165.96) scale(1 -1)" xlink:href="#uuid-573fba80-680b-4623-99a4-27594877c380"/>
    <linearGradient id="uuid-60a63d57-4477-4d15-8b88-417fac9aee3a" x1="1142.48" y1="654.94" x2="1137.86" y2="655.3" gradientTransform="translate(-382.37 570.91) rotate(-37.01)" xlink:href="#uuid-863eae10-d0dc-4d2a-9806-6486d466b774"/>
    <linearGradient id="uuid-9213b775-ace4-44da-8f41-0b69d17c3b7c" x1="1292.4" y1="553.1" x2="1265.7" y2="590.67" gradientTransform="translate(-432.28 134.44) rotate(-8.34)" xlink:href="#uuid-8ca63e61-1e81-47b5-b169-0633198ea909"/>
    <linearGradient id="uuid-13312aa4-458f-43f5-8b24-e12cd99d5982" x1="1285.74" y1="485.64" x2="1230.85" y2="563.21" gradientTransform="translate(-441.93 259.45) rotate(-14.04)" xlink:href="#uuid-8ca63e61-1e81-47b5-b169-0633198ea909"/>
    <radialGradient id="uuid-cbb08dc2-d779-4b91-af2c-fbd2501e60d7" cx="706.74" cy="131.66" fx="706.74" fy="131.66" r="57.81" gradientTransform="translate(1962.08) rotate(-180) scale(1 -1)" gradientUnits="userSpaceOnUse">
      <stop offset=".07" stop-color="#ffdf8c"/>
      <stop offset="1" stop-color="#ffbf73"/>
    </radialGradient>
    <radialGradient id="uuid-2125df8f-e263-4a1b-88d9-39655638c33f" cy="131.66" fy="131.66" r="57.81" xlink:href="#uuid-cbb08dc2-d779-4b91-af2c-fbd2501e60d7"/>
    <linearGradient id="uuid-dbacab78-63de-424d-8164-e03f974f5c00" x1="539.45" y1="45.96" x2="539.45" y2="236.97" gradientTransform="translate(1962.08) rotate(-180) scale(1 -1)" gradientUnits="userSpaceOnUse">
      <stop offset="0" stop-color="#f86c13"/>
      <stop offset="1" stop-color="#ef248d"/>
    </linearGradient>
    <linearGradient id="uuid-ecbe4fc0-8172-49cf-ad2f-dfe65fad7581" x1="472.68" y1="95.09" x2="472.68" y2="190.27" gradientTransform="translate(1962.08) rotate(-180) scale(1 -1)" xlink:href="#uuid-573fba80-680b-4623-99a4-27594877c380"/>
  </defs>
  <g isolation="isolate">
    <g id="uuid-3155119b-4560-43f4-baf1-eee75c910cc0" data-name="Layer 1">
      <g>
        <g>
          <path d="m743.01,50.45c-59.72,53.29-174.75,164.74-145.59,256.63,7.74,24.39,28.73,42.06,50.13,56.09,51.1,33.49,112.58,56.47,146.79,107.09,32.95,48.76,32.78,112.64,23.02,170.68-9.47,56.29-26.45,115.9-4.54,168.61,22.77,54.79,82.02,85.7,139.96,98.48,80.38,17.73,165.95,6.94,240.78-26.74,78.84-35.48,141.32-101.24,200.6-162.52,23.17-23.95,44.92-48.94,69.35-71.04,13.74-12.43,29.91-26.49,47.51-37.31V0h-708.22c-19.75,16.06-39.99,32.81-59.77,50.45Z" fill="url(#uuid-31fc1329-09f0-4cc6-9b1f-a28d555e551a)"/>
          <path d="m1511,581.02v-89.23c-1.29,1.49-2.04,3.27-2.04,5.17v5.59c-.12-.04-.25-.09-.36-.14-.07-.03-.13-.06-.19-.1-.11-.06-.21-.12-.31-.18-.06-.04-.12-.08-.18-.12-.1-.07-.19-.14-.28-.22-.05-.04-.1-.09-.15-.13-.09-.09-.18-.18-.26-.27-.04-.04-.08-.09-.12-.13-.09-.11-.18-.23-.26-.35-.02-.03-.05-.07-.07-.1-.22-.32-.4-.67-.56-1.04-.5-1.15-.75-2.49-.85-3.77-.04-.42-.05-.83-.06-1.24,1.08-1.1,1.9-2.13,2.2-2.63.72-1.18,1.25-2.61,1.64-4.08.08-.02.16-.03.25-.06.66-.25,1.19-.74,1.62-1.36v-19.18c-.71-1.34-1.65-2.52-2.81-3.21l2.76-1.23c-2.39-1.59-6.21-.41-7.01-.46l2.91-1.87c-3.83-1.01-5.6,1.11-8.13,1.2h0l2.56-2.27c-4.53,0-7.01,2.71-7.44,2.81-5.11,1.23-8.74,4.59-8.74,10.38,0,2.12.36,4.77.79,6.66.03.2.07.39.11.58-.16-.01-.32,0-.48.06-1.04.36-.53,6.73,2.52,7.87.09.03.17.04.25.06.39,1.47.92,2.9,1.64,4.08.3.5,1.13,1.52,2.2,2.62,0,.4-.03.81-.06,1.23-.11,1.28-.35,2.63-.85,3.78-.16.37-.35.72-.56,1.04-.03.04-.05.08-.08.11-.08.11-.16.23-.25.33-.04.05-.08.09-.12.14-.08.09-.17.18-.26.26-.05.05-.1.09-.15.14-.09.08-.18.15-.28.22-.06.04-.12.08-.18.12-.1.06-.21.12-.31.18-.06.03-.12.07-.19.1-.12.06-.25.1-.38.15-.06.02-.12.05-.18.06-.19.06-.4.11-.61.14-.05,0-.11.02-.16.03v-5.82c0-2.58-1.38-4.93-3.62-6.65-.01-.37-.03-.75-.05-1.1-.12-2.38-1.92-3.81-4.36-4.74-2.44-.94-5.52-1.39-8.21-1.83-.13-.02-.25-.06-.37-.09h0s-1.11-1.23-1.11-1.23c3.15-1.15,5.36-2.44,5.36-2.44-2.03-1.97-1.34-17.59-1.34-20.76,0-6.53-6.02-11.82-12.57-11.82h0c-6.55,0-12.57,5.29-12.57,11.82,0,.9.12,2.56.23,4.58-.15.64-.12,1.68.12,2.76.15,4.76,0,10.41-1.7,13.42,0,0,2.17,1.31,5.28,2.46l-1.09,1.2v.02c-.1.02-.2.05-.31.07-2.69.44-5.77.89-8.21,1.83-2.44.94-4.24,2.36-4.36,4.74,0,.08,0,.18-.01.26-2.95,1.76-4.85,4.46-4.85,7.49v5.59c-.12-.04-.25-.09-.36-.14-.06-.03-.13-.06-.19-.1-.11-.06-.21-.12-.31-.18-.06-.04-.12-.08-.17-.12-.1-.07-.19-.14-.28-.22-.05-.04-.1-.09-.15-.13-.09-.09-.18-.18-.26-.27-.04-.04-.08-.09-.12-.13-.09-.11-.18-.23-.26-.35-.02-.03-.05-.07-.07-.1-.22-.32-.4-.67-.57-1.04-.5-1.15-.75-2.49-.85-3.77,0-.04,0-.07,0-.11.72-.85,1.42-1.92,2.08-3.29,1.4-2.92,1.49-3.69,1.49-3.69l-.04.03c.09-.29.18-.58.26-.88.08-.02.16-.03.25-.06,3.04-1.14,3.56-7.51,2.52-7.87-.16-.06-.32-.08-.48-.06.17-.91.3-1.85.33-2.7.73-.17,1.28-.79,1.28-1.53,0-.81-.64-1.47-1.47-1.56,0,0,0-.01,0-.02.93-.28,1.61-1.1,1.61-2.08,0-1.06-.8-1.95-1.86-2.15.37-.39.59-.9.59-1.46,0-1.16-.95-2.11-2.15-2.19.22-.32.35-.71.35-1.12,0-1.15-.98-2.08-2.19-2.08-.34,0-.66.08-.94.21.02-.1.03-.21.03-.32,0-1.09-.93-1.97-2.08-1.97-.82,0-1.52.45-1.86,1.1.01-.1.03-.19.03-.29,0-1.15-.98-2.08-2.19-2.08-1.07,0-1.95.72-2.15,1.68-.2-.96-1.08-1.68-2.15-1.68-1.21,0-2.19.93-2.19,2.08,0,.1.02.2.03.29-.34-.65-1.04-1.1-1.86-1.1-1.15,0-2.08.88-2.08,1.97,0,.11.02.21.03.32-.29-.13-.6-.21-.94-.21-1.21,0-2.19.93-2.19,2.08,0,.39.12.76.32,1.07-.01.02-.02.03-.03.05-1.17.11-2.09,1.04-2.09,2.18,0,.53.2,1,.53,1.38,0,.03-.02.07-.03.1-1.01.23-1.76,1.09-1.76,2.13,0,.94.62,1.73,1.5,2.05,0,.02,0,.04,0,.07-.77.14-1.35.78-1.35,1.55,0,.7.49,1.29,1.15,1.5,0,.08,0,.16,0,.24.05.8.18,1.67.35,2.5-.16-.01-.32,0-.48.06-1.04.36-.53,6.73,2.52,7.87.09.03.17.04.25.06.08.29.16.57.25.86h0s.09.77,1.49,3.69c.65,1.36,1.35,2.41,2.06,3.26,0,.04,0,.09,0,.13-.11,1.28-.35,2.63-.85,3.78-.16.37-.35.72-.56,1.04-.03.04-.06.08-.08.11-.08.11-.16.23-.25.33-.04.05-.08.09-.12.14-.08.09-.17.18-.26.26-.05.05-.1.09-.15.14-.09.08-.18.15-.28.22-.06.04-.12.08-.18.12-.1.06-.21.12-.31.18-.06.03-.12.07-.19.1-.12.06-.25.1-.38.15-.06.02-.12.05-.18.06-.19.06-.4.11-.61.14-.05,0-.11.02-.16.03v-5.82c0-2.81-1.64-5.34-4.24-7.1,0-.23,0-.46-.01-.68,0-.43-.02-.85-.03-1.25-.02-.79-.05-1.51-.08-2.1-.09-1.79-1.15-3.04-2.71-3.95.68-12.95-3.48-37.4-19.81-37.4-15.34,0-20.25,24.5-19.62,37.3-1.66.91-2.8,2.18-2.9,4.05-.03.59-.06,1.3-.08,2.1-.02.6-.03,1.26-.04,1.93-.41.28-.8.57-1.16.89-.62-1.03-1.4-1.99-2.33-2.83,2.1-1.05,2.9-4.65,2.74-6.57.7-1.42,1.1-2.96,1.1-4.58,0-6.73-6.66-12.19-14.87-12.19s-14.87,5.46-14.87,12.19c0,1.69.42,3.29,1.18,4.76-.1,1.93.69,5.31,2.69,6.36-1.1,1-2,2.15-2.66,3.41-.32-.32-.66-.63-1.02-.91,0-.53,0-1.07-.01-1.58-.02-2.29-.06-4.37-.13-5.71-.03-.59-.17-1.13-.39-1.61-.9-1.93-3.21-3.03-5.9-3.75-2.02-.54-4.26-.88-6.27-1.21-.19-.03-.38-.08-.55-.13-.06-.02-.11-.04-.17-.06-.12-.04-.23-.08-.34-.13-.06-.03-.12-.06-.17-.09-.1-.05-.19-.1-.28-.16-.06-.04-.11-.07-.16-.11-.09-.06-.17-.13-.25-.2-.05-.04-.09-.08-.14-.12-.08-.08-.16-.16-.23-.24-.04-.04-.08-.08-.11-.13-.08-.1-.16-.2-.23-.3-.02-.03-.05-.07-.07-.1-.2-.29-.37-.61-.51-.94-.45-1.05-.68-2.27-.77-3.43-.03-.38-.05-.76-.06-1.12.98-1,1.73-1.92,2-2.37.65-1.07,1.13-2.37,1.49-3.7.08-.02.14-.03.23-.06.43-.16.79-.44,1.11-.79,1.73-.48,2.82-1.17,2.79-2.11-.17-5.59.02-5.84.02-7.78,0-7.32-6.52-13.25-13.62-13.25h0c-7.1,0-13.62,5.93-13.62,13.25,0,2.11.58,1.83.4,7.38-.02.6.64,1.14,1.77,1.6.43.78,1.01,1.41,1.76,1.7.08.03.15.04.23.06.36,1.33.84,2.63,1.49,3.7.27.45,1.02,1.38,2,2.38,0,.36-.03.74-.06,1.12-.1,1.16-.32,2.37-.77,3.42-.15.33-.32.65-.51.94-.02.03-.05.06-.07.09-.08.11-.15.21-.24.31-.03.04-.07.08-.11.12-.08.08-.16.17-.24.24-.04.04-.09.08-.14.12-.08.07-.17.14-.25.2-.05.04-.1.08-.16.11-.09.06-.19.11-.28.16-.06.03-.11.06-.17.09-.11.05-.22.09-.34.13-.05.02-.11.04-.16.06-.18.05-.36.1-.55.13-4.71.77-10.61,1.58-12.18,4.96-.22.48-.36,1.02-.39,1.61-.07,1.34-.11,3.41-.13,5.71,0,.24,0,.49,0,.73-2.89,1.76-4.72,4.43-4.72,7.42v2.65c-1.36-.34-2.3-1.21-2.92-2.35.08-.3.03-.57-.16-.67v-3.48c0-.3-.09-.58-.23-.82h0s-.01-.03-.03-.06c-.02-.03-.04-.06-.06-.08-.13-.18-.38-.48-.64-.54,1.05-1.08,1.85-2.08,2.15-2.57.72-1.19,1.25-2.62,1.65-4.1.08-.02.16-.03.25-.07,3.06-1.15,3.58-7.54,2.53-7.91-.16-.06-.32-.08-.48-.06.19-1.02.34-2.1.34-3.02,0-.17,0-.37-.02-.59,0-.24.02-.48.02-.73,0-7.23-5.88-13.09-13.14-13.09h0c-7.25,0-13.14,5.86-13.14,13.09,0,.11,0,.22,0,.34-.03.5-.03,1,0,1.49.05.8.18,1.67.35,2.51-.16-.01-.32,0-.49.06-1.05.37-.53,6.76,2.53,7.91.09.04.17.04.25.07.4,1.48.93,2.91,1.65,4.1.3.49,1.11,1.49,2.17,2.57-.23.1-.42.25-.58.44-.03.03-.06.07-.08.1-.02.03-.04.06-.06.09,0,.02-.02.03-.03.04h0c-.14.24-.22.52-.22.81v3.48c-.23.18-.29.47-.22.76-.62,1.1-1.55,1.93-2.87,2.26v-2.66c0-2.55-1.35-4.86-3.53-6.58-.02-2.45-.06-4.74-.14-6.21-.13-2.38-1.92-3.81-4.36-4.74-1.1-.42-2.34-.75-3.61-1.02-.78-6.6-.33-18.31-.33-21.27,0-8.04-6.85-14.56-14.3-14.56h0c-7.45,0-14.3,6.52-14.3,14.56,0,3.18,1.13,13.96-.18,21.24-.27.06-.54.11-.8.17-1.04.24-2.05.52-2.96.88-1.68.65-3.03,1.53-3.77,2.79.1-1.86.19-3.38.19-4.31,0-8.94-7.61-16.18-15.89-16.18h0c-10-1.04-19.67,4.96-15.89,16.18.2.6.34,1.58.44,2.82-2.13-2.6-7.31-3.34-11.54-4.03-1.39-.23-2.32-1.05-2.93-2.14.07-.27.01-.53-.2-.69v-3.13c0-.27-.08-.51-.2-.73h0s-.02-.03-.03-.04c-.02-.03-.04-.06-.05-.08-.02-.03-.05-.06-.08-.09-.14-.17-.32-.31-.52-.4.95-.97,1.68-1.87,1.95-2.31.65-1.07,1.13-2.36,1.48-3.69.08-.02.14-.03.23-.06,2.75-1.03,3.22-6.79,2.28-7.12-.15-.05-.3-.07-.44-.06.15-.75.27-1.54.31-2.26.03-.44.02-.89,0-1.34,0-.1,0-.2,0-.3,0-6.51-5.29-11.78-11.82-11.78h0c-6.53,0-11.82,5.27-11.82,11.78,0,.22,0,.44.01.66-.01.2-.02.38-.01.53,0,.83.13,1.8.31,2.72-.14,0-.28,0-.43.06-.94.33-.48,6.08,2.28,7.12.08.03.15.04.23.06.36,1.33.84,2.62,1.48,3.69.27.44.99,1.34,1.93,2.31-.23.05-.46.32-.57.48-.02.02-.04.05-.05.08-.02.03-.03.05-.03.05h0c-.13.22-.21.47-.21.75v3.13c-.17.09-.21.33-.15.61-.61,1.13-1.55,1.99-2.98,2.22-5.36.87-12.28,1.81-12.53,6.56-.07,1.36-.11,3.54-.13,5.97-3.19,1.75-5.28,4.56-5.28,7.73v2.43c-.09-.03-.19-.07-.27-.11-.07-.03-.13-.07-.19-.1-.11-.06-.21-.12-.32-.18-.06-.04-.12-.08-.18-.12-.1-.07-.19-.14-.28-.22-.05-.04-.1-.09-.15-.14-.09-.09-.18-.18-.26-.27-.04-.04-.08-.09-.12-.13-.09-.11-.18-.23-.26-.35-.02-.03-.05-.07-.08-.1-.22-.33-.41-.68-.57-1.05-.5-1.16-.75-2.51-.86-3.8-.04-.43-.05-.84-.06-1.25,1.09-1.11,1.92-2.14,2.22-2.65.72-1.19,1.26-2.63,1.65-4.11.08-.02.16-.03.25-.07.83-.31,1.47-1.02,1.95-1.88,1.25-.51,1.99-1.11,1.96-1.78-.2-6.17.44-5.86.44-8.2,0-8.13-7.25-14.72-15.13-14.72h0c-7.89,0-15.13,6.59-15.13,14.72,0,2.16.22,2.44.03,8.65-.03,1.03,1.17,1.8,3.1,2.34.36.39.76.7,1.24.88.09.04.17.04.25.07.4,1.48.93,2.92,1.65,4.11.3.5,1.14,1.53,2.22,2.63,0,.4-.03.82-.06,1.24-.11,1.29-.36,2.65-.86,3.81-.16.37-.35.72-.57,1.05-.03.04-.06.08-.08.11-.08.12-.17.23-.26.34-.04.05-.08.09-.13.14-.08.09-.17.18-.26.27-.05.05-.1.09-.16.14-.09.08-.18.15-.28.22-.06.04-.12.08-.18.12-.1.06-.21.12-.31.18-.06.03-.13.07-.19.1-.12.06-.25.1-.37.15-.06.02-.12.05-.18.07-.2.06-.4.11-.61.14-.02,0-.04,0-.06,0v-2.7c0-2.59-1.39-4.94-3.64-6.67-.02-1.53-.06-2.92-.11-3.93-.23-4.44-6.34-5.54-11.52-6.38,1.52-1.78,2.42-3.94,2.42-6.28,0-2.84-1.32-5.41-3.48-7.36,1.8-.95,2.51-3.99,2.42-5.73.68-1.32,1.06-2.76,1.06-4.28,0-6.06-5.99-10.97-13.39-10.97s-13.39,4.91-13.39,10.97c0,1.46.36,2.85.99,4.12-.14,1.72.57,4.96,2.46,5.91-2.14,1.94-3.45,4.51-3.45,7.33,0,2.33.9,4.49,2.41,6.27-2.67.43-5.6.93-7.85,1.93-1.83-10.37-6.46-19.73-15.97-19.73h0s0,0,0,0c-8.85,0-13.61,8.26-15.77,17.83-.48-.7-1.17-1.27-2-1.75,0,0,0,0,0,0,0,0-1.38-1.35-9.74-2.56-.2-.03-.4-.08-.58-.14-.06-.02-.11-.04-.17-.06-.13-.05-.25-.1-.36-.15-.06-.03-.11-.06-.17-.09-.11-.06-.22-.13-.32-.2-.05-.03-.09-.06-.14-.09-.14-.11-.27-.22-.4-.34,0,0,0,0,0,0-.13-.13-.24-.26-.35-.4-.03-.04-.06-.09-.1-.13-.08-.1-.15-.21-.22-.32-.03-.05-.06-.11-.09-.16-.06-.11-.13-.23-.18-.35-.02-.05-.05-.1-.07-.15-.08-.17-.15-.34-.21-.52-.34-.94-.52-1.99-.61-2.99-.03-.38-.05-.75-.06-1.11.97-.99,1.72-1.92,1.99-2.37.65-1.07,1.12-2.35,1.48-3.68.08-.02.14-.03.22-.06,2.75-1.03,3.21-6.77,2.27-7.1-.15-.05-.29-.07-.43-.06.17-.92.31-1.88.31-2.71,0-.15,0-.33-.01-.53,0-.21.01-.43.01-.66,0-6.49-5.28-11.75-11.79-11.75h0c-6.51,0-11.79,5.26-11.79,11.75,0,.1,0,.2,0,.3-.02.45-.03.9,0,1.34.04.72.16,1.5.31,2.25-.14-.01-.29,0-.44.06-.94.33-.47,6.07,2.27,7.1.08.03.15.04.23.06.36,1.33.83,2.61,1.48,3.68.27.45,1.02,1.37,1.99,2.36,0,.36-.03.73-.06,1.11-.08,1.01-.26,2.06-.61,3-.06.18-.14.35-.21.52-.02.05-.05.09-.07.14-.06.12-.12.24-.19.36-.03.05-.06.1-.09.15-.07.11-.14.22-.22.33-.03.04-.06.08-.09.13-.11.14-.23.28-.36.41,0,0,0,0,0,0-.12.12-.26.23-.39.34-.04.03-.09.06-.14.09-.1.07-.21.14-.32.2-.06.03-.11.06-.17.09-.12.06-.24.11-.36.15-.06.02-.11.04-.17.06-.19.06-.38.11-.58.14,0,0,0,0,0,0-8.35,1.2-9.73,2.56-9.73,2.56,0,0,0,0,0,0-.22.13-.43.27-.64.41-3.42-8.38-9-14.96-17.38-14.96-9.57,0-15.37,7.55-18.61,16.8-2.12-1.03-4.87-1.64-7.43-2.09l-2.16-1.38-.05.1-2.65-1.99c-.33-.93-.5-1.95-.59-2.93-.03-.38-.05-.75-.06-1.11.97-.99,1.72-1.92,1.99-2.37.65-1.07,1.12-2.35,1.48-3.68.08-.02.14-.03.22-.06,2.74-1.03,3.21-6.77,2.27-7.1-.16-.05-.31-.07-.46-.05.15-.75.27-1.54.31-2.26.02-.36.02-.73.01-1.11,0-.18,0-.35,0-.54,0-3.59-.27-9.05-4-8.75,0,0,.25-3.05-5.34-3.25-3.94-.14-7.86.27-10.24,1.61-3.06,1.72-4.05,5.11-3.98,10.53,0,.17,0,.34.02.51-.01.2-.02.38-.02.54,0,.83.13,1.79.31,2.71-.13,0-.27,0-.41.06-.94.33-.47,6.07,2.27,7.1.08.03.15.04.22.06.36,1.33.83,2.61,1.48,3.68.27.45,1.02,1.37,1.99,2.36,0,.36-.03.73-.06,1.11-.08.99-.26,2.02-.59,2.95l-2.66,2-.06-.11-1.89,1.21c-5.07.9-11.03,2.45-11.25,6.61-.06,1.18-.1,2.81-.12,4.6-2.99,1.76-4.91,4.48-4.91,7.53v5.59c-.12-.04-.25-.09-.36-.14-.06-.03-.13-.06-.19-.1-.11-.06-.21-.12-.31-.18-.06-.04-.12-.08-.18-.12-.1-.07-.19-.14-.28-.22-.05-.04-.1-.09-.15-.13-.09-.09-.18-.18-.26-.27-.04-.04-.08-.09-.12-.13-.09-.11-.18-.23-.26-.35-.02-.03-.05-.07-.07-.1-.22-.32-.4-.67-.56-1.04-.5-1.15-.75-2.49-.85-3.77-.04-.42-.05-.83-.06-1.24,1.08-1.1,1.9-2.13,2.2-2.63.72-1.18,1.25-2.61,1.64-4.08.08-.02.16-.03.25-.06,3.04-1.14,3.56-7.51,2.52-7.87-.16-.06-.32-.08-.48-.06.15-.77.26-1.58.31-2.32.25-1.6.46-3.4.58-4.92.22-2.69-1.43-6.97-4.13-8.57l2.76-1.23c-2.39-1.59-6.21-.41-7.01-.46l2.91-1.87c-3.83-1.01-5.6,1.11-8.13,1.2h0l2.56-2.27c-4.53,0-7.01,2.71-7.44,2.81-5.11,1.23-8.74,4.59-8.74,10.38,0,2.12.36,4.77.79,6.66.03.2.07.39.11.58-.16-.01-.32,0-.48.06-1.04.36-.53,6.73,2.52,7.87.09.03.17.04.25.06.4,1.47.92,2.9,1.64,4.08.3.5,1.13,1.52,2.2,2.62,0,.4-.03.81-.06,1.23-.11,1.28-.35,2.63-.85,3.78-.16.37-.35.72-.56,1.04-.03.04-.06.08-.08.11-.08.11-.16.23-.25.33-.04.05-.08.09-.12.14-.08.09-.17.18-.26.26-.05.05-.1.09-.15.14-.09.08-.18.15-.28.22-.06.04-.12.08-.18.12-.1.06-.21.12-.31.18-.06.03-.13.07-.19.1-.12.06-.25.1-.38.15-.06.02-.12.05-.18.06-.19.06-.4.11-.61.14-.05,0-.11.02-.16.03v-5.82c0-2.58-1.38-4.93-3.62-6.65-.01-.37-.03-.75-.05-1.1-.13-2.38-1.92-3.81-4.36-4.74-2.44-.94-5.52-1.39-8.21-1.83-.13-.02-.25-.06-.37-.09h0s-1.11-1.23-1.11-1.23c3.15-1.15,5.36-2.44,5.36-2.44-2.03-1.97-1.34-17.59-1.34-20.76,0-6.53-6.02-11.82-12.57-11.82h0c-6.55,0-12.57,5.29-12.57,11.82,0,.9.12,2.56.23,4.58-.15.64-.12,1.68.12,2.76.15,4.76,0,10.41-1.7,13.42,0,0,2.17,1.31,5.28,2.46l-1.09,1.2v.02c-.1.02-.2.05-.31.07-2.69.44-5.77.89-8.21,1.83-2.44.94-4.24,2.36-4.36,4.74,0,.08,0,.18-.01.26-2.95,1.76-4.85,4.46-4.85,7.49v5.59c-.12-.04-.25-.09-.36-.14-.06-.03-.13-.06-.19-.1-.11-.06-.21-.12-.31-.18-.06-.04-.12-.08-.17-.12-.1-.07-.19-.14-.28-.22-.05-.04-.1-.09-.15-.13-.09-.09-.18-.18-.26-.27-.04-.04-.08-.09-.12-.13-.09-.11-.18-.23-.26-.35-.02-.03-.05-.07-.07-.1-.22-.32-.4-.67-.56-1.04-.5-1.15-.75-2.49-.85-3.77,0-.04,0-.07,0-.11.72-.85,1.42-1.92,2.08-3.29,1.4-2.92,1.49-3.69,1.49-3.69l-.04.03c.09-.29.18-.58.26-.88.08-.02.16-.03.25-.06,3.04-1.14,3.56-7.51,2.52-7.87-.16-.06-.32-.08-.48-.06.17-.91.3-1.85.33-2.7.73-.17,1.28-.79,1.28-1.53,0-.81-.64-1.47-1.47-1.56,0,0,0-.01,0-.02.93-.28,1.61-1.1,1.61-2.08,0-1.06-.8-1.95-1.86-2.15.37-.39.59-.9.59-1.46,0-1.16-.95-2.11-2.15-2.19.22-.32.35-.71.35-1.12,0-1.15-.98-2.08-2.19-2.08-.34,0-.66.08-.94.21.02-.1.03-.21.03-.32,0-1.09-.93-1.97-2.08-1.97-.82,0-1.52.45-1.86,1.1.01-.1.03-.19.03-.29,0-1.15-.98-2.08-2.19-2.08-1.07,0-1.95.72-2.15,1.68-.2-.96-1.08-1.68-2.15-1.68-1.21,0-2.19.93-2.19,2.08,0,.1.02.2.03.29-.34-.65-1.04-1.1-1.86-1.1-1.15,0-2.08.88-2.08,1.97,0,.11.02.21.03.32-.29-.13-.6-.21-.94-.21-1.21,0-2.19.93-2.19,2.08,0,.39.12.76.32,1.07-.01.02-.02.03-.04.05-1.17.11-2.09,1.04-2.09,2.18,0,.53.2,1,.53,1.38,0,.03-.02.07-.03.1-1.01.23-1.76,1.09-1.76,2.13,0,.94.62,1.73,1.5,2.05,0,.02,0,.04,0,.07-.77.14-1.35.78-1.35,1.55,0,.7.49,1.29,1.15,1.5,0,.08,0,.16,0,.24.05.8.18,1.67.35,2.5-.16-.01-.32,0-.48.06-1.04.36-.53,6.73,2.52,7.87.09.03.17.04.25.06.08.29.16.57.25.86h0s.09.77,1.49,3.69c.65,1.36,1.35,2.41,2.06,3.26,0,.04,0,.09,0,.13-.11,1.28-.35,2.63-.85,3.78-.16.37-.35.72-.56,1.04-.03.04-.05.08-.08.11-.08.11-.16.23-.25.33-.04.05-.08.09-.12.14-.08.09-.17.18-.26.26-.05.05-.1.09-.15.14-.09.08-.18.15-.28.22-.06.04-.12.08-.18.12-.1.06-.21.12-.31.18-.06.03-.12.07-.19.1-.12.06-.25.1-.38.15-.06.02-.12.05-.18.06-.19.06-.4.11-.61.14-.05,0-.11.02-.16.03v-5.82c0-2.81-1.64-5.34-4.24-7.1,0-.23,0-.46-.01-.68,0-.43-.02-.85-.03-1.25-.02-.79-.05-1.51-.08-2.1-.09-1.79-1.15-3.04-2.71-3.95.68-12.95-3.48-37.4-19.81-37.4-3.99,0-7.26,1.66-9.93,4.34,6.38,6.59,12.25,13.68,17.49,21.43,21.84,32.31,29.12,71.27,28.71,110.76h687.96Z" fill="#4b5888" mix-blend-mode="multiply" opacity=".55"/>
          <path d="m823.01,581.49c-.23,19.95-2.39,40.03-5.66,59.45-9.47,56.29-26.45,115.9-4.54,168.61,22.77,54.79,82.02,85.7,139.96,98.48,80.38,17.73,165.95,6.94,240.78-26.74,78.84-35.48,141.32-101.24,200.6-162.51,23.17-23.95,44.92-48.94,69.35-71.04,13.74-12.43,29.91-26.49,47.51-37.31v-28.94h-687.99Z" fill="url(#uuid-573fba80-680b-4623-99a4-27594877c380)"/>
          <circle cx="1425.1" cy="836.06" r="59.01" transform="translate(298.23 2044.4) rotate(-77.4)" fill="url(#uuid-fb536fa9-f25f-46d3-813d-d49db61778f9)"/>
        </g>
        <g>
          <g>
            <path d="m1398.52,432.52s-6.95-2.79-3.73-19.09l-13.65,3.75s-.14,12.01-4.52,15.02c0,0-13.31,13.81-13.15,21.11.01.65.13,6.79.13,6.79,6.43,11.27,35.59,10.28,42.49,11.29,3.11.46,11.01-11.09,10.23-16.06-1.8-11.39-17.8-22.82-17.8-22.82Z" fill="#f5aa8d"/>
            <path d="m1378.82,452.05l-3.87,15.46c-5.09-1.56-9.34-3.89-11.35-7.42,0,0-.12-6.13-.13-6.79-.03-1.41.44-3.05,1.21-4.79l14.14,3.53Z" fill="#ca5645"/>
            <path d="m1405.54,438.46c4.55,4.38,9.8,10.63,10.79,16.87.78,4.97-7.12,16.52-10.23,16.06-2.18-.32-4.77-2.29-7.5-5.19l6.94-27.75Z" fill="#ca5645"/>
            <path d="m1388.43,439.48c1.02-2.35,2.29-5.05,2.56-7.63.59-5.65-.23-13.38,2.56-18.58l1.24.15c-3.22,16.3,3.73,19.09,3.73,19.09,0,0-1.51,12.52-11.74,11.02-.24-.03-.44-.1-.67-.14.88-1.19,1.69-2.45,2.32-3.91Z" fill="#ca5645"/>
            <path d="m1342.93,518.13s.42,7.38,5.48,12.35c8.32,8.17,1.98,2.96,12.11,9.55,0,0,2.34-12.65-1.13-17.15-3.46-4.5-16.46-4.75-16.46-4.75Z" fill="#1e2541"/>
            <path d="m1417.46,541.61s-6.21,7.4-14.25,7.43c-8.03.03-15.95-2.32-15.95-2.32,0,0,12.39-13.1,30.2-5.11Z" fill="#1e2541"/>
            <path d="m1415.04,439.7s29.97,35.72,29.43,40.17c-.54,4.45-2.16,32.33-1.08,33.37s4.52,4.86,5.53,7.31c1.01,2.45,2.2,8,1.44,8.77-.76.76-1.15-.35-1.45-.94,0,0,.74,2.64-.17,2.98-.91.34-1.25-1.36-1.25-1.36,0,0,.54,2.05-.27,2.48-.81.43-1.48-1.33-1.48-1.33,0,0,.33,1.74-1.35.94-.96-.46-1.79-5.72-2.55-7.25-.76-1.53-1.91-4.32-2.26-3.96-.34.36-.48.64-.57,1.77-.09,1.12,1.12,5.95-.35,5.71-1.47-.24-2.17-6.75-2.44-8.22-.27-1.47.95-5.46.62-6.69-.33-1.23-1.26-29.88-2.46-30.68-1.2-.81-19.31-23.31-22.55-24.12-3.24-.81-.36-17.93,3.21-18.95Z" fill="#f5aa8d"/>
            <path d="m1374.84,451.47c-2.04-10.76-11.43-14.45-11.43-14.45-2.42,2.15-24.03,31.33-24.07,32.12-.21,4.48-3.81,31.29-5.05,32.13s-5.26,4.04-6.67,6.29c-1.4,2.25-3.5,7.53-2.87,8.41s1.2-.16,1.59-.68c0,0-1.17,2.48-.32,2.97.72.42,1.27-.69,1.42-1.04-.16.4-.73,1.9-.1,2.39.73.56,1.68-1.06,1.68-1.06,0,0-.61,1.66,1.17,1.15,1.02-.29,2.71-5.34,3.72-6.72,1.01-1.38,2.6-3.94,2.89-3.53.28.41.37.72.27,1.84-.1,1.12-2.1,5.68-.61,5.69,1.49,0,3.26-6.3,3.77-7.7s-.03-5.55.5-6.7c.53-1.16,6.77-28.3,8.09-28.9.32-.15,1.31-2.38,3.51-4.22,0,0-.01-.02-.02-.02,8.15-6.5,19.6-16.2,22.53-17.95Z" fill="#f5aa8d"/>
            <path d="m1393.16,413.87c-.67,1.31-2.41,1.58-2.87,3.02-.88,2.74-.86,7.32-2.48,9.75-2.62,3.92-6.2,5.33-10.3,4.74,3.5-3.92,3.62-14.2,3.62-14.2l12.02-3.31Z" fill="#ca5645"/>
            <path d="m1377.94,392.89c1.23-.83,7.19.3,12.14,1.44,3.42.79,6.07,3.44,6.88,6.86.27,1.14.77,2.39,1.63,3.67.53.79.76,1.7.76,2.68,0,1.6-1.02,2.97-2.38,3.8-1.42.87-1.55,2.42-2.47,3.84-1.04,1.61-1.28,3.32-4.19,5.61-4.26,2.23-15.38,4.29-17.96,1.86-2.72-2.55-1.09-12.51-.64-14.14.45-1.63,1.35-3.05,1.55-4.11.2-1.06,2.51-10.04,4.68-11.51Z" fill="#f5aa8d"/>
            <path d="m1390.54,401.09s-8.31,4.44-14.67-.74c-6.36-5.18-3.79-9.31-3.79-9.31,0,0,1.23.88,3.14-.23,1.91-1.11,10.74-7.48,21.62,1.38,0,0,2.45,2.1,3.15,3.89,0,0,2.08.04,2.8,2.39s.52,8.95-5.78,16.16c0,0-.69.97-1.34,2-.98,1.59-3.53.99-3.54-.88,0-.6.17-1.32.6-2.18.68-1.34,6.05-4.28,1.97-6.75-3.33-2.01-4.66,5.95-6.6,5.76-1.95-.18-1.86-2.95.05-5.92,2.16-3.37,1.93-3.61,2.39-5.56Z" fill="#1e2541"/>
            <path d="m1394.6,409.13s-1.04-.87-2.03-.55c-.65.21-1.66,1.23-1.22,2.57.18.56,1.38,1.16,1.67-.57.16-.93.5-1.23,1.58-1.46Z" fill="#ca5645"/>
            <path d="m1373.34,406.54c-.19.49.07,1.04.58,1.23.5.19,1.06-.05,1.25-.54.19-.49-.07-1.04-.58-1.23-.5-.19-1.06.05-1.25.54Z" fill="#100142"/>
            <path d="m1380,409.14c-.2.53.14,1.16.76,1.39.62.23,1.28,0,1.49-.54.2-.53-.14-1.16-.76-1.39-.62-.23-1.28,0-1.49.54Z" fill="#100142"/>
            <path d="m1374.56,415.2s.07.03.1.05c.17.07.36,0,.43-.15s-.02-.33-.19-.42c-.64-.28-1.01-.57-1.05-.82-.07-.4.63-.89,1.13-1.25.2-.14.38-.27.52-.39.85-.73,1.84-2.89,1.89-2.98.07-.15,0-.34-.18-.42-.17-.08-.36-.02-.43.14,0,.02-.98,2.14-1.74,2.78-.13.11-.3.23-.48.36-.66.47-1.49,1.06-1.37,1.81.08.48.52.9,1.35,1.28Z" fill="#e37c58"/>
            <path d="m1373.68,418.03c.52.31,1.82.35,2.99.04.14-.04.23-.19.19-.33-.04-.14-.18-.23-.33-.19-2.21.59-3.49-1.19-3.51-1.26-.05-.14-.2-.21-.34-.16-.14.05-.21.2-.16.34,0,.01.49,1.15,1.17,1.56Z" fill="url(#uuid-863eae10-d0dc-4d2a-9806-6486d466b774)"/>
            <path d="m1383.65,409.06c.1.05.23.03.32-.05.13-.11.15-.31.04-.44-.06-.07-1.52-1.79-3.87-1.99-.17-.01-.32.11-.34.28-.01.17.11.32.28.34,2.09.17,3.43,1.75,3.44,1.77.03.04.07.07.11.09Z" fill="#100142"/>
            <path d="m1376.22,405.05c.19.14.24.36.11.48-.13.12-.39.1-.58-.04-.02-.01-1.13-.84-2.47-1.13,0-.05.03-.11.04-.15,0-.1.03-.27.06-.47,1.54.36,2.77,1.26,2.85,1.32Z" fill="#100142"/>
            <path d="m1410.84,539.14s2.92,17.52,6.39,24.99c0,0-1.16,15.26-12.94,5.18,0,0-12.12-20.87-13.12-26.1-1-5.23,9.71-4.67,19.67-4.07Z" fill="#f5aa8d"/>
            <path d="m1404.47,562.92c2.62.59,4.98.47,7.12-1.29,1.31-1.07,2.44-2.46,3.33-4.01.72,2.48,1.49,4.77,2.3,6.5,0,0-1.16,15.26-12.94,5.18,0,0-1.97-3.39-4.38-7.78,1.5.56,3.02,1.05,4.57,1.4Z" fill="#ca5645"/>
            <path d="m1330.63,544.59c1,2.49,2.44,4.36,5.11,5.13,1.62.47,3.41.61,5.19.46-1.63,2-3.07,3.94-4.04,5.59,0,0-13.22,7.71-11.61-7.7,0,0,1.67-3.55,3.91-8.03.4,1.55.86,3.08,1.45,4.55Z" fill="#ca5645"/>
            <path d="m1367.85,533.49s-26.8,17.2-29.16,17.26c-1.15.03-3.83-1.28-4.9-1.62-5.75-1.82-4.49-6.96-4.78-8.73-.11-.69,19.78-22.71,22.62-24.42,3.6-2.16,18.5,11.97,16.22,17.51Z" fill="#f5aa8d"/>
            <path d="m1341.51,545.07c5.14-2.14,19.09-16.31,23.77-19.32,2.11,2.92,3.36,5.83,2.57,7.74,0,0-25.87,16.96-29.96,20.36-.89.74-3.02-4.38-4.1-4.72-.93-.29-1.75-.6-2.49-.91,3.76-.76,7.34-1.95,10.21-3.14Z" fill="#ca5645"/>
            <path d="m1406.61,502.96s6.45,16.52,5.13,19.25c-1.32,2.73,4.26,16.1,5.73,19.4,0,0-26.66,1.15-30.2,5.11,0,0-5.14-20.7-6.55-21.18-1.41-.48-20.19,14.5-20.19,14.5,0,0-5.56-18.51-17.59-21.9,0,0,15.95-10.28,25.39-14.42,9.44-4.14,29.41-2.46,38.28-.75Z" fill="url(#uuid-8ca63e61-1e81-47b5-b169-0633198ea909)"/>
            <path d="m1404.34,542.61c.73-1.33,1.29-2.82,1.55-4.66.66-4.67-3.22-6.8-4.04-10.92-.94-4.71,4.63-7.7,3.54-12.76-.89-4.15-2.54-8.1-3.94-12.12,1.95.25,3.72.53,5.17.81,0,0,6.45,16.52,5.13,19.25-1.32,2.73,4.26,16.1,5.73,19.4,0,0-6.26.27-13.12,1Z" fill="#5a71b3" mix-blend-mode="multiply" opacity=".55"/>
            <path d="m1361.18,532.99c1.84-3.33,1.59-5.1,5.91-5.94,1.37-.27,3.09-.61,3.89-1.92,1.21-1.97,1.33-3.41.45-5.58-1.09-2.68,3.87-.35,5.01.04,3.92,1.37,6.5.95,9.37-.19-.82,2.47-1.38,5.15-.14,7.34,1.63,2.89,2.99,4.53,2.54,8.06-.21,1.63-.5,3.25-.2,4.89.26,1.42.82,3.66,1.77,5.61-1.16.43-2.05.9-2.51,1.42,0,0-5.14-20.7-6.55-21.18-1.41-.48-20.19,14.5-20.19,14.5,0,0-.61-2.01-1.84-4.82,1-.39,1.88-1.09,2.5-2.23Z" fill="#5a71b3" mix-blend-mode="multiply" opacity=".55"/>
            <path d="m1437.17,618.96s-8.57-23.34-10.55-33.29c-.78-3.9-.23-8.92-1.43-12.26-1.87-5.2-5.24-10.23-9.23-12.59,0,0-1.96,7.09-12.25,7.3,0,0,.03,6.43,2.03,11.77.97,2.58,13.14,20.34,20.01,32.53,1.64,2.92,2.8,6.88,3.14,9.01,0,0,4.8,1.53,8.28-2.46Z" fill="#eaf0fc"/>
            <path d="m1424.95,591.87c-3.22-6.93-.53-13.6-2.89-20.49-1.17-3.41-5.97-3.42-7.01-8.7.67-1.06.9-1.86.9-1.86,4,2.36,7.36,7.39,9.23,12.59,1.2,3.35.66,8.37,1.43,12.26,1.98,9.95,10.55,33.29,10.55,33.29-.51.59-1.06,1.04-1.61,1.42-3.12-9.09-7.1-20.97-10.61-28.51Z" fill="#b1c8d3"/>
            <path d="m1437.24,618.68s5.24,7.45,7.75,10.23c10.48,11.59-6.6,13.65-11.08,11-4.48-2.66-2.17-8.27-3.93-11.5-1.94-3.55-1.46-4.77-1.02-7.26,0,0,3.83.65,8.28-2.46Z" fill="#1e2541"/>
            <path d="m1302.85,603.4s9.45-23,11.81-32.86c.92-3.86.57-8.9,1.9-12.2,2.07-5.13,5.62-10.02,9.71-12.23,0,0,1.69,7.16,11.96,7.77,0,0-.27,6.43-2.48,11.68-1.07,2.54-13.9,19.82-21.23,31.74-1.75,2.85-3.06,6.77-3.48,8.89,0,0-4.86,1.34-8.18-2.77Z" fill="#eaf0fc"/>
            <path d="m1334.99,553.4c-.21,2.06-.94,4.02-1.37,6.1-2.12,10.19-18.23,32.91-20.67,36.63-1.61,2.45-4.53,9.89-4.6,10.21,2.32.7,2.68-.17,2.68-.17.42-2.12,1.73-6.03,3.48-8.89,7.33-11.92,20.17-29.2,21.23-31.74,2.21-5.25,2.48-11.68,2.48-11.68-1.19-.07-2.26-.24-3.24-.46Z" fill="#b1c8d3"/>
            <path d="m1396.62,430.93s13.11,3.96,18.76,9.15c0,0-9.25,12.3-2.89,25.61,0,0-7.18,14.96-6.69,22.16.49,7.2,7.1,17.49,3.84,23.63,0,0-14.41-8.88-27.5-5.46-13.09,3.42-20.09.07-20.09.07,0,0-.15-6.27,3.63-14.5,3.78-8.23-1.25-23.44-2.09-31.48,0,0,6.78-13.91-.18-23.08,0,0,8.85-5.7,15.22-7.31,0,0,.46,8.33,6.28,8.32,5.82-.01,11.7-7.1,11.7-7.1Z" fill="url(#uuid-29ed9078-65da-4e98-9046-5ae9e4069c76)"/>
            <path d="m1388.53,503.19c.03-2.64-5.22-12.47-2.84-13.82,6.02-3.4,12.98-6,11.37-14.52-1.1-5.82-7.89-9.99-3.51-16.37,3.07-4.47,8.55-7.53,10.85-12.51,2.22-4.81,2.06-8.52.45-12,3.76,1.6,7.93,3.72,10.53,6.12,0,0-9.25,12.3-2.89,25.61,0,0-7.18,14.96-6.69,22.16.49,7.2,7.1,17.49,3.84,23.63,0,0-10.23-6.31-21.28-6.25.1-.68.17-1.36.17-2.05Z" fill="url(#uuid-f18437a9-d2fa-41c5-8b16-4bef242cb969)" mix-blend-mode="multiply" opacity=".5"/>
            <path d="m1366,442.48c.46.5.93.99,1.43,1.47,2.31,2.3,5.73,5.22,5.65,8.81-.1,4.16-2.61,7.6-3.26,11.64-.44,2.77.92,5.3,2.02,7.72,2.75,6,1.04,9.29-.65,15.14-2.02,7.02,2.47,13.71,2.1,20.22-7.36.45-11.23-1.39-11.23-1.39,0,0-.15-6.27,3.63-14.5,3.78-8.23-1.25-23.44-2.09-31.48,0,0,4.5-9.24,2.4-17.62Z" fill="url(#uuid-ec1b4116-c90f-4ab9-873d-9679299ee8b0)" mix-blend-mode="multiply" opacity=".5"/>
          </g>
          <path d="m1311.16,606.47s3.8,9.16-1.35,10.58c-5.15,1.41-7.81,1.23-11.86,4.09-4.05,2.86-12.03,5.89-14.46,2.52-2.43-3.37,0-8.95,9.52-14.62,9.52-5.67,10-6.17,10-6.17,0,0,3.22,2.15,8.15,3.61Z" fill="#1e2541"/>
        </g>
        <g>
          <path d="m898.15,423.2s6.95-2.79,3.73-19.09l13.65,3.75s.14,12.01,4.52,15.02c0,0,13.31,13.81,13.15,21.11-.02.65-.13,6.79-.13,6.79-6.43,11.27-35.59,10.28-42.49,11.29-3.11.46-11.01-11.09-10.23-16.06,1.8-11.39,17.8-22.82,17.8-22.82Z" fill="#f5aa8d"/>
          <path d="m917.85,442.73l3.87,15.46c5.09-1.56,9.34-3.89,11.35-7.42,0,0,.11-6.13.13-6.79.03-1.4-.44-3.05-1.21-4.79l-14.14,3.53Z" fill="#ca5645"/>
          <path d="m891.14,429.14c-4.55,4.38-9.8,10.63-10.79,16.87-.78,4.97,7.12,16.52,10.23,16.06,2.18-.32,4.77-2.29,7.5-5.19l-6.94-27.75Z" fill="#ca5645"/>
          <path d="m908.24,430.16c-1.02-2.35-2.29-5.05-2.56-7.63-.59-5.65.23-13.38-2.56-18.58l-1.24.15c3.22,16.3-3.73,19.09-3.73,19.09,0,0,1.51,12.52,11.74,11.02.24-.04.44-.1.67-.14-.88-1.19-1.69-2.45-2.32-3.91Z" fill="#ca5645"/>
          <path d="m954.44,511.36s-1.15,7.3-6.68,11.75c-9.09,7.3-2.26,2.75-12.99,8.3,0,0-1.07-12.82,2.82-16.95,3.89-4.13,16.85-3.09,16.85-3.09Z" fill="#1e2541"/>
          <path d="m877.95,527.33s5.45,7.98,13.44,8.81c7.99.83,16.1-.72,16.1-.72,0,0-11.02-14.27-29.54-8.08Z" fill="#1e2541"/>
          <path d="m881.07,449.95s-34.31-34.94-34.35-39.43c-.04-4.48-2.02-32.34-3.22-33.23-1.2-.89-5.11-4.23-6.43-6.54-1.32-2.3-3.22-7.65-2.56-8.51.66-.86,1.19.2,1.56.74,0,0-1.08-2.52-.21-2.98.86-.46,1.42,1.19,1.42,1.19,0,0-.8-1.96-.05-2.49.75-.54,1.64,1.12,1.64,1.12,0,0-.55-1.68,1.22-1.1,1.01.33,2.51,5.44,3.46,6.86.96,1.42,2.45,4.03,2.75,3.63.3-.4.39-.7.34-1.83-.06-1.13-1.88-5.76-.39-5.71,1.49.05,3.02,6.42,3.47,7.84.46,1.42-.24,5.54.24,6.72.49,1.18,5.09,29.46,6.39,30.11,1.29.65,22.15,24,25.46,24.39,3.32.39,2.66,17.73-.74,19.2Z" fill="#f5aa8d"/>
          <path d="m920.74,433.73c2.04,10.76,11.43,14.45,11.43,14.45,2.42-2.15,27.77-37.2,27.8-37.99.21-4.48,3.81-31.29,5.05-32.13s5.26-4.04,6.67-6.29c1.4-2.25,3.5-7.53,2.87-8.41-.63-.88-1.2.16-1.59.68,0,0,1.17-2.48.32-2.97-.72-.42-1.27.69-1.42,1.04.16-.4.73-1.9.1-2.39-.73-.56-1.68,1.06-1.68,1.06,0,0,.61-1.66-1.17-1.15-1.03.29-2.71,5.34-3.72,6.72-1.01,1.38-2.6,3.94-2.89,3.53-.28-.41-.37-.72-.27-1.84.1-1.12,2.1-5.68.61-5.69-1.49,0-3.26,6.3-3.77,7.7-.51,1.4.03,5.55-.5,6.7-.53,1.16-6.77,28.3-8.09,28.9-.32.15-1.31,2.38-3.51,4.22,0,0,.01.02.02.02-8.15,6.5-23.34,22.07-26.27,23.82Z" fill="#f5aa8d"/>
          <path d="m903.51,404.55c.67,1.31,2.41,1.58,2.87,3.02.88,2.74.86,7.32,2.48,9.75,2.62,3.92,6.2,5.33,10.3,4.74-3.5-3.92-3.62-14.2-3.62-14.2l-12.02-3.31Z" fill="#ca5645"/>
          <path d="m918.73,383.57c-1.23-.83-7.19.3-12.14,1.44-3.42.79-6.07,3.44-6.88,6.86-.27,1.14-.77,2.39-1.63,3.67-.53.79-.76,1.7-.76,2.68,0,1.6,1.02,2.97,2.38,3.8,1.42.87,1.55,2.42,2.47,3.84,1.04,1.61,1.28,3.32,4.19,5.61,4.26,2.23,15.38,4.29,17.96,1.86,2.72-2.55,1.09-12.51.64-14.14-.45-1.63-1.35-3.05-1.55-4.11s-2.51-10.04-4.68-11.51Z" fill="#f5aa8d"/>
          <path d="m906.14,391.77s8.31,4.44,14.67-.74c6.36-5.18,3.79-9.31,3.79-9.31,0,0-1.23.88-3.14-.23-1.91-1.11-10.74-7.48-21.62,1.38,0,0-2.45,2.1-3.15,3.89,0,0-2.08.04-2.8,2.39-.72,2.35-.52,8.95,5.78,16.16,0,0,.69.97,1.34,2,.98,1.59,3.53.99,3.54-.88,0-.6-.17-1.32-.6-2.18-.68-1.34-6.05-4.28-1.97-6.75,3.33-2.01,4.66,5.95,6.6,5.77,1.95-.18,1.86-2.95-.05-5.92-2.16-3.37-1.93-3.61-2.39-5.57Z" fill="#1e2541"/>
          <path d="m902.07,399.81s1.04-.87,2.03-.55c.65.21,1.66,1.23,1.22,2.57-.18.56-1.38,1.16-1.67-.57-.16-.93-.5-1.23-1.58-1.46Z" fill="#ca5645"/>
          <path d="m923.34,397.22c.19.49-.07,1.04-.58,1.23-.5.19-1.06-.05-1.25-.54-.19-.49.07-1.04.58-1.23.5-.19,1.06.05,1.25.54Z" fill="#100142"/>
          <path d="m916.67,399.82c.2.53-.14,1.16-.76,1.39s-1.29,0-1.49-.54c-.2-.53.14-1.16.76-1.39.62-.23,1.29,0,1.49.54Z" fill="#100142"/>
          <path d="m922.11,405.88s-.07.03-.1.05c-.17.07-.36,0-.43-.15-.07-.16.02-.33.19-.42.64-.28,1.01-.57,1.05-.82.07-.4-.63-.89-1.13-1.25-.2-.14-.38-.27-.52-.39-.85-.73-1.84-2.89-1.89-2.98-.07-.15,0-.34.18-.42.17-.08.36-.02.43.14,0,.02.98,2.14,1.74,2.78.13.11.3.23.48.36.67.47,1.49,1.06,1.37,1.81-.08.48-.52.9-1.35,1.28Z" fill="#e37c58"/>
          <path d="m922.99,408.71c-.52.31-1.82.35-2.99.04-.14-.04-.23-.18-.19-.33.04-.14.19-.23.33-.19,2.21.59,3.49-1.19,3.51-1.26.05-.14.2-.21.34-.16.14.05.21.2.16.34,0,.01-.49,1.15-1.17,1.56Z" fill="url(#uuid-60a63d57-4477-4d15-8b88-417fac9aee3a)"/>
          <path d="m913.03,399.74c-.1.05-.23.03-.32-.05-.13-.11-.15-.31-.04-.44.06-.07,1.52-1.79,3.87-1.99.17-.01.32.11.34.28.01.17-.11.32-.28.34-2.09.17-3.43,1.75-3.44,1.77-.03.04-.07.07-.11.09Z" fill="#100142"/>
          <path d="m920.45,395.73c-.19.14-.24.36-.11.48.13.12.39.1.58-.04.02-.01,1.13-.84,2.47-1.13,0-.05-.03-.11-.04-.15,0-.1-.03-.27-.06-.47-1.54.36-2.78,1.26-2.85,1.32Z" fill="#100142"/>
          <path d="m884.79,525.52s-4.65,17.14-8.84,24.23c0,0-.36,15.3,12.36,6.44,0,0,14.13-19.56,15.65-24.67,1.52-5.1-9.2-5.61-19.17-6Z" fill="#f5aa8d"/>
          <path d="m888.76,549.82c-2.66.33-5-.03-6.96-1.99-1.2-1.2-2.18-2.69-2.91-4.32-.96,2.4-1.96,4.59-2.94,6.24,0,0-.36,15.3,12.36,6.44,0,0,2.3-3.18,5.14-7.31-1.55.4-3.11.74-4.69.94Z" fill="#ca5645"/>
          <path d="m964.06,538.91c-1.24,2.38-2.86,4.1-5.59,4.6-1.66.31-3.45.27-5.21-.06,1.43,2.15,2.67,4.22,3.47,5.96,0,0,12.39,8.99,12.32-6.51,0,0-1.31-3.7-3.09-8.38-.55,1.51-1.16,2.98-1.89,4.39Z" fill="#ca5645"/>
          <path d="m928.12,524.17s24.96,19.78,27.3,20.07c1.14.14,3.94-.89,5.04-1.12,5.9-1.24,5.16-6.48,5.63-8.21.18-.68-17.42-24.56-20.09-26.54-3.37-2.51-19.6,10.07-17.88,15.82Z" fill="#f5aa8d"/>
          <path d="m953.18,538.31c-4.9-2.64-17.38-18.13-21.73-21.59-2.39,2.7-3.92,5.47-3.33,7.44,0,0,24.06,19.45,27.79,23.23.81.82,3.44-4.06,4.55-4.29.96-.2,1.8-.42,2.56-.66-3.67-1.13-7.11-2.67-9.85-4.14Z" fill="#ca5645"/>
          <path d="m892.58,489.95s-8.05,15.8-7.01,18.64c1.04,2.85-5.83,15.6-7.62,18.73,0,0,26.42,3.8,29.54,8.08,0,0,7.17-20.09,8.62-20.43,1.45-.34,18.65,16.43,18.65,16.43,0,0,7.38-17.87,19.67-20.05,0,0-14.85-11.82-23.84-16.87-8.99-5.05-29.02-5.37-38.02-4.55Z" fill="url(#uuid-9213b775-ace4-44da-8f41-0b69d17c3b7c)"/>
          <path d="m933.04,529.74c1.06,1.02,1.73,1.67,1.73,1.67,0,0,7.38-17.87,19.67-20.05,0,0-.46-.38-1.98-1.55-11.49,2.69-15.29,11.25-19.42,19.93Z" fill="#100142"/>
          <path d="m883.37,525.38c-1.35-.09-2.75-.2-4.15-.37-.52.97-.97,1.78-1.27,2.31,0,0,26.42,3.8,29.55,8.08,0,0,.42-1.18,1.08-2.96-8.01-3.93-15.53-6.46-25.19-7.07Z" fill="#100142"/>
          <path d="m890.9,529.63c-.59-1.4-1-2.93-1.08-4.79-.19-4.71,3.88-6.44,5.11-10.47,1.4-4.59-3.84-8.12-2.25-13.04,1.3-4.04,3.33-7.8,5.13-11.67-1.96.06-3.75.16-5.22.29,0,0-8.05,15.8-7.01,18.64,1.04,2.85-5.83,15.6-7.62,18.73,0,0,6.21.89,12.96,2.3Z" fill="#5a71b3" mix-blend-mode="multiply" opacity=".55"/>
          <path d="m934.81,524.34c-1.5-3.5-1.08-5.23-5.29-6.5-1.34-.4-3.02-.91-3.68-2.29-1.01-2.08-.98-3.52.11-5.6,1.35-2.56-3.82-.73-4.99-.45-4.03.97-6.57.3-9.31-1.12.57,2.54.86,5.26-.59,7.32-1.91,2.71-3.42,4.21-3.33,7.77.05,1.64.17,3.28-.28,4.89-.39,1.38-1.18,3.56-2.32,5.4,1.11.54,1.95,1.1,2.36,1.66,0,0,7.17-20.09,8.62-20.43s18.65,16.43,18.65,16.43c0,0,.8-1.94,2.31-4.61-.96-.49-1.76-1.27-2.27-2.47Z" fill="#5a71b3" mix-blend-mode="multiply" opacity=".55"/>
          <path d="m850.66,602.34s10.84-22.37,13.8-32.08c1.16-3.8,1.12-8.85,2.64-12.06,2.38-4.99,6.23-9.66,10.44-11.61,0,0,1.25,7.25,11.46,8.48,0,0-.67,6.4-3.19,11.51-1.22,2.47-15.09,18.93-23.14,30.38-1.93,2.74-3.47,6.57-4.02,8.66,0,0-4.93,1.04-8-3.27Z" fill="#eaf0fc"/>
          <path d="m865.51,576.59c3.9-6.57,1.88-13.48,4.91-20.1,1.5-3.28,6.28-2.81,7.84-7.97-.57-1.12-.71-1.94-.71-1.94-4.21,1.96-8.06,6.62-10.44,11.61-1.53,3.21-1.49,8.26-2.64,12.06-2.96,9.71-13.8,32.08-13.8,32.08.45.64.95,1.14,1.46,1.57,4-8.74,9.15-20.16,13.39-27.32Z" fill="#b1c8d3"/>
          <path d="m850.62,602.05s-5.95,6.9-8.72,9.41c-11.58,10.49,5.21,14.24,9.93,12.04,4.72-2.2,2.98-8.01,5.06-11.06,2.28-3.34,1.92-4.6,1.73-7.12,0,0-3.87.26-8-3.27Z" fill="#1e2541"/>
          <path d="m985.86,600.19s-7.12-23.82-8.49-33.87c-.54-3.94.32-8.92-.68-12.33-1.55-5.31-4.6-10.53-8.45-13.14,0,0-2.39,6.95-12.67,6.54,0,0-.37,6.42,1.31,11.87.81,2.63,11.87,21.11,17.98,33.69,1.46,3.01,2.38,7.04,2.58,9.19,0,0,4.7,1.82,8.42-1.95Z" fill="#eaf0fc"/>
          <path d="m958.85,547.25c0,2.07.54,4.09.76,6.21,1.09,10.35,14.87,34.55,16.93,38.5,1.36,2.6,3.53,10.29,3.56,10.62-2.38.47-2.65-.43-2.65-.43-.21-2.15-1.12-6.18-2.58-9.19-6.11-12.58-17.17-31.06-17.98-33.69-1.67-5.45-1.31-11.87-1.31-11.87,1.2.05,2.27-.01,3.27-.14Z" fill="#b1c8d3"/>
          <path d="m933.07,450.78s-8.81-17.89-1.85-27.05c0,0-7.84-.02-12.52-2.7-.24-.14-.45-.3-.68-.44-.11,1.19-.95,8.14-6.27,8.13-5.37,0-10.79-6.05-11.59-6.97-.07.06-.13.12-.2.18-2.77,2.21-5.26,3.63-8.67,4.77-3.98,1.34-13.13,1.24-13.29,1.39,0,0,12.53,14.98,6.17,28.3,0,0,7.18,14.96,6.69,22.16s-7.1,17.49-3.84,23.63c0,0,14.41-8.88,27.5-5.46,13.09,3.42,20.09.07,20.09.07,0,0,.15-6.27-3.63-14.5-3.78-8.23,1.25-23.44,2.09-31.48Z" fill="url(#uuid-13312aa4-458f-43f5-8b24-e12cd99d5982)"/>
          <path d="m914.56,494.79c-13.38-3.49-28.02,5.98-28.02,5.98-.04-.08.22.88.5,1.4,0,0,14.41-8.88,27.5-5.46,13.09,3.42,20.09.07,20.09.07,0,0,0-.46-.05-1.28-1.97.71-8.86,2.21-20.01-.7Z" fill="#1e2541"/>
          <path d="m929.03,423.62c-4.42,9.24-2.36,21.37,3.71,29.55.14-.84.26-1.66.33-2.39,0,0-8.81-17.89-1.85-27.05,0,0-.87,0-2.19-.11Z" fill="#100142"/>
          <path d="m884.18,456.38s.27.56.7,1.51c4.31-6.17,3.2-11.92.85-19.54-1.07-3.46-2.74-7.01-4.62-10.41-1.77.07-3.04.09-3.1.15,0,0,12.53,14.98,6.17,28.3Z" fill="#100142"/>
          <path d="m910.97,480.05c-6.02-3.4-12.98-6-11.37-14.52,1.1-5.82,7.89-9.99,3.51-16.37-3.07-4.47-8.55-7.53-10.85-12.51-1.48-3.2-1.92-6.74-1.58-9.78-3.84,1.2-12.53,1.07-12.69,1.21,0,0,12.53,14.98,6.17,28.3,0,0,7.18,14.96,6.69,22.16s-7.1,17.49-3.84,23.63c0,0,10.23-6.31,21.28-6.25-.1-.68-.17-1.36-.17-2.05-.03-2.64,5.22-12.47,2.84-13.82Z" fill="#5a71b3" mix-blend-mode="multiply" opacity=".55"/>
          <path d="m930.98,482.26c-3.07-6.69-.32-17.98,1.26-26.3.37-1.92.67-3.68.83-5.19,0,0-3.77-7.69-4.41-15.57-2.26,2.21-5.14,4.94-5.07,8.24.1,4.16,2.61,7.6,3.26,11.64.44,2.77-.92,5.3-2.02,7.72-2.75,6-1.04,9.29.65,15.14,2.02,7.02-2.47,13.71-2.1,20.22.86.05,1.67.07,2.44.07.1,0,.19,0,.29,0,1.53-.02,2.85-.14,3.98-.3.06,0,.11-.02.17-.02,1.11-.17,2.01-.37,2.7-.56.04-.01.08-.02.12-.03.66-.19,1.11-.36,1.35-.45.02,0,.05-.02.07-.03.07-.03.14-.06.14-.06,0,0,.15-6.27-3.63-14.5Z" fill="#5a71b3" mix-blend-mode="multiply" opacity=".55"/>
          <path d="m977.29,602.42s-4.69,8.74.3,10.66c4.99,1.92,7.65,2,11.4,5.25,3.75,3.25,11.39,7.05,14.14,3.94,2.75-3.11.88-8.91-8.02-15.49-8.91-6.59-9.34-7.14-9.34-7.14,0,0-3.42,1.82-8.47,2.78Z" fill="#1e2541"/>
        </g>
        <g>
          <g>
            <path d="m1195.35,281.25s17.06-1.27,25.62-10.66c0,0,5.91,13.93,9.97,18.99,0,0,13.11-12.64,15.18-18.99,0,0,9.58,17.31,13.37,21.07,0,0,10.37-12.06,11.27-18.45,0,0,15.64,11.36,25.91,10.45,0,0-13.12-22.56-10.61-51.1,1.9-21.6,30.38-70.43,44.17-92.98h-5.05c-4.79,7.66-11.46,18.56-18.16,30.33l-12.63-30.09-3.27.6-9.21-.28-11.28,29.67-.24.22-9.79-28.29-11.14-.76.39.61-5.43-1.55-8.46,25.31-12.1-25.78h-8.91l.3.44-1.03-.44h-10.17l-3.38,18.49c-3.59-6.99-7.33-13.3-10.95-18.49h-7.83c10.2,13.11,25.8,36.16,30.49,59.85,7.12,35.91-4.9,62.37-17.03,81.81Zm11.29-110.52l12.35,15.61-3.08,10.46c-2.39-8.73-5.61-17.62-9.27-26.07Zm16.76,17.02l12.77,22.02-9.31,19.72-7.48-16.22c-.04-.3-.05-.6-.09-.91-.44-3.01-1.07-6.1-1.78-9.23l5.9-15.39Zm11.11-19.66l-11.22,16.09-19.54-21.47,11.56-22.56,19.2,27.95Zm11,17.04l-7.29,22.14-10.08-21.64,7.69-11.56,9.67,11.06Zm6.08,2.32l11.06,23.85-10.78,16.46-11.94-17.44-.63.31,12.3-23.18Zm17.22-16.02l-16.35,14.55-.3.02-14.64-17.86,14.93-22.41,16.35,25.7Zm9.75,24.19l-11.99,14.4-8.19-20.97,10.74-10.26,9.45,16.83Zm23.97-22.91l-21.41,19.85-9.41-18.67-.46-1.32c5.83-4.54,15.5-23.35,18.75-29.86l12.53,30.01Zm-14.06,33.56l-5.12-9.47,15.48-11.97c-3.94,7.47-7.56,14.82-10.36,21.44Zm-5.71,18.49c-.06.64-.09,1.29-.14,1.93l-5.38,8.15-9.39-20.38,12.93-14.96,6.09,10.7c-2.23,5.72-3.72,10.73-4.1,14.55Zm-4.76,13.25l4.3-4.52c-.08,6.83.46,13.55,1.29,19.65l-7.41-10.96,1.82-4.17Zm-4.18,29.39l2.08-18.99,8.52,10.11c1.8,10.39,4.27,18.05,5.38,19.48l-15.98-10.6Zm-4.49-4.39l-16.64-24.68,11.39-21.36,9.96,25.27-4.71,20.78Zm-21.85.86l4.49-21.8,15.09,25-8.48,17.6-11.1-20.8Zm-6.48-4.64l-10.44-21.21,7.99-23.69,11.72,23.21-9.27,21.69Zm-18.78,5.16l6.16-21.44,13.14,24.01-11.45,12.6-7.85-15.17Zm-2.1-3.68l-4.26-12.05c2.38-7.64,4.13-16.51,4.12-26l6.53,14.18-6.39,23.87Zm-1.47,3.42c-3.48,2.63-9.95,7.38-14.58,9.98,0,0,4.67-6.79,8.96-17.45l5.63,7.47Z" fill="#ebf1f4"/>
            <polygon points="1243.59 264.68 1243.59 264.68 1242.78 265.57 1243.59 264.68" fill="#ebf1f4"/>
          </g>
          <rect x="1174.43" y="119.93" width="161.82" height="23.45" fill="url(#uuid-cbb08dc2-d779-4b91-af2c-fbd2501e60d7)"/>
          <rect x="1174.43" y="133.04" width="161.82" height="10.34" fill="url(#uuid-2125df8f-e263-4a1b-88d9-39655638c33f)" mix-blend-mode="multiply" opacity=".75"/>
          <path d="m1431.6,156.28h17.81c6.41,0,12.49,2.86,16.59,7.8l17.85,21.55v-76.04h-52.24v46.69Z" fill="#1e2541"/>
          <path d="m1331.77,146.2h28.56c10.29,0,8.67,21.22,15.23,24.29l41.73,8.97-1.72-62.31h-83.8v29.05Z" fill="#1e2541"/>
          <path d="m1406.46,260.54h32.35c1.83,0,3.31-1.48,3.31-3.3V101.67c0-1.82-1.48-3.3-3.31-3.3h-32.35c-1.83,0-3.31,1.48-3.31,3.3v155.57c0,1.82,1.48,3.3,3.31,3.3Z" fill="#1e2541"/>
          <rect x="1399.01" y="40.27" width="47.24" height="197.25" rx="4.01" ry="4.01" fill="url(#uuid-dbacab78-63de-424d-8164-e03f974f5c00)"/>
          <path d="m1446.26,194.76v38.75c0,2.21-1.79,4.01-4.01,4.01h-39.23c-2.21,0-4.01-1.79-4.01-4.01v-38.75h47.24Z" fill="#aa3b1d" mix-blend-mode="multiply" opacity=".55"/>
          <rect x="1467.81" y="92.26" width="43.19" height="98.28" rx="4.01" ry="4.01" fill="url(#uuid-ecbe4fc0-8172-49cf-ad2f-dfe65fad7581)"/>
          <path d="m1511,146.31v40.22c0,2.21-1.79,4.01-4.01,4.01h-35.17c-2.21,0-4.01-1.79-4.01-4.01v-40.22h43.19Z" fill="#1e2541"/>
        </g>
      </g>
    </g>
  </g>
</svg>