<?xml version="1.0" encoding="UTF-8"?>
<svg xmlns="http://www.w3.org/2000/svg" viewBox="0 0 1621.61 558.12">
  <g isolation="isolate">
    <g id="uuid-d1c15f16-2b25-4d64-81da-18924d3a18a2" data-name="OBJECTS">
      <g>
        <path d="m1413.19,506.42c0-.06,0-.13,0-.19h0c.02-.38.03-.76.03-1.14,0-.05,0-.1,0-.14,0-.06,0-.13,0-.19,0-.3-.01-.6-.03-.9,0-.1,0-.2-.02-.3-.02-.37-.06-.74-.1-1.12-.02-.14-.04-.29-.06-.43-.03-.25-.07-.5-.11-.75-.03-.17-.06-.35-.09-.52-.05-.25-.1-.51-.15-.76-.06-.31-.13-.61-.21-.92-.04-.18-.09-.36-.13-.54-.06-.24-.13-.49-.2-.73-.04-.13-.08-.27-.12-.4-.27-.88-.58-1.78-.94-2.68-.03-.07-.05-.13-.08-.2-.4-.99-.85-1.99-1.36-3,0,0,0-.02-.01-.02-1.33-2.65-3.02-5.35-5.09-8.07-.05-.06-.11-.14-.17-.2-.16-.19-.32-.39-.49-.6-.09-.11-.19-.22-.28-.33-.16-.19-.32-.38-.49-.58-.09-.1-.18-.21-.27-.31-.2-.23-.42-.47-.64-.72-.07-.07-.13-.15-.2-.22-7.7-8.56-24-23.64-44.32-35.37v-4.81s0-.02,0-.03c0-.01,0-.02,0-.03v-.24h0s0-.03,0-.04c0-.28-.12-.56-.35-.83,0,0,0,0,0,0-.02-.02-.04-.05-.06-.07,0,0,0,0,0,0-.11-.12-.25-.24-.41-.36,0,0,0,0,0,0-.13-.09-.27-.18-.42-.27,0,0,0,0,0,0-.04-.02-.08-.04-.12-.06,0,0,0,0,0,0-.04-.02-.08-.04-.12-.06,0,0,0,0,0,0-.04-.02-.08-.04-.12-.06,0,0,0,0,0,0-.04-.02-.08-.04-.13-.06,0,0,0,0,0,0-.04-.02-.09-.04-.13-.06,0,0,0,0,0,0-.09-.04-.19-.08-.29-.12h0s0,0,0,0c-.05-.02-.1-.04-.15-.06,0,0,0,0,0,0-.05-.02-.1-.04-.15-.06,0,0,0,0,0,0-.05-.02-.1-.04-.15-.05-.06-.02-.11-.04-.17-.06-.05-.02-.11-.03-.16-.05,0,0,0,0,0,0-.05-.02-.11-.03-.17-.05,0,0,0,0,0,0-.06-.02-.11-.03-.17-.05-.24-.07-.49-.13-.74-.19-.06-.01-.13-.03-.19-.04,0,0,0,0,0,0-.19-.04-.39-.08-.59-.12-.14-.03-.28-.05-.42-.07-.07-.01-.14-.02-.2-.03,0,0,0,0,0,0-.07-.01-.14-.02-.21-.03,0,0,0,0,0,0-.07-.01-.14-.02-.21-.03-.15-.02-.3-.04-.45-.06-.07,0-.14-.02-.22-.02,0,0,0,0,0,0-.02,0-.04,0-.05,0-.28-.03-.57-.06-.86-.08-.04,0-.08,0-.12,0-.04,0-.07,0-.11,0-.31-.02-.62-.04-.94-.05h0c-.08,0-.15,0-.23,0h0c-.08,0-.15,0-.23,0h0c-.08,0-.15,0-.23,0h0c-.08,0-.15,0-.23,0h-.04c-.2,0-.4,0-.6,0-.04,0-.07,0-.11,0-.01,0-.02,0-.03,0-.07,0-.14,0-.21,0-.01,0-.02,0-.03,0-.07,0-.14,0-.2,0,0,0-.02,0-.03,0-.07,0-.14,0-.2,0-.01,0-.02,0-.03,0-.07,0-.14,0-.2.01-.14,0-.28.02-.42.03-.01,0-.03,0-.04,0,0,0-.02,0-.03,0-.07,0-.14.01-.21.02,0,0-.01,0-.02,0-.07,0-.13.01-.2.02-.01,0-.02,0-.03,0-.07,0-.13.01-.2.02-.22.02-.45.05-.67.07,0,0,0,0-.01,0,0,0-.02,0-.02,0-.06,0-.13.02-.19.03,0,0-.02,0-.03,0-.06,0-.13.02-.19.03-.12.02-.25.04-.37.06-.02,0-.04,0-.06,0,0,0-.02,0-.03,0-.07.01-.13.02-.2.03-.03,0-.07.01-.1.02-.04,0-.07.01-.11.02,0,0,0,0-.01,0-.06.01-.12.02-.18.03,0,0-.02,0-.03,0-.06.01-.12.02-.17.04-.12.03-.24.05-.36.08,0,0-.02,0-.03,0-2.34-1.02-4.71-1.97-7.11-2.84h-426.66c-2.49.91-4.96,1.9-7.39,2.96-.02,0-.04-.01-.06-.02,0,0-.01,0-.02,0,0,0,0,0,0,0-.06-.02-.12-.03-.18-.05,0,0,0,0,0,0-.06-.01-.11-.03-.17-.04,0,0-.02,0-.02,0-.06-.01-.11-.03-.17-.04-.07-.02-.15-.03-.22-.05-.06-.01-.12-.02-.17-.04,0,0-.02,0-.03,0-.06-.01-.13-.02-.19-.04,0,0,0,0-.01,0-.06-.01-.13-.02-.19-.03,0,0,0,0-.01,0-.06-.01-.12-.02-.18-.03,0,0-.02,0-.03,0-.02,0-.03,0-.05,0-.13-.02-.25-.04-.38-.06-.14-.02-.29-.04-.43-.06,0,0,0,0,0,0,0,0,0,0,0,0-.22-.03-.44-.05-.67-.07-.07,0-.13-.01-.2-.02-.01,0-.02,0-.03,0-.07,0-.14-.01-.22-.02,0,0,0,0-.01,0-.07,0-.13-.01-.2-.02,0,0-.02,0-.03,0-.01,0-.03,0-.04,0-.14-.01-.28-.02-.42-.03-.15,0-.31-.02-.46-.02h0c-.07,0-.14,0-.2,0-.01,0-.02,0-.03,0-.07,0-.14,0-.2,0-.01,0-.02,0-.03,0-.07,0-.14,0-.2,0h-.03c-.07,0-.14,0-.21,0h-.03c-.08,0-.16,0-.24,0h-.04c-.51,0-1.01.01-1.51.04-.16,0-.32.02-.48.03-.09,0-.18.01-.27.02-.03,0-.05,0-.08,0,0,0,0,0,0,0-.02,0-.04,0-.07,0-.19.02-.37.03-.55.05-.02,0-.04,0-.05,0,0,0,0,0,0,0-.07,0-.14.02-.22.02,0,0,0,0,0,0-.07,0-.14.02-.21.03,0,0,0,0,0,0-.07,0-.14.02-.21.03,0,0,0,0,0,0-.07,0-.14.02-.21.03,0,0,0,0,0,0-.07.01-.14.02-.21.03,0,0,0,0,0,0-.07.01-.14.02-.2.03,0,0,0,0,0,0-.07.01-.13.02-.2.03,0,0,0,0,0,0-.07.01-.13.02-.2.04-.02,0-.04,0-.06.01-.18.03-.37.07-.54.11-.03,0-.06.01-.09.02-.1.02-.2.04-.29.07,0,0,0,0,0,0-.06.01-.12.03-.18.04,0,0,0,0,0,0-.06.01-.12.03-.18.05,0,0,0,0,0,0-.06.02-.12.03-.17.05,0,0,0,0,0,0-.06.02-.11.03-.17.05,0,0,0,0,0,0-.06.02-.11.03-.17.05,0,0,0,0,0,0-.05.02-.11.03-.16.05,0,0,0,0,0,0-.05.02-.11.03-.16.05,0,0,0,0,0,0-.05.02-.1.04-.15.05,0,0,0,0,0,0-.05.02-.1.04-.15.06,0,0,0,0,0,0-.05.02-.1.04-.15.06,0,0,0,0,0,0-.1.04-.19.08-.28.12,0,0,0,0,0,0-.04.02-.09.04-.13.06,0,0,0,0,0,0-.04.02-.09.04-.13.06,0,0,0,0,0,0-.04.02-.08.04-.12.06,0,0-.02,0-.03.01-.03.02-.07.03-.1.05,0,0,0,0,0,0-.04.02-.08.04-.12.06,0,0,0,0,0,0-.15.09-.29.18-.42.27,0,0-.01,0-.02.01-.15.11-.28.23-.39.35,0,0,0,0,0,0-.02.02-.04.05-.06.07,0,0,0,0,0,0-.23.27-.35.55-.35.83,0,.01,0,.03,0,.04v.21s0,.05,0,.07c0,.02,0,.04,0,.06v5.2c-20.86,12.19-37.4,27.81-44.56,36.03-.02.02-.04.04-.06.07-.27.31-.53.61-.77.9-.01.01-.02.03-.03.04-.25.3-.5.6-.72.87-2.89,3.79-5.05,7.55-6.49,11.17,0,.01-.01.03-.02.04-.39.97-.72,1.93-1,2.87-.02.08-.05.15-.07.23-.08.28-.16.56-.23.84-.03.11-.05.22-.08.33-.11.44-.21.88-.29,1.31-.03.16-.07.32-.1.48-.04.21-.07.43-.11.64-.03.2-.06.39-.08.59-.03.19-.05.38-.07.56-.04.35-.07.7-.09,1.04-.01.15-.02.3-.02.45-.01.24-.02.48-.02.72,0,.15,0,.31,0,.46,0,.29,0,.59.02.87,0,.07,0,.14,0,.21,0,.06,0,.13,0,.19h-.02s0,0,0,0h0s0,25.26,0,25.26v6.47h0s0,0,0,0l.04-.03c.31,5.05,2.41,9.43,6.24,12.72,0,0,.02.01.03.02.76.65,1.59,1.26,2.49,1.82.02.02.05.03.07.05.89.55,1.85,1.06,2.87,1.52.04.02.08.04.13.06.48.21.98.42,1.49.61.03.01.07.03.1.04.54.2,1.09.38,1.66.56.05.02.11.03.17.05.51.15,1.04.3,1.58.43.08.02.16.04.25.06.59.14,1.19.27,1.81.39.06.01.12.02.17.03.56.1,1.13.19,1.71.27.12.02.25.04.37.05.64.08,1.3.16,1.97.22.03,0,.07,0,.1,0,.63.05,1.28.09,1.93.12.15,0,.31.01.47.02.7.03,1.41.05,2.13.05h526.83c.73,0,1.43-.02,2.13-.04.16,0,.32-.01.47-.02.65-.03,1.29-.07,1.92-.12.04,0,.08,0,.12,0,.67-.06,1.32-.13,1.96-.22.13-.02.26-.04.39-.05.57-.08,1.13-.17,1.68-.27.07-.01.13-.02.2-.03.61-.12,1.21-.24,1.79-.38.09-.02.18-.05.28-.07.52-.13,1.04-.27,1.54-.42.07-.02.13-.04.2-.06.56-.17,1.11-.36,1.64-.55.05-.02.09-.04.14-.05.49-.19.97-.38,1.44-.59.05-.02.11-.05.16-.07,1.01-.45,1.95-.95,2.83-1.5.04-.02.08-.05.11-.07.88-.55,1.7-1.15,2.46-1.79.02-.02.04-.04.06-.05.76-.65,1.45-1.35,2.07-2.08,0,0,.02-.02.02-.03,2.5-2.96,3.89-6.56,4.13-10.59l.04.03h0v-3.54h0v-2.92h0v-25.26h0s-.02,0-.02,0Z" fill="#6e65b6" mix-blend-mode="multiply" opacity=".3"/>
        <g id="uuid-f9cd35a3-8b9c-4f4b-a512-61ea70c4304d" data-name="g5721">
          <g id="uuid-694be381-e5a9-4a3d-8d3c-7c24a6c40451" data-name="g3217">
            <path id="uuid-1ed0c173-50c8-4244-9de5-0cd7ec6f2cd0" data-name="path1078" d="m940.63,432.3c-42.34,0-83.65,35.69-98.03,51.45l-11.78-5.16v31.73l.04-.03c.68,11.17,10.13,19.08,27.74,19.08h526.83c17.62,0,27.07-7.91,27.74-19.08l.04.03v-31.73l-11.78,5.16c-14.38-15.75-55.69-51.45-98.03-51.45h-362.78Z" fill="#d5bfef"/>
            <path id="uuid-27deff33-f88b-401c-85d6-03ece9bac619" data-name="path1094" d="m842.37,453.81c-1.12,1.27-2.09,2.43-2.86,3.41-16.46,22.23-9.25,43.31,19.09,43.31h526.83c28.34,0,35.55-21.07,19.09-43.31-.77-.98-1.74-2.14-2.86-3.41h-559.29Z" fill="#e7d4f4"/>
            <path id="uuid-c91cbb29-57e8-42cd-9be5-e21c802cf249" data-name="rect1058" d="m940.63,400.57c-45.93,0-90.68,42.03-101.11,55.01-16.46,21.59-9.25,42.05,19.09,42.05h526.83c28.34,0,35.55-20.46,19.09-42.05-10.44-12.98-55.18-55.01-101.11-55.01h-362.78Z" fill="#fff"/>
            <path id="uuid-dfe2355a-a920-490a-8365-e34eab03f2ae" data-name="path1089" d="m830.82,503.84v2.93c.39.43.78.84,1.19,1.24,4.71,4.55,10.93,7.15,18.44,7.15h543.12c7.52,0,13.73-2.6,18.44-7.15.41-.4.81-.82,1.2-1.25v-2.92c-.78,1.01-1.61,1.95-2.5,2.82-4.37,4.23-10.04,6.62-17.13,6.62h-543.12c-7.09,0-12.76-2.39-17.13-6.62-.89-.86-1.72-1.8-2.51-2.82h0Z" fill="#be93e0"/>
            <path id="uuid-b729cac2-7845-4307-9d7f-239da326676e" data-name="path1100" d="m1002.8,403.49c-30.19,0-59.6,43.86-66.45,54.45-10.82,17.6-6.08,24.71,12.55,24.71h346.25c18.63,0,23.37-7.1,12.55-24.71-6.86-10.59-36.26-54.45-66.45-54.45h-238.43Z" fill="#b0d9fd"/>
            <path id="uuid-f84e389c-8f80-482e-a43d-0e2c84f072fa" data-name="path2705" d="m972.52,416.16c-.55.43-1.09.87-1.63,1.31h302.26c-.54-.44-1.08-.88-1.63-1.31h-299Zm-8.04,6.99c-.46.44-.92.87-1.37,1.31h317.83c-.45-.44-.91-.87-1.37-1.31h-315.08Zm-6.85,6.99c-.4.44-.81.87-1.2,1.31h331.18c-.39-.44-.8-.87-1.2-1.31h-328.79Zm-6.08,6.99c-.36.44-.73.88-1.08,1.31h343.11c-.35-.43-.72-.87-1.08-1.31h-340.95Zm-5.52,6.99c-.34.45-.66.88-.98,1.31h353.96c-.32-.43-.64-.86-.98-1.31h-352Zm-5.07,6.99c-.3.43-.64.9-.92,1.31h363.98c-.28-.41-.62-.88-.92-1.31h-362.14Zm-4.7,6.99c-.27.44-.53.88-.78,1.31h373.1c-.25-.43-.51-.87-.78-1.31h-371.54Z" fill="#ccf4ff"/>
            <path id="uuid-f61b5e03-6542-47dc-bb72-fa96b2a33590" data-name="path1114" d="m931.97,466.57c-4.23,11.34,1.71,16.08,16.93,16.08h346.25c15.22,0,21.16-4.74,16.93-16.08h-380.1Z" fill="#ccf4ff" fill-rule="evenodd"/>
            <path id="uuid-1ba203a7-1bfe-4385-8dac-95d9c97f222d" data-name="path1109" d="m1002.8,403.49c-30.19,0-59.6,43.86-66.45,54.45-5.26,8.56-6.83,14.64-4.93,18.62.88-2.91,2.52-6.31,4.93-10.23,6.86-10.59,36.26-54.45,66.45-54.45h238.43c30.19,0,59.6,43.86,66.45,54.45,2.41,3.92,4.04,7.31,4.93,10.23,1.91-3.98.34-10.06-4.93-18.62-6.86-10.59-36.26-54.45-66.45-54.45h-238.43Z" fill="#96b9fb"/>
            <g id="uuid-677cb203-e19f-47fd-8505-9f2bf62232fa" data-name="g1158">
              <path id="uuid-e2054f28-d844-49a7-b5f5-d16b027af6ae" data-name="rect1124" d="m886.86,454.99c10.62,0,19.17,2.88,19.17,6.46v5.12c0,3.58-8.55,6.46-19.17,6.46s-19.16-2.88-19.16-6.46v-5.12c0-3.58,8.55-6.46,19.16-6.46Z" fill="#7f52c4"/>
              <path id="uuid-7ca07975-26f5-464b-9454-56b679d18615" data-name="path1122" d="m916.43,449.31c0,9.95-13.24,18.02-29.57,18.02s-29.57-8.07-29.57-18.02,13.24-18.02,29.57-18.02,29.57,8.07,29.57,18.02Z" fill="#976dd4"/>
              <path id="uuid-6dfe5cdf-edd5-4aaf-b798-d09f64dc070d" data-name="ellipse1126" d="m857.32,448.51c-.02.27-.03.53-.03.8,0,9.95,13.24,18.02,29.57,18.02h0c16.33,0,29.57-8.07,29.57-18.02,0-.27-.01-.53-.03-.8-4.93,4.94-16.6,8.16-29.54,8.16-12.94,0-24.61-3.22-29.54-8.16h0Z" fill="#8358c8"/>
              <path id="uuid-b669497f-b186-465d-a65e-cce2283ec3a8" data-name="ellipse1133" d="m915.85,452.84c-4.2,7.29-15.87,12.19-28.99,12.19s-24.79-4.9-28.99-12.19c2.76,8.42,14.9,14.48,28.99,14.48s26.23-6.06,28.99-14.49Z" fill="#925de4"/>
              <path id="uuid-de2884ba-88d5-4aff-951f-2c162be35617" data-name="ellipse1140" d="m886.58,431.29c-16.22.09-29.29,8.13-29.29,18.02,0,.53.04,1.07.12,1.6,1.36-9.3,14.14-16.42,29.45-16.42,15.31,0,28.09,7.12,29.45,16.42.08-.53.12-1.06.12-1.6,0-9.95-13.24-18.02-29.57-18.02-.09,0-.19,0-.28,0h0Z" fill="#b0d9fd"/>
              <path id="uuid-84d4790b-d11a-4ab9-a0e5-2417f6ebdc6a" data-name="path1147" d="m909.9,442.23c-.57,2.12-4,3.05-7.67,2.06h0c-3.67-.98-6.18-3.5-5.61-5.62h0c.57-2.12,4-3.05,7.67-2.06h0c3.67.98,6.18,3.5,5.61,5.62h0Z" fill="#b0d9fd"/>
              <path id="uuid-4ec22117-a4b4-48b6-a2e0-e1f7386e10a0" data-name="ellipse1149" d="m899.28,446.46c-.31,1.15-2.18,1.66-4.17,1.12s-3.36-1.9-3.05-3.06c.31-1.15,2.18-1.66,4.17-1.12s3.36,1.9,3.05,3.06Z" fill="#b0d9fd"/>
            </g>
            <g id="uuid-04cc8935-d04f-4cdc-87f1-9d939373d3f7" data-name="g1174">
              <path id="uuid-64bfe350-a2a8-4eca-b074-9afc55a0c8c0" data-name="rect1160" d="m1354.79,454.99c-10.62,0-19.17,2.88-19.17,6.46v5.12c0,3.58,8.55,6.46,19.17,6.46s19.16-2.88,19.16-6.46v-5.12c0-3.58-8.55-6.46-19.16-6.46Z" fill="#7f52c4"/>
              <path id="uuid-03c69865-6a33-4694-9a5b-d74ff2416c84" data-name="ellipse1162" d="m1325.23,449.31c0,9.95,13.24,18.02,29.57,18.02s29.57-8.07,29.57-18.02-13.24-18.02-29.57-18.02-29.57,8.07-29.57,18.02Z" fill="#976dd4"/>
              <path id="uuid-d5ee9722-ae6f-41f8-b2e4-45421fe5ba8a" data-name="path1164" d="m1384.33,448.51c.02.27.03.53.03.8,0,9.95-13.24,18.02-29.57,18.02h0c-16.33,0-29.57-8.07-29.57-18.02,0-.27.01-.53.03-.8,4.93,4.94,16.6,8.16,29.54,8.16,12.94,0,24.61-3.22,29.54-8.16h0Z" fill="#8358c8"/>
              <path id="uuid-66a3988b-69af-4e76-ba0a-954b888f224a" data-name="path1166" d="m1325.8,452.84c4.2,7.29,15.87,12.19,28.99,12.19s24.79-4.9,28.99-12.19c-2.76,8.42-14.9,14.48-28.99,14.48s-26.23-6.06-28.99-14.49Z" fill="#925de4"/>
              <path id="uuid-cab14886-ea1f-4e21-881e-1be2ec6bc7a7" data-name="path1168" d="m1355.07,431.29c16.22.09,29.29,8.13,29.29,18.02,0,.53-.04,1.07-.12,1.6-1.36-9.3-14.14-16.42-29.45-16.42-15.31,0-28.09,7.12-29.45,16.42-.08-.53-.12-1.06-.12-1.6,0-9.95,13.24-18.02,29.57-18.02.09,0,.19,0,.28,0h0Z" fill="#b0d9fd"/>
              <path id="uuid-b47cbf03-e33a-4ae8-9b0c-d6128eb3a12e" data-name="ellipse1170" d="m1331.76,442.23c.57,2.12,4,3.05,7.67,2.06h0c3.67-.98,6.18-3.5,5.61-5.62h0c-.57-2.12-4-3.05-7.67-2.06h0c-3.67.98-6.18,3.5-5.61,5.62h0Z" fill="#b0d9fd"/>
              <path id="uuid-663d7cb8-a472-40df-aef3-8fd36504b668" data-name="ellipse1172" d="m1342.38,446.46c.31,1.15,2.18,1.66,4.17,1.12,1.99-.53,3.36-1.9,3.05-3.06-.31-1.15-2.18-1.66-4.17-1.12s-3.36,1.9-3.05,3.06Z" fill="#b0d9fd"/>
            </g>
            <g id="uuid-3c0dfd2a-5e4a-4d81-9a9e-64f842c8c53f" data-name="g1484">
              <g id="uuid-a3734d8b-4ac5-48d5-9a27-6a9fe5dae18e" data-name="g1350">
                <g id="uuid-e749e088-d955-411b-b207-6b783930708b" data-name="g1268">
                  <path id="uuid-84d35cf6-c75f-4b98-a63a-69b943189504" data-name="ellipse1203" d="m885.65,412.13v7.04s0,.02,0,.03c0,.01,0,.02,0,.03h0c.07,1.72,4.37,3.09,9.65,3.09s9.58-1.37,9.65-3.08h0s0-.03,0-.04,0-.03,0-.04v-7.03h-19.3Z" fill="#7f52c4"/>
                  <path id="uuid-214688d0-1778-4643-b341-402bf7360aba" data-name="path1218" d="m885.65,412.13v7.04s0,.02,0,.03c0,.01,0,.02,0,.03h0c.06,1.37,2.82,2.56,6.83,2.96v-4.5c4.27-.32,8.6-1.77,11.02-3.96.08-.56-3.21-1.25-3.82-1.46-.15-.05-.31-.1-.46-.15h-13.56Z" fill="#6f42bc" fill-rule="evenodd"/>
                  <path id="uuid-4da503e5-8381-42dc-b162-2aae79d4a256" data-name="path1210" d="m885.78,411.84c-.09.19-.13.38-.13.57,0,1.9,4.32,3.44,9.65,3.44h0c5.33,0,9.65-1.54,9.65-3.44h0c0-.19-.04-.38-.13-.57h-19.03Z" fill="#a97ae0"/>
                  <path id="uuid-6e5eeb78-1fbc-43fb-b1f1-2a3dbeb1944b" data-name="path1201" d="m904.95,412.09c0,1.73-4.32,3.13-9.65,3.13h0c-5.33,0-9.65-1.4-9.65-3.13h0c0-1.73,4.32-3.13,9.65-3.13h0c5.33,0,9.65,1.4,9.65,3.13h0Z" fill="#976dd4"/>
                  <path id="uuid-e3877b36-9ec1-402d-96d5-b667e017a22c" data-name="path1246" d="m895.26,408.96c-4.73,0-8.75,1.12-9.49,2.64,1.56-1.12,5-1.84,8.8-1.84,5.33,0,9.65,1.4,9.65,3.13,0,.16-.04.33-.12.49v7.11c.54-.39.83-.81.85-1.24h0s0-.03,0-.04,0-.03,0-.04v-7.03s0-.03,0-.04c0-1.73-4.32-3.13-9.65-3.13h-.04Z" fill="#b0d9fd"/>
                  <path id="uuid-da8b1dda-243c-4da8-9169-99e1142807d6" data-name="path1257" d="m903.09,411.75c-.21.73-1.6,1.09-3.12.8h0c-1.52-.29-2.58-1.11-2.38-1.85h0c.21-.73,1.61-1.09,3.12-.8h0c1.52.29,2.58,1.11,2.38,1.85h0Z" fill="#b0d9fd"/>
                  <path id="uuid-1134996c-ef8a-4d98-a0fa-b396673fd689" data-name="ellipse1259" d="m898.58,413.2c-.1.34-.76.51-1.47.38-.72-.14-1.22-.53-1.12-.87s.76-.51,1.47-.38c.72.14,1.22.52,1.12.87Z" fill="#b0d9fd"/>
                </g>
                <g id="uuid-50594c9a-ab34-4bca-bb39-ea7ddc5a6ed4" data-name="g1284">
                  <path id="uuid-42f9f2d8-20b6-4901-899e-6b5ab29539cd" data-name="path1270" d="m928.95,412.13v7.04s0,.02,0,.03c0,.01,0,.02,0,.03h0c.07,1.72,4.37,3.09,9.65,3.09s9.58-1.37,9.65-3.08h0s0-.03,0-.04c0-.01,0-.03,0-.04v-7.03h-19.3Z" fill="#7f52c4"/>
                  <path id="uuid-2c434d84-eda0-4cee-8b9e-ce888e2b4875" data-name="path1272" d="m928.95,412.13v7.04s0,.02,0,.03c0,.01,0,.02,0,.03h0c.06,1.37,2.82,2.56,6.83,2.96v-4.5c4.27-.32,8.6-1.77,11.02-3.96.08-.56-3.21-1.25-3.82-1.46-.15-.05-.31-.1-.46-.15h-13.56Z" fill="#6f42bc" fill-rule="evenodd"/>
                  <path id="uuid-95c32511-5b46-47d2-b75f-426fd861e5d0" data-name="path1274" d="m929.08,411.84c-.09.19-.13.38-.13.57,0,1.9,4.32,3.44,9.65,3.44h0c5.33,0,9.65-1.54,9.65-3.44h0c0-.19-.04-.38-.13-.57h-19.03Z" fill="#a97ae0"/>
                  <path id="uuid-555e46f0-819a-4e95-857e-1d0fc23e692b" data-name="path1276" d="m948.25,412.09c0,1.73-4.32,3.13-9.65,3.13h0c-5.33,0-9.65-1.4-9.65-3.13h0c0-1.73,4.32-3.13,9.65-3.13h0c5.33,0,9.65,1.4,9.65,3.13h0Z" fill="#976dd4"/>
                  <path id="uuid-f947ab98-2f81-41d6-8540-7e6a20caba32" data-name="path1278" d="m938.56,408.96c-4.73,0-8.75,1.12-9.49,2.64,1.56-1.12,5-1.84,8.8-1.84,5.33,0,9.65,1.4,9.65,3.13,0,.16-.04.33-.12.49v7.11c.54-.39.83-.81.85-1.24h0s0-.03,0-.04c0-.01,0-.03,0-.04v-7.03s0-.03,0-.04c0-1.73-4.32-3.13-9.65-3.13h-.04Z" fill="#b0d9fd"/>
                  <path id="uuid-34aff14e-1a13-4e4d-bab3-e9064fa397ff" data-name="ellipse1280" d="m946.4,411.75c-.21.73-1.61,1.09-3.12.8h0c-1.52-.29-2.58-1.11-2.38-1.85h0c.21-.73,1.61-1.09,3.12-.8h0c1.52.29,2.58,1.11,2.38,1.85h0Z" fill="#b0d9fd"/>
                  <path id="uuid-18c25bfc-51d2-4c99-9d64-c47cf66c8d08" data-name="ellipse1282" d="m941.89,413.2c-.1.34-.76.51-1.47.38-.72-.14-1.22-.53-1.12-.87.1-.34.76-.51,1.47-.38.72.14,1.22.52,1.12.87Z" fill="#b0d9fd"/>
                </g>
                <g id="uuid-d851c0ed-4287-404c-a843-aa9774d24d18" data-name="g1300">
                  <path id="uuid-ba201d7d-39ed-41c1-aa2d-f2f892f1f416" data-name="path1286" d="m957.45,400.01v6.23s0,.02,0,.02c0,0,0,.02,0,.03h0c.06,1.52,3.87,2.74,8.54,2.74s8.47-1.22,8.53-2.73h0s0-.02,0-.04,0-.02,0-.03v-6.22h-17.07Z" fill="#7f52c4"/>
                  <path id="uuid-39c06069-7ab4-461c-831f-bffc99f85fc8" data-name="path1288" d="m957.45,400.01v6.23s0,.02,0,.02c0,0,0,.02,0,.03h0c.05,1.21,2.49,2.27,6.04,2.62v-3.98c3.78-.29,7.61-1.56,9.75-3.5.07-.5-2.84-1.11-3.38-1.29-.14-.05-.27-.09-.41-.13h-12Z" fill="#6f42bc" fill-rule="evenodd"/>
                  <path id="uuid-3825c66f-c2eb-461d-a2c5-776879edb122" data-name="path1290" d="m957.57,399.75c-.08.17-.12.33-.12.5,0,1.68,3.82,3.05,8.54,3.05h0c4.71,0,8.54-1.36,8.54-3.05h0c0-.17-.04-.34-.12-.5h-16.84Z" fill="#a97ae0"/>
                  <path id="uuid-ac8f7903-08a0-478d-adcd-84eeaceb9589" data-name="path1292" d="m974.52,399.97c0,1.53-3.82,2.77-8.54,2.77h0c-4.71,0-8.54-1.24-8.54-2.77h0c0-1.53,3.82-2.77,8.54-2.77h0c4.71,0,8.54,1.24,8.54,2.77h0Z" fill="#976dd4"/>
                  <path id="uuid-3b649e9e-9221-4b30-8d48-e99114be4db6" data-name="path1294" d="m965.95,397.21c-4.19,0-7.74.99-8.39,2.33,1.38-.99,4.43-1.63,7.78-1.63,4.71,0,8.53,1.24,8.54,2.76,0,.14-.04.29-.11.43v6.29c.48-.35.73-.72.75-1.1h0s0-.03,0-.04,0-.02,0-.03v-6.22s0-.03,0-.04c0-1.53-3.82-2.77-8.54-2.77h-.04Z" fill="#b0d9fd"/>
                  <path id="uuid-ff763c4f-eb46-42bb-9dbb-46327b644933" data-name="ellipse1296" d="m972.88,399.68c-.18.65-1.42.96-2.76.71h0c-1.34-.25-2.28-.99-2.1-1.63h0c.18-.65,1.42-.96,2.76-.71h0c1.34.25,2.28.99,2.1,1.63h0Z" fill="#b0d9fd"/>
                  <path id="uuid-4a01fbd4-ddb9-4370-ac7c-dd75a3a26ec7" data-name="ellipse1298" d="m968.89,400.96c-.09.31-.67.46-1.3.33-.63-.12-1.08-.46-.99-.77.09-.3.67-.45,1.3-.33.63.12,1.08.46.99.77Z" fill="#b0d9fd"/>
                </g>
                <g id="uuid-ee058d12-3033-4925-9aad-189854d963fd" data-name="g1316">
                  <path id="uuid-13314f03-d9ef-49f1-94db-db579cbc10de" data-name="path1302" d="m914.23,400.01v6.23s0,.02,0,.02c0,0,0,.02,0,.03h0c.06,1.52,3.87,2.74,8.54,2.74s8.47-1.22,8.53-2.73h0s0-.02,0-.04,0-.02,0-.03v-6.22h-17.07Z" fill="#7f52c4"/>
                  <path id="uuid-b8a14dac-d3fa-4017-9bf0-d543134650cd" data-name="path1304" d="m914.23,400.01v6.23s0,.02,0,.02c0,0,0,.02,0,.03h0c.05,1.21,2.49,2.27,6.04,2.62v-3.98c3.78-.29,7.61-1.56,9.75-3.5.07-.5-2.84-1.11-3.38-1.29-.14-.05-.27-.09-.41-.13h-12Z" fill="#6f42bc" fill-rule="evenodd"/>
                  <path id="uuid-37a65977-e3fd-45df-b3d0-46d63db17b32" data-name="path1306" d="m914.35,399.75c-.08.17-.12.33-.12.5,0,1.68,3.82,3.05,8.54,3.05h0c4.71,0,8.54-1.36,8.54-3.05h0c0-.17-.04-.34-.12-.5h-16.84Z" fill="#a97ae0"/>
                  <path id="uuid-5073ecef-fc98-4975-b7b5-420e1c8dfdd3" data-name="path1308" d="m931.3,399.97c0,1.53-3.82,2.77-8.54,2.77h0c-4.71,0-8.54-1.24-8.54-2.77h0c0-1.53,3.82-2.77,8.54-2.77h0c4.71,0,8.54,1.24,8.54,2.77h0Z" fill="#976dd4"/>
                  <path id="uuid-99591c66-a7cd-4161-87cf-2f0ee9e8d8a5" data-name="path1310" d="m922.73,397.21c-4.19,0-7.74.99-8.39,2.33,1.38-.99,4.43-1.63,7.78-1.63,4.71,0,8.53,1.24,8.54,2.76,0,.14-.04.29-.11.43v6.29c.48-.35.73-.72.75-1.1h0s0-.03,0-.04,0-.02,0-.03v-6.22s0-.03,0-.04c0-1.53-3.82-2.77-8.54-2.77h-.04Z" fill="#b0d9fd"/>
                  <path id="uuid-9dd85224-0b30-4a6b-814f-75d698d1cea8" data-name="ellipse1312" d="m929.66,399.68c-.18.65-1.42.96-2.76.71h0c-1.34-.25-2.28-.99-2.1-1.63h0c.18-.65,1.42-.96,2.76-.71h0c1.34.25,2.28.99,2.1,1.63h0Z" fill="#b0d9fd"/>
                  <path id="uuid-c06fd59b-21dd-4f9c-8c8c-e3e518ab55cd" data-name="ellipse1314" d="m925.67,400.96c-.09.31-.67.46-1.3.33-.63-.12-1.08-.46-.99-.77.09-.3.67-.45,1.3-.33.63.12,1.08.46.99.77Z" fill="#b0d9fd"/>
                </g>
              </g>
              <g id="uuid-9a4dadc4-5212-466e-b7a8-68835544cf87" data-name="g1416">
                <g id="uuid-4cf113e8-7832-4791-b7e3-2f9bbc7fdd00" data-name="g1366">
                  <path id="uuid-aa703ca1-a8ac-45b3-a700-65f62b543f21" data-name="path1352" d="m1357.66,412.13v7.04s0,.02,0,.03c0,.01,0,.02,0,.03h0c-.07,1.72-4.37,3.09-9.65,3.09s-9.58-1.37-9.65-3.08h0s0-.03,0-.04,0-.03,0-.04v-7.03h19.3Z" fill="#7f52c4"/>
                  <path id="uuid-8d691ad5-6f14-45fa-b571-771af63c2911" data-name="path1354" d="m1357.66,412.13v7.04s0,.02,0,.03c0,.01,0,.02,0,.03h0c-.06,1.37-2.82,2.56-6.83,2.96v-4.5c-4.27-.32-8.6-1.77-11.02-3.96-.08-.56,3.21-1.25,3.82-1.46.15-.05.31-.1.46-.15h13.56Z" fill="#6f42bc" fill-rule="evenodd"/>
                  <path id="uuid-f234f910-b994-48fd-8384-f4d1f6dbb406" data-name="path1356" d="m1357.53,411.84c.09.19.13.38.13.57,0,1.9-4.32,3.44-9.65,3.44h0c-5.33,0-9.65-1.54-9.65-3.44h0c0-.19.04-.38.13-.57h19.03Z" fill="#a97ae0"/>
                  <path id="uuid-779cedb7-49e5-460c-8d44-e130b61f8826" data-name="path1358" d="m1338.36,412.09c0,1.73,4.32,3.13,9.65,3.13h0c5.33,0,9.65-1.4,9.65-3.13h0c0-1.73-4.32-3.13-9.65-3.13h0c-5.33,0-9.65,1.4-9.65,3.13h0Z" fill="#976dd4"/>
                  <path id="uuid-611ae621-cb25-4281-88c1-8e35e2ab1e38" data-name="path1360" d="m1348.05,408.96c4.73,0,8.75,1.12,9.49,2.64-1.56-1.12-5-1.84-8.8-1.84-5.33,0-9.65,1.4-9.65,3.13,0,.16.04.33.12.49v7.11c-.54-.39-.83-.81-.85-1.24h0s0-.03,0-.04,0-.03,0-.04v-7.03s0-.03,0-.04c0-1.73,4.32-3.13,9.65-3.13h.04Z" fill="#b0d9fd"/>
                  <path id="uuid-de02a4f5-8bf7-4d75-87e8-5e75c01fd2d7" data-name="ellipse1362" d="m1340.22,411.75c.21.73,1.61,1.09,3.12.8h0c1.52-.29,2.58-1.11,2.38-1.85h0c-.21-.73-1.6-1.09-3.12-.8h0c-1.52.29-2.58,1.11-2.38,1.85h0Z" fill="#b0d9fd"/>
                  <path id="uuid-cf470b2e-3fbb-42c3-8b34-b2dcf79b2d41" data-name="ellipse1364" d="m1344.73,413.2c.1.34.76.51,1.47.38.72-.14,1.22-.53,1.12-.87s-.76-.51-1.47-.38c-.72.14-1.22.52-1.12.87Z" fill="#b0d9fd"/>
                </g>
                <g id="uuid-3f144491-8a92-4f75-8727-a7f5e7a621e6" data-name="g1382">
                  <path id="uuid-cfc15793-fae6-42b4-bd8c-cf75878417af" data-name="path1368" d="m1314.35,412.13v7.04s0,.02,0,.03c0,.01,0,.02,0,.03h0c-.07,1.72-4.37,3.09-9.65,3.09s-9.58-1.37-9.65-3.08h0s0-.03,0-.04c0-.01,0-.03,0-.04v-7.03h19.3Z" fill="#7f52c4"/>
                  <path id="uuid-bb731ca2-634c-4d6a-9972-2e50c2a744bb" data-name="path1370" d="m1314.35,412.13v7.04s0,.02,0,.03c0,.01,0,.02,0,.03h0c-.06,1.37-2.82,2.56-6.83,2.96v-4.5c-4.27-.32-8.6-1.77-11.02-3.96-.08-.56,3.21-1.25,3.82-1.46.15-.05.31-.1.46-.15h13.56Z" fill="#6f42bc" fill-rule="evenodd"/>
                  <path id="uuid-b4518d88-2afe-4691-80cb-3894d7a6e99c" data-name="path1372" d="m1314.22,411.84c.09.19.13.38.13.57,0,1.9-4.32,3.44-9.65,3.44h0c-5.33,0-9.65-1.54-9.65-3.44h0c0-.19.04-.38.13-.57h19.03Z" fill="#a97ae0"/>
                  <path id="uuid-73a1c465-2573-4978-a434-050a8538e3b5" data-name="path1374" d="m1295.05,412.09c0,1.73,4.32,3.13,9.65,3.13h0c5.33,0,9.65-1.4,9.65-3.13h0c0-1.73-4.32-3.13-9.65-3.13h0c-5.33,0-9.65,1.4-9.65,3.13h0Z" fill="#976dd4"/>
                  <path id="uuid-b9f62ca4-207a-4061-8e03-1ed2f289f517" data-name="path1376" d="m1304.74,408.96c4.73,0,8.75,1.12,9.49,2.64-1.56-1.12-5-1.84-8.8-1.84-5.33,0-9.65,1.4-9.65,3.13,0,.16.04.33.12.49v7.11c-.54-.39-.83-.81-.85-1.24h0s0-.03,0-.04c0-.01,0-.03,0-.04v-7.03s0-.03,0-.04c0-1.73,4.32-3.13,9.65-3.13h.04Z" fill="#b0d9fd"/>
                  <path id="uuid-a4678e78-6408-49ed-b6b1-ec1d275802e3" data-name="ellipse1378" d="m1296.91,411.75c.21.73,1.61,1.09,3.12.8h0c1.52-.29,2.58-1.11,2.38-1.85h0c-.21-.73-1.6-1.09-3.12-.8h0c-1.52.29-2.58,1.11-2.38,1.85h0Z" fill="#b0d9fd"/>
                  <path id="uuid-16596bfe-c20a-4fa2-8c76-7d303bfdcb7a" data-name="ellipse1380" d="m1301.42,413.2c.1.34.76.51,1.47.38.72-.14,1.22-.53,1.12-.87s-.76-.51-1.47-.38c-.72.14-1.22.52-1.12.87Z" fill="#b0d9fd"/>
                </g>
                <g id="uuid-d5a1f83e-f092-4dc3-a063-616b0fd5b21e" data-name="g1398">
                  <path id="uuid-380d7872-11a8-4914-9848-8a0bb17f505f" data-name="path1384" d="m1285.86,400.01v6.23s0,.02,0,.02c0,0,0,.02,0,.03h0c-.06,1.52-3.87,2.74-8.54,2.74s-8.47-1.22-8.53-2.73h0s0-.02,0-.04c0-.01,0-.02,0-.03v-6.22h17.07Z" fill="#7f52c4"/>
                  <path id="uuid-12eb0be8-8ae9-4c66-9a9c-f63ec64d6305" data-name="path1386" d="m1285.86,400.01v6.23s0,.02,0,.02c0,0,0,.02,0,.03h0c-.05,1.21-2.49,2.27-6.04,2.62v-3.98c-3.78-.29-7.61-1.56-9.75-3.5-.07-.5,2.84-1.11,3.38-1.29.14-.05.27-.09.41-.13h12Z" fill="#6f42bc" fill-rule="evenodd"/>
                  <path id="uuid-ffafdf38-c3c5-46ab-905d-a19bdaa91464" data-name="path1388" d="m1285.74,399.75c.08.17.12.33.12.5,0,1.68-3.82,3.05-8.54,3.05h0c-4.71,0-8.54-1.36-8.54-3.05h0c0-.17.04-.34.12-.5h16.84Z" fill="#a97ae0"/>
                  <path id="uuid-66490130-184d-43a6-8000-213781b243e7" data-name="path1390" d="m1268.78,399.97c0,1.53,3.82,2.77,8.54,2.77h0c4.71,0,8.54-1.24,8.54-2.77h0c0-1.53-3.82-2.77-8.54-2.77h0c-4.71,0-8.54,1.24-8.54,2.77h0Z" fill="#976dd4"/>
                  <path id="uuid-f69f2e6a-2a60-48ff-86f5-98d51969cf98" data-name="path1392" d="m1277.36,397.21c4.19,0,7.74.99,8.39,2.33-1.38-.99-4.43-1.63-7.78-1.63-4.71,0-8.53,1.24-8.54,2.76,0,.14.04.29.11.43v6.29c-.48-.35-.73-.72-.75-1.1h0s0-.03,0-.04c0-.01,0-.02,0-.03v-6.22s0-.03,0-.04c0-1.53,3.82-2.77,8.54-2.77h.04Z" fill="#b0d9fd"/>
                  <path id="uuid-f7198df5-0397-466d-8c05-b8a0857441e6" data-name="ellipse1394" d="m1270.43,399.68c.18.65,1.42.96,2.76.71h0c1.34-.25,2.28-.99,2.1-1.63h0c-.18-.65-1.42-.96-2.76-.71h0c-1.34.25-2.28.99-2.1,1.63h0Z" fill="#b0d9fd"/>
                  <path id="uuid-4e148ef3-3c35-4d96-b0b0-76df6b2528f7" data-name="ellipse1396" d="m1274.42,400.96c.09.31.67.46,1.3.33.63-.12,1.08-.46.99-.77-.09-.3-.67-.45-1.3-.33-.63.12-1.08.46-.99.77Z" fill="#b0d9fd"/>
                </g>
                <g id="uuid-e86f1bb5-2a6b-4a2a-b23b-211718b26a3f" data-name="g1414">
                  <path id="uuid-49ca30a4-c508-44d7-b568-8bba4c980025" data-name="path1400" d="m1329.08,400.01v6.23s0,.02,0,.02c0,0,0,.02,0,.03h0c-.06,1.52-3.87,2.74-8.54,2.74s-8.47-1.22-8.53-2.73h0s0-.02,0-.04,0-.02,0-.03v-6.22h17.07Z" fill="#7f52c4"/>
                  <path id="uuid-fcde5382-ea21-4d2c-8e69-6696943e5bbe" data-name="path1402" d="m1329.08,400.01v6.23s0,.02,0,.02c0,0,0,.02,0,.03h0c-.05,1.21-2.49,2.27-6.04,2.62v-3.98c-3.78-.29-7.61-1.56-9.75-3.5-.07-.5,2.84-1.11,3.38-1.29.14-.05.27-.09.41-.13h12Z" fill="#6f42bc" fill-rule="evenodd"/>
                  <path id="uuid-700b09c6-44c1-4ed3-b90c-f6bc85741e53" data-name="path1404" d="m1328.96,399.75c.08.17.12.33.12.5,0,1.68-3.82,3.05-8.54,3.05h0c-4.71,0-8.54-1.36-8.54-3.05h0c0-.17.04-.34.12-.5h16.84Z" fill="#a97ae0"/>
                  <path id="uuid-0da39c5c-f25b-4237-bfa7-1fe76b546c72" data-name="path1406" d="m1312,399.97c0,1.53,3.82,2.77,8.54,2.77h0c4.71,0,8.54-1.24,8.54-2.77h0c0-1.53-3.82-2.77-8.54-2.77h0c-4.71,0-8.54,1.24-8.54,2.77h0Z" fill="#976dd4"/>
                  <path id="uuid-5f650fbc-0c74-4b29-9b4c-b5098ba02bc7" data-name="path1408" d="m1320.58,397.21c4.19,0,7.74.99,8.39,2.33-1.38-.99-4.43-1.63-7.78-1.63-4.71,0-8.53,1.24-8.54,2.76,0,.14.04.29.11.43v6.29c-.48-.35-.73-.72-.75-1.1h0s0-.03,0-.04,0-.02,0-.03v-6.22s0-.03,0-.04c0-1.53,3.82-2.77,8.54-2.77h.04Z" fill="#b0d9fd"/>
                  <path id="uuid-d8f150c4-127d-45b3-8c4d-18aa6d9568cb" data-name="ellipse1410" d="m1313.65,399.68c.18.65,1.42.96,2.76.71h0c1.34-.25,2.28-.99,2.1-1.63h0c-.18-.65-1.42-.96-2.76-.71h0c-1.34.25-2.28.99-2.1,1.63h0Z" fill="#b0d9fd"/>
                  <path id="uuid-2cc95627-ed98-4ad8-aa6f-1e2413a18f64" data-name="ellipse1412" d="m1317.64,400.96c.09.31.67.46,1.3.33.63-.12,1.08-.46.99-.77-.09-.3-.67-.45-1.3-.33-.63.12-1.08.46-.99.77Z" fill="#b0d9fd"/>
                </g>
              </g>
            </g>
            <g id="uuid-7611be29-19e4-4cbb-8da6-01132a2ce0d7" data-name="g1536">
              <g id="uuid-9813c096-1787-4f70-a525-1e3514981996" data-name="g1522">
                <path id="uuid-93ddb3ba-ebf8-449e-88e9-092371e20acc" data-name="path1486" d="m864.08,481.18c-1.7,0-3.46,1.38-3.91,3.09,0,0,0,0,0,0-.46,1.7.56,3.09,2.26,3.09,1.7,0,3.46-1.38,3.91-3.09.46-1.71-.55-3.09-2.26-3.09h0Zm10.32,0c-1.71,0-3.46,1.38-3.91,3.09,0,0,0,0,0,0-.46,1.7.56,3.09,2.26,3.09,1.7,0,3.46-1.38,3.91-3.09.46-1.71-.55-3.09-2.26-3.09h0Zm10.32,0c-1.71,0-3.46,1.38-3.91,3.09,0,0,0,0,0,0-.46,1.7.56,3.09,2.26,3.09,1.7,0,3.46-1.38,3.91-3.09.46-1.71-.55-3.09-2.26-3.09h0Zm10.32,0c-1.7,0-3.46,1.38-3.91,3.09-.46,1.7.55,3.09,2.26,3.09,1.7,0,3.46-1.38,3.91-3.09.46-1.71-.55-3.09-2.26-3.09h0Z" fill="#d5bfef"/>
                <path id="uuid-0257ce1c-4dee-484b-88c7-d6d3d6835df0" data-name="path1515" d="m864.08,481.18c-1.7,0-3.46,1.38-3.91,3.09h0c-.26.97-.05,1.88.57,2.46-.05-.36-.02-.74.09-1.13.46-1.71,2.21-3.09,3.91-3.09h0c.67,0,1.27.22,1.69.62-.15-1.18-1.08-1.95-2.35-1.95Zm10.32,0c-1.7,0-3.46,1.38-3.91,3.09h0c-.26.97-.05,1.88.57,2.46-.05-.36-.02-.74.09-1.13.46-1.71,2.21-3.09,3.91-3.09h0c.67,0,1.27.22,1.69.62-.15-1.18-1.08-1.95-2.35-1.95Zm10.32,0c-1.71,0-3.46,1.38-3.91,3.09h0c-.26.97-.05,1.88.57,2.46-.05-.36-.02-.74.09-1.13.46-1.71,2.21-3.09,3.91-3.09h0c.67,0,1.27.22,1.69.62-.15-1.18-1.08-1.95-2.35-1.95Zm10.32,0c-1.7,0-3.46,1.38-3.91,3.09-.26.97-.05,1.88.57,2.46-.05-.36-.02-.74.09-1.13.46-1.7,2.21-3.09,3.91-3.09.67,0,1.27.22,1.69.62-.15-1.18-1.08-1.95-2.35-1.95h0Z" fill="#e7d4f4"/>
              </g>
              <g id="uuid-ea4c7719-cc92-4ca3-9e67-f93038b58551" data-name="g1528">
                <path id="uuid-d245d064-9e26-4442-9509-bacdc818c3f1" data-name="path1524" d="m1379.95,481.18c1.7,0,3.46,1.38,3.91,3.09h0c.46,1.71-.56,3.09-2.26,3.09-1.7,0-3.46-1.38-3.91-3.09-.46-1.71.55-3.09,2.26-3.09h0Zm-10.32,0c1.7,0,3.46,1.38,3.91,3.09h0c.46,1.71-.56,3.09-2.26,3.09-1.71,0-3.46-1.38-3.91-3.09-.46-1.71.55-3.09,2.26-3.09h0Zm-10.32,0c1.7,0,3.46,1.38,3.91,3.09h0c.46,1.71-.56,3.09-2.26,3.09-1.7,0-3.46-1.38-3.91-3.09-.46-1.71.55-3.09,2.26-3.09h0Zm-10.32,0c1.71,0,3.46,1.38,3.91,3.09.46,1.7-.55,3.09-2.26,3.09-1.7,0-3.46-1.38-3.91-3.09-.46-1.71.55-3.09,2.26-3.09h0Z" fill="#d5bfef"/>
                <path id="uuid-db43c03a-cf45-4c9b-8f48-8523bd4981c7" data-name="path1526" d="m1379.95,481.18c1.71,0,3.46,1.38,3.91,3.09h0c.26.97.05,1.88-.57,2.46.05-.36.02-.74-.09-1.13-.46-1.71-2.21-3.09-3.91-3.09h0c-.67,0-1.27.22-1.69.62.15-1.18,1.08-1.95,2.35-1.95Zm-10.32,0c1.71,0,3.46,1.38,3.91,3.09,0,0,0,0,0,0,.26.97.05,1.88-.57,2.46.05-.36.02-.74-.09-1.13-.46-1.71-2.21-3.09-3.91-3.09h0c-.67,0-1.27.22-1.69.62.15-1.18,1.08-1.95,2.35-1.95Zm-10.32,0c1.71,0,3.46,1.38,3.91,3.09t0,0c.26.97.05,1.88-.57,2.46.05-.36.02-.74-.09-1.13-.46-1.71-2.21-3.09-3.91-3.09h0c-.67,0-1.26.22-1.69.62.15-1.18,1.08-1.95,2.35-1.95Zm-10.32,0c1.7,0,3.46,1.38,3.91,3.09.26.97.05,1.88-.57,2.46.05-.36.02-.74-.09-1.13-.46-1.7-2.21-3.09-3.91-3.09-.67,0-1.27.22-1.69.62.15-1.18,1.08-1.95,2.35-1.95h0Z" fill="#e7d4f4"/>
              </g>
            </g>
            <path id="uuid-9eb71f6d-6ffa-4027-8245-f87764da42b4" data-name="rect1542" d="m874.27,505.79h47.44c1.17,0,2.11.94,2.11,2.11v5.15c0,1.17-.94,2.11-2.11,2.11h-47.44c-1.17,0-2.11-.94-2.11-2.11v-5.15c0-1.17.94-2.11,2.11-2.11Z" fill="#be93e0"/>
            <path id="uuid-a5564b25-b7bf-499d-b16c-ac2b79bda3d7" data-name="rect1595" d="m877.76,505.79h7.84c1.17,0,2.11.94,2.11,2.11v5.15c0,1.17-.94,2.11-2.11,2.11h-7.84c-1.17,0-2.11-.94-2.11-2.11v-5.15c0-1.17.94-2.11,2.11-2.11Z" fill="#ab7cdf"/>
            <path id="uuid-d8eeaa96-f403-4984-aa7d-b1d545f67a11" data-name="rect1569" d="m874.44,505.8c-1.26,0-2.28.94-2.28,2.11v2.36c0-1.17,1.02-2.11,2.28-2.11h49.38v-.26c0-1.17-.94-2.11-2.11-2.11h-47.27Z" fill="#ab7cdf"/>
            <path id="uuid-3ccc154e-a198-4a38-ad35-35eb950acfbe" data-name="path1599" d="m872.18,513.28c.11,1.06,1,1.89,2.09,1.89h47.44c1.09,0,1.97-.82,2.09-1.89h-51.61Z" fill="#ab7cdf"/>
            <path id="uuid-0f0564ac-4e02-4854-a145-b0ff7ea0543e" data-name="rect1540" d="m874.27,505.79h7.84c1.17,0,2.11.94,2.11,2.11v5.15c0,1.17-.94,2.11-2.11,2.11h-7.84c-1.17,0-2.11-.94-2.11-2.11v-5.15c0-1.17.94-2.11,2.11-2.11Z" fill="#976dd4"/>
            <path id="uuid-93ae5784-e0ec-437a-a399-7960ebf8f2d0" data-name="rect1560" d="m876.49,518.58v1.28h-4.33v-1.28h4.33Z" fill="#976dd4"/>
            <path id="uuid-ed940866-04b8-443b-884c-dd8256a9710a" data-name="rect1562" d="m921.01,517.06v1.53h-1.53v1.28h1.53v1.53h1.28v-1.53h1.53v-1.28h-1.53v-1.53h-1.28Z" fill="#976dd4"/>
            <path id="uuid-7355a83f-b8ac-4b7e-a4f2-526aa8e51fd1" data-name="rect1576" d="m874.27,505.8c-1.17,0-2.11.94-2.11,2.11v.26s.07,0,.1,0h9.4v7h.45c1.17,0,2.11-.94,2.11-2.11v-5.15c0-1.17-.94-2.11-2.11-2.11h-7.84Z" fill="#7f52c4"/>
          </g>
          <g id="uuid-fbaac124-2a04-4475-8ae9-a842868d818f" data-name="g5450">
            <path id="uuid-1167e9fb-57d0-405c-a85f-6041dbaff4a0" data-name="path5444" d="m1073.86,405.34c0,2.8.13,5.4.15,8.15.02,3.27-.9,6.22-.66,11.14h21.61c-.01-.09-.03-.17-.03-.24-.17-2.58-.77-3.29-2.54-4.25-1.95-1.06-1.53-3.09-2.54-4.99-.87-1.64-2.77-1.52-3.69-3.09-1.24-2.1-2.78-9.35-3.99-9.74-4.53-1.59-8.27.98-8.3,3.02h0Z" fill="#bdc4f1" fill-rule="evenodd"/>
            <path id="uuid-7322e714-7a6d-45c6-8217-32f1c5f4c426" data-name="path5446" d="m1075.7,402.81c-1.14.7-1.83,1.66-1.84,2.53,0,2.8.13,5.4.15,8.15.02,3.27-.9,6.22-.66,11.14h14.74c-.67-1.36-1.31-.34-2.86-2.05-.78-.86-.65-2.31-1.38-3.21-.1-.13-.23-.24-.37-.34.74-1.41,1.42-2.85,2.23-4.24.42-.72.92-1.32,1.17-1.9-.28-.22-.53-.48-.73-.82-.12-.21-.25-.48-.38-.77-.82.62-2.17,1.87-2.31,1.83-.08-.02.23-2.39.25-2.54.19-1.5-.09-1.87-1.02-3.06-.3-.39-.62-1.01-1.02-1.3-1.21-.36-3.38-.18-4.91-.3-.26-.95-.54-1.89-.9-2.8-.04-.1-.1-.2-.17-.3Zm3.82,4.66c.11,0,.21,0,.32,0,.75.56.99,1.4.79,3.28-.08.82-.23,1.68-.13,2.5.19,1.62.63,3.22,1.02,4.83-.44-.2-.85-.42-1.16-.73-.83-.83-2.63-7.93-3.14-9.77.8,0,1.55-.11,2.29-.11Zm-4.43,2.75c.85,3.25,2,6.62,3,9.76.04.24.4,1.11.32,1.29-.37.9-2.03-.19-2.45-.55-1.12-.99-.72-3.05-.76-4.38,0-.28-.5-5.56-.35-5.8.07-.11.16-.22.24-.33Zm12,6.92c-.13-.02-.33.15-.4.19,0,.14-.11,1.86-.12,2.09,0,.28-.02.71.14.98.2.34,2.56.62,2.77.29.06-.11-2.26-3.54-2.39-3.56Zm-6.33,2.92c.48.27,1.13.45,1.24,1.05.11.54.25,1.66-.48,1.71-.08,0-.31.05-.36-.02-.32-.43-.65-2.28-.4-2.73Z" fill="#aab0e4" fill-rule="evenodd"/>
            <path id="uuid-3022730a-72d2-4a26-b57d-48ea9596a158" data-name="path5448" d="m1079.33,401.83c-2.44,0-4.36,1.15-5.12,2.4,1.27-1.52,4.23-2.68,7.64-1.48,1.21.39,2.75,7.64,3.99,9.74.92,1.56,2.82,1.45,3.69,3.09,1.02,1.9.59,3.93,2.54,4.99,1.72.94,2.33,1.64,2.52,4.06h.35c-.01-.09-.03-.17-.03-.24-.17-2.58-.77-3.29-2.54-4.25-1.95-1.06-1.53-3.09-2.54-4.99-.87-1.64-2.77-1.52-3.69-3.09-1.24-2.1-2.78-9.35-3.99-9.74-.99-.35-1.94-.5-2.83-.5Z" fill="#dee5f9" fill-rule="evenodd"/>
          </g>
          <g id="uuid-a2943a8c-f1e7-4ab0-9d73-f7d744930a1c" data-name="g5347">
            <path id="uuid-24451563-5507-4d65-9bc4-2d9eb5272eb9" data-name="path5341" d="m1052.54,414.67c4.03-7.05,13.33-3.09,12.25,3.77,6.62-6.46,17.5-1.7,17.5,6.03h-58.31c-.72-7.95,5.46-9.08,8.78-8.11-.01-12.74,16.72-14.99,19.78-1.69h0Z" fill="#fff" fill-rule="evenodd"/>
            <path id="uuid-d927ce35-076f-4720-b39c-2bd562fffb6a" data-name="path5343" d="m1048.46,418.53c2.44-4.27,8.08-1.87,7.42,2.28,4.01-3.92,10.6-1.03,10.6,3.65h-35.33c-.44-4.82,3.31-5.5,5.32-4.91,0-7.72,10.13-9.08,11.99-1.02h0Z" fill="#def3ff" fill-rule="evenodd"/>
            <path id="uuid-549e7c67-79df-4f96-a01e-8df25a935626" data-name="path5345" d="m1045.21,421.3c1.3-2.27,4.3-.99,3.95,1.22,2.13-2.08,5.64-.55,5.64,1.94h-18.8c-.23-2.56,1.76-2.93,2.83-2.61,0-4.11,5.39-4.83,6.38-.54h0Z" fill="#cee8fd" fill-rule="evenodd"/>
          </g>
          <g id="uuid-e3bc4375-45b7-4cb7-85f2-0930539511fe" data-name="g5434">
            <path id="uuid-cee56a35-f92b-45b6-b494-995e8ff240e9" data-name="path5428" d="m1248.17,376.97c0,6.88-.33,13.28-.36,20.04-.04,8.05,2.2,15.29,1.61,27.38h-53.13c.04-.22.07-.43.08-.58.42-6.34,1.89-8.08,6.24-10.45,4.79-2.61,3.76-7.59,6.25-12.27,2.15-4.03,6.81-3.75,9.08-7.59,3.05-5.16,6.84-22.99,9.81-23.95,11.14-3.91,20.34,2.42,20.42,7.42h0Z" fill="#bdc4f1" fill-rule="evenodd"/>
            <path id="uuid-3a9bd2c4-b373-45a2-bd92-292843993ebf" data-name="path5430" d="m1243.65,370.74c2.8,1.72,4.5,4.09,4.53,6.23,0,6.88-.33,13.28-.36,20.04-.04,8.05,2.2,15.29,1.62,27.38h-36.24c1.65-3.35,3.23-.83,7.02-5.03,1.91-2.11,1.6-5.69,3.39-7.9.25-.31.56-.59.9-.84-1.83-3.47-3.49-7.02-5.49-10.42-1.04-1.76-2.26-3.25-2.88-4.68.68-.54,1.3-1.18,1.81-2.03.3-.51.61-1.17.92-1.9,2.01,1.53,5.33,4.6,5.68,4.49.19-.06-.58-5.87-.63-6.25-.48-3.68.23-4.61,2.51-7.52.75-.95,1.52-2.49,2.51-3.2,2.97-.88,8.3-.45,12.08-.75.65-2.33,1.32-4.66,2.21-6.9.1-.24.25-.49.41-.73Zm-9.4,11.46c-.26,0-.53,0-.79,0-1.85,1.37-2.42,3.44-1.95,8.06.21,2.01.57,4.13.33,6.16-.47,3.98-1.55,7.93-2.51,11.87,1.08-.49,2.09-1.03,2.85-1.79,2.04-2.04,6.46-19.51,7.72-24.03-1.97-.01-3.8-.26-5.64-.28Zm10.88,6.77c-2.09,8-4.91,16.27-7.38,24.01-.1.6-.97,2.72-.78,3.18.91,2.21,5-.46,6.01-1.36,2.76-2.44,1.76-7.5,1.88-10.77.02-.7,1.24-13.68.87-14.26-.18-.28-.4-.53-.6-.8Zm-29.5,17.02c.32-.04.81.37.97.47.02.34.28,4.56.29,5.15.01.7.04,1.76-.34,2.42-.48.83-6.3,1.53-6.8.71-.16-.26,5.55-8.71,5.87-8.75Zm15.58,7.17c-1.17.65-2.77,1.1-3.06,2.57-.26,1.34-.62,4.08,1.19,4.2.19.01.76.12.89-.05.79-1.06,1.6-5.61.97-6.71Z" fill="#aab0e4" fill-rule="evenodd"/>
            <path id="uuid-a379b8ae-9c9c-4dce-b89d-1479eabef8be" data-name="path5432" d="m1234.71,368.33c6,0,10.72,2.82,12.59,5.91-3.12-3.73-10.41-6.58-18.8-3.64-2.97.95-6.77,18.78-9.81,23.95-2.27,3.84-6.93,3.56-9.08,7.59-2.5,4.68-1.46,9.66-6.25,12.27-4.24,2.31-5.74,4.03-6.2,9.99h-.86c.04-.22.07-.43.08-.58.42-6.34,1.89-8.08,6.24-10.45,4.79-2.61,3.76-7.59,6.25-12.27,2.15-4.03,6.81-3.75,9.08-7.59,3.05-5.16,6.84-22.99,9.81-23.95,2.44-.86,4.78-1.22,6.96-1.22Z" fill="#dee5f9" fill-rule="evenodd"/>
          </g>
          <g id="uuid-d8709590-a6e6-4a8c-8bfc-6b66d5674672" data-name="g5331">
            <path id="uuid-cf699be6-a4cf-49cf-a3f6-2bfc5ae6fdb8" data-name="path5302" d="m1210.68,415.12c-6.75-11.81-22.33-5.17-20.52,6.32-11.09-10.82-29.31-2.84-29.31,10.1h97.68c1.2-13.31-9.15-15.2-14.71-13.59.02-21.34-28.01-25.11-33.14-2.83h0Z" fill="#fff" fill-rule="evenodd"/>
            <path id="uuid-3c7064d8-5edd-4599-a1c6-fe0e446cb8eb" data-name="path5308" d="m1217.5,421.59c-4.09-7.16-13.53-3.13-12.43,3.83-6.72-6.56-17.76-1.72-17.76,6.12h59.19c.73-8.07-5.54-9.21-8.92-8.23.01-12.93-16.97-15.21-20.08-1.71h0Z" fill="#def3ff" fill-rule="evenodd"/>
            <path id="uuid-bf0f7c62-8d8a-4201-8254-8d3f9b672984" data-name="path5310" d="m1222.95,426.24c-2.18-3.81-7.2-1.67-6.62,2.04-3.58-3.49-9.45-.92-9.45,3.26h31.5c.39-4.29-2.95-4.9-4.74-4.38,0-6.88-9.03-8.1-10.69-.91h0Z" fill="#cee8fd" fill-rule="evenodd"/>
          </g>
          <g id="uuid-f72eaaf4-5173-4825-b12e-be34d271defe" data-name="g5426">
            <path id="uuid-83a4bc96-ff72-4735-9dd1-b7a24dfd208e" data-name="path5391" d="m1004.22,398.03c0,6.88.33,13.28.36,20.04.04,8.05-2.2,15.29-1.61,27.38h53.13c-.04-.22-.07-.43-.08-.58-.42-6.34-1.89-8.08-6.24-10.45-4.79-2.61-3.76-7.59-6.25-12.27-2.15-4.03-6.81-3.75-9.08-7.59-3.05-5.16-6.84-22.99-9.81-23.95-11.14-3.91-20.34,2.42-20.42,7.42h0Z" fill="#bdc4f1" fill-rule="evenodd"/>
            <path id="uuid-1728d288-5c3d-4f89-9659-7fb3a70dc8cc" data-name="path5399" d="m1008.74,391.8c-2.8,1.72-4.5,4.09-4.53,6.23,0,6.88.33,13.28.36,20.04.04,8.05-2.2,15.29-1.62,27.38h36.24c-1.65-3.35-3.23-.83-7.02-5.03-1.91-2.11-1.6-5.69-3.39-7.9-.25-.31-.56-.59-.9-.84,1.83-3.47,3.49-7.02,5.49-10.42,1.04-1.76,2.26-3.25,2.88-4.68-.68-.54-1.3-1.18-1.81-2.03-.3-.51-.61-1.17-.92-1.9-2.01,1.53-5.33,4.6-5.68,4.49-.19-.06.58-5.87.63-6.25.48-3.68-.23-4.61-2.51-7.52-.75-.95-1.52-2.49-2.51-3.2-2.97-.88-8.3-.45-12.08-.75-.65-2.33-1.32-4.66-2.21-6.89-.1-.24-.25-.49-.41-.73Zm9.4,11.46c.26,0,.53,0,.79,0,1.85,1.37,2.42,3.44,1.95,8.06-.21,2.01-.56,4.13-.32,6.16.47,3.98,1.55,7.93,2.51,11.87-1.08-.49-2.09-1.03-2.85-1.79-2.04-2.04-6.46-19.51-7.72-24.03,1.97-.01,3.8-.26,5.64-.28Zm-10.88,6.77c2.09,8,4.91,16.27,7.38,24.01.1.6.97,2.72.78,3.18-.91,2.21-5-.46-6.01-1.36-2.76-2.44-1.76-7.5-1.88-10.77-.02-.7-1.24-13.68-.86-14.26.18-.28.4-.53.6-.8Zm29.5,17.02c-.32-.04-.81.37-.97.47-.02.34-.28,4.56-.29,5.15-.01.7-.04,1.76.34,2.42.48.82,6.31,1.53,6.8.71.16-.26-5.55-8.71-5.87-8.75Zm-15.58,7.17c1.17.65,2.77,1.1,3.06,2.57.26,1.34.62,4.08-1.19,4.2-.19.01-.76.12-.89-.05-.79-1.06-1.6-5.61-.97-6.71Z" fill="#aab0e4" fill-rule="evenodd"/>
            <path id="uuid-674c87a6-b153-47d1-84cb-12d11c11c30c" data-name="path5418" d="m1017.68,389.39c-6,0-10.72,2.82-12.59,5.91,3.12-3.73,10.41-6.58,18.8-3.64,2.97.95,6.77,18.78,9.81,23.95,2.27,3.84,6.93,3.56,9.08,7.59,2.5,4.68,1.46,9.66,6.25,12.27,4.24,2.31,5.74,4.03,6.2,9.99h.86c-.04-.22-.07-.43-.08-.58-.42-6.34-1.89-8.08-6.24-10.45-4.79-2.61-3.76-7.59-6.25-12.27-2.15-4.03-6.81-3.75-9.08-7.59-3.05-5.16-6.84-22.99-9.81-23.95-2.44-.86-4.78-1.22-6.96-1.22Z" fill="#dee5f9" fill-rule="evenodd"/>
          </g>
          <g id="uuid-c3b57611-b3e2-45ba-9dbd-e9fe886b5d96" data-name="g5339">
            <path id="uuid-716bf967-0320-491a-b09c-19a7a913f5e8" data-name="path5333" d="m1009.92,436.11c6.75-11.81,22.33-5.17,20.52,6.32,11.09-10.82,29.31-2.84,29.31,10.1h-97.68c-1.2-13.31,9.15-15.2,14.71-13.59-.02-21.34,28.01-25.11,33.14-2.83h0Z" fill="#fff" fill-rule="evenodd"/>
            <path id="uuid-5d1cb508-4d5a-46b2-9b4d-3bf3a6cdbeb3" data-name="path5335" d="m1003.1,442.57c4.09-7.16,13.53-3.13,12.43,3.83,6.72-6.56,17.76-1.72,17.76,6.12h-59.19c-.73-8.07,5.54-9.21,8.92-8.23-.01-12.93,16.97-15.21,20.08-1.71h0Z" fill="#def3ff" fill-rule="evenodd"/>
            <path id="uuid-c0d575ee-fbc3-4a7e-b5a6-e898ba55518b" data-name="path5337" d="m997.65,447.23c2.18-3.81,7.2-1.67,6.62,2.04,3.58-3.49,9.45-.92,9.45,3.26h-31.5c-.39-4.29,2.95-4.9,4.74-4.38,0-6.88,9.03-8.1,10.69-.91h0Z" fill="#cee8fd" fill-rule="evenodd"/>
          </g>
          <g id="uuid-3eed77c7-2687-4f3d-8287-33d1851fc459" data-name="g5442">
            <path id="uuid-703a5424-0c76-4a2b-b8ff-7db88eb64138" data-name="path5436" d="m1252.98,427.49c0,3.72-.18,7.18-.2,10.83-.02,4.35,1.19,8.26.87,14.8h-28.71c.02-.12.04-.23.04-.31.23-3.43,1.02-4.37,3.37-5.65,2.59-1.41,2.03-4.1,3.38-6.63,1.16-2.18,3.68-2.02,4.91-4.1,1.65-2.79,3.7-12.42,5.3-12.94,6.02-2.11,10.99,1.31,11.03,4.01h0Z" fill="#bdc4f1" fill-rule="evenodd"/>
            <path id="uuid-54335561-8777-471e-9add-2d8a28547b11" data-name="path5438" d="m1250.53,424.12c1.51.93,2.43,2.21,2.45,3.37,0,3.72-.18,7.18-.2,10.83-.02,4.35,1.19,8.26.87,14.8h-19.58c.89-1.81,1.74-.45,3.8-2.72,1.03-1.14.86-3.07,1.83-4.27.14-.17.3-.32.49-.45-.99-1.88-1.89-3.79-2.97-5.63-.56-.95-1.22-1.76-1.56-2.53.37-.29.71-.64.98-1.1.16-.28.33-.63.5-1.03,1.09.83,2.88,2.48,3.07,2.43.1-.03-.31-3.17-.34-3.38-.26-1.99.12-2.49,1.35-4.06.4-.52.82-1.34,1.36-1.73,1.6-.48,4.48-.24,6.53-.4.35-1.26.71-2.52,1.2-3.73.05-.13.14-.26.22-.39Zm-5.08,6.19c-.14,0-.28,0-.43,0-1,.74-1.31,1.86-1.05,4.36.11,1.09.31,2.23.18,3.33-.25,2.15-.84,4.28-1.36,6.41.58-.26,1.13-.56,1.54-.97,1.1-1.1,3.49-10.54,4.17-12.98-1.07,0-2.05-.14-3.05-.15Zm5.88,3.66c-1.13,4.32-2.65,8.79-3.99,12.97-.05.32-.53,1.47-.42,1.72.49,1.2,2.7-.25,3.25-.73,1.49-1.32.95-4.05,1.01-5.82.01-.38.67-7.39.47-7.7-.1-.15-.21-.29-.32-.43Zm-15.94,9.2c.17-.02.44.2.53.25.01.18.15,2.47.16,2.78,0,.38.02.95-.18,1.31-.26.45-3.41.83-3.67.38-.09-.14,3-4.71,3.17-4.73Zm8.42,3.88c-.63.35-1.5.59-1.65,1.39-.14.72-.33,2.2.64,2.27.1,0,.41.06.48-.03.42-.57.87-3.03.53-3.63Z" fill="#aab0e4" fill-rule="evenodd"/>
            <path id="uuid-70112568-e1cb-49a4-910f-16d1d36becb6" data-name="path5440" d="m1245.7,422.82c3.24,0,5.79,1.53,6.8,3.19-1.69-2.01-5.63-3.56-10.16-1.97-1.61.51-3.66,10.15-5.3,12.94-1.23,2.08-3.75,1.92-4.91,4.1-1.35,2.53-.79,5.22-3.38,6.63-2.29,1.25-3.1,2.18-3.35,5.4h-.47c.02-.12.04-.23.04-.31.23-3.43,1.02-4.37,3.37-5.65,2.59-1.41,2.03-4.1,3.38-6.63,1.16-2.18,3.68-2.02,4.91-4.1,1.65-2.79,3.7-12.42,5.3-12.94,1.32-.46,2.58-.66,3.76-.66Z" fill="#dee5f9" fill-rule="evenodd"/>
          </g>
          <g id="uuid-72142482-5d68-4b95-8ac4-71486d721d5f" data-name="g5355">
            <path id="uuid-0139e1ce-3d8f-4afe-81df-0298cf02d930" data-name="path5349" d="m1258.74,449.84c-4.03-7.05-13.33-3.08-12.25,3.77-6.62-6.46-17.5-1.7-17.5,6.03h58.31c.72-7.95-5.46-9.08-8.78-8.11.01-12.74-16.72-14.99-19.78-1.69h0Z" fill="#fff" fill-rule="evenodd"/>
            <path id="uuid-ef3fa86d-8c16-4696-ba30-70cbbb4cf3d0" data-name="path5351" d="m1262.81,453.7c-2.44-4.27-8.08-1.87-7.42,2.28-4.01-3.92-10.6-1.03-10.6,3.65h35.33c.44-4.82-3.31-5.5-5.32-4.91,0-7.72-10.13-9.08-11.99-1.02h0Z" fill="#def3ff" fill-rule="evenodd"/>
            <path id="uuid-aa693129-af36-4278-8d7f-73ec068ceeb6" data-name="path5353" d="m1266.06,456.48c-1.3-2.27-4.3-1-3.95,1.22-2.13-2.08-5.64-.55-5.64,1.94h18.8c.23-2.56-1.76-2.93-2.83-2.62,0-4.11-5.39-4.83-6.38-.54h0Z" fill="#cee8fd" fill-rule="evenodd"/>
          </g>
          <g id="uuid-63a96b07-15a9-4e99-97f0-24661facef21" data-name="g5379">
            <path id="uuid-aab82120-04b0-438b-8fab-b50af266baaf" data-name="path5373" d="m1122.31,442.69c4.03-7.05,13.33-3.09,12.25,3.77,6.62-6.46,17.5-1.7,17.5,6.03h-58.31c-.72-7.95,5.46-9.08,8.78-8.11-.01-12.74,16.72-14.99,19.78-1.69h0Z" fill="#fff" fill-rule="evenodd"/>
            <path id="uuid-a3d4bd0c-d9dc-4a4f-aabf-3ae2628c4ff5" data-name="path5375" d="m1118.24,446.55c2.44-4.27,8.08-1.87,7.42,2.28,4.01-3.92,10.6-1.03,10.6,3.65h-35.33c-.44-4.82,3.31-5.5,5.32-4.91,0-7.72,10.13-9.08,11.99-1.02h0Z" fill="#def3ff" fill-rule="evenodd"/>
            <path id="uuid-3198cbad-c71f-4876-ade1-f555e49bd4a4" data-name="path5377" d="m1114.99,449.33c1.3-2.27,4.3-1,3.95,1.22,2.13-2.08,5.64-.55,5.64,1.94h-18.8c-.23-2.56,1.76-2.93,2.83-2.62,0-4.11,5.39-4.83,6.38-.54h0Z" fill="#cee8fd" fill-rule="evenodd"/>
          </g>
        </g>
      </g>
    </g>
  </g>
</svg>