<?xml version="1.0" encoding="UTF-8"?>
<svg id="uuid-079ddb0b-93e6-4db0-830e-73bfab5e751f" data-name="OBJECTS" xmlns="http://www.w3.org/2000/svg" viewBox="0 0 1621.61 558.12">
  <g id="uuid-726adabe-194a-45a7-a933-9399e9911127" data-name="g1367">
    <path id="uuid-aa5ffbb3-7c16-44a5-9eea-2c98fc3924ba" data-name="path5480" d="m1334.84,304.07c-3.38-13.55-20.73-11.45-19.78,3.86-11.07-21.39-39.03-11.86-35.27,13.15-7.54-12.5-27.95-5.74-27.95,10.28h154.11c3.75-27.91-23.23-32.16-31.14-25.74-4.09-22.03-37.03-20.75-39.97-1.55h0Z" fill="#fff" fill-rule="evenodd"/>
    <path id="uuid-cb4bd4b5-5f7a-4213-853e-a6d3d95dda7a" data-name="path1351" d="m1335.95,314.64c-2.07-8.3-12.7-7.02-12.12,2.36-6.78-13.11-23.91-7.26-21.61,8.06-4.62-7.66-17.13-3.52-17.13,6.3h94.43c2.3-17.1-14.23-19.71-19.08-15.77-2.51-13.5-22.69-12.71-24.49-.95h0Z" fill="#def3ff" fill-rule="evenodd"/>
    <path id="uuid-8c23f797-ca29-4613-a4b3-e58616db6fd8" data-name="path1361" d="m1338.9,322.67c-1.08-4.31-6.6-3.64-6.29,1.23-3.52-6.81-12.42-3.77-11.22,4.18-2.4-3.98-8.9-1.83-8.9,3.27h49.05c1.19-8.88-7.39-10.24-9.91-8.19-1.3-7.01-11.79-6.6-12.72-.49h0Z" fill="#cee8fd" fill-rule="evenodd"/>
  </g>
  <g id="uuid-68e570f3-be41-4d2d-a0d6-cf218f19d743" data-name="g3214">
    <path id="uuid-cf60c181-a3ea-42ff-b29a-7673516f6d55" data-name="path3208" d="m938.12,134.53c-1.56-6.24-9.55-5.28-9.11,1.78-5.1-9.85-17.97-5.46-16.24,6.06-3.47-5.76-12.87-2.64-12.87,4.74h70.98c1.73-12.85-10.7-14.81-14.34-11.85-1.89-10.15-17.06-9.56-18.41-.71h0Z" fill="#fff" fill-rule="evenodd"/>
    <path id="uuid-a2a71467-a2c2-4df6-abfc-382bfe7fcead" data-name="path3210" d="m938.63,139.39c-.95-3.82-5.85-3.23-5.58,1.09-3.12-6.04-11.01-3.35-9.95,3.71-2.13-3.53-7.89-1.62-7.89,2.9h43.49c1.06-7.88-6.56-9.08-8.79-7.26-1.16-6.22-10.45-5.86-11.28-.44h0Z" fill="#def3ff" fill-rule="evenodd"/>
    <path id="uuid-63838a4f-e677-4d27-9dff-277a73c9012e" data-name="path3212" d="m939.99,143.1c-.5-1.99-3.04-1.68-2.9.57-1.62-3.14-5.72-1.74-5.17,1.93-1.1-1.83-4.1-.84-4.1,1.51h22.59c.55-4.09-3.4-4.71-4.56-3.77-.6-3.23-5.43-3.04-5.86-.23h0Z" fill="#cee8fd" fill-rule="evenodd"/>
  </g>
  <g id="uuid-911b5d6c-8fdf-4a3b-8d1b-be7e287ddc55" data-name="g3655">
    <path id="uuid-437ddae1-c42d-406e-8a59-21cae34a7b05" data-name="path3649" d="m887.04,259.64c2.33-9.35,14.3-7.9,13.64,2.66,7.63-14.75,26.91-8.17,24.32,9.07,5.2-8.62,19.27-3.96,19.27,7.09h-106.27c-2.58-19.24,16.02-22.18,21.47-17.75,2.82-15.19,25.54-14.31,27.56-1.07h0Z" fill="#fff" fill-rule="evenodd"/>
    <path id="uuid-fbe6a045-2fe7-4ebb-b247-349f27c93034" data-name="path3651" d="m886.28,266.93c1.43-5.73,8.76-4.84,8.36,1.63,4.68-9.04,16.49-5.01,14.9,5.55,3.18-5.28,11.81-2.43,11.81,4.35h-65.12c-1.58-11.79,9.81-13.59,13.16-10.87,1.73-9.31,15.65-8.77,16.89-.66h0Z" fill="#def3ff" fill-rule="evenodd"/>
    <path id="uuid-575ed472-78ee-48ba-9363-871a5084a2ec" data-name="path3653" d="m884.24,272.47c.74-2.97,4.55-2.51,4.34.85,2.43-4.69,8.56-2.6,7.74,2.88,1.65-2.74,6.13-1.26,6.13,2.26h-33.82c-.82-6.12,5.1-7.06,6.83-5.65.9-4.83,8.13-4.55,8.77-.34h0Z" fill="#cee8fd" fill-rule="evenodd"/>
  </g>
</svg>