<?xml version="1.0" encoding="UTF-8"?>
<svg id="uuid-146d0ef6-9304-4aa3-8d18-0c2ab8ac84a9" data-name="BACKGROUND" xmlns="http://www.w3.org/2000/svg" viewBox="0 0 1621.61 558.12">
  <path d="m199.4,206.94l16.92-84.96h15.36l-16.92,84.96h-15.36Z" fill="#f3f5fa"/>
  <path d="m237.92,206.94l16.92-84.96h15.36l-16.92,84.96h-15.36Z" fill="#f3f5fa"/>
  <path d="m295.28,122.22h25.56c20.76,0,30.48,9.36,30.48,38.88,0,31.2-9.84,42-30.36,42h-25.68v-80.88Zm23.76,64.32h1.2c5.16,0,5.52-3,5.52-26.28,0-19.44-.96-21.48-5.4-21.48h-1.32v47.76Z" fill="#f3f5fa"/>
  <path d="m367.76,140.1h-13.8v-17.88h51v17.88h-13.56v63h-23.64v-63Z" fill="#f3f5fa"/>
  <path d="m411.08,122.22h25.56c20.76,0,30.48,9.36,30.48,38.88,0,31.2-9.84,42-30.36,42h-25.68v-80.88Zm23.76,64.32h1.2c5.16,0,5.52-3,5.52-26.28,0-19.44-.96-21.48-5.4-21.48h-1.32v47.76Z" fill="#f3f5fa"/>
  <path d="m199.4,344.94l16.92-84.96h15.36l-16.92,84.96h-15.36Z" fill="#f3f5fa"/>
  <path d="m237.92,344.94l16.92-84.96h15.36l-16.92,84.96h-15.36Z" fill="#f3f5fa"/>
  <path d="m278.12,260.22h29.52c14.52,0,23.16,6.48,23.16,20.88,0,10.2-4.32,14.4-10.44,16.56,6.12,2.16,12.48,7.2,12.48,19.08,0,16.92-8.76,24.36-26.52,24.36h-28.2v-80.88Zm25.08,30.84c3.36,0,4.2-1.92,4.2-7.56s-.72-7.56-4.32-7.56h-2.04v15.12h2.16Zm-2.16,34.32h1.68c3.96,0,5.16-1.8,5.16-9.72,0-8.88-1.32-9.96-5.4-9.96h-1.44v19.68Z" fill="#f3f5fa"/>
  <path d="m390.2,322.98c0,6.96.36,14.64.48,18.12h-21c-.6-1.68-.84-3.96-.96-5.4-4.32,5.16-9.48,6.48-14.4,6.48-9.72,0-16.92-6.84-16.92-21,0-15.12,9.84-20.88,24.48-20.88h5.4v-5.52c0-3.48-.72-4.56-2.88-4.56s-2.88,1.32-2.88,6.6h-21.72c.24-14.64,7.68-21.12,25.56-21.12,16.56,0,24.84,5.52,24.84,20.4v26.88Zm-22.92-10.32h-1.92c-4.08,0-4.92,3.12-4.92,6.72,0,4.2,1.44,5.52,3.36,5.52,2.52,0,3.48-2.16,3.48-6.84v-5.4Z" fill="#f3f5fa"/>
  <path d="m417.32,320.58c.24,4.08.96,6.48,3.72,6.48,2.28,0,3-1.68,3-3.84,0-2.88-1.56-3.96-7.8-6.24-13.8-5.04-18.84-9.6-18.84-21.24s6.48-20.04,23.28-20.04c21.36,0,23.76,12.12,23.76,19.68h-19.56c0-4.32-.96-5.76-3.12-5.76-2.04,0-2.88,1.2-2.88,3.36,0,2.52,1.08,3.96,8.4,6.6,13.44,4.92,18.96,10.68,18.96,20.88,0,13.2-6.6,21.72-25.08,21.72-20.88,0-24.36-11.76-24.72-21.6h20.88Z" fill="#f3f5fa"/>
  <path d="m475.64,302.94c2.88-9.36,6.12-19.92,8.16-26.28h24.6c-3.96,8.88-8.4,17.04-12.24,24.24,0,0,12.84,40.2,12.84,40.2h-25.8l-3.36-22.56c-1.44,2.76-3.36,6.12-4.2,7.56v15h-23.04v-84.24h23.04v46.08Z" fill="#f3f5fa"/>
  <path d="m533.24,313.62c0,10.56.96,12.96,3.24,12.96,2.4,0,3-2.04,3.12-6.24h22.44c-.84,8.28-3.72,21.84-26.16,21.84s-26.04-14.16-26.04-33.72c0-24,10.08-32.76,26.64-32.76,18.96,0,25.8,10.92,25.8,30.24v7.68h-29.04Zm6-12.48c0-8.16-.12-10.44-2.88-10.44-2.52,0-3.12,2.28-3.12,10.44h6Z" fill="#f3f5fa"/>
  <path d="m565.76,276.66h6.6v-14.04h22.8v14.04h7.44v17.76h-7.44v25.68c0,3.12,1.08,4.32,4.32,4.32.6,0,1.32,0,2.16-.12v16.32c-3.96,1.2-9.36,1.32-12.24,1.32-14.28,0-17.52-5.76-17.52-17.52v-30h-6.12v-17.76Z" fill="#f3f5fa"/>
  <path d="m608.84,256.86h23.4v25.2c2.28-3.48,6.48-6.36,12.84-6.36,11.28,0,17.28,6.96,17.28,30.96,0,27.72-6.24,35.52-18.6,35.52-6.96,0-10.08-3.12-11.76-6.24,0,1.32-.24,3.24-.48,5.16h-22.8c.12-6.24.12-11.88.12-15.36v-68.88Zm29.64,51.36c0-13.2-.36-15.48-3-15.48s-3.24,1.68-3.24,15.6c0,15,.12,16.8,3,16.8s3.24-2.4,3.24-16.92Z" fill="#f3f5fa"/>
  <path d="m720.2,322.98c0,6.96.36,14.64.48,18.12h-21c-.6-1.68-.84-3.96-.96-5.4-4.32,5.16-9.48,6.48-14.4,6.48-9.72,0-16.92-6.84-16.92-21,0-15.12,9.84-20.88,24.48-20.88h5.4v-5.52c0-3.48-.72-4.56-2.88-4.56s-2.88,1.32-2.88,6.6h-21.72c.24-14.64,7.68-21.12,25.56-21.12,16.56,0,24.84,5.52,24.84,20.4v26.88Zm-22.92-10.32h-1.92c-4.08,0-4.92,3.12-4.92,6.72,0,4.2,1.44,5.52,3.36,5.52,2.52,0,3.48-2.16,3.48-6.84v-5.4Z" fill="#f3f5fa"/>
  <path d="m728.48,341.1v-84.24h23.4v84.24h-23.4Z" fill="#f3f5fa"/>
  <path d="m760.04,341.1v-84.24h23.4v84.24h-23.4Z" fill="#f3f5fa"/>
</svg>