<?xml version="1.0" encoding="UTF-8"?>
<svg xmlns="http://www.w3.org/2000/svg" xmlns:xlink="http://www.w3.org/1999/xlink" viewBox="0 0 1621.61 558.12">
  <defs>
    <linearGradient id="uuid-868986e7-58d7-4d72-bd47-5f6e70a28e33" data-name="Gradiente sem nome 16" x1="176.77" y1="134.78" x2="176.77" y2="236.57" gradientUnits="userSpaceOnUse">
      <stop offset="0" stop-color="#fff"/>
      <stop offset="0" stop-color="#e6e6e6"/>
      <stop offset=".02" stop-color="#cacaca"/>
      <stop offset=".03" stop-color="#b9b9b9"/>
      <stop offset=".04" stop-color="#b3b3b3"/>
      <stop offset="1" stop-color="#4d4d4d"/>
    </linearGradient>
    <linearGradient id="uuid-ca7d7e13-c6c2-4a0e-a48c-7f5c9b72fc45" data-name="Gradiente sem nome 16" x1="449.27" y1="38.98" x2="449.27" y2="114.1" xlink:href="#uuid-868986e7-58d7-4d72-bd47-5f6e70a28e33"/>
    <linearGradient id="uuid-a776f43e-7df4-4a4b-b455-a80b1c23c9e6" data-name="Gradiente sem nome 16" x1="645.05" y1="153.24" x2="645.05" y2="313.14" xlink:href="#uuid-868986e7-58d7-4d72-bd47-5f6e70a28e33"/>
    <linearGradient id="uuid-d7e545dc-6031-4c9b-875a-87bae0f8d5f5" data-name="Gradiente sem nome 16" x1="613.1" y1="283.7" x2="613.1" y2="447.09" xlink:href="#uuid-868986e7-58d7-4d72-bd47-5f6e70a28e33"/>
    <linearGradient id="uuid-53506bde-5b64-4522-9846-3f2e43a2e3b0" data-name="Gradiente sem nome 16" x1="536.53" y1="316.71" x2="536.53" y2="486.94" xlink:href="#uuid-868986e7-58d7-4d72-bd47-5f6e70a28e33"/>
    <linearGradient id="uuid-4e032125-7d47-426a-ab03-21c5144bb08e" data-name="Gradiente sem nome 16" x1="728.05" y1="134.28" x2="728.05" y2="253.88" xlink:href="#uuid-868986e7-58d7-4d72-bd47-5f6e70a28e33"/>
    <linearGradient id="uuid-09932557-6611-4777-8909-e2e58174ebaf" data-name="Gradiente sem nome 16" x1="179.46" y1="6.35" x2="179.46" y2="91.68" xlink:href="#uuid-868986e7-58d7-4d72-bd47-5f6e70a28e33"/>
    <linearGradient id="uuid-b6830833-e881-4f88-a8af-a4a424e548aa" data-name="Gradiente sem nome 16" x1="221.53" y1="309.41" x2="221.53" y2="482" xlink:href="#uuid-868986e7-58d7-4d72-bd47-5f6e70a28e33"/>
    <linearGradient id="uuid-d969f027-4553-44e8-a49c-4bae5eb22012" data-name="Gradiente sem nome 16" x1="131.67" y1="65.67" x2="131.67" y2="156.6" xlink:href="#uuid-868986e7-58d7-4d72-bd47-5f6e70a28e33"/>
    <linearGradient id="uuid-02272b39-c7e3-4e89-9392-778a6d496c4c" data-name="Gradiente sem nome 16" x1="84.06" y1="162.67" x2="84.06" y2="329.25" xlink:href="#uuid-868986e7-58d7-4d72-bd47-5f6e70a28e33"/>
    <linearGradient id="uuid-8a777f98-9d83-4116-b041-db1ea636f096" data-name="Gradiente sem nome 16" x1="96.65" y1="262.64" x2="96.65" y2="466.1" xlink:href="#uuid-868986e7-58d7-4d72-bd47-5f6e70a28e33"/>
    <linearGradient id="uuid-2e2603eb-5aca-45eb-8bd3-35c478f0a84a" data-name="Gradiente sem nome 16" x1="289.02" y1="6.73" x2="289.02" y2="89.8" xlink:href="#uuid-868986e7-58d7-4d72-bd47-5f6e70a28e33"/>
    <linearGradient id="uuid-076bad26-c462-4b67-b749-3d0e0d6c4556" data-name="Gradiente sem nome 16" x1="320.25" y1="117.86" x2="320.25" y2="232.02" xlink:href="#uuid-868986e7-58d7-4d72-bd47-5f6e70a28e33"/>
    <linearGradient id="uuid-a92be3f1-09c9-4ff9-ba34-4c78d0705039" data-name="Gradiente sem nome 16" x1="321.08" y1="238.55" x2="321.08" y2="431.17" xlink:href="#uuid-868986e7-58d7-4d72-bd47-5f6e70a28e33"/>
    <linearGradient id="uuid-1046925f-6318-4ef8-a00c-e88607ea56f6" data-name="Gradiente sem nome 16" x1="488.61" y1="224.1" x2="488.61" y2="291.52" xlink:href="#uuid-868986e7-58d7-4d72-bd47-5f6e70a28e33"/>
    <linearGradient id="uuid-e6157abd-4b7e-4213-b575-5543c7b499d2" data-name="Gradiente sem nome 16" x1="587.63" y1="52.84" x2="587.63" y2="91.81" xlink:href="#uuid-868986e7-58d7-4d72-bd47-5f6e70a28e33"/>
    <linearGradient id="uuid-cf3585dc-56c1-4b9e-b789-a28040120ff2" data-name="Gradiente sem nome 16" x1="484.94" y1="74.12" x2="484.94" y2="150.31" xlink:href="#uuid-868986e7-58d7-4d72-bd47-5f6e70a28e33"/>
    <linearGradient id="uuid-c2e02d9f-37ab-41d6-989c-33b5656fbd04" data-name="Gradiente sem nome 16" x1="360.47" y1="6.99" x2="360.47" y2="58.14" xlink:href="#uuid-868986e7-58d7-4d72-bd47-5f6e70a28e33"/>
    <linearGradient id="uuid-8f42ee1e-c49a-4ced-9885-7c39e272a713" data-name="Gradiente sem nome 16" x1="349.99" y1="-3.65" x2="349.99" y2="161.68" xlink:href="#uuid-868986e7-58d7-4d72-bd47-5f6e70a28e33"/>
    <linearGradient id="uuid-8941e9e9-5a44-4032-b770-099c80176450" data-name="Gradiente sem nome 16" x1="615.85" y1="102.66" x2="615.85" y2="201.05" xlink:href="#uuid-868986e7-58d7-4d72-bd47-5f6e70a28e33"/>
    <linearGradient id="uuid-21141f23-dd18-4f47-b896-5e80dc42023d" data-name="Gradiente sem nome 16" x1="546.57" y1="154.51" x2="546.57" y2="267.78" xlink:href="#uuid-868986e7-58d7-4d72-bd47-5f6e70a28e33"/>
    <linearGradient id="uuid-dca22f52-a8c3-429a-93ab-0cd0b68cd336" data-name="Gradiente sem nome 16" x1="792.26" y1="236.14" x2="792.26" y2="300.54" xlink:href="#uuid-868986e7-58d7-4d72-bd47-5f6e70a28e33"/>
    <linearGradient id="uuid-b21650b4-f9b0-4c36-b798-4b2e80658f3c" data-name="Gradiente sem nome 16" x1="689.67" y1="86.24" x2="689.67" y2="121.95" xlink:href="#uuid-868986e7-58d7-4d72-bd47-5f6e70a28e33"/>
    <linearGradient id="uuid-92b5e464-9f2f-465f-b78b-dc2287cde1b7" data-name="Gradiente sem nome 16" x1="1502.61" y1="163.54" x2="1502.61" y2="499.59" xlink:href="#uuid-868986e7-58d7-4d72-bd47-5f6e70a28e33"/>
    <linearGradient id="uuid-bf59e85d-2e1c-4cd5-967e-ed4c3aa8deac" data-name="Gradiente sem nome 16" x1="944.23" y1="380.59" x2="944.23" y2="502.83" xlink:href="#uuid-868986e7-58d7-4d72-bd47-5f6e70a28e33"/>
    <linearGradient id="uuid-484105bb-9c47-4aa3-82b0-1742171a0b4e" data-name="Gradiente sem nome 16" x1="1435.1" y1="114.71" x2="1435.1" y2="304.98" xlink:href="#uuid-868986e7-58d7-4d72-bd47-5f6e70a28e33"/>
    <linearGradient id="uuid-7080f88c-30ab-43ee-a106-b1b75a069928" data-name="Gradiente sem nome 16" x1="1549.72" y1="13.96" x2="1549.72" y2="159.86" xlink:href="#uuid-868986e7-58d7-4d72-bd47-5f6e70a28e33"/>
    <linearGradient id="uuid-93dec21f-47f8-4b42-9a06-8a713b641afd" data-name="未命名漸層 7" x1="987" y1="187.07" x2="1257.03" y2="187.07" gradientUnits="userSpaceOnUse">
      <stop offset="0" stop-color="#fff"/>
      <stop offset="1" stop-color="#d2e7fd"/>
    </linearGradient>
  </defs>
  <g isolation="isolate">
    <g id="uuid-b06a7a9c-1eec-46d6-b598-91bc6c43eee1" data-name="BACKGROUND">
      <rect x=".61" y="8.12" width="1620.61" height="550" fill="#43437a"/>
      <g>
        <g opacity=".14">
          <rect x="128.43" y="137.03" width="96.68" height="96.68" fill="url(#uuid-868986e7-58d7-4d72-bd47-5f6e70a28e33)" mix-blend-mode="color-dodge"/>
        </g>
        <g opacity=".05">
          <rect x="413.6" y="40.64" width="71.34" height="71.34" fill="url(#uuid-ca7d7e13-c6c2-4a0e-a48c-7f5c9b72fc45)" mix-blend-mode="color-dodge"/>
        </g>
        <g opacity=".17">
          <rect x="569.12" y="156.77" width="151.86" height="151.86" fill="url(#uuid-a776f43e-7df4-4a4b-b455-a80b1c23c9e6)" mix-blend-mode="color-dodge"/>
        </g>
        <g opacity=".09">
          <rect x="535.51" y="287.31" width="155.17" height="155.17" fill="url(#uuid-d7e545dc-6031-4c9b-875a-87bae0f8d5f5)" mix-blend-mode="color-dodge"/>
        </g>
        <g opacity=".07">
          <rect x="455.69" y="320.47" width="161.67" height="161.67" fill="url(#uuid-53506bde-5b64-4522-9846-3f2e43a2e3b0)" mix-blend-mode="color-dodge"/>
        </g>
        <g opacity=".07">
          <rect x="671.26" y="136.92" width="113.58" height="113.58" fill="url(#uuid-4e032125-7d47-426a-ab03-21c5144bb08e)" mix-blend-mode="color-dodge"/>
        </g>
        <g opacity=".19">
          <rect x="126.47" y="8.24" width="105.98" height="81.04" fill="url(#uuid-09932557-6611-4777-8909-e2e58174ebaf)" mix-blend-mode="color-dodge"/>
        </g>
        <g opacity=".18">
          <rect x="139.57" y="313.22" width="163.92" height="163.92" fill="url(#uuid-b6830833-e881-4f88-a8af-a4a424e548aa)" mix-blend-mode="color-dodge"/>
        </g>
        <g opacity=".15">
          <rect x="88.49" y="67.67" width="86.36" height="86.36" fill="url(#uuid-d969f027-4553-44e8-a49c-4bae5eb22012)" mix-blend-mode="color-dodge"/>
        </g>
        <g opacity=".16">
          <rect x="4.96" y="166.35" width="158.2" height="158.2" fill="url(#uuid-02272b39-c7e3-4e89-9392-778a6d496c4c)" mix-blend-mode="color-dodge"/>
        </g>
        <g opacity=".24">
          <rect x=".03" y="267.13" width="193.23" height="193.23" fill="url(#uuid-8a777f98-9d83-4116-b041-db1ea636f096)" mix-blend-mode="color-dodge"/>
        </g>
        <g opacity=".07">
          <rect x="216.17" y="8.57" width="145.7" height="78.89" fill="url(#uuid-2e2603eb-5aca-45eb-8bd3-35c478f0a84a)" mix-blend-mode="color-dodge"/>
        </g>
        <g opacity=".2">
          <rect x="266.04" y="120.38" width="108.43" height="108.43" fill="url(#uuid-076bad26-c462-4b67-b749-3d0e0d6c4556)" mix-blend-mode="color-dodge"/>
        </g>
        <g opacity=".18">
          <rect x="229.62" y="242.81" width="182.92" height="182.92" fill="url(#uuid-a92be3f1-09c9-4ff9-ba34-4c78d0705039)" mix-blend-mode="color-dodge"/>
        </g>
        <g opacity=".18">
          <rect x="456.59" y="225.59" width="64.03" height="64.03" fill="url(#uuid-1046925f-6318-4ef8-a00c-e88607ea56f6)" mix-blend-mode="color-dodge"/>
        </g>
        <g opacity=".1">
          <rect x="569.12" y="53.7" width="37.01" height="37.01" fill="url(#uuid-e6157abd-4b7e-4213-b575-5543c7b499d2)" mix-blend-mode="color-dodge"/>
        </g>
        <g opacity=".08">
          <rect x="448.75" y="75.8" width="72.36" height="72.36" fill="url(#uuid-cf3585dc-56c1-4b9e-b789-a28040120ff2)" mix-blend-mode="color-dodge"/>
        </g>
        <g opacity=".02">
          <rect x="290.15" y="8.12" width="140.63" height="48.57" fill="url(#uuid-c2e02d9f-37ab-41d6-989c-33b5656fbd04)" mix-blend-mode="color-dodge"/>
        </g>
        <g opacity=".05">
          <rect x="271.49" width="157.01" height="157.01" fill="url(#uuid-8f42ee1e-c49a-4ced-9885-7c39e272a713)" mix-blend-mode="color-dodge"/>
        </g>
        <g opacity=".19">
          <rect x="569.12" y="104.83" width="93.45" height="93.45" fill="url(#uuid-8941e9e9-5a44-4032-b770-099c80176450)" mix-blend-mode="color-dodge"/>
        </g>
        <g opacity=".27">
          <rect x="492.78" y="157.01" width="107.57" height="107.57" fill="url(#uuid-21141f23-dd18-4f47-b896-5e80dc42023d)" mix-blend-mode="color-dodge"/>
        </g>
        <g opacity=".04">
          <rect x="761.68" y="237.56" width="61.17" height="61.17" fill="url(#uuid-dca22f52-a8c3-429a-93ab-0cd0b68cd336)" mix-blend-mode="color-dodge"/>
        </g>
        <g opacity=".09">
          <rect x="672.72" y="87.02" width="33.92" height="33.92" fill="url(#uuid-b21650b4-f9b0-4c36-b798-4b2e80658f3c)" mix-blend-mode="color-dodge"/>
        </g>
        <g opacity=".07">
          <rect x="1383.61" y="170.96" width="238" height="319.15" fill="url(#uuid-92b5e464-9f2f-465f-b78b-dc2287cde1b7)" mix-blend-mode="color-dodge"/>
        </g>
        <g opacity=".03">
          <rect x="886.18" y="383.29" width="116.09" height="116.09" fill="url(#uuid-bf59e85d-2e1c-4cd5-967e-ed4c3aa8deac)" mix-blend-mode="color-dodge"/>
        </g>
        <g opacity=".18">
          <rect x="1344.75" y="118.92" width="180.7" height="180.7" fill="url(#uuid-484105bb-9c47-4aa3-82b0-1742171a0b4e)" mix-blend-mode="color-dodge"/>
        </g>
        <g opacity=".16">
          <rect x="1480.44" y="17.18" width="138.56" height="138.56" fill="url(#uuid-7080f88c-30ab-43ee-a106-b1b75a069928)" mix-blend-mode="color-dodge"/>
        </g>
      </g>
      <g id="uuid-5aaac9bf-764e-44da-bfee-e0a4384f780b" data-name="g3293">
        <path id="uuid-96cb35be-b825-4bdc-9d8e-5b4773326af6" data-name="path2987" d="m834.71,8.12l89.05,487.52h399.16L1411.97,8.12h-577.26Z" fill="#5f45b1" fill-rule="evenodd"/>
        <path id="uuid-8ea73702-92f9-4c00-87f8-7e7b0d17e730" data-name="rect3015" d="m840.59,40.3l83.17,455.34h399.16l83.17-455.34h-565.5Z" fill="#6652b8"/>
        <path id="uuid-467dc269-2bac-445a-b776-b4f9c11ca490" data-name="rect3017" d="m847.12,76.04l76.65,419.61h399.16l76.65-419.61h-552.45Z" fill="#6c5ebe"/>
        <path id="uuid-f296cc29-46c5-4da5-ba50-035854c8b392" data-name="rect3019" d="m853.64,111.78l70.12,383.87h399.16l70.12-383.87h-539.39Z" fill="#716ac4"/>
        <path id="uuid-90c66336-3518-462a-8cba-9d3acf9e93e8" data-name="rect3027" d="m860.17,147.51l63.59,348.13h399.16l63.59-348.13h-526.34Z" fill="#7774c9"/>
        <path id="uuid-05400f16-750a-42ac-89e5-d9a817b067d3" data-name="rect3029" d="m866.7,183.25l57.06,312.39h399.16l57.06-312.39h-513.28Z" fill="#7c7ece"/>
        <path id="uuid-b0e4a4dd-4224-4997-8844-925c51a7e667" data-name="rect3031" d="m873.23,218.99l50.53,276.66h399.16l50.53-276.66h-500.23Z" fill="#8086d2"/>
        <path id="uuid-22ad1b86-c268-4a6e-8996-9de14341c291" data-name="rect3033" d="m879.75,254.73l44.01,240.92h399.16l44.01-240.92h-487.17Z" fill="#848ed7"/>
        <path id="uuid-05cd1da7-521a-4562-af91-ff561842b0ef" data-name="path2996" d="m937.81,8.12l55.58,424.83h259.89l55.58-424.83h-371.05Z" fill="#6652b8" fill-rule="evenodd"/>
        <path id="uuid-9a7a7684-bae5-4963-a3dc-e23e382f09e9" data-name="path3076" d="m942.02,40.3l51.37,392.66h259.89l51.37-392.66h-362.63Z" fill="#716ac4" fill-rule="evenodd"/>
        <path id="uuid-1fb0ec08-2894-46b7-8558-06a56f56afd5" data-name="path3081" d="m946.7,76.04l46.7,356.92h259.89l46.7-356.92h-353.28Z" fill="#7c7ece"/>
        <path id="uuid-74a5b08f-4340-4ef1-a61a-9c586baead42" data-name="path3086" d="m951.37,111.78l42.02,321.18h259.89l42.02-321.18h-343.93Z" fill="#848ed7" fill-rule="evenodd"/>
        <path id="uuid-89ebfe66-be30-414e-929d-0e509dd64051" data-name="path3091" d="m956.05,147.51l37.35,285.44h259.89l37.35-285.44h-334.58Z" fill="#8b9bde" fill-rule="evenodd"/>
        <path id="uuid-c3a47840-51a4-4783-87d6-f9d45d2e63a4" data-name="path3096" d="m960.73,183.25l32.67,249.71h259.89l32.67-249.71h-325.23Z" fill="#91a5e4" fill-rule="evenodd"/>
        <path id="uuid-14b549bc-4a27-4827-a2bd-1c413126d3fb" data-name="path3101" d="m965.4,218.99l27.99,213.97h259.89l27.99-213.97h-315.87Z" fill="#95aee8" fill-rule="evenodd"/>
        <path id="uuid-93845685-c132-449f-8d9e-04604e791318" data-name="path3106" d="m970.08,254.73l23.32,178.23h259.89l23.32-178.23h-306.52Z" fill="#99b6ec" fill-rule="evenodd"/>
      </g>
      <g id="uuid-1ecad4fa-b779-4b74-bf5f-f6684bab2562" data-name="g6345" opacity=".2">
        <path id="uuid-44067459-dcc6-4ad5-8480-ae16880446d3" data-name="rect5503" d="m0,408.25v29.98h1620.61v-29.98H0Z" fill="#f4f6fb"/>
      </g>
      <g id="uuid-972455f3-699c-46d9-8ed3-3af40ae09904" data-name="g6345" opacity=".4">
        <path id="uuid-091deed9-badf-4678-b73a-7e9ee1b27168" data-name="rect5503" d="m.61,438.22v29.98h1620v-29.98H.61Z" fill="#f4f6fb"/>
      </g>
      <g id="uuid-37d1df26-8cd9-4c6e-9b2b-9bbff7a54f14" data-name="g6345" opacity=".6">
        <path id="uuid-cb386aba-7377-412f-9678-d6a023cc887b" data-name="rect5503" d="m.61,468.2v29.98h1620v-29.98H.61Z" fill="#f4f6fb"/>
      </g>
      <g id="uuid-2d62d733-8dce-4609-8395-40128ba17027" data-name="g6345" opacity=".8">
        <path id="uuid-8e72908b-a073-4227-b9c1-8379a17c1be1" data-name="rect5503" d="m.61,498.17v29.98h1620.61v-29.98H.61Z" fill="#f4f6fb"/>
      </g>
      <g id="uuid-64d33527-a4d8-47c1-8642-b1ef8357273a" data-name="g6345">
        <path id="uuid-b7adeb21-e331-471b-ae88-491db5e17cd2" data-name="rect5503" d="m.61,528.15v29.98h1620.61v-29.98H.61Z" fill="#f4f6fb"/>
      </g>
      <g>
        <path d="m199.4,206.94l16.92-84.96h15.36l-16.92,84.96h-15.36Z" fill="#f3f5fa"/>
        <path d="m237.92,206.94l16.92-84.96h15.36l-16.92,84.96h-15.36Z" fill="#f3f5fa"/>
        <path d="m295.28,122.22h25.56c20.76,0,30.48,9.36,30.48,38.88,0,31.2-9.84,42-30.36,42h-25.68v-80.88Zm23.76,64.32h1.2c5.16,0,5.52-3,5.52-26.28,0-19.44-.96-21.48-5.4-21.48h-1.32v47.76Z" fill="#f3f5fa"/>
        <path d="m367.76,140.1h-13.8v-17.88h51v17.88h-13.56v63h-23.64v-63Z" fill="#f3f5fa"/>
        <path d="m411.08,122.22h25.56c20.76,0,30.48,9.36,30.48,38.88,0,31.2-9.84,42-30.36,42h-25.68v-80.88Zm23.76,64.32h1.2c5.16,0,5.52-3,5.52-26.28,0-19.44-.96-21.48-5.4-21.48h-1.32v47.76Z" fill="#f3f5fa"/>
        <path d="m199.4,344.94l16.92-84.96h15.36l-16.92,84.96h-15.36Z" fill="#f3f5fa"/>
        <path d="m237.92,344.94l16.92-84.96h15.36l-16.92,84.96h-15.36Z" fill="#f3f5fa"/>
        <path d="m278.12,260.22h29.52c14.52,0,23.16,6.48,23.16,20.88,0,10.2-4.32,14.4-10.44,16.56,6.12,2.16,12.48,7.2,12.48,19.08,0,16.92-8.76,24.36-26.52,24.36h-28.2v-80.88Zm25.08,30.84c3.36,0,4.2-1.92,4.2-7.56s-.72-7.56-4.32-7.56h-2.04v15.12h2.16Zm-2.16,34.32h1.68c3.96,0,5.16-1.8,5.16-9.72,0-8.88-1.32-9.96-5.4-9.96h-1.44v19.68Z" fill="#f3f5fa"/>
        <path d="m390.2,322.98c0,6.96.36,14.64.48,18.12h-21c-.6-1.68-.84-3.96-.96-5.4-4.32,5.16-9.48,6.48-14.4,6.48-9.72,0-16.92-6.84-16.92-21,0-15.12,9.84-20.88,24.48-20.88h5.4v-5.52c0-3.48-.72-4.56-2.88-4.56s-2.88,1.32-2.88,6.6h-21.72c.24-14.64,7.68-21.12,25.56-21.12,16.56,0,24.84,5.52,24.84,20.4v26.88Zm-22.92-10.32h-1.92c-4.08,0-4.92,3.12-4.92,6.72,0,4.2,1.44,5.52,3.36,5.52,2.52,0,3.48-2.16,3.48-6.84v-5.4Z" fill="#f3f5fa"/>
        <path d="m417.32,320.58c.24,4.08.96,6.48,3.72,6.48,2.28,0,3-1.68,3-3.84,0-2.88-1.56-3.96-7.8-6.24-13.8-5.04-18.84-9.6-18.84-21.24s6.48-20.04,23.28-20.04c21.36,0,23.76,12.12,23.76,19.68h-19.56c0-4.32-.96-5.76-3.12-5.76-2.04,0-2.88,1.2-2.88,3.36,0,2.52,1.08,3.96,8.4,6.6,13.44,4.92,18.96,10.68,18.96,20.88,0,13.2-6.6,21.72-25.08,21.72-20.88,0-24.36-11.76-24.72-21.6h20.88Z" fill="#f3f5fa"/>
        <path d="m475.64,302.94c2.88-9.36,6.12-19.92,8.16-26.28h24.6c-3.96,8.88-8.4,17.04-12.24,24.24,0,0,12.84,40.2,12.84,40.2h-25.8l-3.36-22.56c-1.44,2.76-3.36,6.12-4.2,7.56v15h-23.04v-84.24h23.04v46.08Z" fill="#f3f5fa"/>
        <path d="m533.24,313.62c0,10.56.96,12.96,3.24,12.96,2.4,0,3-2.04,3.12-6.24h22.44c-.84,8.28-3.72,21.84-26.16,21.84s-26.04-14.16-26.04-33.72c0-24,10.08-32.76,26.64-32.76,18.96,0,25.8,10.92,25.8,30.24v7.68h-29.04Zm6-12.48c0-8.16-.12-10.44-2.88-10.44-2.52,0-3.12,2.28-3.12,10.44h6Z" fill="#f3f5fa"/>
        <path d="m565.76,276.66h6.6v-14.04h22.8v14.04h7.44v17.76h-7.44v25.68c0,3.12,1.08,4.32,4.32,4.32.6,0,1.32,0,2.16-.12v16.32c-3.96,1.2-9.36,1.32-12.24,1.32-14.28,0-17.52-5.76-17.52-17.52v-30h-6.12v-17.76Z" fill="#f3f5fa"/>
        <path d="m608.84,256.86h23.4v25.2c2.28-3.48,6.48-6.36,12.84-6.36,11.28,0,17.28,6.96,17.28,30.96,0,27.72-6.24,35.52-18.6,35.52-6.96,0-10.08-3.12-11.76-6.24,0,1.32-.24,3.24-.48,5.16h-22.8c.12-6.24.12-11.88.12-15.36v-68.88Zm29.64,51.36c0-13.2-.36-15.48-3-15.48s-3.24,1.68-3.24,15.6c0,15,.12,16.8,3,16.8s3.24-2.4,3.24-16.92Z" fill="#f3f5fa"/>
        <path d="m720.2,322.98c0,6.96.36,14.64.48,18.12h-21c-.6-1.68-.84-3.96-.96-5.4-4.32,5.16-9.48,6.48-14.4,6.48-9.72,0-16.92-6.84-16.92-21,0-15.12,9.84-20.88,24.48-20.88h5.4v-5.52c0-3.48-.72-4.56-2.88-4.56s-2.88,1.32-2.88,6.6h-21.72c.24-14.64,7.68-21.12,25.56-21.12,16.56,0,24.84,5.52,24.84,20.4v26.88Zm-22.92-10.32h-1.92c-4.08,0-4.92,3.12-4.92,6.72,0,4.2,1.44,5.52,3.36,5.52,2.52,0,3.48-2.16,3.48-6.84v-5.4Z" fill="#f3f5fa"/>
        <path d="m728.48,341.1v-84.24h23.4v84.24h-23.4Z" fill="#f3f5fa"/>
        <path d="m760.04,341.1v-84.24h23.4v84.24h-23.4Z" fill="#f3f5fa"/>
      </g>
    </g>
    <g id="uuid-2fe1f29d-7db6-4c10-85b0-7aa453be5c62" data-name="OBJECTS">
      <g>
        <path d="m1413.19,506.42c0-.06,0-.13,0-.19h0c.02-.38.03-.76.03-1.14,0-.05,0-.1,0-.14,0-.06,0-.13,0-.19,0-.3-.01-.6-.03-.9,0-.1,0-.2-.02-.3-.02-.37-.06-.74-.1-1.12-.02-.14-.04-.29-.06-.43-.03-.25-.07-.5-.11-.75-.03-.17-.06-.35-.09-.52-.05-.25-.1-.51-.15-.76-.06-.31-.13-.61-.21-.92-.04-.18-.09-.36-.13-.54-.06-.24-.13-.49-.2-.73-.04-.13-.08-.27-.12-.4-.27-.88-.58-1.78-.94-2.68-.03-.07-.05-.13-.08-.2-.4-.99-.85-1.99-1.36-3,0,0,0-.02-.01-.02-1.33-2.65-3.02-5.35-5.09-8.07-.05-.06-.11-.14-.17-.2-.16-.19-.32-.39-.49-.6-.09-.11-.19-.22-.28-.33-.16-.19-.32-.38-.49-.58-.09-.1-.18-.21-.27-.31-.2-.23-.42-.47-.64-.72-.07-.07-.13-.15-.2-.22-7.7-8.56-24-23.64-44.32-35.37v-4.81s0-.02,0-.03c0-.01,0-.02,0-.03v-.24h0s0-.03,0-.04c0-.28-.12-.56-.35-.83,0,0,0,0,0,0-.02-.02-.04-.05-.06-.07,0,0,0,0,0,0-.11-.12-.25-.24-.41-.36,0,0,0,0,0,0-.13-.09-.27-.18-.42-.27,0,0,0,0,0,0-.04-.02-.08-.04-.12-.06,0,0,0,0,0,0-.04-.02-.08-.04-.12-.06,0,0,0,0,0,0-.04-.02-.08-.04-.12-.06,0,0,0,0,0,0-.04-.02-.08-.04-.13-.06,0,0,0,0,0,0-.04-.02-.09-.04-.13-.06,0,0,0,0,0,0-.09-.04-.19-.08-.29-.12h0s0,0,0,0c-.05-.02-.1-.04-.15-.06,0,0,0,0,0,0-.05-.02-.1-.04-.15-.06,0,0,0,0,0,0-.05-.02-.1-.04-.15-.05-.06-.02-.11-.04-.17-.06-.05-.02-.11-.03-.16-.05,0,0,0,0,0,0-.05-.02-.11-.03-.17-.05,0,0,0,0,0,0-.06-.02-.11-.03-.17-.05-.24-.07-.49-.13-.74-.19-.06-.01-.13-.03-.19-.04,0,0,0,0,0,0-.19-.04-.39-.08-.59-.12-.14-.03-.28-.05-.42-.07-.07-.01-.14-.02-.2-.03,0,0,0,0,0,0-.07-.01-.14-.02-.21-.03,0,0,0,0,0,0-.07-.01-.14-.02-.21-.03-.15-.02-.3-.04-.45-.06-.07,0-.14-.02-.22-.02,0,0,0,0,0,0-.02,0-.04,0-.05,0-.28-.03-.57-.06-.86-.08-.04,0-.08,0-.12,0-.04,0-.07,0-.11,0-.31-.02-.62-.04-.94-.05h0c-.08,0-.15,0-.23,0h0c-.08,0-.15,0-.23,0h0c-.08,0-.15,0-.23,0h0c-.08,0-.15,0-.23,0h-.04c-.2,0-.4,0-.6,0-.04,0-.07,0-.11,0-.01,0-.02,0-.03,0-.07,0-.14,0-.21,0-.01,0-.02,0-.03,0-.07,0-.14,0-.2,0,0,0-.02,0-.03,0-.07,0-.14,0-.2,0-.01,0-.02,0-.03,0-.07,0-.14,0-.2.01-.14,0-.28.02-.42.03-.01,0-.03,0-.04,0,0,0-.02,0-.03,0-.07,0-.14.01-.21.02,0,0-.01,0-.02,0-.07,0-.13.01-.2.02-.01,0-.02,0-.03,0-.07,0-.13.01-.2.02-.22.02-.45.05-.67.07,0,0,0,0-.01,0,0,0-.02,0-.02,0-.06,0-.13.02-.19.03,0,0-.02,0-.03,0-.06,0-.13.02-.19.03-.12.02-.25.04-.37.06-.02,0-.04,0-.06,0,0,0-.02,0-.03,0-.07.01-.13.02-.2.03-.03,0-.07.01-.1.02-.04,0-.07.01-.11.02,0,0,0,0-.01,0-.06.01-.12.02-.18.03,0,0-.02,0-.03,0-.06.01-.12.02-.17.04-.12.03-.24.05-.36.08,0,0-.02,0-.03,0-2.34-1.02-4.71-1.97-7.11-2.84h-426.66c-2.49.91-4.96,1.9-7.39,2.96-.02,0-.04-.01-.06-.02,0,0-.01,0-.02,0,0,0,0,0,0,0-.06-.02-.12-.03-.18-.05,0,0,0,0,0,0-.06-.01-.11-.03-.17-.04,0,0-.02,0-.02,0-.06-.01-.11-.03-.17-.04-.07-.02-.15-.03-.22-.05-.06-.01-.12-.02-.17-.04,0,0-.02,0-.03,0-.06-.01-.13-.02-.19-.04,0,0,0,0-.01,0-.06-.01-.13-.02-.19-.03,0,0,0,0-.01,0-.06-.01-.12-.02-.18-.03,0,0-.02,0-.03,0-.02,0-.03,0-.05,0-.13-.02-.25-.04-.38-.06-.14-.02-.29-.04-.43-.06,0,0,0,0,0,0,0,0,0,0,0,0-.22-.03-.44-.05-.67-.07-.07,0-.13-.01-.2-.02-.01,0-.02,0-.03,0-.07,0-.14-.01-.22-.02,0,0,0,0-.01,0-.07,0-.13-.01-.2-.02,0,0-.02,0-.03,0-.01,0-.03,0-.04,0-.14-.01-.28-.02-.42-.03-.15,0-.31-.02-.46-.02h0c-.07,0-.14,0-.2,0-.01,0-.02,0-.03,0-.07,0-.14,0-.2,0-.01,0-.02,0-.03,0-.07,0-.14,0-.2,0h-.03c-.07,0-.14,0-.21,0h-.03c-.08,0-.16,0-.24,0h-.04c-.51,0-1.01.01-1.51.04-.16,0-.32.02-.48.03-.09,0-.18.01-.27.02-.03,0-.05,0-.08,0,0,0,0,0,0,0-.02,0-.04,0-.07,0-.19.02-.37.03-.55.05-.02,0-.04,0-.05,0,0,0,0,0,0,0-.07,0-.14.02-.22.02,0,0,0,0,0,0-.07,0-.14.02-.21.03,0,0,0,0,0,0-.07,0-.14.02-.21.03,0,0,0,0,0,0-.07,0-.14.02-.21.03,0,0,0,0,0,0-.07.01-.14.02-.21.03,0,0,0,0,0,0-.07.01-.14.02-.2.03,0,0,0,0,0,0-.07.01-.13.02-.2.03,0,0,0,0,0,0-.07.01-.13.02-.2.04-.02,0-.04,0-.06.01-.18.03-.37.07-.54.11-.03,0-.06.01-.09.02-.1.02-.2.04-.29.07,0,0,0,0,0,0-.06.01-.12.03-.18.04,0,0,0,0,0,0-.06.01-.12.03-.18.05,0,0,0,0,0,0-.06.02-.12.03-.17.05,0,0,0,0,0,0-.06.02-.11.03-.17.05,0,0,0,0,0,0-.06.02-.11.03-.17.05,0,0,0,0,0,0-.05.02-.11.03-.16.05,0,0,0,0,0,0-.05.02-.11.03-.16.05,0,0,0,0,0,0-.05.02-.1.04-.15.05,0,0,0,0,0,0-.05.02-.1.04-.15.06,0,0,0,0,0,0-.05.02-.1.04-.15.06,0,0,0,0,0,0-.1.04-.19.08-.28.12,0,0,0,0,0,0-.04.02-.09.04-.13.06,0,0,0,0,0,0-.04.02-.09.04-.13.06,0,0,0,0,0,0-.04.02-.08.04-.12.06,0,0-.02,0-.03.01-.03.02-.07.03-.1.05,0,0,0,0,0,0-.04.02-.08.04-.12.06,0,0,0,0,0,0-.15.09-.29.18-.42.27,0,0-.01,0-.02.01-.15.11-.28.23-.39.35,0,0,0,0,0,0-.02.02-.04.05-.06.07,0,0,0,0,0,0-.23.27-.35.55-.35.83,0,.01,0,.03,0,.04v.21s0,.05,0,.07c0,.02,0,.04,0,.06v5.2c-20.86,12.19-37.4,27.81-44.56,36.03-.02.02-.04.04-.06.07-.27.31-.53.61-.77.9-.01.01-.02.03-.03.04-.25.3-.5.6-.72.87-2.89,3.79-5.05,7.55-6.49,11.17,0,.01-.01.03-.02.04-.39.97-.72,1.93-1,2.87-.02.08-.05.15-.07.23-.08.28-.16.56-.23.84-.03.11-.05.22-.08.33-.11.44-.21.88-.29,1.31-.03.16-.07.32-.1.48-.04.21-.07.43-.11.64-.03.2-.06.39-.08.59-.03.19-.05.38-.07.56-.04.35-.07.7-.09,1.04-.01.15-.02.3-.02.45-.01.24-.02.48-.02.72,0,.15,0,.31,0,.46,0,.29,0,.59.02.87,0,.07,0,.14,0,.21,0,.06,0,.13,0,.19h-.02s0,0,0,0h0s0,25.26,0,25.26v6.47h0s0,0,0,0l.04-.03c.31,5.05,2.41,9.43,6.24,12.72,0,0,.02.01.03.02.76.65,1.59,1.26,2.49,1.82.02.02.05.03.07.05.89.55,1.85,1.06,2.87,1.52.04.02.08.04.13.06.48.21.98.42,1.49.61.03.01.07.03.1.04.54.2,1.09.38,1.66.56.05.02.11.03.17.05.51.15,1.04.3,1.58.43.08.02.16.04.25.06.59.14,1.19.27,1.81.39.06.01.12.02.17.03.56.1,1.13.19,1.71.27.12.02.25.04.37.05.64.08,1.3.16,1.97.22.03,0,.07,0,.1,0,.63.05,1.28.09,1.93.12.15,0,.31.01.47.02.7.03,1.41.05,2.13.05h526.83c.73,0,1.43-.02,2.13-.04.16,0,.32-.01.47-.02.65-.03,1.29-.07,1.92-.12.04,0,.08,0,.12,0,.67-.06,1.32-.13,1.96-.22.13-.02.26-.04.39-.05.57-.08,1.13-.17,1.68-.27.07-.01.13-.02.2-.03.61-.12,1.21-.24,1.79-.38.09-.02.18-.05.28-.07.52-.13,1.04-.27,1.54-.42.07-.02.13-.04.2-.06.56-.17,1.11-.36,1.64-.55.05-.02.09-.04.14-.05.49-.19.97-.38,1.44-.59.05-.02.11-.05.16-.07,1.01-.45,1.95-.95,2.83-1.5.04-.02.08-.05.11-.07.88-.55,1.7-1.15,2.46-1.79.02-.02.04-.04.06-.05.76-.65,1.45-1.35,2.07-2.08,0,0,.02-.02.02-.03,2.5-2.96,3.89-6.56,4.13-10.59l.04.03h0v-3.54h0v-2.92h0v-25.26h0s-.02,0-.02,0Z" fill="#6e65b6" mix-blend-mode="multiply" opacity=".3"/>
        <g id="uuid-76b7d360-598b-44af-9585-8bd781ef56d2" data-name="g5721">
          <g id="uuid-737ad877-4551-4dc8-9640-91c298aaa2c7" data-name="g3217">
            <path id="uuid-76533a7c-3bd2-49a2-87b8-02c2c0d5d050" data-name="path1078" d="m940.63,432.3c-42.34,0-83.65,35.69-98.03,51.45l-11.78-5.16v31.73l.04-.03c.68,11.17,10.13,19.08,27.74,19.08h526.83c17.62,0,27.07-7.91,27.74-19.08l.04.03v-31.73l-11.78,5.16c-14.38-15.75-55.69-51.45-98.03-51.45h-362.78Z" fill="#d5bfef"/>
            <path id="uuid-1f063ded-f627-4c37-b702-dd0905502cbc" data-name="path1094" d="m842.37,453.81c-1.12,1.27-2.09,2.43-2.86,3.41-16.46,22.23-9.25,43.31,19.09,43.31h526.83c28.34,0,35.55-21.07,19.09-43.31-.77-.98-1.74-2.14-2.86-3.41h-559.29Z" fill="#e7d4f4"/>
            <path id="uuid-aefdf72a-3be0-46aa-882f-7b93c2c29b10" data-name="rect1058" d="m940.63,400.57c-45.93,0-90.68,42.03-101.11,55.01-16.46,21.59-9.25,42.05,19.09,42.05h526.83c28.34,0,35.55-20.46,19.09-42.05-10.44-12.98-55.18-55.01-101.11-55.01h-362.78Z" fill="#fff"/>
            <path id="uuid-8faf20c9-a266-4b63-9ac0-6314d26e1e0d" data-name="path1089" d="m830.82,503.84v2.93c.39.43.78.84,1.19,1.24,4.71,4.55,10.93,7.15,18.44,7.15h543.12c7.52,0,13.73-2.6,18.44-7.15.41-.4.81-.82,1.2-1.25v-2.92c-.78,1.01-1.61,1.95-2.5,2.82-4.37,4.23-10.04,6.62-17.13,6.62h-543.12c-7.09,0-12.76-2.39-17.13-6.62-.89-.86-1.72-1.8-2.51-2.82h0Z" fill="#be93e0"/>
            <path id="uuid-73e2153e-7ec6-4c15-8bf4-0234c25df35e" data-name="path1100" d="m1002.8,403.49c-30.19,0-59.6,43.86-66.45,54.45-10.82,17.6-6.08,24.71,12.55,24.71h346.25c18.63,0,23.37-7.1,12.55-24.71-6.86-10.59-36.26-54.45-66.45-54.45h-238.43Z" fill="#b0d9fd"/>
            <path id="uuid-4c91d18a-145c-43f3-9661-889c9317082e" data-name="path2705" d="m972.52,416.16c-.55.43-1.09.87-1.63,1.31h302.26c-.54-.44-1.08-.88-1.63-1.31h-299Zm-8.04,6.99c-.46.44-.92.87-1.37,1.31h317.83c-.45-.44-.91-.87-1.37-1.31h-315.08Zm-6.85,6.99c-.4.44-.81.87-1.2,1.31h331.18c-.39-.44-.8-.87-1.2-1.31h-328.79Zm-6.08,6.99c-.36.44-.73.88-1.08,1.31h343.11c-.35-.43-.72-.87-1.08-1.31h-340.95Zm-5.52,6.99c-.34.45-.66.88-.98,1.31h353.96c-.32-.43-.64-.86-.98-1.31h-352Zm-5.07,6.99c-.3.43-.64.9-.92,1.31h363.98c-.28-.41-.62-.88-.92-1.31h-362.14Zm-4.7,6.99c-.27.44-.53.88-.78,1.31h373.1c-.25-.43-.51-.87-.78-1.31h-371.54Z" fill="#ccf4ff"/>
            <path id="uuid-9aaf13a0-6e9b-484f-a1fa-2c41d82768ff" data-name="path1114" d="m931.97,466.57c-4.23,11.34,1.71,16.08,16.93,16.08h346.25c15.22,0,21.16-4.74,16.93-16.08h-380.1Z" fill="#ccf4ff" fill-rule="evenodd"/>
            <path id="uuid-5043699f-2908-4afd-a99d-a93d11a67328" data-name="path1109" d="m1002.8,403.49c-30.19,0-59.6,43.86-66.45,54.45-5.26,8.56-6.83,14.64-4.93,18.62.88-2.91,2.52-6.31,4.93-10.23,6.86-10.59,36.26-54.45,66.45-54.45h238.43c30.19,0,59.6,43.86,66.45,54.45,2.41,3.92,4.04,7.31,4.93,10.23,1.91-3.98.34-10.06-4.93-18.62-6.86-10.59-36.26-54.45-66.45-54.45h-238.43Z" fill="#96b9fb"/>
            <g id="uuid-b242c676-1ee1-44e9-b1ce-db58c55ef5a8" data-name="g1158">
              <path id="uuid-990edcf8-562b-49b0-b74d-d706fe1302bf" data-name="rect1124" d="m886.86,454.99c10.62,0,19.17,2.88,19.17,6.46v5.12c0,3.58-8.55,6.46-19.17,6.46s-19.16-2.88-19.16-6.46v-5.12c0-3.58,8.55-6.46,19.16-6.46Z" fill="#7f52c4"/>
              <path id="uuid-d0c90ecf-f701-4117-8589-6f4af162c528" data-name="path1122" d="m916.43,449.31c0,9.95-13.24,18.02-29.57,18.02s-29.57-8.07-29.57-18.02,13.24-18.02,29.57-18.02,29.57,8.07,29.57,18.02Z" fill="#976dd4"/>
              <path id="uuid-568d2d3e-4345-4fc0-a0dc-24586a1669aa" data-name="ellipse1126" d="m857.32,448.51c-.02.27-.03.53-.03.8,0,9.95,13.24,18.02,29.57,18.02h0c16.33,0,29.57-8.07,29.57-18.02,0-.27-.01-.53-.03-.8-4.93,4.94-16.6,8.16-29.54,8.16-12.94,0-24.61-3.22-29.54-8.16h0Z" fill="#8358c8"/>
              <path id="uuid-67e01985-007f-4b7c-b401-42ee22bdbe8b" data-name="ellipse1133" d="m915.85,452.84c-4.2,7.29-15.87,12.19-28.99,12.19s-24.79-4.9-28.99-12.19c2.76,8.42,14.9,14.48,28.99,14.48s26.23-6.06,28.99-14.49Z" fill="#925de4"/>
              <path id="uuid-cb62b5ea-0796-4441-8cbf-2b122b7a6c41" data-name="ellipse1140" d="m886.58,431.29c-16.22.09-29.29,8.13-29.29,18.02,0,.53.04,1.07.12,1.6,1.36-9.3,14.14-16.42,29.45-16.42,15.31,0,28.09,7.12,29.45,16.42.08-.53.12-1.06.12-1.6,0-9.95-13.24-18.02-29.57-18.02-.09,0-.19,0-.28,0h0Z" fill="#b0d9fd"/>
              <path id="uuid-11aa40c5-ef7f-4454-b9c3-70088ff17c47" data-name="path1147" d="m909.9,442.23c-.57,2.12-4,3.05-7.67,2.06h0c-3.67-.98-6.18-3.5-5.61-5.62h0c.57-2.12,4-3.05,7.67-2.06h0c3.67.98,6.18,3.5,5.61,5.62h0Z" fill="#b0d9fd"/>
              <path id="uuid-553ab178-cee6-4aff-9283-213f99ed377d" data-name="ellipse1149" d="m899.28,446.46c-.31,1.15-2.18,1.66-4.17,1.12s-3.36-1.9-3.05-3.06c.31-1.15,2.18-1.66,4.17-1.12s3.36,1.9,3.05,3.06Z" fill="#b0d9fd"/>
            </g>
            <g id="uuid-96b42107-a65c-4a40-b62c-05dc9c50aa04" data-name="g1174">
              <path id="uuid-21a97871-2706-496a-98aa-6d281985ebfc" data-name="rect1160" d="m1354.79,454.99c-10.62,0-19.17,2.88-19.17,6.46v5.12c0,3.58,8.55,6.46,19.17,6.46s19.16-2.88,19.16-6.46v-5.12c0-3.58-8.55-6.46-19.16-6.46Z" fill="#7f52c4"/>
              <path id="uuid-f0d06297-b5b3-4886-b2f5-538924712335" data-name="ellipse1162" d="m1325.23,449.31c0,9.95,13.24,18.02,29.57,18.02s29.57-8.07,29.57-18.02-13.24-18.02-29.57-18.02-29.57,8.07-29.57,18.02Z" fill="#976dd4"/>
              <path id="uuid-55a41507-2add-4fb3-9be0-863b7f68c9bb" data-name="path1164" d="m1384.33,448.51c.02.27.03.53.03.8,0,9.95-13.24,18.02-29.57,18.02h0c-16.33,0-29.57-8.07-29.57-18.02,0-.27.01-.53.03-.8,4.93,4.94,16.6,8.16,29.54,8.16,12.94,0,24.61-3.22,29.54-8.16h0Z" fill="#8358c8"/>
              <path id="uuid-785bbb9d-5e30-45a6-92ca-fc5cc0059018" data-name="path1166" d="m1325.8,452.84c4.2,7.29,15.87,12.19,28.99,12.19s24.79-4.9,28.99-12.19c-2.76,8.42-14.9,14.48-28.99,14.48s-26.23-6.06-28.99-14.49Z" fill="#925de4"/>
              <path id="uuid-c502490b-7d5f-412f-81bf-fb927f825b23" data-name="path1168" d="m1355.07,431.29c16.22.09,29.29,8.13,29.29,18.02,0,.53-.04,1.07-.12,1.6-1.36-9.3-14.14-16.42-29.45-16.42-15.31,0-28.09,7.12-29.45,16.42-.08-.53-.12-1.06-.12-1.6,0-9.95,13.24-18.02,29.57-18.02.09,0,.19,0,.28,0h0Z" fill="#b0d9fd"/>
              <path id="uuid-96edf4d0-d46e-454f-95a1-8d2e200fdba4" data-name="ellipse1170" d="m1331.76,442.23c.57,2.12,4,3.05,7.67,2.06h0c3.67-.98,6.18-3.5,5.61-5.62h0c-.57-2.12-4-3.05-7.67-2.06h0c-3.67.98-6.18,3.5-5.61,5.62h0Z" fill="#b0d9fd"/>
              <path id="uuid-9011f0b6-172a-4c27-a621-0da636fb71af" data-name="ellipse1172" d="m1342.38,446.46c.31,1.15,2.18,1.66,4.17,1.12,1.99-.53,3.36-1.9,3.05-3.06-.31-1.15-2.18-1.66-4.17-1.12s-3.36,1.9-3.05,3.06Z" fill="#b0d9fd"/>
            </g>
            <g id="uuid-895700de-5f6c-4ef1-88fe-1de5b0f013cc" data-name="g1484">
              <g id="uuid-85cdcab4-becf-42a5-91f5-ce637acd9292" data-name="g1350">
                <g id="uuid-562aca1c-b7a4-4f7d-9e23-2949682c6151" data-name="g1268">
                  <path id="uuid-fa3e9f51-de34-4126-8f00-efadc020e4bf" data-name="ellipse1203" d="m885.65,412.13v7.04s0,.02,0,.03c0,.01,0,.02,0,.03h0c.07,1.72,4.37,3.09,9.65,3.09s9.58-1.37,9.65-3.08h0s0-.03,0-.04,0-.03,0-.04v-7.03h-19.3Z" fill="#7f52c4"/>
                  <path id="uuid-6f81d1b3-6e9f-4119-8bb4-7741abad2a46" data-name="path1218" d="m885.65,412.13v7.04s0,.02,0,.03c0,.01,0,.02,0,.03h0c.06,1.37,2.82,2.56,6.83,2.96v-4.5c4.27-.32,8.6-1.77,11.02-3.96.08-.56-3.21-1.25-3.82-1.46-.15-.05-.31-.1-.46-.15h-13.56Z" fill="#6f42bc" fill-rule="evenodd"/>
                  <path id="uuid-624e8348-2138-498a-8315-0b915a7f376d" data-name="path1210" d="m885.78,411.84c-.09.19-.13.38-.13.57,0,1.9,4.32,3.44,9.65,3.44h0c5.33,0,9.65-1.54,9.65-3.44h0c0-.19-.04-.38-.13-.57h-19.03Z" fill="#a97ae0"/>
                  <path id="uuid-27a8d092-cde1-4fb9-8c57-ae8c1d55d1e4" data-name="path1201" d="m904.95,412.09c0,1.73-4.32,3.13-9.65,3.13h0c-5.33,0-9.65-1.4-9.65-3.13h0c0-1.73,4.32-3.13,9.65-3.13h0c5.33,0,9.65,1.4,9.65,3.13h0Z" fill="#976dd4"/>
                  <path id="uuid-5d82450e-c461-405b-a296-43792f0b2562" data-name="path1246" d="m895.26,408.96c-4.73,0-8.75,1.12-9.49,2.64,1.56-1.12,5-1.84,8.8-1.84,5.33,0,9.65,1.4,9.65,3.13,0,.16-.04.33-.12.49v7.11c.54-.39.83-.81.85-1.24h0s0-.03,0-.04,0-.03,0-.04v-7.03s0-.03,0-.04c0-1.73-4.32-3.13-9.65-3.13h-.04Z" fill="#b0d9fd"/>
                  <path id="uuid-955d5cdb-ceba-4494-9527-133118ca909f" data-name="path1257" d="m903.09,411.75c-.21.73-1.6,1.09-3.12.8h0c-1.52-.29-2.58-1.11-2.38-1.85h0c.21-.73,1.61-1.09,3.12-.8h0c1.52.29,2.58,1.11,2.38,1.85h0Z" fill="#b0d9fd"/>
                  <path id="uuid-a0f632ea-9e2e-471e-a936-242d962c4f19" data-name="ellipse1259" d="m898.58,413.2c-.1.34-.76.51-1.47.38-.72-.14-1.22-.53-1.12-.87s.76-.51,1.47-.38c.72.14,1.22.52,1.12.87Z" fill="#b0d9fd"/>
                </g>
                <g id="uuid-47832dcc-92a5-4cda-b10e-c04bf0041290" data-name="g1284">
                  <path id="uuid-93b35d06-3a65-473b-876d-ad07fd605f59" data-name="path1270" d="m928.95,412.13v7.04s0,.02,0,.03c0,.01,0,.02,0,.03h0c.07,1.72,4.37,3.09,9.65,3.09s9.58-1.37,9.65-3.08h0s0-.03,0-.04c0-.01,0-.03,0-.04v-7.03h-19.3Z" fill="#7f52c4"/>
                  <path id="uuid-7f2eeb11-b453-42bd-b1c2-59ed0713269b" data-name="path1272" d="m928.95,412.13v7.04s0,.02,0,.03c0,.01,0,.02,0,.03h0c.06,1.37,2.82,2.56,6.83,2.96v-4.5c4.27-.32,8.6-1.77,11.02-3.96.08-.56-3.21-1.25-3.82-1.46-.15-.05-.31-.1-.46-.15h-13.56Z" fill="#6f42bc" fill-rule="evenodd"/>
                  <path id="uuid-b77b39b6-6cc2-42fe-8156-246b2e269aa1" data-name="path1274" d="m929.08,411.84c-.09.19-.13.38-.13.57,0,1.9,4.32,3.44,9.65,3.44h0c5.33,0,9.65-1.54,9.65-3.44h0c0-.19-.04-.38-.13-.57h-19.03Z" fill="#a97ae0"/>
                  <path id="uuid-1d5024e0-aabb-4fce-a86e-c047986c4f8e" data-name="path1276" d="m948.25,412.09c0,1.73-4.32,3.13-9.65,3.13h0c-5.33,0-9.65-1.4-9.65-3.13h0c0-1.73,4.32-3.13,9.65-3.13h0c5.33,0,9.65,1.4,9.65,3.13h0Z" fill="#976dd4"/>
                  <path id="uuid-c9739e02-55a0-42e9-8d9a-ea18cb6be430" data-name="path1278" d="m938.56,408.96c-4.73,0-8.75,1.12-9.49,2.64,1.56-1.12,5-1.84,8.8-1.84,5.33,0,9.65,1.4,9.65,3.13,0,.16-.04.33-.12.49v7.11c.54-.39.83-.81.85-1.24h0s0-.03,0-.04c0-.01,0-.03,0-.04v-7.03s0-.03,0-.04c0-1.73-4.32-3.13-9.65-3.13h-.04Z" fill="#b0d9fd"/>
                  <path id="uuid-17fc7c4b-2ec2-42ae-9d69-281aab8b63c4" data-name="ellipse1280" d="m946.4,411.75c-.21.73-1.61,1.09-3.12.8h0c-1.52-.29-2.58-1.11-2.38-1.85h0c.21-.73,1.61-1.09,3.12-.8h0c1.52.29,2.58,1.11,2.38,1.85h0Z" fill="#b0d9fd"/>
                  <path id="uuid-b5c96167-4ad0-4fba-b662-8d6177d2aebc" data-name="ellipse1282" d="m941.89,413.2c-.1.34-.76.51-1.47.38-.72-.14-1.22-.53-1.12-.87.1-.34.76-.51,1.47-.38.72.14,1.22.52,1.12.87Z" fill="#b0d9fd"/>
                </g>
                <g id="uuid-595a86c8-eb17-4da8-9d59-90917ab13b0a" data-name="g1300">
                  <path id="uuid-26d665a8-cf00-4d80-88d4-437bde458729" data-name="path1286" d="m957.45,400.01v6.23s0,.02,0,.02c0,0,0,.02,0,.03h0c.06,1.52,3.87,2.74,8.54,2.74s8.47-1.22,8.53-2.73h0s0-.02,0-.04,0-.02,0-.03v-6.22h-17.07Z" fill="#7f52c4"/>
                  <path id="uuid-dbc37e8f-08a2-4dff-bfd5-d2704db83e54" data-name="path1288" d="m957.45,400.01v6.23s0,.02,0,.02c0,0,0,.02,0,.03h0c.05,1.21,2.49,2.27,6.04,2.62v-3.98c3.78-.29,7.61-1.56,9.75-3.5.07-.5-2.84-1.11-3.38-1.29-.14-.05-.27-.09-.41-.13h-12Z" fill="#6f42bc" fill-rule="evenodd"/>
                  <path id="uuid-30e4dd07-f56a-47d7-9426-91f39f4c96dd" data-name="path1290" d="m957.57,399.75c-.08.17-.12.33-.12.5,0,1.68,3.82,3.05,8.54,3.05h0c4.71,0,8.54-1.36,8.54-3.05h0c0-.17-.04-.34-.12-.5h-16.84Z" fill="#a97ae0"/>
                  <path id="uuid-2b673298-e4af-427a-9e1d-1e9db4c2e506" data-name="path1292" d="m974.52,399.97c0,1.53-3.82,2.77-8.54,2.77h0c-4.71,0-8.54-1.24-8.54-2.77h0c0-1.53,3.82-2.77,8.54-2.77h0c4.71,0,8.54,1.24,8.54,2.77h0Z" fill="#976dd4"/>
                  <path id="uuid-22c5dba5-253e-4ba7-8e19-91767f6f0469" data-name="path1294" d="m965.95,397.21c-4.19,0-7.74.99-8.39,2.33,1.38-.99,4.43-1.63,7.78-1.63,4.71,0,8.53,1.24,8.54,2.76,0,.14-.04.29-.11.43v6.29c.48-.35.73-.72.75-1.1h0s0-.03,0-.04,0-.02,0-.03v-6.22s0-.03,0-.04c0-1.53-3.82-2.77-8.54-2.77h-.04Z" fill="#b0d9fd"/>
                  <path id="uuid-99c70141-e8a8-4248-bada-8fad984d8204" data-name="ellipse1296" d="m972.88,399.68c-.18.65-1.42.96-2.76.71h0c-1.34-.25-2.28-.99-2.1-1.63h0c.18-.65,1.42-.96,2.76-.71h0c1.34.25,2.28.99,2.1,1.63h0Z" fill="#b0d9fd"/>
                  <path id="uuid-ba7fca89-a2b2-4869-9f44-45d9b86f1a03" data-name="ellipse1298" d="m968.89,400.96c-.09.31-.67.46-1.3.33-.63-.12-1.08-.46-.99-.77.09-.3.67-.45,1.3-.33.63.12,1.08.46.99.77Z" fill="#b0d9fd"/>
                </g>
                <g id="uuid-bc111eb7-3866-474b-a224-ad0726dfd56d" data-name="g1316">
                  <path id="uuid-e029d524-2062-4c99-8af7-2d2600baef8e" data-name="path1302" d="m914.23,400.01v6.23s0,.02,0,.02c0,0,0,.02,0,.03h0c.06,1.52,3.87,2.74,8.54,2.74s8.47-1.22,8.53-2.73h0s0-.02,0-.04,0-.02,0-.03v-6.22h-17.07Z" fill="#7f52c4"/>
                  <path id="uuid-5c5172e5-6025-4c2e-8ac6-2f714a1e1ecb" data-name="path1304" d="m914.23,400.01v6.23s0,.02,0,.02c0,0,0,.02,0,.03h0c.05,1.21,2.49,2.27,6.04,2.62v-3.98c3.78-.29,7.61-1.56,9.75-3.5.07-.5-2.84-1.11-3.38-1.29-.14-.05-.27-.09-.41-.13h-12Z" fill="#6f42bc" fill-rule="evenodd"/>
                  <path id="uuid-5a92c4f6-20ee-4d95-a753-b8a70f49c90e" data-name="path1306" d="m914.35,399.75c-.08.17-.12.33-.12.5,0,1.68,3.82,3.05,8.54,3.05h0c4.71,0,8.54-1.36,8.54-3.05h0c0-.17-.04-.34-.12-.5h-16.84Z" fill="#a97ae0"/>
                  <path id="uuid-698d9534-9be3-4009-8ab8-da9c9275f1f9" data-name="path1308" d="m931.3,399.97c0,1.53-3.82,2.77-8.54,2.77h0c-4.71,0-8.54-1.24-8.54-2.77h0c0-1.53,3.82-2.77,8.54-2.77h0c4.71,0,8.54,1.24,8.54,2.77h0Z" fill="#976dd4"/>
                  <path id="uuid-2768a333-f02a-4cd5-ab6e-40f11622ba99" data-name="path1310" d="m922.73,397.21c-4.19,0-7.74.99-8.39,2.33,1.38-.99,4.43-1.63,7.78-1.63,4.71,0,8.53,1.24,8.54,2.76,0,.14-.04.29-.11.43v6.29c.48-.35.73-.72.75-1.1h0s0-.03,0-.04,0-.02,0-.03v-6.22s0-.03,0-.04c0-1.53-3.82-2.77-8.54-2.77h-.04Z" fill="#b0d9fd"/>
                  <path id="uuid-8fd0fc78-cb62-4bc6-8a46-871e54c5e88f" data-name="ellipse1312" d="m929.66,399.68c-.18.65-1.42.96-2.76.71h0c-1.34-.25-2.28-.99-2.1-1.63h0c.18-.65,1.42-.96,2.76-.71h0c1.34.25,2.28.99,2.1,1.63h0Z" fill="#b0d9fd"/>
                  <path id="uuid-d524216c-6e9d-40a9-907d-e45609af7ee4" data-name="ellipse1314" d="m925.67,400.96c-.09.31-.67.46-1.3.33-.63-.12-1.08-.46-.99-.77.09-.3.67-.45,1.3-.33.63.12,1.08.46.99.77Z" fill="#b0d9fd"/>
                </g>
              </g>
              <g id="uuid-ffed56f1-0a26-46f8-b9b3-c2f95fc22e18" data-name="g1416">
                <g id="uuid-cb23c50d-10fa-4a81-b7cf-5b2c9e37fc3e" data-name="g1366">
                  <path id="uuid-929ae4e1-6dd7-4316-8ea5-1412966d8938" data-name="path1352" d="m1357.66,412.13v7.04s0,.02,0,.03c0,.01,0,.02,0,.03h0c-.07,1.72-4.37,3.09-9.65,3.09s-9.58-1.37-9.65-3.08h0s0-.03,0-.04,0-.03,0-.04v-7.03h19.3Z" fill="#7f52c4"/>
                  <path id="uuid-2db91b58-ad1a-4fe2-93d4-6578eababd61" data-name="path1354" d="m1357.66,412.13v7.04s0,.02,0,.03c0,.01,0,.02,0,.03h0c-.06,1.37-2.82,2.56-6.83,2.96v-4.5c-4.27-.32-8.6-1.77-11.02-3.96-.08-.56,3.21-1.25,3.82-1.46.15-.05.31-.1.46-.15h13.56Z" fill="#6f42bc" fill-rule="evenodd"/>
                  <path id="uuid-e1b3126b-4f44-4105-8857-2a489233fc4b" data-name="path1356" d="m1357.53,411.84c.09.19.13.38.13.57,0,1.9-4.32,3.44-9.65,3.44h0c-5.33,0-9.65-1.54-9.65-3.44h0c0-.19.04-.38.13-.57h19.03Z" fill="#a97ae0"/>
                  <path id="uuid-f8c19aa9-b595-4974-a340-2c6a5bd1271e" data-name="path1358" d="m1338.36,412.09c0,1.73,4.32,3.13,9.65,3.13h0c5.33,0,9.65-1.4,9.65-3.13h0c0-1.73-4.32-3.13-9.65-3.13h0c-5.33,0-9.65,1.4-9.65,3.13h0Z" fill="#976dd4"/>
                  <path id="uuid-2d27a366-7e29-4b2a-9d2a-be5a7ecd4601" data-name="path1360" d="m1348.05,408.96c4.73,0,8.75,1.12,9.49,2.64-1.56-1.12-5-1.84-8.8-1.84-5.33,0-9.65,1.4-9.65,3.13,0,.16.04.33.12.49v7.11c-.54-.39-.83-.81-.85-1.24h0s0-.03,0-.04,0-.03,0-.04v-7.03s0-.03,0-.04c0-1.73,4.32-3.13,9.65-3.13h.04Z" fill="#b0d9fd"/>
                  <path id="uuid-4d37b5d6-be5c-405d-84e1-ca6a1c3e2480" data-name="ellipse1362" d="m1340.22,411.75c.21.73,1.61,1.09,3.12.8h0c1.52-.29,2.58-1.11,2.38-1.85h0c-.21-.73-1.6-1.09-3.12-.8h0c-1.52.29-2.58,1.11-2.38,1.85h0Z" fill="#b0d9fd"/>
                  <path id="uuid-cc14d0f1-8464-4380-9928-0a8897918861" data-name="ellipse1364" d="m1344.73,413.2c.1.34.76.51,1.47.38.72-.14,1.22-.53,1.12-.87s-.76-.51-1.47-.38c-.72.14-1.22.52-1.12.87Z" fill="#b0d9fd"/>
                </g>
                <g id="uuid-ce87ca18-b751-4cf9-a57b-9c8ead71d390" data-name="g1382">
                  <path id="uuid-47a7633f-f19b-425b-8d44-a5eacb1cee06" data-name="path1368" d="m1314.35,412.13v7.04s0,.02,0,.03c0,.01,0,.02,0,.03h0c-.07,1.72-4.37,3.09-9.65,3.09s-9.58-1.37-9.65-3.08h0s0-.03,0-.04c0-.01,0-.03,0-.04v-7.03h19.3Z" fill="#7f52c4"/>
                  <path id="uuid-ea2bec88-039b-43cb-b19e-422bf5a275f9" data-name="path1370" d="m1314.35,412.13v7.04s0,.02,0,.03c0,.01,0,.02,0,.03h0c-.06,1.37-2.82,2.56-6.83,2.96v-4.5c-4.27-.32-8.6-1.77-11.02-3.96-.08-.56,3.21-1.25,3.82-1.46.15-.05.31-.1.46-.15h13.56Z" fill="#6f42bc" fill-rule="evenodd"/>
                  <path id="uuid-5f779e28-cdae-4cbe-bb36-7ab3d8d7f1df" data-name="path1372" d="m1314.22,411.84c.09.19.13.38.13.57,0,1.9-4.32,3.44-9.65,3.44h0c-5.33,0-9.65-1.54-9.65-3.44h0c0-.19.04-.38.13-.57h19.03Z" fill="#a97ae0"/>
                  <path id="uuid-3eb584ad-a4de-4550-8871-dc38727bd8ff" data-name="path1374" d="m1295.05,412.09c0,1.73,4.32,3.13,9.65,3.13h0c5.33,0,9.65-1.4,9.65-3.13h0c0-1.73-4.32-3.13-9.65-3.13h0c-5.33,0-9.65,1.4-9.65,3.13h0Z" fill="#976dd4"/>
                  <path id="uuid-d709f704-c0d2-4fc7-be7c-979342505638" data-name="path1376" d="m1304.74,408.96c4.73,0,8.75,1.12,9.49,2.64-1.56-1.12-5-1.84-8.8-1.84-5.33,0-9.65,1.4-9.65,3.13,0,.16.04.33.12.49v7.11c-.54-.39-.83-.81-.85-1.24h0s0-.03,0-.04c0-.01,0-.03,0-.04v-7.03s0-.03,0-.04c0-1.73,4.32-3.13,9.65-3.13h.04Z" fill="#b0d9fd"/>
                  <path id="uuid-f0f14dae-57d1-4d5f-ad9f-2271cca9a950" data-name="ellipse1378" d="m1296.91,411.75c.21.73,1.61,1.09,3.12.8h0c1.52-.29,2.58-1.11,2.38-1.85h0c-.21-.73-1.6-1.09-3.12-.8h0c-1.52.29-2.58,1.11-2.38,1.85h0Z" fill="#b0d9fd"/>
                  <path id="uuid-fa8155f1-00d3-49e7-8378-36598b06adf4" data-name="ellipse1380" d="m1301.42,413.2c.1.34.76.51,1.47.38.72-.14,1.22-.53,1.12-.87s-.76-.51-1.47-.38c-.72.14-1.22.52-1.12.87Z" fill="#b0d9fd"/>
                </g>
                <g id="uuid-e0200fe2-ef82-4a8e-bafe-c85eb8d512c8" data-name="g1398">
                  <path id="uuid-4af83df2-0011-42b3-9d43-ec1e086c21b3" data-name="path1384" d="m1285.86,400.01v6.23s0,.02,0,.02c0,0,0,.02,0,.03h0c-.06,1.52-3.87,2.74-8.54,2.74s-8.47-1.22-8.53-2.73h0s0-.02,0-.04c0-.01,0-.02,0-.03v-6.22h17.07Z" fill="#7f52c4"/>
                  <path id="uuid-48840734-c2b2-47c8-8e5e-abdbe7c9c7f7" data-name="path1386" d="m1285.86,400.01v6.23s0,.02,0,.02c0,0,0,.02,0,.03h0c-.05,1.21-2.49,2.27-6.04,2.62v-3.98c-3.78-.29-7.61-1.56-9.75-3.5-.07-.5,2.84-1.11,3.38-1.29.14-.05.27-.09.41-.13h12Z" fill="#6f42bc" fill-rule="evenodd"/>
                  <path id="uuid-c7b75b6f-d7ea-45cc-9a1c-7cb2817e704f" data-name="path1388" d="m1285.74,399.75c.08.17.12.33.12.5,0,1.68-3.82,3.05-8.54,3.05h0c-4.71,0-8.54-1.36-8.54-3.05h0c0-.17.04-.34.12-.5h16.84Z" fill="#a97ae0"/>
                  <path id="uuid-84d8e920-f841-4283-a53f-ad15135b44a2" data-name="path1390" d="m1268.78,399.97c0,1.53,3.82,2.77,8.54,2.77h0c4.71,0,8.54-1.24,8.54-2.77h0c0-1.53-3.82-2.77-8.54-2.77h0c-4.71,0-8.54,1.24-8.54,2.77h0Z" fill="#976dd4"/>
                  <path id="uuid-e69a5bce-1223-455b-8afc-4c8c56c96783" data-name="path1392" d="m1277.36,397.21c4.19,0,7.74.99,8.39,2.33-1.38-.99-4.43-1.63-7.78-1.63-4.71,0-8.53,1.24-8.54,2.76,0,.14.04.29.11.43v6.29c-.48-.35-.73-.72-.75-1.1h0s0-.03,0-.04c0-.01,0-.02,0-.03v-6.22s0-.03,0-.04c0-1.53,3.82-2.77,8.54-2.77h.04Z" fill="#b0d9fd"/>
                  <path id="uuid-e7dd7389-2881-4b8b-8000-c0e23c6683d1" data-name="ellipse1394" d="m1270.43,399.68c.18.65,1.42.96,2.76.71h0c1.34-.25,2.28-.99,2.1-1.63h0c-.18-.65-1.42-.96-2.76-.71h0c-1.34.25-2.28.99-2.1,1.63h0Z" fill="#b0d9fd"/>
                  <path id="uuid-b0002988-a8ff-4f9b-b738-ba707559c8e0" data-name="ellipse1396" d="m1274.42,400.96c.09.31.67.46,1.3.33.63-.12,1.08-.46.99-.77-.09-.3-.67-.45-1.3-.33-.63.12-1.08.46-.99.77Z" fill="#b0d9fd"/>
                </g>
                <g id="uuid-b6b84cbb-a8dc-4380-9d39-2032f93a2ea9" data-name="g1414">
                  <path id="uuid-93d5e608-e481-4ff3-bb8f-814a0f98e9ee" data-name="path1400" d="m1329.08,400.01v6.23s0,.02,0,.02c0,0,0,.02,0,.03h0c-.06,1.52-3.87,2.74-8.54,2.74s-8.47-1.22-8.53-2.73h0s0-.02,0-.04,0-.02,0-.03v-6.22h17.07Z" fill="#7f52c4"/>
                  <path id="uuid-1053f7da-a1b0-4978-a042-8f088c7bd23b" data-name="path1402" d="m1329.08,400.01v6.23s0,.02,0,.02c0,0,0,.02,0,.03h0c-.05,1.21-2.49,2.27-6.04,2.62v-3.98c-3.78-.29-7.61-1.56-9.75-3.5-.07-.5,2.84-1.11,3.38-1.29.14-.05.27-.09.41-.13h12Z" fill="#6f42bc" fill-rule="evenodd"/>
                  <path id="uuid-afedd9a2-41e5-4625-9aa9-0e0adf82e02a" data-name="path1404" d="m1328.96,399.75c.08.17.12.33.12.5,0,1.68-3.82,3.05-8.54,3.05h0c-4.71,0-8.54-1.36-8.54-3.05h0c0-.17.04-.34.12-.5h16.84Z" fill="#a97ae0"/>
                  <path id="uuid-b0a2c71b-edc1-4e87-9332-e842b89e00aa" data-name="path1406" d="m1312,399.97c0,1.53,3.82,2.77,8.54,2.77h0c4.71,0,8.54-1.24,8.54-2.77h0c0-1.53-3.82-2.77-8.54-2.77h0c-4.71,0-8.54,1.24-8.54,2.77h0Z" fill="#976dd4"/>
                  <path id="uuid-f8ef584a-9b61-4fff-b1b0-3115946294f0" data-name="path1408" d="m1320.58,397.21c4.19,0,7.74.99,8.39,2.33-1.38-.99-4.43-1.63-7.78-1.63-4.71,0-8.53,1.24-8.54,2.76,0,.14.04.29.11.43v6.29c-.48-.35-.73-.72-.75-1.1h0s0-.03,0-.04,0-.02,0-.03v-6.22s0-.03,0-.04c0-1.53,3.82-2.77,8.54-2.77h.04Z" fill="#b0d9fd"/>
                  <path id="uuid-a302c9dd-9334-462c-a542-2dc92b7f942a" data-name="ellipse1410" d="m1313.65,399.68c.18.65,1.42.96,2.76.71h0c1.34-.25,2.28-.99,2.1-1.63h0c-.18-.65-1.42-.96-2.76-.71h0c-1.34.25-2.28.99-2.1,1.63h0Z" fill="#b0d9fd"/>
                  <path id="uuid-6e9b1f1c-5720-4819-a38c-2f39c8c4e76b" data-name="ellipse1412" d="m1317.64,400.96c.09.31.67.46,1.3.33.63-.12,1.08-.46.99-.77-.09-.3-.67-.45-1.3-.33-.63.12-1.08.46-.99.77Z" fill="#b0d9fd"/>
                </g>
              </g>
            </g>
            <g id="uuid-de0f274c-bc11-42a3-b9ff-15f9544d9b7b" data-name="g1536">
              <g id="uuid-ff9b6a05-9d18-4f37-9f12-b29246c60bb5" data-name="g1522">
                <path id="uuid-8a84fc6c-1da8-4cd5-9d90-54d8df481f63" data-name="path1486" d="m864.08,481.18c-1.7,0-3.46,1.38-3.91,3.09,0,0,0,0,0,0-.46,1.7.56,3.09,2.26,3.09,1.7,0,3.46-1.38,3.91-3.09.46-1.71-.55-3.09-2.26-3.09h0Zm10.32,0c-1.71,0-3.46,1.38-3.91,3.09,0,0,0,0,0,0-.46,1.7.56,3.09,2.26,3.09,1.7,0,3.46-1.38,3.91-3.09.46-1.71-.55-3.09-2.26-3.09h0Zm10.32,0c-1.71,0-3.46,1.38-3.91,3.09,0,0,0,0,0,0-.46,1.7.56,3.09,2.26,3.09,1.7,0,3.46-1.38,3.91-3.09.46-1.71-.55-3.09-2.26-3.09h0Zm10.32,0c-1.7,0-3.46,1.38-3.91,3.09-.46,1.7.55,3.09,2.26,3.09,1.7,0,3.46-1.38,3.91-3.09.46-1.71-.55-3.09-2.26-3.09h0Z" fill="#d5bfef"/>
                <path id="uuid-df0b4736-a483-4152-94d2-e98612c54d96" data-name="path1515" d="m864.08,481.18c-1.7,0-3.46,1.38-3.91,3.09h0c-.26.97-.05,1.88.57,2.46-.05-.36-.02-.74.09-1.13.46-1.71,2.21-3.09,3.91-3.09h0c.67,0,1.27.22,1.69.62-.15-1.18-1.08-1.95-2.35-1.95Zm10.32,0c-1.7,0-3.46,1.38-3.91,3.09h0c-.26.97-.05,1.88.57,2.46-.05-.36-.02-.74.09-1.13.46-1.71,2.21-3.09,3.91-3.09h0c.67,0,1.27.22,1.69.62-.15-1.18-1.08-1.95-2.35-1.95Zm10.32,0c-1.71,0-3.46,1.38-3.91,3.09h0c-.26.97-.05,1.88.57,2.46-.05-.36-.02-.74.09-1.13.46-1.71,2.21-3.09,3.91-3.09h0c.67,0,1.27.22,1.69.62-.15-1.18-1.08-1.95-2.35-1.95Zm10.32,0c-1.7,0-3.46,1.38-3.91,3.09-.26.97-.05,1.88.57,2.46-.05-.36-.02-.74.09-1.13.46-1.7,2.21-3.09,3.91-3.09.67,0,1.27.22,1.69.62-.15-1.18-1.08-1.95-2.35-1.95h0Z" fill="#e7d4f4"/>
              </g>
              <g id="uuid-e54308cf-8872-43b9-aa8e-bc78eecd294b" data-name="g1528">
                <path id="uuid-c3d17231-5d76-4df6-807b-79cbcccdeb5c" data-name="path1524" d="m1379.95,481.18c1.7,0,3.46,1.38,3.91,3.09h0c.46,1.71-.56,3.09-2.26,3.09-1.7,0-3.46-1.38-3.91-3.09-.46-1.71.55-3.09,2.26-3.09h0Zm-10.32,0c1.7,0,3.46,1.38,3.91,3.09h0c.46,1.71-.56,3.09-2.26,3.09-1.71,0-3.46-1.38-3.91-3.09-.46-1.71.55-3.09,2.26-3.09h0Zm-10.32,0c1.7,0,3.46,1.38,3.91,3.09h0c.46,1.71-.56,3.09-2.26,3.09-1.7,0-3.46-1.38-3.91-3.09-.46-1.71.55-3.09,2.26-3.09h0Zm-10.32,0c1.71,0,3.46,1.38,3.91,3.09.46,1.7-.55,3.09-2.26,3.09-1.7,0-3.46-1.38-3.91-3.09-.46-1.71.55-3.09,2.26-3.09h0Z" fill="#d5bfef"/>
                <path id="uuid-da35497f-d093-45e4-8d31-b9334ecedced" data-name="path1526" d="m1379.95,481.18c1.71,0,3.46,1.38,3.91,3.09h0c.26.97.05,1.88-.57,2.46.05-.36.02-.74-.09-1.13-.46-1.71-2.21-3.09-3.91-3.09h0c-.67,0-1.27.22-1.69.62.15-1.18,1.08-1.95,2.35-1.95Zm-10.32,0c1.71,0,3.46,1.38,3.91,3.09,0,0,0,0,0,0,.26.97.05,1.88-.57,2.46.05-.36.02-.74-.09-1.13-.46-1.71-2.21-3.09-3.91-3.09h0c-.67,0-1.27.22-1.69.62.15-1.18,1.08-1.95,2.35-1.95Zm-10.32,0c1.71,0,3.46,1.38,3.91,3.09t0,0c.26.97.05,1.88-.57,2.46.05-.36.02-.74-.09-1.13-.46-1.71-2.21-3.09-3.91-3.09h0c-.67,0-1.26.22-1.69.62.15-1.18,1.08-1.95,2.35-1.95Zm-10.32,0c1.7,0,3.46,1.38,3.91,3.09.26.97.05,1.88-.57,2.46.05-.36.02-.74-.09-1.13-.46-1.7-2.21-3.09-3.91-3.09-.67,0-1.27.22-1.69.62.15-1.18,1.08-1.95,2.35-1.95h0Z" fill="#e7d4f4"/>
              </g>
            </g>
            <path id="uuid-df66ce04-1911-4f18-a0b0-4844ebb0cda0" data-name="rect1542" d="m874.27,505.79h47.44c1.17,0,2.11.94,2.11,2.11v5.15c0,1.17-.94,2.11-2.11,2.11h-47.44c-1.17,0-2.11-.94-2.11-2.11v-5.15c0-1.17.94-2.11,2.11-2.11Z" fill="#be93e0"/>
            <path id="uuid-e68ce638-fc30-4beb-816b-354ac642e19a" data-name="rect1595" d="m877.76,505.79h7.84c1.17,0,2.11.94,2.11,2.11v5.15c0,1.17-.94,2.11-2.11,2.11h-7.84c-1.17,0-2.11-.94-2.11-2.11v-5.15c0-1.17.94-2.11,2.11-2.11Z" fill="#ab7cdf"/>
            <path id="uuid-2c1c0f01-ea3b-497f-9233-1e711b5b05e4" data-name="rect1569" d="m874.44,505.8c-1.26,0-2.28.94-2.28,2.11v2.36c0-1.17,1.02-2.11,2.28-2.11h49.38v-.26c0-1.17-.94-2.11-2.11-2.11h-47.27Z" fill="#ab7cdf"/>
            <path id="uuid-19062bfb-3a03-4b5c-b5cf-810b6cd44887" data-name="path1599" d="m872.18,513.28c.11,1.06,1,1.89,2.09,1.89h47.44c1.09,0,1.97-.82,2.09-1.89h-51.61Z" fill="#ab7cdf"/>
            <path id="uuid-e98e6482-fb72-4b52-a92a-fb08d6ee5ec6" data-name="rect1540" d="m874.27,505.79h7.84c1.17,0,2.11.94,2.11,2.11v5.15c0,1.17-.94,2.11-2.11,2.11h-7.84c-1.17,0-2.11-.94-2.11-2.11v-5.15c0-1.17.94-2.11,2.11-2.11Z" fill="#976dd4"/>
            <path id="uuid-75f57446-8511-450d-9e72-cdbf800c6790" data-name="rect1560" d="m876.49,518.58v1.28h-4.33v-1.28h4.33Z" fill="#976dd4"/>
            <path id="uuid-410e0afd-5477-4493-9b47-9f06c84b69b3" data-name="rect1562" d="m921.01,517.06v1.53h-1.53v1.28h1.53v1.53h1.28v-1.53h1.53v-1.28h-1.53v-1.53h-1.28Z" fill="#976dd4"/>
            <path id="uuid-0940a816-7519-41c9-ba0e-2349983996a2" data-name="rect1576" d="m874.27,505.8c-1.17,0-2.11.94-2.11,2.11v.26s.07,0,.1,0h9.4v7h.45c1.17,0,2.11-.94,2.11-2.11v-5.15c0-1.17-.94-2.11-2.11-2.11h-7.84Z" fill="#7f52c4"/>
          </g>
          <g id="uuid-828ef69d-2b49-4a3a-950f-0c51b70dcc09" data-name="g5450">
            <path id="uuid-b2465481-4f35-4038-9028-b55648554ab1" data-name="path5444" d="m1073.86,405.34c0,2.8.13,5.4.15,8.15.02,3.27-.9,6.22-.66,11.14h21.61c-.01-.09-.03-.17-.03-.24-.17-2.58-.77-3.29-2.54-4.25-1.95-1.06-1.53-3.09-2.54-4.99-.87-1.64-2.77-1.52-3.69-3.09-1.24-2.1-2.78-9.35-3.99-9.74-4.53-1.59-8.27.98-8.3,3.02h0Z" fill="#bdc4f1" fill-rule="evenodd"/>
            <path id="uuid-32f7d5c6-7120-4ee5-913a-19944e45afba" data-name="path5446" d="m1075.7,402.81c-1.14.7-1.83,1.66-1.84,2.53,0,2.8.13,5.4.15,8.15.02,3.27-.9,6.22-.66,11.14h14.74c-.67-1.36-1.31-.34-2.86-2.05-.78-.86-.65-2.31-1.38-3.21-.1-.13-.23-.24-.37-.34.74-1.41,1.42-2.85,2.23-4.24.42-.72.92-1.32,1.17-1.9-.28-.22-.53-.48-.73-.82-.12-.21-.25-.48-.38-.77-.82.62-2.17,1.87-2.31,1.83-.08-.02.23-2.39.25-2.54.19-1.5-.09-1.87-1.02-3.06-.3-.39-.62-1.01-1.02-1.3-1.21-.36-3.38-.18-4.91-.3-.26-.95-.54-1.89-.9-2.8-.04-.1-.1-.2-.17-.3Zm3.82,4.66c.11,0,.21,0,.32,0,.75.56.99,1.4.79,3.28-.08.82-.23,1.68-.13,2.5.19,1.62.63,3.22,1.02,4.83-.44-.2-.85-.42-1.16-.73-.83-.83-2.63-7.93-3.14-9.77.8,0,1.55-.11,2.29-.11Zm-4.43,2.75c.85,3.25,2,6.62,3,9.76.04.24.4,1.11.32,1.29-.37.9-2.03-.19-2.45-.55-1.12-.99-.72-3.05-.76-4.38,0-.28-.5-5.56-.35-5.8.07-.11.16-.22.24-.33Zm12,6.92c-.13-.02-.33.15-.4.19,0,.14-.11,1.86-.12,2.09,0,.28-.02.71.14.98.2.34,2.56.62,2.77.29.06-.11-2.26-3.54-2.39-3.56Zm-6.33,2.92c.48.27,1.13.45,1.24,1.05.11.54.25,1.66-.48,1.71-.08,0-.31.05-.36-.02-.32-.43-.65-2.28-.4-2.73Z" fill="#aab0e4" fill-rule="evenodd"/>
            <path id="uuid-23d77cb8-943a-4a6e-bc85-4bebdee03380" data-name="path5448" d="m1079.33,401.83c-2.44,0-4.36,1.15-5.12,2.4,1.27-1.52,4.23-2.68,7.64-1.48,1.21.39,2.75,7.64,3.99,9.74.92,1.56,2.82,1.45,3.69,3.09,1.02,1.9.59,3.93,2.54,4.99,1.72.94,2.33,1.64,2.52,4.06h.35c-.01-.09-.03-.17-.03-.24-.17-2.58-.77-3.29-2.54-4.25-1.95-1.06-1.53-3.09-2.54-4.99-.87-1.64-2.77-1.52-3.69-3.09-1.24-2.1-2.78-9.35-3.99-9.74-.99-.35-1.94-.5-2.83-.5Z" fill="#dee5f9" fill-rule="evenodd"/>
          </g>
          <g id="uuid-57a24f92-3e01-4647-99fd-1a0a186a7c1d" data-name="g5347">
            <path id="uuid-d2c58758-e9c9-480c-a2f2-ff325e07180d" data-name="path5341" d="m1052.54,414.67c4.03-7.05,13.33-3.09,12.25,3.77,6.62-6.46,17.5-1.7,17.5,6.03h-58.31c-.72-7.95,5.46-9.08,8.78-8.11-.01-12.74,16.72-14.99,19.78-1.69h0Z" fill="#fff" fill-rule="evenodd"/>
            <path id="uuid-8f4a8b20-de6d-4541-8efb-ae828d47f8e3" data-name="path5343" d="m1048.46,418.53c2.44-4.27,8.08-1.87,7.42,2.28,4.01-3.92,10.6-1.03,10.6,3.65h-35.33c-.44-4.82,3.31-5.5,5.32-4.91,0-7.72,10.13-9.08,11.99-1.02h0Z" fill="#def3ff" fill-rule="evenodd"/>
            <path id="uuid-5c7a59a9-fcbd-47a5-a94d-567d46aa3549" data-name="path5345" d="m1045.21,421.3c1.3-2.27,4.3-.99,3.95,1.22,2.13-2.08,5.64-.55,5.64,1.94h-18.8c-.23-2.56,1.76-2.93,2.83-2.61,0-4.11,5.39-4.83,6.38-.54h0Z" fill="#cee8fd" fill-rule="evenodd"/>
          </g>
          <g id="uuid-328a8b81-3ad2-405d-8f3c-def1701212d3" data-name="g5434">
            <path id="uuid-9359aea9-0bbe-4547-876a-1ad2e12f907e" data-name="path5428" d="m1248.17,376.97c0,6.88-.33,13.28-.36,20.04-.04,8.05,2.2,15.29,1.61,27.38h-53.13c.04-.22.07-.43.08-.58.42-6.34,1.89-8.08,6.24-10.45,4.79-2.61,3.76-7.59,6.25-12.27,2.15-4.03,6.81-3.75,9.08-7.59,3.05-5.16,6.84-22.99,9.81-23.95,11.14-3.91,20.34,2.42,20.42,7.42h0Z" fill="#bdc4f1" fill-rule="evenodd"/>
            <path id="uuid-527c7c96-18d9-4987-9553-900d69b9d7a9" data-name="path5430" d="m1243.65,370.74c2.8,1.72,4.5,4.09,4.53,6.23,0,6.88-.33,13.28-.36,20.04-.04,8.05,2.2,15.29,1.62,27.38h-36.24c1.65-3.35,3.23-.83,7.02-5.03,1.91-2.11,1.6-5.69,3.39-7.9.25-.31.56-.59.9-.84-1.83-3.47-3.49-7.02-5.49-10.42-1.04-1.76-2.26-3.25-2.88-4.68.68-.54,1.3-1.18,1.81-2.03.3-.51.61-1.17.92-1.9,2.01,1.53,5.33,4.6,5.68,4.49.19-.06-.58-5.87-.63-6.25-.48-3.68.23-4.61,2.51-7.52.75-.95,1.52-2.49,2.51-3.2,2.97-.88,8.3-.45,12.08-.75.65-2.33,1.32-4.66,2.21-6.9.1-.24.25-.49.41-.73Zm-9.4,11.46c-.26,0-.53,0-.79,0-1.85,1.37-2.42,3.44-1.95,8.06.21,2.01.57,4.13.33,6.16-.47,3.98-1.55,7.93-2.51,11.87,1.08-.49,2.09-1.03,2.85-1.79,2.04-2.04,6.46-19.51,7.72-24.03-1.97-.01-3.8-.26-5.64-.28Zm10.88,6.77c-2.09,8-4.91,16.27-7.38,24.01-.1.6-.97,2.72-.78,3.18.91,2.21,5-.46,6.01-1.36,2.76-2.44,1.76-7.5,1.88-10.77.02-.7,1.24-13.68.87-14.26-.18-.28-.4-.53-.6-.8Zm-29.5,17.02c.32-.04.81.37.97.47.02.34.28,4.56.29,5.15.01.7.04,1.76-.34,2.42-.48.83-6.3,1.53-6.8.71-.16-.26,5.55-8.71,5.87-8.75Zm15.58,7.17c-1.17.65-2.77,1.1-3.06,2.57-.26,1.34-.62,4.08,1.19,4.2.19.01.76.12.89-.05.79-1.06,1.6-5.61.97-6.71Z" fill="#aab0e4" fill-rule="evenodd"/>
            <path id="uuid-523c38e3-ba59-4b68-943c-f6952835e07d" data-name="path5432" d="m1234.71,368.33c6,0,10.72,2.82,12.59,5.91-3.12-3.73-10.41-6.58-18.8-3.64-2.97.95-6.77,18.78-9.81,23.95-2.27,3.84-6.93,3.56-9.08,7.59-2.5,4.68-1.46,9.66-6.25,12.27-4.24,2.31-5.74,4.03-6.2,9.99h-.86c.04-.22.07-.43.08-.58.42-6.34,1.89-8.08,6.24-10.45,4.79-2.61,3.76-7.59,6.25-12.27,2.15-4.03,6.81-3.75,9.08-7.59,3.05-5.16,6.84-22.99,9.81-23.95,2.44-.86,4.78-1.22,6.96-1.22Z" fill="#dee5f9" fill-rule="evenodd"/>
          </g>
          <g id="uuid-e234edf5-164e-4dc0-8017-3d1cb4ae4e6c" data-name="g5331">
            <path id="uuid-446b7e29-661f-48ab-8f40-ce34ac340a54" data-name="path5302" d="m1210.68,415.12c-6.75-11.81-22.33-5.17-20.52,6.32-11.09-10.82-29.31-2.84-29.31,10.1h97.68c1.2-13.31-9.15-15.2-14.71-13.59.02-21.34-28.01-25.11-33.14-2.83h0Z" fill="#fff" fill-rule="evenodd"/>
            <path id="uuid-ae194529-3ce3-4ff2-9f9b-05be936dd0b2" data-name="path5308" d="m1217.5,421.59c-4.09-7.16-13.53-3.13-12.43,3.83-6.72-6.56-17.76-1.72-17.76,6.12h59.19c.73-8.07-5.54-9.21-8.92-8.23.01-12.93-16.97-15.21-20.08-1.71h0Z" fill="#def3ff" fill-rule="evenodd"/>
            <path id="uuid-b00699d5-3504-4380-ac46-e22c5c9d80db" data-name="path5310" d="m1222.95,426.24c-2.18-3.81-7.2-1.67-6.62,2.04-3.58-3.49-9.45-.92-9.45,3.26h31.5c.39-4.29-2.95-4.9-4.74-4.38,0-6.88-9.03-8.1-10.69-.91h0Z" fill="#cee8fd" fill-rule="evenodd"/>
          </g>
          <g id="uuid-63e6ea60-1907-42a3-a6b3-21e134393972" data-name="g5426">
            <path id="uuid-55f4db17-3060-4ace-a69f-41a3938f1801" data-name="path5391" d="m1004.22,398.03c0,6.88.33,13.28.36,20.04.04,8.05-2.2,15.29-1.61,27.38h53.13c-.04-.22-.07-.43-.08-.58-.42-6.34-1.89-8.08-6.24-10.45-4.79-2.61-3.76-7.59-6.25-12.27-2.15-4.03-6.81-3.75-9.08-7.59-3.05-5.16-6.84-22.99-9.81-23.95-11.14-3.91-20.34,2.42-20.42,7.42h0Z" fill="#bdc4f1" fill-rule="evenodd"/>
            <path id="uuid-6f4d1c09-ed05-43df-a28b-5ae5c9db237d" data-name="path5399" d="m1008.74,391.8c-2.8,1.72-4.5,4.09-4.53,6.23,0,6.88.33,13.28.36,20.04.04,8.05-2.2,15.29-1.62,27.38h36.24c-1.65-3.35-3.23-.83-7.02-5.03-1.91-2.11-1.6-5.69-3.39-7.9-.25-.31-.56-.59-.9-.84,1.83-3.47,3.49-7.02,5.49-10.42,1.04-1.76,2.26-3.25,2.88-4.68-.68-.54-1.3-1.18-1.81-2.03-.3-.51-.61-1.17-.92-1.9-2.01,1.53-5.33,4.6-5.68,4.49-.19-.06.58-5.87.63-6.25.48-3.68-.23-4.61-2.51-7.52-.75-.95-1.52-2.49-2.51-3.2-2.97-.88-8.3-.45-12.08-.75-.65-2.33-1.32-4.66-2.21-6.89-.1-.24-.25-.49-.41-.73Zm9.4,11.46c.26,0,.53,0,.79,0,1.85,1.37,2.42,3.44,1.95,8.06-.21,2.01-.56,4.13-.32,6.16.47,3.98,1.55,7.93,2.51,11.87-1.08-.49-2.09-1.03-2.85-1.79-2.04-2.04-6.46-19.51-7.72-24.03,1.97-.01,3.8-.26,5.64-.28Zm-10.88,6.77c2.09,8,4.91,16.27,7.38,24.01.1.6.97,2.72.78,3.18-.91,2.21-5-.46-6.01-1.36-2.76-2.44-1.76-7.5-1.88-10.77-.02-.7-1.24-13.68-.86-14.26.18-.28.4-.53.6-.8Zm29.5,17.02c-.32-.04-.81.37-.97.47-.02.34-.28,4.56-.29,5.15-.01.7-.04,1.76.34,2.42.48.82,6.31,1.53,6.8.71.16-.26-5.55-8.71-5.87-8.75Zm-15.58,7.17c1.17.65,2.77,1.1,3.06,2.57.26,1.34.62,4.08-1.19,4.2-.19.01-.76.12-.89-.05-.79-1.06-1.6-5.61-.97-6.71Z" fill="#aab0e4" fill-rule="evenodd"/>
            <path id="uuid-9276b92a-9e73-4e01-89b5-4333200779d1" data-name="path5418" d="m1017.68,389.39c-6,0-10.72,2.82-12.59,5.91,3.12-3.73,10.41-6.58,18.8-3.64,2.97.95,6.77,18.78,9.81,23.95,2.27,3.84,6.93,3.56,9.08,7.59,2.5,4.68,1.46,9.66,6.25,12.27,4.24,2.31,5.74,4.03,6.2,9.99h.86c-.04-.22-.07-.43-.08-.58-.42-6.34-1.89-8.08-6.24-10.45-4.79-2.61-3.76-7.59-6.25-12.27-2.15-4.03-6.81-3.75-9.08-7.59-3.05-5.16-6.84-22.99-9.81-23.95-2.44-.86-4.78-1.22-6.96-1.22Z" fill="#dee5f9" fill-rule="evenodd"/>
          </g>
          <g id="uuid-f6169f88-0fcc-4ceb-9453-ed6fc8e24270" data-name="g5339">
            <path id="uuid-389632d3-3392-47e4-a0cf-af3b283ed2ea" data-name="path5333" d="m1009.92,436.11c6.75-11.81,22.33-5.17,20.52,6.32,11.09-10.82,29.31-2.84,29.31,10.1h-97.68c-1.2-13.31,9.15-15.2,14.71-13.59-.02-21.34,28.01-25.11,33.14-2.83h0Z" fill="#fff" fill-rule="evenodd"/>
            <path id="uuid-98b2ef15-4c1a-41df-b46e-369282a90a88" data-name="path5335" d="m1003.1,442.57c4.09-7.16,13.53-3.13,12.43,3.83,6.72-6.56,17.76-1.72,17.76,6.12h-59.19c-.73-8.07,5.54-9.21,8.92-8.23-.01-12.93,16.97-15.21,20.08-1.71h0Z" fill="#def3ff" fill-rule="evenodd"/>
            <path id="uuid-fe607c37-5dc5-4e30-8a46-e86d7fb4114c" data-name="path5337" d="m997.65,447.23c2.18-3.81,7.2-1.67,6.62,2.04,3.58-3.49,9.45-.92,9.45,3.26h-31.5c-.39-4.29,2.95-4.9,4.74-4.38,0-6.88,9.03-8.1,10.69-.91h0Z" fill="#cee8fd" fill-rule="evenodd"/>
          </g>
          <g id="uuid-2018824f-d250-4478-bec1-e63794cf8359" data-name="g5442">
            <path id="uuid-d0b3f46e-3cdc-4dc1-a86e-c2662d264d71" data-name="path5436" d="m1252.98,427.49c0,3.72-.18,7.18-.2,10.83-.02,4.35,1.19,8.26.87,14.8h-28.71c.02-.12.04-.23.04-.31.23-3.43,1.02-4.37,3.37-5.65,2.59-1.41,2.03-4.1,3.38-6.63,1.16-2.18,3.68-2.02,4.91-4.1,1.65-2.79,3.7-12.42,5.3-12.94,6.02-2.11,10.99,1.31,11.03,4.01h0Z" fill="#bdc4f1" fill-rule="evenodd"/>
            <path id="uuid-82f89723-7d65-4773-97fb-ceed75dfde12" data-name="path5438" d="m1250.53,424.12c1.51.93,2.43,2.21,2.45,3.37,0,3.72-.18,7.18-.2,10.83-.02,4.35,1.19,8.26.87,14.8h-19.58c.89-1.81,1.74-.45,3.8-2.72,1.03-1.14.86-3.07,1.83-4.27.14-.17.3-.32.49-.45-.99-1.88-1.89-3.79-2.97-5.63-.56-.95-1.22-1.76-1.56-2.53.37-.29.71-.64.98-1.1.16-.28.33-.63.5-1.03,1.09.83,2.88,2.48,3.07,2.43.1-.03-.31-3.17-.34-3.38-.26-1.99.12-2.49,1.35-4.06.4-.52.82-1.34,1.36-1.73,1.6-.48,4.48-.24,6.53-.4.35-1.26.71-2.52,1.2-3.73.05-.13.14-.26.22-.39Zm-5.08,6.19c-.14,0-.28,0-.43,0-1,.74-1.31,1.86-1.05,4.36.11,1.09.31,2.23.18,3.33-.25,2.15-.84,4.28-1.36,6.41.58-.26,1.13-.56,1.54-.97,1.1-1.1,3.49-10.54,4.17-12.98-1.07,0-2.05-.14-3.05-.15Zm5.88,3.66c-1.13,4.32-2.65,8.79-3.99,12.97-.05.32-.53,1.47-.42,1.72.49,1.2,2.7-.25,3.25-.73,1.49-1.32.95-4.05,1.01-5.82.01-.38.67-7.39.47-7.7-.1-.15-.21-.29-.32-.43Zm-15.94,9.2c.17-.02.44.2.53.25.01.18.15,2.47.16,2.78,0,.38.02.95-.18,1.31-.26.45-3.41.83-3.67.38-.09-.14,3-4.71,3.17-4.73Zm8.42,3.88c-.63.35-1.5.59-1.65,1.39-.14.72-.33,2.2.64,2.27.1,0,.41.06.48-.03.42-.57.87-3.03.53-3.63Z" fill="#aab0e4" fill-rule="evenodd"/>
            <path id="uuid-ffcc8398-9689-4aeb-9a3e-670bb4d6767f" data-name="path5440" d="m1245.7,422.82c3.24,0,5.79,1.53,6.8,3.19-1.69-2.01-5.63-3.56-10.16-1.97-1.61.51-3.66,10.15-5.3,12.94-1.23,2.08-3.75,1.92-4.91,4.1-1.35,2.53-.79,5.22-3.38,6.63-2.29,1.25-3.1,2.18-3.35,5.4h-.47c.02-.12.04-.23.04-.31.23-3.43,1.02-4.37,3.37-5.65,2.59-1.41,2.03-4.1,3.38-6.63,1.16-2.18,3.68-2.02,4.91-4.1,1.65-2.79,3.7-12.42,5.3-12.94,1.32-.46,2.58-.66,3.76-.66Z" fill="#dee5f9" fill-rule="evenodd"/>
          </g>
          <g id="uuid-d3f04575-ff4f-4148-8b12-1a2616a99e20" data-name="g5355">
            <path id="uuid-e5c0dfee-20c5-4d06-acb2-5381ec088026" data-name="path5349" d="m1258.74,449.84c-4.03-7.05-13.33-3.08-12.25,3.77-6.62-6.46-17.5-1.7-17.5,6.03h58.31c.72-7.95-5.46-9.08-8.78-8.11.01-12.74-16.72-14.99-19.78-1.69h0Z" fill="#fff" fill-rule="evenodd"/>
            <path id="uuid-171a931a-70e7-47ee-a53a-45a489b1c98f" data-name="path5351" d="m1262.81,453.7c-2.44-4.27-8.08-1.87-7.42,2.28-4.01-3.92-10.6-1.03-10.6,3.65h35.33c.44-4.82-3.31-5.5-5.32-4.91,0-7.72-10.13-9.08-11.99-1.02h0Z" fill="#def3ff" fill-rule="evenodd"/>
            <path id="uuid-8fb4364c-03d9-452f-a54a-ac4d841e256d" data-name="path5353" d="m1266.06,456.48c-1.3-2.27-4.3-1-3.95,1.22-2.13-2.08-5.64-.55-5.64,1.94h18.8c.23-2.56-1.76-2.93-2.83-2.62,0-4.11-5.39-4.83-6.38-.54h0Z" fill="#cee8fd" fill-rule="evenodd"/>
          </g>
          <g id="uuid-7b66870a-352a-4a24-8b5d-2dc091c4687a" data-name="g5379">
            <path id="uuid-1cc35565-11b4-49f5-a864-ec8d1b3067b8" data-name="path5373" d="m1122.31,442.69c4.03-7.05,13.33-3.09,12.25,3.77,6.62-6.46,17.5-1.7,17.5,6.03h-58.31c-.72-7.95,5.46-9.08,8.78-8.11-.01-12.74,16.72-14.99,19.78-1.69h0Z" fill="#fff" fill-rule="evenodd"/>
            <path id="uuid-eaa43fe5-8020-4ae0-89af-529ae95eec07" data-name="path5375" d="m1118.24,446.55c2.44-4.27,8.08-1.87,7.42,2.28,4.01-3.92,10.6-1.03,10.6,3.65h-35.33c-.44-4.82,3.31-5.5,5.32-4.91,0-7.72,10.13-9.08,11.99-1.02h0Z" fill="#def3ff" fill-rule="evenodd"/>
            <path id="uuid-a30ad342-fa19-4796-a1d7-a904a477ef44" data-name="path5377" d="m1114.99,449.33c1.3-2.27,4.3-1,3.95,1.22,2.13-2.08,5.64-.55,5.64,1.94h-18.8c-.23-2.56,1.76-2.93,2.83-2.62,0-4.11,5.39-4.83,6.38-.54h0Z" fill="#cee8fd" fill-rule="evenodd"/>
          </g>
        </g>
      </g>
      <g>
        <g>
          <path d="m1257.03,187.07c0,10.63-1.23,20.97-3.56,30.9-.19.82-1.88,2.17-2.08,2.99-.19.75,1.09.97.89,1.71v.02c-9.2,33.73-31.16,62.21-60.35,79.89-.72.44-3.7.02-4.42.45-.77.45.71,1.75-.07,2.18h-.02c-19.37,10.76-41.66,16.87-65.39,16.87s-47.76-6.61-67.64-18.14c-.82-.48-1.89-3.79-2.7-4.29-.66-.4-1.07,2.01-1.72,1.59-5.75-3.64-11.18-7.68-16.3-12.12-17.94-15.52-31.73-35.71-39.53-58.68-.21-.64,1.1-3.84.9-4.49-.24-.76-2,1.04-2.22.26v-.02c-3.76-12.39-5.78-25.52-5.78-39.13,0-14.73,2.35-28.9,6.72-42.16.2-.62,3.48.27,3.69-.34.19-.55-2.69-2.6-2.5-3.15,10.15-28.3,29.49-52.2,54.41-68.12.68-.44-.14,4.86.55,4.43,1.02-.63,3.54-6.97,4.57-7.57,19.87-11.51,42.97-18.1,67.57-18.1,7.16,0,14.21.55,21.08,1.65,1.18.17-1.82,2.25-.66,2.46,1.05.19,6.26-1.49,7.31-1.27,28.33,5.91,53.41,20.73,72.16,41.37,12.47,13.68,22.13,29.91,28.15,47.83.22.65-1.89,1.25-1.69,1.9.21.68,2.74,1.4,2.94,2.08,3.73,12.34,5.73,25.43,5.73,38.98Z" fill="url(#uuid-93dec21f-47f8-4b42-9a06-8a713b641afd)"/>
          <path d="m1191.89,301.5c-1.49.92-2.97,1.8-4.5,2.63h-.02c-26.28-7.11-50.53-18.27-71.37-32.67-16.98-11.71-31.71-25.56-43.44-41.09-.73-.99-1.47-1.98-2.2-2.99-2.22-3.08-4.33-6.24-6.32-9.46-7.16-11.57-12.76-24-16.8-36.91-.4-1.25-.77-2.5-1.12-3.75-3.31-11.42-5.38-23.17-6.24-35.02-.11-1.27-.18-2.52-.24-3.78-1.18-22.46,2.02-45.13,9.66-66.25,1.69-1.1,3.4-2.13,5.12-3.14-8.54,21.57-12.23,44.97-11.16,68.18.06,1.27.13,2.55.22,3.82.77,11.49,2.72,22.9,5.82,33.99.35,1.25.72,2.48,1.08,3.71h.02c3.97,13.04,9.57,25.58,16.76,37.22,1.87,3.03,3.86,5.99,5.93,8.91.72.99,1.45,1.98,2.18,2.96,11.92,15.85,27.01,29.93,44.49,41.74,21.06,14.25,45.59,25.17,72.12,31.91Z" fill="#8093db"/>
          <path d="m1149.71,53.83c-6.28,2.39-12.28,5.49-17.83,9.29-13.02,8.92-23.5,21.43-33.62,33.51-10.47,12.49-21.3,25.41-35.07,34.65-6.11,4.11-12.78,7.38-19.72,9.8-1.19.42-2.39.81-3.6,1.18-8.46,2.55-17.33,3.86-26.18,3.86-6.72,0-13.44-.75-20-2.28.39-1.17.77-2.33,1.19-3.49,14.74,3.34,30.33,2.64,44.75-1.87,1.21-.37,2.42-.77,3.62-1.21,6.3-2.28,12.32-5.29,17.9-9.03,13.33-8.94,23.98-21.67,34.28-33.95,10.3-12.28,20.93-24.97,34.37-34.19,4.19-2.86,8.63-5.38,13.26-7.45,2.24.33,4.44.73,6.65,1.19Z" fill="#8093db"/>
          <path d="m1251.27,147.01c-10.8-2-21.74-3.87-32.76-5.16-7.12-.84-14.27-1.45-21.41-1.67-21.15-.66-44.23,1.85-70.62,7.69-24.88,5.53-43.96,12.17-60.01,20.91-5.56,3.01-10.91,6.39-16.08,9.99h-.02c-1.07.73-2.09,1.47-3.14,2.24-9.75,7-18.88,14.73-27.51,22.33-8.94,7.9-18.12,16.31-25.65,26.02-.46-1.4-.92-2.79-1.32-4.22v-.02c7.4-9.11,16.08-17.06,24.55-24.53,9-7.93,18.56-16.03,28.81-23.32,1.05-.75,2.11-1.49,3.18-2.2,4.98-3.42,10.1-6.61,15.42-9.51,16.38-8.91,35.75-15.66,60.98-21.26,26.68-5.91,50.07-8.46,71.52-7.79,7.38.22,14.74.84,22.09,1.73,10.34,1.23,20.6,2.96,30.72,4.79.44,1.32.86,2.64,1.25,3.98Z" fill="#8093db"/>
          <path d="m1253.44,216.89c-.37,1.58-.77,3.14-1.19,4.7v.02c-16.05,7.71-34.13,11.26-51.91,9.75-8.8-.73-17.46-2.64-25.94-4.94-4.5-1.19-8.96-2.52-13.37-3.82-4.77-1.41-9.71-2.86-14.56-4.15-14.03-3.71-34.8-7.86-53.23-1.29-6.5,2.33-12.58,5.99-17.96,10.69-.94.81-1.84,1.65-2.72,2.52-8.52,8.37-15.04,19.44-18.36,31.88-2.22,8.3-2.97,16.93-2.37,25.47.35,5.12,1.19,10.19,2.52,15.15-1.49-.86-2.97-1.76-4.43-2.7-.9-4.06-1.49-8.19-1.76-12.32-.61-8.91.18-17.9,2.5-26.55,3.53-13.26,10.54-25.05,19.7-33.91.9-.86,1.8-1.69,2.74-2.48,5.67-4.92,12.06-8.74,18.91-11.18,19.39-6.92,40.91-2.64,55.4,1.19,4.9,1.29,9.86,2.75,14.65,4.17,4.94,1.47,9.95,2.96,15,4.26,7.77,2.04,15.66,3.71,23.59,4.37,18.18,1.52,36.65-2.39,52.79-10.82Z" fill="#8093db"/>
        </g>
        <g opacity=".27">
          <path d="m1257,185.99c0,10.63-1.23,20.97-3.56,30.9-.37,1.58-.77,3.14-1.19,4.7v.02c-9.2,33.73-31.16,62.21-60.35,79.89-1.49.92-2.97,1.8-4.5,2.63h-.02c-19.37,10.76-41.66,16.87-65.39,16.87s-47.76-6.61-67.64-18.14c-1.49-.86-2.97-1.76-4.43-2.7-5.75-3.64-11.18-7.68-16.3-12.12,4.48-1.21,9.92-.15,14.27-.2h.28c1.23-.02,2.44-.06,3.67-.13,5.95-.22,11.88-.81,17.76-1.73,16.08-2.5,31.77-7.42,46.42-14.52.37-.17.73-.35,1.1-.53.88-.44,1.78-.88,2.66-1.34,20.75-10.7,39.18-25.6,54.63-43.17.9-1.01,1.8-2.04,2.66-3.08,6.06-7.18,11.64-14.76,16.69-22.68,11.42-17.92,20.09-38.05,24.77-58.81.28-1.21.53-2.41.79-3.62,2.88-14.23,3.89-28.74,2.57-43.04,12.47,13.68,22.13,29.91,28.15,47.83.44,1.32.86,2.64,1.25,3.98,3.73,12.34,5.73,25.43,5.73,38.98Z" fill="#b4ddfd"/>
        </g>
      </g>
      <g id="uuid-f1eb3fd8-f321-45ee-9f9b-9e600311ff2b" data-name="g1367">
        <path id="uuid-96eb5e55-2518-48ee-873b-cd8fb52f0f9b" data-name="path5480" d="m1334.84,304.07c-3.38-13.55-20.73-11.45-19.78,3.86-11.07-21.39-39.03-11.86-35.27,13.15-7.54-12.5-27.95-5.74-27.95,10.28h154.11c3.75-27.91-23.23-32.16-31.14-25.74-4.09-22.03-37.03-20.75-39.97-1.55h0Z" fill="#fff" fill-rule="evenodd"/>
        <path id="uuid-e5904693-d9e4-42ab-8f8c-479d9ec76779" data-name="path1351" d="m1335.95,314.64c-2.07-8.3-12.7-7.02-12.12,2.36-6.78-13.11-23.91-7.26-21.61,8.06-4.62-7.66-17.13-3.52-17.13,6.3h94.43c2.3-17.1-14.23-19.71-19.08-15.77-2.51-13.5-22.69-12.71-24.49-.95h0Z" fill="#def3ff" fill-rule="evenodd"/>
        <path id="uuid-0e052edf-64cc-4c9c-8c20-62115d01072b" data-name="path1361" d="m1338.9,322.67c-1.08-4.31-6.6-3.64-6.29,1.23-3.52-6.81-12.42-3.77-11.22,4.18-2.4-3.98-8.9-1.83-8.9,3.27h49.05c1.19-8.88-7.39-10.24-9.91-8.19-1.3-7.01-11.79-6.6-12.72-.49h0Z" fill="#cee8fd" fill-rule="evenodd"/>
      </g>
      <g id="uuid-f6f15b40-a074-4d66-abe6-6aadff4ac91a" data-name="g3214">
        <path id="uuid-cec446c9-173d-4170-bdc8-a3445290dfcc" data-name="path3208" d="m938.12,134.53c-1.56-6.24-9.55-5.28-9.11,1.78-5.1-9.85-17.97-5.46-16.24,6.06-3.47-5.76-12.87-2.64-12.87,4.74h70.98c1.73-12.85-10.7-14.81-14.34-11.85-1.89-10.15-17.06-9.56-18.41-.71h0Z" fill="#fff" fill-rule="evenodd"/>
        <path id="uuid-060393a6-34cc-4009-aaeb-b6cf976ed912" data-name="path3210" d="m938.63,139.39c-.95-3.82-5.85-3.23-5.58,1.09-3.12-6.04-11.01-3.35-9.95,3.71-2.13-3.53-7.89-1.62-7.89,2.9h43.49c1.06-7.88-6.56-9.08-8.79-7.26-1.16-6.22-10.45-5.86-11.28-.44h0Z" fill="#def3ff" fill-rule="evenodd"/>
        <path id="uuid-f0ecbf35-3ef8-421c-8439-a073773014e5" data-name="path3212" d="m939.99,143.1c-.5-1.99-3.04-1.68-2.9.57-1.62-3.14-5.72-1.74-5.17,1.93-1.1-1.83-4.1-.84-4.1,1.51h22.59c.55-4.09-3.4-4.71-4.56-3.77-.6-3.23-5.43-3.04-5.86-.23h0Z" fill="#cee8fd" fill-rule="evenodd"/>
      </g>
      <g id="uuid-6ce7a6a7-a7e8-497c-a442-2ad11fc10c26" data-name="g3655">
        <path id="uuid-d0d7b225-f2aa-4b48-9fdb-57884fc5799e" data-name="path3649" d="m887.04,259.64c2.33-9.35,14.3-7.9,13.64,2.66,7.63-14.75,26.91-8.17,24.32,9.07,5.2-8.62,19.27-3.96,19.27,7.09h-106.27c-2.58-19.24,16.02-22.18,21.47-17.75,2.82-15.19,25.54-14.31,27.56-1.07h0Z" fill="#fff" fill-rule="evenodd"/>
        <path id="uuid-6d6264d0-3f5e-4201-8037-744fa8f6891c" data-name="path3651" d="m886.28,266.93c1.43-5.73,8.76-4.84,8.36,1.63,4.68-9.04,16.49-5.01,14.9,5.55,3.18-5.28,11.81-2.43,11.81,4.35h-65.12c-1.58-11.79,9.81-13.59,13.16-10.87,1.73-9.31,15.65-8.77,16.89-.66h0Z" fill="#def3ff" fill-rule="evenodd"/>
        <path id="uuid-a1f5b259-1641-46ea-be17-8e7f3cacc948" data-name="path3653" d="m884.24,272.47c.74-2.97,4.55-2.51,4.34.85,2.43-4.69,8.56-2.6,7.74,2.88,1.65-2.74,6.13-1.26,6.13,2.26h-33.82c-.82-6.12,5.1-7.06,6.83-5.65.9-4.83,8.13-4.55,8.77-.34h0Z" fill="#cee8fd" fill-rule="evenodd"/>
      </g>
    </g>
  </g>
</svg>